<?xml version="1.0" standalone="no"?>
<!DOCTYPE svg PUBLIC "-//W3C//DTD SVG 1.1//EN" "http://www.w3.org/Graphics/SVG/1.1/DTD/svg11.dtd" >
<svg xmlns="http://www.w3.org/2000/svg" xmlns:xlink="http://www.w3.org/1999/xlink" version="1.1">
<metadata>
Created by FontForge 20170731 at Thu Sep  2 01:27:10 2021
 By Aleksey,,,
Copyright 2014-2020 The Fira Code Project Authors (https://github.com/tonsky/FiraCode)
</metadata>
<defs>
<font id="FiraCode-SemiBold" horiz-adv-x="1200" >
  <font-face 
    font-family="Fira Code SemiBold"
    font-weight="600"
    font-stretch="normal"
    units-per-em="2000"
    panose-1="2 11 8 9 5 0 0 2 0 4"
    ascent="1600"
    descent="-400"
    x-height="1059"
    cap-height="1383"
    bbox="-3586 -1000 2386 2400"
    underline-thickness="50"
    underline-position="-175"
    unicode-range="U+000D-1F310"
  />
<missing-glyph 
d="M80 1478h1040v-1582h-1040v1582zM1012 0v1374h-822v-1374h822zM614 516q0 -22 -16 -35t-34 -13q-19 0 -34.5 13t-15.5 35v168q108 6 145 40.5t37 113.5q0 59 -23.5 98.5t-98.5 39.5q-31 0 -54.5 -5.5t-49.5 -16.5q-15 -6 -26 -6q-22 0 -35 13.5t-13 32.5q0 27 30.5 44.5
t73.5 25.5t82 8q86 0 134.5 -32.5t68 -85t19.5 -112.5q0 -105 -44.5 -163t-145.5 -73v-90zM494 340q0 30 20 50t50 20t50 -20t20 -50q0 -31 -20 -52.5t-50 -21.5t-50 21.5t-20 52.5z" />
    <glyph glyph-name=".notdef" 
d="M80 1478h1040v-1582h-1040v1582zM1012 0v1374h-822v-1374h822zM614 516q0 -22 -16 -35t-34 -13q-19 0 -34.5 13t-15.5 35v168q108 6 145 40.5t37 113.5q0 59 -23.5 98.5t-98.5 39.5q-31 0 -54.5 -5.5t-49.5 -16.5q-15 -6 -26 -6q-22 0 -35 13.5t-13 32.5q0 27 30.5 44.5
t73.5 25.5t82 8q86 0 134.5 -32.5t68 -85t19.5 -112.5q0 -105 -44.5 -163t-145.5 -73v-90zM494 340q0 30 20 50t50 20t50 -20t20 -50q0 -31 -20 -52.5t-50 -21.5t-50 21.5t-20 52.5z" />
    <glyph glyph-name=".null" horiz-adv-x="0" 
 />
    <glyph glyph-name="nonmarkingreturn" horiz-adv-x="666" 
 />
    <glyph glyph-name="CR" unicode="&#xd;" 
 />
    <glyph glyph-name="space" unicode=" " 
 />
    <glyph glyph-name="exclam" unicode="!" 
d="M740 1383l-32 -893h-218l-34 893h284zM599 299q70 0 117.5 -48.5t47.5 -115.5q0 -68 -47.5 -116.5t-117.5 -48.5q-68 0 -116 48.5t-48 116.5q0 67 48 115.5t116 48.5z" />
    <glyph glyph-name="quotedbl" unicode="&#x22;" 
d="M318 936l-36 546h268l-35 -546h-197zM683 936l-34 546h269l-36 -546h-199z" />
    <glyph glyph-name="numbersign" unicode="#" 
d="M959 900l-53 -413h138v-180h-163l-39 -307h-220l40 307h-225l-40 -307h-220l39 307h-133v180h157l55 413h-138v181h162l39 302h221l-42 -302h227l41 302h219l-41 -302h135v-181h-159zM460 487h225l55 413h-226z" />
    <glyph glyph-name="dollar" unicode="$" 
d="M696 1707v-299q121 -11 218 -54.5t166 -104.5l-136 -141q-56 48 -119 75t-129 33v-386q122 -41 213.5 -95.5t142 -135.5t50.5 -202q0 -105 -46.5 -194t-137 -148.5t-222.5 -76.5v-296h-152v290q-146 10 -258 65.5t-184 123.5l135 153q66 -60 140.5 -97.5t166.5 -44.5v465
q-203 66 -296.5 161t-93.5 236q0 99 46 179t133 131t211 64v299h152zM696 579v-400q151 33 151 193q0 68 -31.5 117t-119.5 90zM544 1213q-69 -11 -106.5 -52.5t-37.5 -101.5q0 -57 27 -96t117 -78v328z" />
    <glyph glyph-name="percent" unicode="%" 
d="M906 1426l147 -70l-775 -1408l-146 70zM895 477q-53 0 -77.5 -44t-24.5 -129q0 -80 25 -127t77 -47q53 0 76.5 44t23.5 130q0 90 -23.5 131.5t-76.5 41.5zM307 1271q-53 0 -77.5 -45t-24.5 -129q0 -80 25 -127t77 -47q53 0 76.5 44.5t23.5 129.5q0 90 -23.5 132t-76.5 42
zM307 1413q90 0 154.5 -40.5t98.5 -112t34 -163.5q0 -90 -34 -162t-98.5 -113t-154.5 -41q-91 0 -156 41t-99 113t-34 162t34 161.5t99 113t156 41.5zM895 620q90 0 154.5 -41t98.5 -112t34 -163q0 -91 -34 -162.5t-98.5 -112.5t-154.5 -41q-91 0 -156 41t-99 112.5
t-34 162.5q0 89 34 161t99 113.5t156 41.5z" />
    <glyph glyph-name="ampersand" unicode="&#x26;" 
d="M558 1411q111 0 199.5 -33t170.5 -121l-147 -127q-47 51 -91.5 74.5t-108.5 23.5q-83 0 -126.5 -47.5t-43.5 -125.5q0 -55 27 -100.5t74 -72t106 -26.5h535v-178h-149v-529q-37 -43 -96 -84t-145 -68t-204 -27q-157 0 -262 57.5t-158 154t-53 212.5q0 162 81.5 255.5
t226.5 126.5v8q-83 21 -135.5 62.5t-77.5 100.5t-25 133q0 93 51 167.5t141.5 119t209.5 44.5zM761 678h-163q-88 0 -144.5 -39.5t-83 -100.5t-26.5 -127q0 -69 25 -124.5t75 -87.5t127 -32q63 0 111.5 19.5t78.5 53.5v438z" />
    <glyph glyph-name="quotesingle" unicode="'" 
d="M501 936l-36 546h269l-36 -546h-197z" />
    <glyph glyph-name="parenleft" unicode="(" 
d="M487 700q0 -135 22 -246.5t69 -211t122.5 -197.5t183.5 -208l-150 -140q-160 135 -275.5 282t-178 323t-62.5 398t62.5 398.5t178 323t275.5 281.5l150 -140q-103 -105 -178 -203t-123.5 -198.5t-72 -213t-23.5 -248.5z" />
    <glyph glyph-name="parenright" unicode=")" 
d="M713 700q0 136 -23.5 248.5t-72 213t-123.5 198.5t-178 203l150 140q160 -135 275.5 -281.5t178 -323t62.5 -398.5t-62.5 -398t-178 -323t-275.5 -282l-150 140q108 110 183.5 208t122.5 197.5t69 211t22 246.5z" />
    <glyph glyph-name="asterisk" unicode="*" 
d="M473 1175l32 -387l-357 150l-78 -240l378 -89l-253 -295l203 -147l202 330l202 -330l203 147l-253 295l378 89l-78 240l-357 -150l32 387h-254z" />
    <glyph glyph-name="plus" unicode="+" 
d="M712 1134v-406h399v-208h-399v-406h-227v406h-396v208h396v406h227z" />
    <glyph glyph-name="comma" unicode="," 
d="M600 383q85 0 141.5 -57t56.5 -140q0 -51 -17 -102.5t-52 -131.5l-151 -342h-190l100 414q-40 27 -62 70t-22 93q0 83 56 139.5t140 56.5z" />
    <glyph glyph-name="hyphen" unicode="-" 
d="M178 521v210h844v-210h-844z" />
    <glyph glyph-name="period" unicode="." 
d="M393 177q0 56 27.5 103t74.5 75t104 28q58 0 105 -28t74.5 -75t27.5 -103t-27.5 -103.5t-74.5 -75.5t-105 -28q-57 0 -104 28t-74.5 75.5t-27.5 103.5z" />
    <glyph glyph-name="slash" unicode="/" 
d="M282 -218l-208 95l846 1752l206 -97z" />
    <glyph glyph-name="zero" unicode="0" 
d="M600 1413q239 0 361 -188.5t122 -530.5q0 -343 -122 -533.5t-361 -190.5q-240 0 -361.5 190.5t-121.5 533.5q0 342 121.5 530.5t361.5 188.5zM600 1217q-113 0 -170.5 -120.5t-57.5 -402.5q0 -156 11.5 -258.5t38.5 -161.5t70.5 -83.5t107.5 -24.5q76 0 126.5 51.5
t75.5 168t25 308.5q0 204 -21.5 318t-71 159.5t-134.5 45.5zM773 1172l68 -164l-394 -808l-81 134z" />
    <glyph glyph-name="one" unicode="1" 
d="M809 1383v-1343h-259v1077l-295 -183l-113 183l434 266h233zM1078 203v-203h-863v203h863z" />
    <glyph glyph-name="two" unicode="2" 
d="M547 1413q149 0 250.5 -53t153.5 -142.5t52 -196.5q0 -88 -30 -172t-97.5 -177t-178.5 -206.5t-274 -258.5h612l-29 -207h-885v193q143 138 247 243.5t174.5 186.5t112 145.5t59.5 120.5t18 112q0 95 -54.5 150t-152.5 55q-87 0 -147.5 -33.5t-118.5 -108.5l-166 126
q79 106 188 164.5t266 58.5z" />
    <glyph glyph-name="three" unicode="3" 
d="M542 1413q143 0 244.5 -47.5t155.5 -127.5t54 -176q0 -86 -35.5 -152.5t-98 -110.5t-144.5 -65q91 -11 163.5 -49.5t115.5 -110t43 -182.5q0 -117 -63 -213t-178.5 -152.5t-273.5 -56.5q-141 0 -261 50.5t-204 148.5l155 140q59 -69 135.5 -101t159.5 -32
q117 0 187.5 60.5t70.5 170.5q0 82 -31 131.5t-87.5 72t-133.5 22.5h-123l31 188h87q63 0 114.5 22t82 67t30.5 113q0 90 -63 140.5t-158 50.5q-86 0 -153 -32t-130 -91l-137 145q92 89 203.5 133t241.5 44z" />
    <glyph glyph-name="four" unicode="4" 
d="M500 1413l224 -85l-342 -821h707v-201h-981v180zM937 861v-861h-254l-3 475l34 386h223z" />
    <glyph glyph-name="five" unicode="5" 
d="M1010 1383l-31 -194h-520v-346q55 27 110 38t106 11q109 0 196.5 -53t138 -152.5t50.5 -238.5t-64.5 -247.5t-180.5 -169.5t-272 -61q-141 0 -250.5 52t-187.5 140l154 143q55 -64 123 -96.5t146 -32.5q119 0 189 72.5t70 198.5q0 95 -27 151t-74 81t-108 25
q-46 0 -90.5 -10.5t-95.5 -35.5h-185v725h803z" />
    <glyph glyph-name="six" unicode="6" 
d="M690 1413q88 0 160.5 -22.5t130.5 -63.5l-101 -164q-42 29 -90 43t-97 14q-90 0 -157.5 -59t-105 -169.5t-38.5 -266.5l2 -85q-1 -242 48.5 -359t175.5 -117q104 0 154 82t50 208q0 102 -23 161.5t-64 86t-99 26.5q-78 0 -146.5 -45.5t-116.5 -121.5l-2 182
q66 91 151 133t177 42q107 0 195 -51.5t140.5 -151.5t52.5 -247q0 -144 -59 -256.5t-165.5 -177t-246.5 -64.5q-134 0 -228 50.5t-153 141t-86.5 212t-27.5 261.5q0 232 68 407.5t195.5 273t305.5 97.5z" />
    <glyph glyph-name="seven" unicode="7" 
d="M504 -27l-249 77l524 1129h-622v204h889v-184z" />
    <glyph glyph-name="eight" unicode="8" 
d="M1044 1052q0 -98 -55.5 -169t-167.5 -134q138 -65 208 -160t70 -215q0 -109 -58.5 -201t-170.5 -147.5t-275 -55.5q-162 0 -272 54.5t-166 144.5t-56 198q0 122 71.5 210t191.5 141q-108 62 -158 134t-50 187q0 91 36 160.5t98.5 117t142.5 72t168 24.5q92 0 172.5 -23.5
t141.5 -69.5t95 -113t34 -155zM832 374q0 78 -34.5 124.5t-101.5 79.5t-166 68q-46 -26 -82.5 -63t-58 -87t-21.5 -117q0 -97 58.5 -156t173.5 -59q117 0 174.5 61.5t57.5 148.5zM409 1038q0 -60 27 -99.5t80 -68.5t131 -57q77 52 110.5 103.5t33.5 121.5q0 85 -48.5 137.5
t-141.5 52.5q-91 0 -141.5 -49t-50.5 -141z" />
    <glyph glyph-name="nine" unicode="9" 
d="M587 1413q163 0 271.5 -70t163 -195t54.5 -292q0 -202 -47.5 -352.5t-146 -257t-251 -179.5t-361.5 -121l-56 189q184 49 309 118t194 170t85 245l1 103q2 156 -16.5 255t-66 146t-134.5 47q-102 0 -158.5 -70.5t-56.5 -214.5q0 -138 56 -196.5t143 -58.5q81 0 144 39.5
t123 111.5l-3 -167q-69 -80 -149.5 -127.5t-188.5 -47.5q-111 0 -200 54.5t-141 153.5t-52 235q0 149 64.5 257t174 166.5t245.5 58.5z" />
    <glyph glyph-name="colon" unicode=":" 
d="M406 164q0 78 56 134.5t137 56.5q82 0 137.5 -56.5t55.5 -134.5q0 -80 -55.5 -137t-137.5 -57q-81 0 -137 57t-56 137zM406 866q0 53 26 96.5t70 69.5t97 26q82 0 137.5 -57t55.5 -135q0 -79 -55.5 -136t-137.5 -57q-81 0 -137 57t-56 136z" />
    <glyph glyph-name="semicolon" unicode=";" 
d="M599 372q83 0 138 -55.5t55 -135.5q0 -49 -17 -100.5t-51 -128.5l-147 -335h-186l98 406q-83 54 -83 159q0 80 56 135t137 55zM599 1058q82 0 137.5 -57t55.5 -135q0 -79 -55.5 -136t-137.5 -57q-81 0 -137 57t-56 136q0 53 26 96.5t70 69.5t97 26z" />
    <glyph glyph-name="less" unicode="&#x3c;" 
d="M931 1212l118 -187l-669 -398l669 -395l-125 -189l-772 481v206z" />
    <glyph glyph-name="equal" unicode="=" 
d="M1031 931v-211h-862v211h862zM1031 524v-210h-862v210h862z" />
    <glyph glyph-name="greater" unicode="&#x3e;" 
d="M271 1212l778 -481v-207l-772 -481l-125 183l670 401l-670 393z" />
    <glyph glyph-name="question" unicode="?" 
d="M594 1413q143 0 240 -45.5t147 -120t50 -159.5q0 -97 -37 -158t-91.5 -102.5t-109.5 -79t-92 -85t-37 -122.5v-51h-247v61q0 101 34.5 166t85 108t101 77t85 71.5t34.5 93.5q0 65 -53 100.5t-134 35.5q-69 0 -137.5 -32t-125.5 -99l-171 132q86 102 200 155.5t258 53.5z
M545 299q69 0 117 -48.5t48 -115.5q0 -68 -48 -116.5t-117 -48.5t-116.5 48.5t-47.5 116.5q0 67 47.5 115.5t116.5 48.5z" />
    <glyph glyph-name="at" unicode="@" 
d="M572 1413q146 0 251.5 -41t176.5 -116t112 -178.5t58.5 -228.5t17.5 -266q0 -252 -25 -423t-91 -258.5t-192 -87.5q-59 0 -102 25t-72 65.5t-44.5 90t-19.5 98.5h-8q-21 -48 -57.5 -91.5t-91 -70.5t-129.5 -27q-114 0 -183.5 60t-100.5 163.5t-31 233.5q0 252 103.5 391
t309.5 139q77 0 156 -19t161 -64v-597q0 -86 12.5 -134t35 -67.5t54.5 -19.5q35 0 55 36t29 109t11 182.5t2 254.5q0 152 -16.5 274.5t-61 209.5t-124.5 133.5t-206 46.5q-104 0 -213 -39.5t-229 -144.5l-115 135q136 119 275 172.5t292 53.5zM453 719q-99 0 -135 -82.5
t-36 -275.5q0 -93 10.5 -156.5t36.5 -95.5t71 -32q54 0 83.5 26t43.5 61.5t20 65.5v467q-23 12 -44.5 17t-49.5 5z" />
    <glyph glyph-name="A" unicode="A" 
d="M824 317h-455l-86 -317h-283l433 1383h336l432 -1383h-291zM418 522h355l-177 656z" />
    <glyph glyph-name="B" unicode="B" 
d="M836 408q0 84 -32.5 131t-89.5 66.5t-130 19.5h-170v-420h158q49 0 96 8t85.5 29.5t60.5 61.5t22 104zM783 1007q0 94 -58.5 135t-172.5 41h-138v-365h150q112 0 165.5 44.5t53.5 144.5zM1120 401q0 -117 -45.5 -195t-123.5 -123t-176.5 -64t-205.5 -19h-429v1383h404
q102 0 194 -17t164.5 -57.5t115 -108.5t42.5 -169q0 -85 -35.5 -146t-94 -98.5t-125.5 -54.5q75 -12 147.5 -46.5t120 -103t47.5 -181.5z" />
    <glyph glyph-name="C" unicode="C" 
d="M716 1413q144 0 244 -37.5t185 -107.5l-139 -165q-59 50 -129.5 76t-150.5 26q-96 0 -176.5 -51t-129 -163.5t-48.5 -296.5q0 -181 46.5 -293t127 -163.5t182.5 -51.5q108 0 179 38t128 83l129 -163q-73 -72 -182.5 -123t-265.5 -51q-181 0 -323 83t-223 244t-81 397
q0 232 83.5 392.5t226 243.5t317.5 83z" />
    <glyph glyph-name="D" unicode="D" 
d="M848 698q0 154 -28.5 249t-77.5 145.5t-111 68.5t-129 18h-102v-976h103q70 0 132.5 22t110.5 76.5t75 151t27 245.5zM1134 698q0 -170 -36.5 -291t-100.5 -200.5t-147.5 -124.5t-178 -63.5t-191.5 -18.5h-354v1383h330q129 0 250 -27.5t217.5 -100.5t153.5 -207.5
t57 -349.5z" />
    <glyph glyph-name="E" unicode="E" 
d="M483 1181v-379h490v-199h-490v-402h595v-201h-869v1383h862l-28 -202h-560z" />
    <glyph glyph-name="F" unicode="F" 
d="M511 1181v-407h505v-202h-505v-572h-274v1383h876l-29 -202h-573z" />
    <glyph glyph-name="G" unicode="G" 
d="M643 -30q-185 0 -315 82t-198.5 243t-68.5 399q0 177 49 311.5t134.5 225t198 136.5t238.5 46q146 0 245 -44t180 -120l-149 -153q-63 57 -125 84t-140 27q-72 0 -134.5 -28t-110 -89t-74.5 -159t-27 -239q0 -187 33.5 -300.5t101 -164t169.5 -50.5q57 0 107.5 13.5
t96.5 36.5v353h-208l-28 200h497v-677q-100 -59 -214.5 -96t-257.5 -37z" />
    <glyph glyph-name="H" unicode="H" 
d="M800 0v608h-400v-608h-274v1383h274v-550h400v550h274v-1383h-274z" />
    <glyph glyph-name="I" unicode="I" 
d="M1030 1383v-205h-293v-973h293v-205h-860v205h293v973h-293v205h860z" />
    <glyph glyph-name="J" unicode="J" 
d="M1033 1383v-899q0 -108 -32 -202t-97.5 -163t-164.5 -108t-233 -39q-122 0 -219.5 34t-184.5 95l108 171q77 -51 143.5 -70.5t138.5 -19.5q120 0 194 76.5t74 226.5v692h-420v206h693z" />
    <glyph glyph-name="K" unicode="K" 
d="M424 0h-274v1383h274v-1383zM434 738l436 645h294l-444 -625l482 -758h-323z" />
    <glyph glyph-name="L" unicode="L" 
d="M216 0v1383h274v-1161h610l-29 -222h-855z" />
    <glyph glyph-name="M" unicode="M" 
d="M1078 1383l78 -1383h-244l-26 637q-3 80 -3.5 148.5t0.5 130t3.5 118.5t6.5 112l-183 -906h-222l-196 906q4 -53 7 -111t4.5 -121t2 -133t-2.5 -146l-19 -635h-240l78 1383h304l178 -913l170 913h304z" />
    <glyph glyph-name="N" unicode="N" 
d="M730 0l-407 1149q5 -38 12 -98t13.5 -136t11 -161t4.5 -172v-582h-238v1383h348l403 -1147q-8 51 -17.5 135t-16.5 193t-7 232v587h238v-1383h-344z" />
    <glyph glyph-name="O" unicode="O" 
d="M1138 692q0 -216 -60.5 -378.5t-180.5 -253t-297 -90.5q-176 0 -296.5 88.5t-181 250t-60.5 382.5q0 216 60.5 378.5t181 253t296.5 90.5q177 0 297 -88t180.5 -250t60.5 -383zM856 692q0 262 -59.5 388.5t-196.5 126.5t-196.5 -127t-59.5 -389q0 -263 61 -388.5
t195 -125.5q139 0 197.5 127t58.5 388z" />
    <glyph glyph-name="P" unicode="P" 
d="M855 940q0 86 -32.5 139.5t-94.5 78.5t-149 25h-143v-501h151q82 0 141.5 25.5t93 82.5t33.5 150zM1139 942q0 -161 -68.5 -263.5t-191.5 -151t-284 -48.5h-159v-479h-274v1383h407q269 0 419.5 -109t150.5 -332z" />
    <glyph glyph-name="Q" unicode="Q" 
d="M1134 692q0 -140 -27 -260.5t-90.5 -212.5t-171.5 -149q104 -18 178.5 -54.5t126.5 -103t89 -174.5l-238 -84q-43 105 -94.5 176.5t-129 108t-197.5 36.5q-168 0 -280.5 87.5t-169 247.5t-56.5 381q0 216 59 378.5t176.5 253t294.5 90.5t294.5 -88t176.5 -250t59 -383z
M849 692q0 261 -53.5 387.5t-191.5 126.5q-137 0 -192 -127t-55 -388q0 -262 56.5 -388t190.5 -126q139 0 192 127t53 388z" />
    <glyph glyph-name="R" unicode="R" 
d="M1106 974q0 -100 -39.5 -175t-107 -126t-151.5 -79l379 -594h-314l-327 551h-126v-551h-273v1383h407q273 0 412.5 -101t139.5 -308zM822 974q0 112 -65 161.5t-196 49.5h-141v-440h150q121 0 186.5 54t65.5 175z" />
    <glyph glyph-name="S" unicode="S" 
d="M1114 397q0 -126 -64.5 -222t-185.5 -150.5t-293 -54.5q-180 0 -309 53.5t-216 137.5l144 161q75 -67 168 -105t209 -38q74 0 133.5 23t94 67.5t34.5 109.5q0 57 -24 96t-82.5 70t-162.5 62q-153 47 -252 103.5t-147 134t-48 183.5q0 119 66 205.5t178.5 133t251.5 46.5
q154 0 271 -44.5t206 -126.5l-137 -155q-71 61 -153.5 90t-167.5 29q-67 0 -119.5 -18t-82.5 -53t-30 -89q0 -49 27.5 -83.5t94.5 -64t184 -66.5q123 -37 215.5 -89t144.5 -134.5t52 -211.5z" />
    <glyph glyph-name="T" unicode="T" 
d="M734 1168v-1168h-273v1168h-404v215h1093l-28 -215h-388z" />
    <glyph glyph-name="U" unicode="U" 
d="M1095 1383v-925q0 -141 -57.5 -251.5t-167.5 -173.5t-271 -63q-162 0 -272 61.5t-166 171.5t-56 255v925h274v-848q0 -177 48 -265.5t172 -88.5q125 0 173 88.5t48 265.5v848h275z" />
    <glyph glyph-name="V" unicode="V" 
d="M605 235l300 1148h280l-422 -1383h-326l-420 1383h291z" />
    <glyph glyph-name="W" unicode="W" 
d="M1201 1383l-179 -1383h-301l-121 1008l-128 -1008h-307l-166 1383h261l82 -1134l132 974h258l125 -974l102 1134h242z" />
    <glyph glyph-name="X" unicode="X" 
d="M59 1383h299l242 -475l245 475h291l-376 -635l414 -748h-299l-279 562l-278 -562h-292l408 735z" />
    <glyph glyph-name="Y" unicode="Y" 
d="M737 524v-524h-274v522l-457 861h300l299 -630l302 630h287z" />
    <glyph glyph-name="Z" unicode="Z" 
d="M418 222h682l-30 -222h-969v208l682 959h-610v216h918v-210z" />
    <glyph glyph-name="bracketleft" unicode="[" 
d="M332 -241v1882h575v-204h-326v-1476h326v-202h-575z" />
    <glyph glyph-name="backslash" unicode="\" 
d="M74 1532l207 97l845 -1752l-208 -95z" />
    <glyph glyph-name="bracketright" unicode="]" 
d="M868 1641v-1882h-575v203h326v1475h-326v204h575z" />
    <glyph glyph-name="asciicircum" unicode="^" 
d="M720 1685l378 -631h-264l-236 425l-230 -425h-266l378 631h240z" />
    <glyph glyph-name="underscore" unicode="_" 
d="M100 -369v213h1000v-213h-1000z" />
    <glyph glyph-name="grave" unicode="`" 
d="M789 1244l-449 187l112 204l412 -255z" />
    <glyph glyph-name="a" unicode="a" 
d="M1006 279q0 -61 18 -88.5t58 -41.5l-57 -177q-85 9 -144.5 42.5t-91.5 100.5q-60 -73 -151.5 -109t-191.5 -36q-162 0 -257 92t-95 239q0 169 132.5 260.5t375.5 91.5h148v57q0 94 -58 136.5t-167 42.5q-51 0 -127.5 -13.5t-157.5 -41.5l-63 181q101 38 203.5 56
t186.5 18q223 0 331 -94.5t108 -267.5v-448zM532 161q60 0 121.5 34t96.5 95v206h-104q-147 0 -212.5 -47t-65.5 -133q0 -74 42 -114.5t122 -40.5z" />
    <glyph glyph-name="b" unicode="b" 
d="M425 940q53 70 125.5 109.5t156.5 39.5q139 0 225.5 -68.5t127 -193.5t40.5 -295q0 -163 -48 -290t-142.5 -199.5t-231.5 -72.5q-172 0 -271 131l-12 -101h-234v1482l264 28v-570zM610 167q101 0 158 86t57 276q0 134 -23.5 213.5t-67 114t-104.5 34.5q-66 0 -116.5 -40
t-88.5 -99v-474q34 -53 80 -82t105 -29z" />
    <glyph glyph-name="c" unicode="c" 
d="M694 182q70 0 131.5 26t118.5 66l120 -169q-70 -59 -169 -97t-212 -38q-166 0 -284.5 69.5t-182 194t-63.5 289.5q0 163 64.5 291.5t184 201.5t285.5 73q114 0 206.5 -32.5t169.5 -96.5l-117 -162q-59 41 -121.5 62.5t-129.5 21.5q-117 0 -190.5 -84.5t-73.5 -274.5
q0 -125 34.5 -200t94 -108t134.5 -33z" />
    <glyph glyph-name="d" unicode="d" 
d="M775 1510l264 -28v-1482h-234l-16 125q-49 -70 -123 -112.5t-172 -42.5q-134 0 -221.5 70t-130 196.5t-42.5 294.5q0 162 50 288t144.5 198t224.5 72q78 0 142 -27t114 -80v528zM590 892q-100 0 -157.5 -86.5t-57.5 -275.5q0 -133 24 -212.5t68 -114.5t104 -35
q66 0 116.5 39.5t87.5 98.5v482q-37 49 -82.5 76.5t-102.5 27.5z" />
    <glyph glyph-name="e" unicode="e" 
d="M386 449q8 -99 45.5 -161t96.5 -91t131 -29q76 0 143 24t132 67l110 -151q-74 -62 -176.5 -100t-225.5 -38q-172 0 -289.5 71t-177.5 197t-60 290q0 158 59 285t170 201.5t268 74.5q146 0 252 -64t164 -183.5t58 -287.5q0 -27 -1.5 -55t-3.5 -50h-695zM613 903
q-96 0 -157.5 -68.5t-72.5 -216.5h446q-2 134 -55.5 209.5t-160.5 75.5z" />
    <glyph glyph-name="f" unicode="f" 
d="M818 1510q106 0 188 -17t149 -46l-76 -178q-53 22 -111 32t-116 10q-100 0 -145.5 -37.5t-45.5 -119.5v-167h350l-29 -189h-321v-798h-263v798h-233v189h233v173q0 103 50 181.5t144.5 123.5t225.5 45z" />
    <glyph glyph-name="g" unicode="g" 
d="M1074 1208l66 -206q-60 -21 -135 -29.5t-172 -8.5q97 -42 147.5 -106.5t50.5 -163.5q0 -103 -52.5 -184t-149 -127t-229.5 -46q-41 0 -73 4t-62 11q-20 -11 -31 -32t-11 -43q0 -30 23.5 -51.5t101.5 -21.5h180q117 0 205.5 -39.5t138 -106.5t49.5 -154q0 -160 -139 -250
t-406 -90q-191 0 -297.5 39t-149.5 113.5t-43 179.5h235q0 -51 20.5 -84t77 -49t162.5 -16t166.5 17t85.5 48.5t25 73.5q0 57 -48 89t-136 32h-175q-160 0 -233 62.5t-73 144.5q0 56 30.5 107.5t87.5 87.5q-98 52 -141.5 124.5t-43.5 175.5q0 115 58 200t161 132t237 47
q123 -1 209.5 15t153 44t129.5 61zM587 912q-94 0 -143.5 -55t-49.5 -146q0 -94 51 -149t143 -55q91 0 138.5 53.5t47.5 153.5t-47.5 149t-139.5 49z" />
    <glyph glyph-name="h" unicode="h" 
d="M425 1507v-567q66 75 148.5 112t172.5 37q146 0 219.5 -82.5t73.5 -231.5v-775h-264v716q0 96 -29.5 136t-100.5 40q-42 0 -81.5 -19.5t-74 -52.5t-64.5 -74v-746h-264v1481z" />
    <glyph glyph-name="i" unicode="i" 
d="M770 1059v-872h279v-187h-853v187h310v685h-300v187h564zM599 1593q73 0 118.5 -45t45.5 -112t-45.5 -112.5t-118.5 -45.5t-119 45.5t-46 112.5t46 112t119 45z" />
    <glyph glyph-name="j" unicode="j" 
d="M926 1059v-800q0 -211 -83.5 -349t-245.5 -220t-397 -126l-43 202q160 33 272.5 87t172.5 147t60 242v630h-402v187h666zM738 1593q72 0 118 -45t46 -112t-46 -112.5t-118 -45.5q-73 0 -119 45.5t-46 112.5t46 112t119 45z" />
    <glyph glyph-name="k" unicode="k" 
d="M1125 1059l-393 -472l431 -587h-311l-408 580l390 479h291zM429 1510v-1510h-264v1482z" />
    <glyph glyph-name="l" unicode="l" 
d="M665 1482v-1174q0 -69 40.5 -98t109.5 -29q43 0 83 9.5t76 23.5l65 -180q-50 -25 -121.5 -44.5t-165.5 -19.5q-173 0 -262 99t-89 267v959h-317v187h581z" />
    <glyph glyph-name="m" unicode="m" 
d="M914 1089q68 0 116 -28.5t74 -95t26 -180.5v-785h-230v752q0 72 -11.5 102t-51.5 30q-33 0 -66.5 -19.5t-69.5 -69.5v-795h-199v752q0 72 -11.5 102t-51.5 30q-34 0 -67 -19.5t-69 -69.5v-795h-233v1059h197l17 -110q47 66 99 103t125 37q60 0 106.5 -29.5t66.5 -100.5
q46 58 103 94t130 36z" />
    <glyph glyph-name="n" unicode="n" 
d="M161 0v1059h230l19 -131q68 80 153 120.5t183 40.5q143 0 218 -82.5t75 -231.5v-775h-264v672q0 80 -10 128.5t-38 70t-81 21.5q-43 0 -82.5 -19t-74 -51t-64.5 -71v-751h-264z" />
    <glyph glyph-name="o" unicode="o" 
d="M601 1089q158 0 268 -69t167.5 -194.5t57.5 -293.5q0 -172 -58 -298t-168 -195t-268 -69q-157 0 -267.5 67.5t-168.5 193t-58 299.5q0 166 58 292t169 196.5t268 70.5zM601 890q-111 0 -165.5 -87t-54.5 -273q0 -188 54 -274.5t165 -86.5t165 86.5t54 276.5
q0 185 -54 271.5t-164 86.5z" />
    <glyph glyph-name="p" unicode="p" 
d="M708 1089q140 0 224.5 -68.5t123 -193.5t38.5 -295q0 -163 -47 -290t-137.5 -199.5t-222.5 -72.5q-162 0 -262 115v-493l-264 -28v1495h232l14 -129q63 82 141 120.5t160 38.5zM631 891q-67 0 -117.5 -40t-88.5 -99v-474q36 -54 82 -81t104 -27q101 0 154.5 84.5
t53.5 274.5q0 134 -21.5 213.5t-63.5 114t-103 34.5z" />
    <glyph glyph-name="q" unicode="q" 
d="M523 1089q84 0 153 -32t119 -94l14 96h230v-1495l-264 28v512q-50 -64 -120 -99t-161 -35q-138 0 -223.5 69.5t-125 195.5t-39.5 296q0 162 48 288t141.5 198t227.5 72zM591 892q-102 0 -156 -86.5t-54 -275.5q0 -133 22.5 -212t65 -113t102.5 -34q67 0 117 38t87 97v482
q-35 49 -80.5 76.5t-103.5 27.5z" />
    <glyph glyph-name="r" unicode="r" 
d="M171 0v183h149v694h-149v182h350l49 -243q58 135 146 203.5t221 68.5q51 0 90.5 -8t75.5 -21l-79 -222q-31 8 -59 12.5t-63 4.5q-110 0 -191.5 -85.5t-126.5 -231.5v-354h211v-183h-624zM880 646v281l36 132h187l-47 -413h-176z" />
    <glyph glyph-name="s" unicode="s" 
d="M564 165q93 0 149.5 32.5t56.5 91.5q0 39 -18.5 66t-72.5 50.5t-162 52.5q-102 26 -178.5 64.5t-119 99.5t-42.5 154t52 163.5t150.5 110t237.5 39.5q136 0 238 -35.5t175 -88.5l-108 -161q-64 41 -138.5 66.5t-160.5 25.5q-93 0 -135.5 -27t-42.5 -75q0 -34 21.5 -57.5
t78 -45t161.5 -51.5q103 -28 179.5 -66t118.5 -101t42 -165q0 -115 -67 -190t-176.5 -111.5t-237.5 -36.5q-150 0 -262 43t-190 111l137 154q62 -49 141.5 -81t172.5 -32z" />
    <glyph glyph-name="t" unicode="t" 
d="M1075 59q-59 -39 -143 -64t-182 -25q-194 0 -292 100.5t-98 267.5v534h-230v187h230v233l264 32v-265h350l-27 -187h-323v-533q0 -82 40 -120t129 -38q57 0 104.5 13.5t86.5 34.5z" />
    <glyph glyph-name="u" unicode="u" 
d="M425 1059v-734q0 -86 34 -121t99 -35q62 0 121 37.5t96 95.5v757h264v-1059h-230l-14 130q-57 -78 -146 -119t-184 -41q-153 0 -228.5 86.5t-75.5 236.5v766h264z" />
    <glyph glyph-name="v" unicode="v" 
d="M1120 1059l-364 -1059h-310l-366 1059h284l241 -848l246 848h269z" />
    <glyph glyph-name="w" unicode="w" 
d="M1021 0h-310l-107 735l-114 -735h-304l-169 1059h248l92 -895l131 761h243l120 -761l94 895h238z" />
    <glyph glyph-name="x" unicode="x" 
d="M357 0h-289l372 557l-334 502h300l196 -358l193 358h286l-322 -491l373 -568h-304l-238 416z" />
    <glyph glyph-name="y" unicode="y" 
d="M1120 1059l-359 -1061q-44 -130 -114 -223t-176.5 -147.5t-260.5 -64.5l-33 191q107 15 171 45t102.5 79t66.5 122h-90l-347 1059h279l240 -883l250 883h271z" />
    <glyph glyph-name="z" unicode="z" 
d="M480 205h551l-27 -205h-839v189l547 664h-502v206h812v-190z" />
    <glyph glyph-name="braceleft" unicode="{" 
d="M922 1677v-189q-65 0 -114 -12t-74.5 -42t-20.5 -85l35 -335q11 -102 -19.5 -166.5t-94.5 -99t-153 -48.5q94 -15 157.5 -48.5t92 -97t17.5 -168.5l-35 -335q-5 -54 20.5 -84.5t75 -42.5t113.5 -12v-189q-119 0 -208 18t-147 58.5t-82.5 107.5t-14.5 165l33 319
q8 74 -21 118.5t-94.5 64t-168.5 19.5v214q102 0 168 19.5t95 64t21 117.5l-33 319q-11 99 13.5 166t82.5 107.5t147.5 58.5t208.5 18z" />
    <glyph glyph-name="bar" unicode="|" 
d="M722 1800v-2400h-244v2400h244z" />
    <glyph glyph-name="braceright" unicode="}" 
d="M278 1677q119 0 208 -18t147 -58.5t83 -107.5t14 -165l-33 -320q-8 -73 23 -117.5t96.5 -64t164.5 -19.5v-214q-98 0 -164 -19.5t-97 -64t-23 -118.5l33 -318q11 -99 -13.5 -166t-82.5 -107.5t-147.5 -58.5t-208.5 -18v189q65 0 114 12t74.5 42.5t20.5 84.5l-35 335
q-11 105 19.5 168.5t96.5 97.5t160 47q-97 15 -163 49.5t-95 98.5t-18 167l35 335q5 55 -20.5 85t-74.5 42t-114 12v189z" />
    <glyph glyph-name="asciitilde" unicode="~" 
d="M408 839q74 0 128 -30t96.5 -70t82 -70t85.5 -30q58 0 101.5 43.5t83.5 118.5l157 -74q-38 -80 -85.5 -146.5t-111.5 -107t-153 -40.5q-71 0 -124.5 30t-96.5 70t-84 70t-87 30q-60 0 -103 -44t-82 -116l-157 72q38 75 84.5 142.5t111 109.5t154.5 42z" />
    <glyph glyph-name="uni00A0" unicode="&#xa0;" 
 />
    <glyph glyph-name="exclamdown" unicode="&#xa1;" 
d="M706 494l38 -899h-288l35 899h215zM599 1014q69 0 117 -49t48 -116t-48 -115t-117 -48q-68 0 -116 48t-48 115t48 116t116 49z" />
    <glyph glyph-name="cent" unicode="&#xa2;" 
d="M771 1378v-300q69 -9 132.5 -37t120.5 -76l-119 -162q-58 45 -108.5 62t-104.5 17q-112 0 -175 -84.5t-63 -274.5q0 -189 64.5 -265t172.5 -76q55 0 103 18.5t108 64.5l122 -173q-58 -47 -121 -74t-132 -38v-297h-200v301q-192 34 -293.5 177.5t-101.5 361.5
q0 144 46 260.5t135 192.5t216 100v302h198z" />
    <glyph glyph-name="sterling" unicode="&#xa3;" 
d="M701 1413q127 0 224 -46t168 -146l-166 -121q-43 60 -92.5 85t-114.5 25q-90 0 -138 -50.5t-48 -155.5v-211h382v-147h-382v-187q0 -78 -24.5 -144t-102.5 -110h660l-31 -205h-929v196q77 24 112 59.5t44 86.5t9 120v184h-153v147h153v221q0 115 50 205t146 142t233 52z
" />
    <glyph glyph-name="currency" unicode="&#xa4;" 
d="M194 1222l168 -169q50 31 111 46.5t129 15.5q67 0 127 -14.5t110 -47.5l167 167l130 -129l-163 -165q31 -49 49.5 -110.5t18.5 -131.5q0 -72 -19.5 -134t-50.5 -111l165 -164l-130 -128l-168 164q-49 -31 -109 -45.5t-127 -14.5q-68 0 -129 14.5t-112 45.5l-167 -167
l-130 129l167 168q-31 49 -48.5 110.5t-17.5 132.5q0 70 17 131t47 110l-165 168zM602 929q-108 0 -163.5 -65t-55.5 -180q0 -116 55.5 -181t163.5 -65q107 0 161 65t54 181q0 115 -54 180t-161 65z" />
    <glyph glyph-name="yen" unicode="&#xa5;" 
d="M1162 1383l-367 -684h213v-147h-273v-149h273v-148h-273v-255h-267v255h-271v148h271v149h-271v147h207l-366 684h285l280 -592h8l277 592h274z" />
    <glyph glyph-name="brokenbar" unicode="&#xa6;" 
d="M721 1618v-722h-244v722h244zM721 514v-722h-244v722h244z" />
    <glyph glyph-name="section" unicode="&#xa7;" 
d="M636 1413q110 0 202 -30t166 -79l-101 -161q-62 40 -125 60t-137 20q-75 0 -117.5 -30.5t-42.5 -79.5q0 -37 17.5 -63t68.5 -50.5t152 -56.5q150 -47 227 -115t77 -195q0 -84 -46 -148.5t-112 -105.5q54 -42 84.5 -97t30.5 -128q0 -93 -53 -163.5t-148 -109t-223 -38.5
q-117 0 -209 30.5t-163 80.5l99 166q62 -42 126 -64t140 -22q78 0 125 30t47 80q0 36 -17 62t-68.5 51t-155.5 58q-150 48 -227 116t-77 193q0 84 48 147.5t114 105.5q-56 43 -86.5 98.5t-30.5 124.5q0 93 53 163.5t146.5 110t215.5 39.5zM482 803q-35 -33 -51 -71t-16 -71
q0 -49 24 -78.5t89.5 -57.5t188.5 -71q33 34 50.5 72.5t17.5 72.5q0 46 -24 75t-89.5 57.5t-189.5 71.5z" />
    <glyph glyph-name="dieresis" unicode="&#xa8;" 
d="M377 1283q-61 0 -103 40t-42 101q0 60 42 100.5t103 40.5q62 0 103.5 -40.5t41.5 -100.5q0 -61 -41.5 -101t-103.5 -40zM822 1283q-60 0 -102 40t-42 101q0 60 42 100.5t102 40.5q62 0 104 -40.5t42 -100.5q0 -61 -42 -101t-104 -40z" />
    <glyph glyph-name="copyright" unicode="&#xa9;" 
d="M602 1509q180 0 306.5 -87.5t193 -235.5t66.5 -329t-66.5 -329t-193 -234.5t-306.5 -86.5q-184 0 -311 86.5t-193 234.5t-66 329t67.5 329t195 235.5t307.5 87.5zM616 1246q75 0 129 -21.5t104 -67.5l-89 -112q-31 25 -61.5 37.5t-66.5 12.5q-65 0 -108.5 -54.5
t-43.5 -181.5q0 -124 41.5 -178.5t110.5 -54.5q45 0 81 17t64 42l82 -119q-45 -40 -104 -68.5t-137 -28.5q-152 0 -243.5 101t-91.5 289q0 123 44 209.5t119.5 132t169.5 45.5zM602 1383q-145 0 -238.5 -71t-139 -190.5t-45.5 -264.5t45.5 -264t139 -189.5t238.5 -70.5
q144 0 237 70.5t138.5 189.5t45.5 264t-45 264.5t-138 190.5t-238 71z" />
    <glyph glyph-name="ordfeminine" unicode="&#xaa;" 
d="M581 1510q194 0 280 -76.5t86 -219.5v-351q0 -44 15 -65.5t47 -32.5l-54 -152q-77 8 -126 35t-76 82q-49 -58 -119 -89t-149 -31q-137 0 -221 76t-84 198q0 135 114 210.5t320 75.5h110v37q0 76 -43 103.5t-134 27.5q-38 0 -101.5 -11t-135.5 -36l-58 159q91 32 176 46
t153 14zM1016 193v-193h-812v193h812zM724 1024h-82q-116 0 -167 -33t-51 -98q0 -59 32.5 -89.5t93.5 -30.5q49 0 95.5 27.5t78.5 73.5v150z" />
    <glyph glyph-name="guillemotleft" unicode="&#xab;" 
d="M623 158l-154 -97l-344 430v173l344 432l154 -97l-245 -420zM1074 158l-154 -97l-346 430v173l346 432l154 -97l-245 -420z" />
    <glyph glyph-name="logicalnot" unicode="&#xac;" 
d="M1011 736v-507h-223v299h-599v208h822z" />
    <glyph glyph-name="uni00AD" unicode="&#xad;" 
d="M276 521v210h648v-210h-648z" />
    <glyph glyph-name="registered" unicode="&#xae;" 
d="M601 1509q151 0 271.5 -71t191 -192.5t70.5 -272.5q0 -149 -70.5 -269t-191 -191t-271.5 -71t-273 71t-193 191t-71 269q0 113 41 210.5t114 170.5t171 114t211 41zM601 1389q-115 0 -205.5 -55t-142 -149.5t-51.5 -211.5q0 -115 51.5 -208t142 -147.5t205.5 -54.5
t204 54.5t140 147.5t51 208q0 117 -51 211.5t-140 149.5t-204 55zM564 1271q260 0 260 -174q0 -59 -35 -98.5t-88 -58.5l161 -236h-153l-135 210h-49v-210h-134v567h173zM574 1171h-49v-151h52q53 0 82 18.5t29 61.5q0 71 -114 71z" />
    <glyph glyph-name="macron" unicode="&#xaf;" 
d="M892 1328h-585v188h585v-188z" />
    <glyph glyph-name="degree" unicode="&#xb0;" 
d="M484 1510q86 0 165.5 -38.5t129.5 -112t50 -177.5q0 -105 -50 -179.5t-129.5 -113.5t-165.5 -39t-165.5 39.5t-130 113.5t-50.5 179t50.5 178t130 111.5t165.5 38.5zM484 1350q-44 0 -78.5 -19.5t-54.5 -56.5t-20 -92q0 -54 20 -92t54.5 -58t78.5 -20q65 0 108.5 44.5
t43.5 125.5q0 80 -43.5 124t-108.5 44z" />
    <glyph glyph-name="plusminus" unicode="&#xb1;" 
d="M715 1102v-308h296v-205h-296v-248h-230v248h-296v205h296v308h230zM1011 206v-206h-822v206h822z" />
    <glyph glyph-name="uni00B2" unicode="&#xb2;" 
d="M881 1074q0 -59 -28 -105.5t-94 -91t-183 -97.5h326l-22 -150h-564v132q150 86 226.5 136.5t103 84.5t26.5 71q0 36 -24.5 58t-69.5 22q-41 0 -78.5 -17t-76.5 -63l-127 95q121 135 307 135q136 0 207 -61t71 -149z" />
    <glyph glyph-name="uni00B3" unicode="&#xb3;" 
d="M614 1284q130 0 201.5 -49.5t71.5 -128.5q0 -56 -34 -89.5t-107 -48.5q86 -13 128 -46.5t42 -103.5q0 -91 -86 -145.5t-236 -54.5q-87 0 -170.5 25.5t-144.5 86.5l116 98q46 -36 93 -51.5t102 -15.5q60 0 90 19.5t30 54.5q0 34 -26.5 52t-88.5 18h-101l22 112h75
q46 0 70.5 15.5t24.5 44.5q0 65 -93 65q-52 0 -96 -14t-94 -49l-101 102q67 55 144.5 79t167.5 24z" />
    <glyph glyph-name="acute" unicode="&#xb4;" 
d="M757 1643l107 -205l-453 -181l-74 136z" />
    <glyph glyph-name="uni00B5" unicode="&#xb5;" 
d="M1020 1059v-697q0 -102 10.5 -193.5t24.5 -168.5l-240 -26q-10 28 -20 72t-15 88q-44 -73 -108.5 -117.5t-138.5 -44.5q-65 0 -104 21.5t-81 76.5q25 -65 39 -122t14 -131v-225l-253 -28v1495h263v-599q0 -92 8 -155t36 -96t90 -33q67 0 120 37.5t91 92.5v753h264z" />
    <glyph glyph-name="paragraph" unicode="&#xb6;" 
d="M1145 1383v-1797l-226 -22v1631h-186v-1609l-226 -22v982q-150 9 -251 63t-151.5 145t-50.5 208q0 121 57 216t169 150t279 55h586z" />
    <glyph glyph-name="periodcentered" unicode="&#xb7;" 
d="M393 684q0 56 27.5 103t74.5 75t104 28q58 0 105 -28t74.5 -75t27.5 -103t-27.5 -103.5t-74.5 -75.5t-105 -28q-57 0 -104 28t-74.5 75.5t-27.5 103.5z" />
    <glyph glyph-name="cedilla" unicode="&#xb8;" 
d="M654 -287q0 45 -46.5 59.5t-134.5 14.5l25 245h154v-134q103 -11 151.5 -62.5t48.5 -124.5q0 -68 -36 -117t-99 -75.5t-144 -26.5q-68 0 -127 17t-99 40l67 128q28 -15 62.5 -24t67.5 -9q50 0 80 15.5t30 53.5z" />
    <glyph glyph-name="uni00B9" unicode="&#xb9;" 
d="M632 630v442l-169 -90l-93 128l294 162h164v-642h-196z" />
    <glyph glyph-name="ordmasculine" unicode="&#xba;" 
d="M600 1510q133 0 229.5 -57t148.5 -158.5t52 -232.5q0 -134 -52.5 -236t-148.5 -159t-229 -57t-230 57t-149 158t-52 237q0 129 52.5 230.5t149.5 159.5t229 58zM1006 193v-193h-811v193h811zM600 1338q-89 0 -140.5 -65t-51.5 -211q0 -148 51.5 -213t140.5 -65t140 65
t51 213q0 146 -51 211t-140 65z" />
    <glyph glyph-name="guillemotright" unicode="&#xbb;" 
d="M819 579l-245 420l154 97l346 -432v-173l-346 -430l-154 97zM370 579l-245 420l153 97l345 -432v-173l-345 -430l-153 97z" />
    <glyph glyph-name="onequarter" unicode="&#xbc;" 
d="M104 356l-76 136l1070 512l74 -136zM239 740v442l-170 -90l-92 128l293 162h165v-642h-196zM1129 112v-112h-187v112h-359v119l251 430l167 -60l-209 -351h153l24 164h160v-164h95v-138h-95z" />
    <glyph glyph-name="onehalf" unicode="&#xbd;" 
d="M96 356l-76 136l1070 512l74 -136zM233 740v442l-170 -90l-92 128l293 162h165v-642h-196zM1207 444q0 -59 -28 -105.5t-94 -91t-182 -97.5h325l-22 -150h-564v132q151 86 227 136.5t103 84.5t27 71q0 36 -25 58t-69 22q-42 0 -79.5 -17t-75.5 -63l-128 95
q121 135 307 135q136 0 207 -61t71 -149z" />
    <glyph glyph-name="threequarters" unicode="&#xbe;" 
d="M117 356l-76 136l1070 512l74 -136zM315 1394q130 0 201.5 -49.5t71.5 -128.5q0 -57 -33.5 -90t-107.5 -48q86 -13 128 -46.5t42 -104.5q0 -90 -86 -144.5t-236 -54.5q-87 0 -170.5 25.5t-143.5 86.5l116 98q45 -36 92 -51.5t102 -15.5q60 0 90 19.5t30 53.5
q0 35 -26.5 52.5t-87.5 17.5h-102l22 113h76q45 0 69.5 15.5t24.5 43.5q0 66 -93 66q-52 0 -96 -14t-94 -49l-101 102q67 55 144.5 79t167.5 24zM1126 112v-112h-187v112h-359v119l251 430l167 -60l-209 -351h153l24 164h160v-164h95v-138h-95z" />
    <glyph glyph-name="questiondown" unicode="&#xbf;" 
d="M639 1014q68 0 116.5 -49t48.5 -116t-48.5 -115t-116.5 -48q-69 0 -116.5 48t-47.5 115t47.5 116t116.5 49zM766 494v-71q0 -101 -34 -165.5t-84 -107.5t-101 -76.5t-85 -71t-34 -93.5q0 -66 53 -101t134 -35q69 0 136.5 31.5t124.5 97.5l173 -131q-85 -100 -200 -154.5
t-260 -54.5q-141 0 -238.5 46t-147.5 120.5t-50 159.5q0 97 37 158t92 102.5t110 79.5t92 87.5t37 127.5v51h245z" />
    <glyph glyph-name="Agrave" unicode="&#xc0;" 
d="M824 317h-455l-86 -317h-283l433 1383h336l432 -1383h-291zM418 522h355l-177 656zM450 1875l410 -234l-68 -136l-452 167z" />
    <glyph glyph-name="Aacute" unicode="&#xc1;" 
d="M824 317h-455l-86 -317h-283l433 1383h336l432 -1383h-291zM418 522h355l-177 656zM759 1872l103 -203l-458 -164l-64 136z" />
    <glyph glyph-name="Acircumflex" unicode="&#xc2;" 
d="M824 317h-455l-86 -317h-283l433 1383h336l432 -1383h-291zM418 522h355l-177 656zM683 1863l278 -245l-100 -113l-261 166l-261 -166l-101 113l280 245h165z" />
    <glyph glyph-name="Atilde" unicode="&#xc3;" 
d="M824 317h-455l-86 -317h-283l433 1383h336l432 -1383h-291zM418 522h355l-177 656zM714 1532q-56 0 -94.5 23t-70 46t-65.5 23q-36 0 -59 -22.5t-47 -66.5l-141 69q37 87 98 149.5t145 62.5q60 0 98.5 -23t68.5 -46t65 -23q32 0 55.5 21.5t49.5 65.5l141 -70
q-39 -94 -101.5 -151.5t-142.5 -57.5z" />
    <glyph glyph-name="Adieresis" unicode="&#xc4;" 
d="M824 317h-455l-86 -317h-283l433 1383h336l432 -1383h-291zM418 522h355l-177 656zM377 1529q-61 0 -103 40t-42 101q0 60 42 100.5t103 40.5q62 0 103.5 -40.5t41.5 -100.5q0 -61 -41.5 -101t-103.5 -40zM822 1529q-60 0 -102 40t-42 101q0 60 42 100.5t102 40.5
q62 0 104 -40.5t42 -100.5q0 -61 -42 -101t-104 -40z" />
    <glyph glyph-name="Aring" unicode="&#xc5;" 
d="M824 317h-455l-86 -317h-283l433 1383h336l432 -1383h-291zM418 522h355l-177 656zM599 1947q79 0 137 -33t90 -88.5t32 -121.5q0 -65 -32 -120.5t-90 -89t-137 -33.5q-78 0 -136 33.5t-89.5 89t-31.5 120.5q0 66 31.5 121.5t89.5 88.5t136 33zM599 1808q-43 0 -69 -26.5
t-26 -77.5t26 -78t69 -27q44 0 70.5 27t26.5 78t-26.5 77.5t-70.5 26.5z" />
    <glyph glyph-name="AE" unicode="&#xc6;" 
d="M638 321h-326l-70 -321h-266l368 1383h787l-30 -194h-401l78 -391h335v-194h-299l82 -410h313v-194h-513zM352 518h253l-118 674z" />
    <glyph glyph-name="Ccedilla" unicode="&#xc7;" 
d="M716 1413q144 0 244 -37.5t185 -107.5l-139 -165q-59 50 -129.5 76t-150.5 26q-96 0 -176.5 -51t-129 -163.5t-48.5 -296.5q0 -181 46.5 -293t127 -163.5t182.5 -51.5q108 0 179 38t128 83l129 -163q-73 -72 -182.5 -123t-265.5 -51q-181 0 -323 83t-223 244t-81 397
q0 232 83.5 392.5t226 243.5t317.5 83zM756 -287q0 45 -46.5 59.5t-134.5 14.5l25 245h154v-134q103 -11 151.5 -62.5t48.5 -124.5q0 -68 -36 -117t-99 -75.5t-144 -26.5q-68 0 -127 17t-99 40l67 128q28 -15 62.5 -24t67.5 -9q50 0 80 15.5t30 53.5z" />
    <glyph glyph-name="Egrave" unicode="&#xc8;" 
d="M483 1181v-379h490v-199h-490v-402h595v-201h-869v1383h862l-28 -202h-560zM491 1875l410 -234l-68 -136l-452 167z" />
    <glyph glyph-name="Eacute" unicode="&#xc9;" 
d="M483 1181v-379h490v-199h-490v-402h595v-201h-869v1383h862l-28 -202h-560zM800 1872l103 -203l-458 -164l-64 136z" />
    <glyph glyph-name="Ecircumflex" unicode="&#xca;" 
d="M483 1181v-379h490v-199h-490v-402h595v-201h-869v1383h862l-28 -202h-560zM724 1863l278 -245l-100 -113l-261 166l-261 -166l-101 113l280 245h165z" />
    <glyph glyph-name="Edieresis" unicode="&#xcb;" 
d="M483 1181v-379h490v-199h-490v-402h595v-201h-869v1383h862l-28 -202h-560zM418 1529q-61 0 -103 40t-42 101q0 60 42 100.5t103 40.5q62 0 103.5 -40.5t41.5 -100.5q0 -61 -41.5 -101t-103.5 -40zM863 1529q-60 0 -102 40t-42 101q0 60 42 100.5t102 40.5
q62 0 104 -40.5t42 -100.5q0 -61 -42 -101t-104 -40z" />
    <glyph glyph-name="Igrave" unicode="&#xcc;" 
d="M1030 1383v-205h-293v-973h293v-205h-860v205h293v973h-293v205h860zM450 1875l410 -234l-68 -136l-452 167z" />
    <glyph glyph-name="Iacute" unicode="&#xcd;" 
d="M1030 1383v-205h-293v-973h293v-205h-860v205h293v973h-293v205h860zM759 1872l103 -203l-458 -164l-64 136z" />
    <glyph glyph-name="Icircumflex" unicode="&#xce;" 
d="M1030 1383v-205h-293v-973h293v-205h-860v205h293v973h-293v205h860zM683 1863l278 -245l-100 -113l-261 166l-261 -166l-101 113l280 245h165z" />
    <glyph glyph-name="Idieresis" unicode="&#xcf;" 
d="M1030 1383v-205h-293v-973h293v-205h-860v205h293v973h-293v205h860zM377 1529q-61 0 -103 40t-42 101q0 60 42 100.5t103 40.5q62 0 103.5 -40.5t41.5 -100.5q0 -61 -41.5 -101t-103.5 -40zM822 1529q-60 0 -102 40t-42 101q0 60 42 100.5t102 40.5q62 0 104 -40.5
t42 -100.5q0 -61 -42 -101t-104 -40z" />
    <glyph glyph-name="Eth" unicode="&#xd0;" 
d="M689 794v-176h-662v176h662zM872 698q0 154 -29 249t-77.5 145.5t-110.5 68.5t-129 18h-103v-976h103q71 0 133 22t110 76.5t75.5 151t27.5 245.5zM1157 698q0 -170 -36 -291t-100 -200.5t-147.5 -124.5t-178 -63.5t-192.5 -18.5h-353v1383h330q129 0 250 -27.5
t217.5 -100.5t153 -207.5t56.5 -349.5z" />
    <glyph glyph-name="Ntilde" unicode="&#xd1;" 
d="M730 0l-407 1149q5 -38 12 -98t13.5 -136t11 -161t4.5 -172v-582h-238v1383h348l403 -1147q-8 51 -17.5 135t-16.5 193t-7 232v587h238v-1383h-344zM725 1532q-56 0 -94.5 23t-70 46t-65.5 23q-36 0 -59 -22.5t-47 -66.5l-141 69q37 87 98 149.5t145 62.5q60 0 98.5 -23
t68.5 -46t65 -23q32 0 55.5 21.5t49.5 65.5l141 -70q-39 -94 -101.5 -151.5t-142.5 -57.5z" />
    <glyph glyph-name="Ograve" unicode="&#xd2;" 
d="M1138 692q0 -216 -60.5 -378.5t-180.5 -253t-297 -90.5q-176 0 -296.5 88.5t-181 250t-60.5 382.5q0 216 60.5 378.5t181 253t296.5 90.5q177 0 297 -88t180.5 -250t60.5 -383zM856 692q0 262 -59.5 388.5t-196.5 126.5t-196.5 -127t-59.5 -389q0 -263 61 -388.5
t195 -125.5q139 0 197.5 127t58.5 388zM450 1875l410 -234l-68 -136l-452 167z" />
    <glyph glyph-name="Oacute" unicode="&#xd3;" 
d="M1138 692q0 -216 -60.5 -378.5t-180.5 -253t-297 -90.5q-176 0 -296.5 88.5t-181 250t-60.5 382.5q0 216 60.5 378.5t181 253t296.5 90.5q177 0 297 -88t180.5 -250t60.5 -383zM856 692q0 262 -59.5 388.5t-196.5 126.5t-196.5 -127t-59.5 -389q0 -263 61 -388.5
t195 -125.5q139 0 197.5 127t58.5 388zM759 1872l103 -203l-458 -164l-64 136z" />
    <glyph glyph-name="Ocircumflex" unicode="&#xd4;" 
d="M1138 692q0 -216 -60.5 -378.5t-180.5 -253t-297 -90.5q-176 0 -296.5 88.5t-181 250t-60.5 382.5q0 216 60.5 378.5t181 253t296.5 90.5q177 0 297 -88t180.5 -250t60.5 -383zM856 692q0 262 -59.5 388.5t-196.5 126.5t-196.5 -127t-59.5 -389q0 -263 61 -388.5
t195 -125.5q139 0 197.5 127t58.5 388zM683 1863l278 -245l-100 -113l-261 166l-261 -166l-101 113l280 245h165z" />
    <glyph glyph-name="Otilde" unicode="&#xd5;" 
d="M1138 692q0 -216 -60.5 -378.5t-180.5 -253t-297 -90.5q-176 0 -296.5 88.5t-181 250t-60.5 382.5q0 216 60.5 378.5t181 253t296.5 90.5q177 0 297 -88t180.5 -250t60.5 -383zM856 692q0 262 -59.5 388.5t-196.5 126.5t-196.5 -127t-59.5 -389q0 -263 61 -388.5
t195 -125.5q139 0 197.5 127t58.5 388zM714 1532q-56 0 -94.5 23t-70 46t-65.5 23q-36 0 -59 -22.5t-47 -66.5l-141 69q37 87 98 149.5t145 62.5q60 0 98.5 -23t68.5 -46t65 -23q32 0 55.5 21.5t49.5 65.5l141 -70q-39 -94 -101.5 -151.5t-142.5 -57.5z" />
    <glyph glyph-name="Odieresis" unicode="&#xd6;" 
d="M1138 692q0 -216 -60.5 -378.5t-180.5 -253t-297 -90.5q-176 0 -296.5 88.5t-181 250t-60.5 382.5q0 216 60.5 378.5t181 253t296.5 90.5q177 0 297 -88t180.5 -250t60.5 -383zM856 692q0 262 -59.5 388.5t-196.5 126.5t-196.5 -127t-59.5 -389q0 -263 61 -388.5
t195 -125.5q139 0 197.5 127t58.5 388zM377 1529q-61 0 -103 40t-42 101q0 60 42 100.5t103 40.5q62 0 103.5 -40.5t41.5 -100.5q0 -61 -41.5 -101t-103.5 -40zM822 1529q-60 0 -102 40t-42 101q0 60 42 100.5t102 40.5q62 0 104 -40.5t42 -100.5q0 -61 -42 -101t-104 -40z
" />
    <glyph glyph-name="multiply" unicode="&#xd7;" 
d="M835 1001l151 -152l-239 -235l239 -235l-151 -151l-235 239l-235 -239l-151 151l239 235l-239 235l151 152l235 -240z" />
    <glyph glyph-name="Oslash" unicode="&#xd8;" 
d="M600 1413q170 0 290.5 -88t184 -250t63.5 -383q0 -216 -60.5 -378.5t-180.5 -253t-297 -90.5q-170 0 -290.5 88.5t-184 250t-63.5 382.5q0 216 60.5 378.5t181 253t296.5 90.5zM772 1606l197 -56l-77 -245l-88 -170l-281 -967l-27 -159l-68 -228l-196 56l83 269l89 163
l285 977l17 137zM600 1211q-141 0 -202.5 -127.5t-61.5 -392.5q0 -185 27 -299t85.5 -166.5t151.5 -52.5q143 0 203.5 127.5t60.5 391.5q0 185 -26.5 299t-84.5 167t-153 53z" />
    <glyph glyph-name="Ugrave" unicode="&#xd9;" 
d="M1095 1383v-925q0 -141 -57.5 -251.5t-167.5 -173.5t-271 -63q-162 0 -272 61.5t-166 171.5t-56 255v925h274v-848q0 -177 48 -265.5t172 -88.5q125 0 173 88.5t48 265.5v848h275zM450 1875l410 -234l-68 -136l-452 167z" />
    <glyph glyph-name="Uacute" unicode="&#xda;" 
d="M1095 1383v-925q0 -141 -57.5 -251.5t-167.5 -173.5t-271 -63q-162 0 -272 61.5t-166 171.5t-56 255v925h274v-848q0 -177 48 -265.5t172 -88.5q125 0 173 88.5t48 265.5v848h275zM759 1872l103 -203l-458 -164l-64 136z" />
    <glyph glyph-name="Ucircumflex" unicode="&#xdb;" 
d="M1095 1383v-925q0 -141 -57.5 -251.5t-167.5 -173.5t-271 -63q-162 0 -272 61.5t-166 171.5t-56 255v925h274v-848q0 -177 48 -265.5t172 -88.5q125 0 173 88.5t48 265.5v848h275zM683 1863l278 -245l-100 -113l-261 166l-261 -166l-101 113l280 245h165z" />
    <glyph glyph-name="Udieresis" unicode="&#xdc;" 
d="M1095 1383v-925q0 -141 -57.5 -251.5t-167.5 -173.5t-271 -63q-162 0 -272 61.5t-166 171.5t-56 255v925h274v-848q0 -177 48 -265.5t172 -88.5q125 0 173 88.5t48 265.5v848h275zM377 1529q-61 0 -103 40t-42 101q0 60 42 100.5t103 40.5q62 0 103.5 -40.5t41.5 -100.5
q0 -61 -41.5 -101t-103.5 -40zM822 1529q-60 0 -102 40t-42 101q0 60 42 100.5t102 40.5q62 0 104 -40.5t42 -100.5q0 -61 -42 -101t-104 -40z" />
    <glyph glyph-name="Yacute" unicode="&#xdd;" 
d="M737 524v-524h-274v522l-457 861h300l299 -630l302 630h287zM762 1872l103 -203l-458 -164l-64 136z" />
    <glyph glyph-name="Thorn" unicode="&#xde;" 
d="M427 1383v-227h141q270 0 420 -110t150 -337q0 -162 -66.5 -265.5t-188 -153t-287.5 -49.5h-169v-241h-274v1383h274zM581 956h-154v-512h163q80 0 139 24.5t91 81.5t32 156q0 132 -72 191t-199 59z" />
    <glyph glyph-name="germandbls" unicode="&#xdf;" 
d="M586 1510q121 0 206.5 -39.5t132 -108t46.5 -154.5q0 -57 -20 -97t-49.5 -70.5t-58.5 -57.5t-49 -55.5t-20 -65.5q0 -49 37 -84.5t91.5 -71.5t109.5 -82.5t92 -116t37 -172.5q0 -117 -52 -198.5t-141 -124t-199 -42.5q-77 0 -140 17t-116 47l90 178q32 -17 66.5 -27
t67.5 -10q74 0 113.5 39.5t39.5 116.5q0 58 -24.5 99t-62 72.5t-80.5 61t-81 63.5t-62 80.5t-24 111.5q0 55 18.5 95.5t45.5 73.5t53.5 63t44.5 64t18 78q0 34 -14.5 63t-44 46.5t-77.5 17.5q-87 0 -129 -58.5t-42 -184.5v-1077h-264v1064q0 214 113.5 330t327.5 116z" />
    <glyph glyph-name="agrave" unicode="&#xe0;" 
d="M1006 279q0 -61 18 -88.5t58 -41.5l-57 -177q-85 9 -144.5 42.5t-91.5 100.5q-60 -73 -151.5 -109t-191.5 -36q-162 0 -257 92t-95 239q0 169 132.5 260.5t375.5 91.5h148v57q0 94 -58 136.5t-167 42.5q-51 0 -127.5 -13.5t-157.5 -41.5l-63 181q101 38 203.5 56
t186.5 18q223 0 331 -94.5t108 -267.5v-448zM532 161q60 0 121.5 34t96.5 95v206h-104q-147 0 -212.5 -47t-65.5 -133q0 -74 42 -114.5t122 -40.5zM774 1244l-449 187l112 204l412 -255z" />
    <glyph glyph-name="aacute" unicode="&#xe1;" 
d="M1006 279q0 -61 18 -88.5t58 -41.5l-57 -177q-85 9 -144.5 42.5t-91.5 100.5q-60 -73 -151.5 -109t-191.5 -36q-162 0 -257 92t-95 239q0 169 132.5 260.5t375.5 91.5h148v57q0 94 -58 136.5t-167 42.5q-51 0 -127.5 -13.5t-157.5 -41.5l-63 181q101 38 203.5 56
t186.5 18q223 0 331 -94.5t108 -267.5v-448zM532 161q60 0 121.5 34t96.5 95v206h-104q-147 0 -212.5 -47t-65.5 -133q0 -74 42 -114.5t122 -40.5zM742 1643l107 -205l-453 -181l-74 136z" />
    <glyph glyph-name="acircumflex" unicode="&#xe2;" 
d="M1006 279q0 -61 18 -88.5t58 -41.5l-57 -177q-85 9 -144.5 42.5t-91.5 100.5q-60 -73 -151.5 -109t-191.5 -36q-162 0 -257 92t-95 239q0 169 132.5 260.5t375.5 91.5h148v57q0 94 -58 136.5t-167 42.5q-51 0 -127.5 -13.5t-157.5 -41.5l-63 181q101 38 203.5 56
t186.5 18q223 0 331 -94.5t108 -267.5v-448zM532 161q60 0 121.5 34t96.5 95v206h-104q-147 0 -212.5 -47t-65.5 -133q0 -74 42 -114.5t122 -40.5zM327 1235l-104 113l280 265h165l278 -265l-100 -113l-260 186z" />
    <glyph glyph-name="atilde" unicode="&#xe3;" 
d="M1006 279q0 -61 18 -88.5t58 -41.5l-57 -177q-85 9 -144.5 42.5t-91.5 100.5q-60 -73 -151.5 -109t-191.5 -36q-162 0 -257 92t-95 239q0 169 132.5 260.5t375.5 91.5h148v57q0 94 -58 136.5t-167 42.5q-51 0 -127.5 -13.5t-157.5 -41.5l-63 181q101 38 203.5 56
t186.5 18q223 0 331 -94.5t108 -267.5v-448zM532 161q60 0 121.5 34t96.5 95v206h-104q-147 0 -212.5 -47t-65.5 -133q0 -74 42 -114.5t122 -40.5zM699 1286q-56 0 -94.5 23t-70 46t-65.5 23q-36 0 -59 -22.5t-47 -66.5l-141 69q37 87 98 149.5t145 62.5q60 0 98.5 -23
t68.5 -46t65 -23q32 0 55.5 21.5t49.5 65.5l141 -70q-39 -94 -101.5 -151.5t-142.5 -57.5z" />
    <glyph glyph-name="adieresis" unicode="&#xe4;" 
d="M1006 279q0 -61 18 -88.5t58 -41.5l-57 -177q-85 9 -144.5 42.5t-91.5 100.5q-60 -73 -151.5 -109t-191.5 -36q-162 0 -257 92t-95 239q0 169 132.5 260.5t375.5 91.5h148v57q0 94 -58 136.5t-167 42.5q-51 0 -127.5 -13.5t-157.5 -41.5l-63 181q101 38 203.5 56
t186.5 18q223 0 331 -94.5t108 -267.5v-448zM532 161q60 0 121.5 34t96.5 95v206h-104q-147 0 -212.5 -47t-65.5 -133q0 -74 42 -114.5t122 -40.5zM362 1283q-61 0 -103 40t-42 101q0 60 42 100.5t103 40.5q62 0 103.5 -40.5t41.5 -100.5q0 -61 -41.5 -101t-103.5 -40z
M807 1283q-60 0 -102 40t-42 101q0 60 42 100.5t102 40.5q62 0 104 -40.5t42 -100.5q0 -61 -42 -101t-104 -40z" />
    <glyph glyph-name="aring" unicode="&#xe5;" 
d="M1006 279q0 -61 18 -88.5t58 -41.5l-57 -177q-85 9 -144.5 42.5t-91.5 100.5q-60 -73 -151.5 -109t-191.5 -36q-162 0 -257 92t-95 239q0 169 132.5 260.5t375.5 91.5h148v57q0 94 -58 136.5t-167 42.5q-51 0 -127.5 -13.5t-157.5 -41.5l-63 181q101 38 203.5 56
t186.5 18q223 0 331 -94.5t108 -267.5v-448zM532 161q60 0 121.5 34t96.5 95v206h-104q-147 0 -212.5 -47t-65.5 -133q0 -74 42 -114.5t122 -40.5zM584 1701q79 0 137 -33t90 -88.5t32 -121.5q0 -65 -32 -120.5t-90 -89t-137 -33.5q-78 0 -136 33.5t-89.5 89t-31.5 120.5
q0 66 31.5 121.5t89.5 88.5t136 33zM584 1562q-43 0 -69 -26.5t-26 -77.5t26 -78t69 -27q44 0 70.5 27t26.5 78t-26.5 77.5t-70.5 26.5z" />
    <glyph glyph-name="ae" unicode="&#xe6;" 
d="M861 1089q185 0 264.5 -140t79.5 -395q0 -53 -6 -97h-501q14 -155 63 -229t142 -74q52 0 94.5 18.5t87.5 51.5l105 -143q-59 -49 -131.5 -80t-168.5 -31q-109 0 -185.5 45.5t-129.5 131.5q-59 -93 -122 -135t-165 -42q-139 0 -219.5 93t-80.5 240q0 168 103 257t310 89
h85v61q0 105 -46.5 154.5t-132.5 49.5q-50 0 -91.5 -11t-103.5 -40l-62 157q74 33 141.5 51t141.5 18q111 0 174.5 -41.5t97.5 -111.5q34 70 98.5 111.5t157.5 41.5zM486 498h-57q-115 0 -160.5 -49t-45.5 -133q0 -80 29.5 -123.5t81.5 -43.5q51 0 90.5 37t75.5 109
q-6 48 -10 100t-4 103zM852 912q-72 0 -108.5 -65t-45.5 -233h295q-2 150 -31 224t-110 74z" />
    <glyph glyph-name="ccedilla" unicode="&#xe7;" 
d="M694 182q70 0 131.5 26t118.5 66l120 -169q-70 -59 -169 -97t-212 -38q-166 0 -284.5 69.5t-182 194t-63.5 289.5q0 163 64.5 291.5t184 201.5t285.5 73q114 0 206.5 -32.5t169.5 -96.5l-117 -162q-59 41 -121.5 62.5t-129.5 21.5q-117 0 -190.5 -84.5t-73.5 -274.5
q0 -125 34.5 -200t94 -108t134.5 -33zM732 -287q0 45 -46.5 59.5t-134.5 14.5l25 245h154v-134q103 -11 151.5 -62.5t48.5 -124.5q0 -68 -36 -117t-99 -75.5t-144 -26.5q-68 0 -127 17t-99 40l67 128q28 -15 62.5 -24t67.5 -9q50 0 80 15.5t30 53.5z" />
    <glyph glyph-name="egrave" unicode="&#xe8;" 
d="M386 449q8 -99 45.5 -161t96.5 -91t131 -29q76 0 143 24t132 67l110 -151q-74 -62 -176.5 -100t-225.5 -38q-172 0 -289.5 71t-177.5 197t-60 290q0 158 59 285t170 201.5t268 74.5q146 0 252 -64t164 -183.5t58 -287.5q0 -27 -1.5 -55t-3.5 -50h-695zM613 903
q-96 0 -157.5 -68.5t-72.5 -216.5h446q-2 134 -55.5 209.5t-160.5 75.5zM805 1244l-449 187l112 204l412 -255z" />
    <glyph glyph-name="eacute" unicode="&#xe9;" 
d="M386 449q8 -99 45.5 -161t96.5 -91t131 -29q76 0 143 24t132 67l110 -151q-74 -62 -176.5 -100t-225.5 -38q-172 0 -289.5 71t-177.5 197t-60 290q0 158 59 285t170 201.5t268 74.5q146 0 252 -64t164 -183.5t58 -287.5q0 -27 -1.5 -55t-3.5 -50h-695zM613 903
q-96 0 -157.5 -68.5t-72.5 -216.5h446q-2 134 -55.5 209.5t-160.5 75.5zM773 1643l107 -205l-453 -181l-74 136z" />
    <glyph glyph-name="ecircumflex" unicode="&#xea;" 
d="M386 449q8 -99 45.5 -161t96.5 -91t131 -29q76 0 143 24t132 67l110 -151q-74 -62 -176.5 -100t-225.5 -38q-172 0 -289.5 71t-177.5 197t-60 290q0 158 59 285t170 201.5t268 74.5q146 0 252 -64t164 -183.5t58 -287.5q0 -27 -1.5 -55t-3.5 -50h-695zM613 903
q-96 0 -157.5 -68.5t-72.5 -216.5h446q-2 134 -55.5 209.5t-160.5 75.5zM358 1235l-104 113l280 265h165l278 -265l-100 -113l-260 186z" />
    <glyph glyph-name="edieresis" unicode="&#xeb;" 
d="M386 449q8 -99 45.5 -161t96.5 -91t131 -29q76 0 143 24t132 67l110 -151q-74 -62 -176.5 -100t-225.5 -38q-172 0 -289.5 71t-177.5 197t-60 290q0 158 59 285t170 201.5t268 74.5q146 0 252 -64t164 -183.5t58 -287.5q0 -27 -1.5 -55t-3.5 -50h-695zM613 903
q-96 0 -157.5 -68.5t-72.5 -216.5h446q-2 134 -55.5 209.5t-160.5 75.5zM393 1283q-61 0 -103 40t-42 101q0 60 42 100.5t103 40.5q62 0 103.5 -40.5t41.5 -100.5q0 -61 -41.5 -101t-103.5 -40zM838 1283q-60 0 -102 40t-42 101q0 60 42 100.5t102 40.5q62 0 104 -40.5
t42 -100.5q0 -61 -42 -101t-104 -40z" />
    <glyph glyph-name="igrave" unicode="&#xec;" 
d="M770 1059v-872h279v-187h-853v187h310v685h-300v187h564zM789 1244l-449 187l112 204l412 -255z" />
    <glyph glyph-name="iacute" unicode="&#xed;" 
d="M770 1059v-872h279v-187h-853v187h310v685h-300v187h564zM757 1643l107 -205l-453 -181l-74 136z" />
    <glyph glyph-name="icircumflex" unicode="&#xee;" 
d="M770 1059v-872h279v-187h-853v187h310v685h-300v187h564zM342 1235l-104 113l280 265h165l278 -265l-100 -113l-260 186z" />
    <glyph glyph-name="idieresis" unicode="&#xef;" 
d="M770 1059v-872h279v-187h-853v187h310v685h-300v187h564zM377 1283q-61 0 -103 40t-42 101q0 60 42 100.5t103 40.5q62 0 103.5 -40.5t41.5 -100.5q0 -61 -41.5 -101t-103.5 -40zM822 1283q-60 0 -102 40t-42 101q0 60 42 100.5t102 40.5q62 0 104 -40.5t42 -100.5
q0 -61 -42 -101t-104 -40z" />
    <glyph glyph-name="eth" unicode="&#xf0;" 
d="M283 1136l132 138q-44 17 -94 30.5t-107 25.5l54 180q84 -15 158 -35t136 -47l144 150l140 -122l-113 -115q189 -124 276 -323t87 -474q0 -166 -60 -295.5t-173 -204t-274 -74.5q-137 0 -248.5 58.5t-177 170t-65.5 270.5q0 148 59.5 259t157 173t212.5 62q93 0 161 -29
t123 -85q-31 112 -90.5 195t-139.5 141l-127 -130zM829 521q0 37 -0.5 71t-3.5 67q-42 55 -103.5 84t-133.5 29q-62 0 -112 -32t-79.5 -97.5t-29.5 -168.5q0 -157 62 -232t163 -75q116 0 176.5 88.5t60.5 265.5z" />
    <glyph glyph-name="ntilde" unicode="&#xf1;" 
d="M161 0v1059h230l19 -131q68 80 153 120.5t183 40.5q143 0 218 -82.5t75 -231.5v-775h-264v672q0 80 -10 128.5t-38 70t-81 21.5q-43 0 -82.5 -19t-74 -51t-64.5 -71v-751h-264zM715 1286q-56 0 -94.5 23t-70 46t-65.5 23q-36 0 -59 -22.5t-47 -66.5l-141 69
q37 87 98 149.5t145 62.5q60 0 98.5 -23t68.5 -46t65 -23q32 0 55.5 21.5t49.5 65.5l141 -70q-39 -94 -101.5 -151.5t-142.5 -57.5z" />
    <glyph glyph-name="ograve" unicode="&#xf2;" 
d="M601 1089q158 0 268 -69t167.5 -194.5t57.5 -293.5q0 -172 -58 -298t-168 -195t-268 -69q-157 0 -267.5 67.5t-168.5 193t-58 299.5q0 166 58 292t169 196.5t268 70.5zM601 890q-111 0 -165.5 -87t-54.5 -273q0 -188 54 -274.5t165 -86.5t165 86.5t54 276.5
q0 185 -54 271.5t-164 86.5zM789 1244l-449 187l112 204l412 -255z" />
    <glyph glyph-name="oacute" unicode="&#xf3;" 
d="M601 1089q158 0 268 -69t167.5 -194.5t57.5 -293.5q0 -172 -58 -298t-168 -195t-268 -69q-157 0 -267.5 67.5t-168.5 193t-58 299.5q0 166 58 292t169 196.5t268 70.5zM601 890q-111 0 -165.5 -87t-54.5 -273q0 -188 54 -274.5t165 -86.5t165 86.5t54 276.5
q0 185 -54 271.5t-164 86.5zM757 1643l107 -205l-453 -181l-74 136z" />
    <glyph glyph-name="ocircumflex" unicode="&#xf4;" 
d="M601 1089q158 0 268 -69t167.5 -194.5t57.5 -293.5q0 -172 -58 -298t-168 -195t-268 -69q-157 0 -267.5 67.5t-168.5 193t-58 299.5q0 166 58 292t169 196.5t268 70.5zM601 890q-111 0 -165.5 -87t-54.5 -273q0 -188 54 -274.5t165 -86.5t165 86.5t54 276.5
q0 185 -54 271.5t-164 86.5zM342 1235l-104 113l280 265h165l278 -265l-100 -113l-260 186z" />
    <glyph glyph-name="otilde" unicode="&#xf5;" 
d="M601 1089q158 0 268 -69t167.5 -194.5t57.5 -293.5q0 -172 -58 -298t-168 -195t-268 -69q-157 0 -267.5 67.5t-168.5 193t-58 299.5q0 166 58 292t169 196.5t268 70.5zM601 890q-111 0 -165.5 -87t-54.5 -273q0 -188 54 -274.5t165 -86.5t165 86.5t54 276.5
q0 185 -54 271.5t-164 86.5zM714 1286q-56 0 -94.5 23t-70 46t-65.5 23q-36 0 -59 -22.5t-47 -66.5l-141 69q37 87 98 149.5t145 62.5q60 0 98.5 -23t68.5 -46t65 -23q32 0 55.5 21.5t49.5 65.5l141 -70q-39 -94 -101.5 -151.5t-142.5 -57.5z" />
    <glyph glyph-name="odieresis" unicode="&#xf6;" 
d="M601 1089q158 0 268 -69t167.5 -194.5t57.5 -293.5q0 -172 -58 -298t-168 -195t-268 -69q-157 0 -267.5 67.5t-168.5 193t-58 299.5q0 166 58 292t169 196.5t268 70.5zM601 890q-111 0 -165.5 -87t-54.5 -273q0 -188 54 -274.5t165 -86.5t165 86.5t54 276.5
q0 185 -54 271.5t-164 86.5zM377 1283q-61 0 -103 40t-42 101q0 60 42 100.5t103 40.5q62 0 103.5 -40.5t41.5 -100.5q0 -61 -41.5 -101t-103.5 -40zM822 1283q-60 0 -102 40t-42 101q0 60 42 100.5t102 40.5q62 0 104 -40.5t42 -100.5q0 -61 -42 -101t-104 -40z" />
    <glyph glyph-name="divide" unicode="&#xf7;" 
d="M1011 736v-208h-822v208h822zM600 381q69 0 117 -48t48 -116t-48 -116.5t-117 -48.5t-117 48.5t-48 116.5t48 116t117 48zM600 1211q69 0 117 -48t48 -115t-48 -115t-117 -48t-117 48t-48 115t48 115t117 48z" />
    <glyph glyph-name="oslash" unicode="&#xf8;" 
d="M601 1089q157 0 266.5 -69t168 -194.5t58.5 -293.5q0 -172 -58 -298t-168 -195t-268 -69q-155 0 -265.5 67.5t-169.5 193t-59 299.5q0 166 58 292t169 196.5t268 70.5zM752 1320l199 -59l-87 -262l-91 -151l-223 -707l-21 -150l-79 -260l-200 58l92 275l88 149l226 715
l15 141zM601 894q-113 0 -168.5 -87.5t-55.5 -276.5q0 -137 21.5 -217t71 -114t130.5 -34q113 0 168 87.5t55 279.5q0 135 -21.5 214t-70 113.5t-130.5 34.5z" />
    <glyph glyph-name="ugrave" unicode="&#xf9;" 
d="M425 1059v-734q0 -86 34 -121t99 -35q62 0 121 37.5t96 95.5v757h264v-1059h-230l-14 130q-57 -78 -146 -119t-184 -41q-153 0 -228.5 86.5t-75.5 236.5v766h264zM789 1244l-449 187l112 204l412 -255z" />
    <glyph glyph-name="uacute" unicode="&#xfa;" 
d="M425 1059v-734q0 -86 34 -121t99 -35q62 0 121 37.5t96 95.5v757h264v-1059h-230l-14 130q-57 -78 -146 -119t-184 -41q-153 0 -228.5 86.5t-75.5 236.5v766h264zM757 1643l107 -205l-453 -181l-74 136z" />
    <glyph glyph-name="ucircumflex" unicode="&#xfb;" 
d="M425 1059v-734q0 -86 34 -121t99 -35q62 0 121 37.5t96 95.5v757h264v-1059h-230l-14 130q-57 -78 -146 -119t-184 -41q-153 0 -228.5 86.5t-75.5 236.5v766h264zM342 1235l-104 113l280 265h165l278 -265l-100 -113l-260 186z" />
    <glyph glyph-name="udieresis" unicode="&#xfc;" 
d="M425 1059v-734q0 -86 34 -121t99 -35q62 0 121 37.5t96 95.5v757h264v-1059h-230l-14 130q-57 -78 -146 -119t-184 -41q-153 0 -228.5 86.5t-75.5 236.5v766h264zM377 1283q-61 0 -103 40t-42 101q0 60 42 100.5t103 40.5q62 0 103.5 -40.5t41.5 -100.5q0 -61 -41.5 -101
t-103.5 -40zM822 1283q-60 0 -102 40t-42 101q0 60 42 100.5t102 40.5q62 0 104 -40.5t42 -100.5q0 -61 -42 -101t-104 -40z" />
    <glyph glyph-name="yacute" unicode="&#xfd;" 
d="M1120 1059l-359 -1061q-44 -130 -114 -223t-176.5 -147.5t-260.5 -64.5l-33 191q107 15 171 45t102.5 79t66.5 122h-90l-347 1059h279l240 -883l250 883h271zM757 1643l107 -205l-453 -181l-74 136z" />
    <glyph glyph-name="thorn" unicode="&#xfe;" 
d="M425 1510v-566q52 70 124.5 107.5t158.5 37.5q140 0 224.5 -68.5t123 -193.5t38.5 -295q0 -163 -47 -290t-137.5 -199.5t-222.5 -72.5q-162 0 -262 115v-493l-264 -28v1918zM631 891q-67 0 -117.5 -40t-88.5 -99v-474q36 -54 82 -81t104 -27q101 0 154.5 84.5t53.5 274.5
q0 134 -21.5 213.5t-63.5 114t-103 34.5z" />
    <glyph glyph-name="ydieresis" unicode="&#xff;" 
d="M1120 1059l-359 -1061q-44 -130 -114 -223t-176.5 -147.5t-260.5 -64.5l-33 191q107 15 171 45t102.5 79t66.5 122h-90l-347 1059h279l240 -883l250 883h271zM377 1283q-61 0 -103 40t-42 101q0 60 42 100.5t103 40.5q62 0 103.5 -40.5t41.5 -100.5q0 -61 -41.5 -101
t-103.5 -40zM822 1283q-60 0 -102 40t-42 101q0 60 42 100.5t102 40.5q62 0 104 -40.5t42 -100.5q0 -61 -42 -101t-104 -40z" />
    <glyph glyph-name="Amacron" unicode="&#x100;" 
d="M824 317h-455l-86 -317h-283l433 1383h336l432 -1383h-291zM418 522h355l-177 656zM892 1574h-585v188h585v-188z" />
    <glyph glyph-name="amacron" unicode="&#x101;" 
d="M1006 279q0 -61 18 -88.5t58 -41.5l-57 -177q-85 9 -144.5 42.5t-91.5 100.5q-60 -73 -151.5 -109t-191.5 -36q-162 0 -257 92t-95 239q0 169 132.5 260.5t375.5 91.5h148v57q0 94 -58 136.5t-167 42.5q-51 0 -127.5 -13.5t-157.5 -41.5l-63 181q101 38 203.5 56
t186.5 18q223 0 331 -94.5t108 -267.5v-448zM532 161q60 0 121.5 34t96.5 95v206h-104q-147 0 -212.5 -47t-65.5 -133q0 -74 42 -114.5t122 -40.5zM877 1328h-585v188h585v-188z" />
    <glyph glyph-name="Abreve" unicode="&#x102;" 
d="M824 317h-455l-86 -317h-283l433 1383h336l432 -1383h-291zM418 522h355l-177 656zM598 1507q-98 0 -168 37.5t-110 102t-49 145.5l154 29q20 -62 62 -93.5t111 -31.5q70 0 113 31.5t63 93.5l154 -29q-9 -81 -49.5 -145.5t-111 -102t-169.5 -37.5z" />
    <glyph glyph-name="abreve" unicode="&#x103;" 
d="M1006 279q0 -61 18 -88.5t58 -41.5l-57 -177q-85 9 -144.5 42.5t-91.5 100.5q-60 -73 -151.5 -109t-191.5 -36q-162 0 -257 92t-95 239q0 169 132.5 260.5t375.5 91.5h148v57q0 94 -58 136.5t-167 42.5q-51 0 -127.5 -13.5t-157.5 -41.5l-63 181q101 38 203.5 56
t186.5 18q223 0 331 -94.5t108 -267.5v-448zM532 161q60 0 121.5 34t96.5 95v206h-104q-147 0 -212.5 -47t-65.5 -133q0 -74 42 -114.5t122 -40.5zM583 1236q-103 0 -173 47.5t-108 122t-46 152.5l154 29q19 -73 61.5 -118.5t111.5 -45.5q71 0 114 45.5t62 118.5l154 -29
q-8 -78 -46.5 -152.5t-109 -122t-174.5 -47.5z" />
    <glyph glyph-name="Aogonek" unicode="&#x104;" 
d="M824 317h-455l-86 -317h-283l433 1383h336l432 -1383h-291zM418 522h355l-177 656zM1038 88l32 -88q-97 -37 -148 -73.5t-70 -73.5t-19 -76q0 -48 29.5 -72.5t85.5 -24.5q32 0 58 3.5t55 10.5l-21 -169q-28 -6 -56.5 -10.5t-64.5 -4.5q-123 0 -202.5 61.5t-79.5 167.5
q0 93 49.5 157.5t139.5 110t212 81.5z" />
    <glyph glyph-name="aogonek" unicode="&#x105;" 
d="M1006 279q0 -61 18 -88.5t58 -41.5l-57 -177q-85 9 -144.5 42.5t-91.5 100.5q-60 -73 -151.5 -109t-191.5 -36q-162 0 -257 92t-95 239q0 169 132.5 260.5t375.5 91.5h148v57q0 94 -58 136.5t-167 42.5q-51 0 -127.5 -13.5t-157.5 -41.5l-63 181q101 38 203.5 56
t186.5 18q223 0 331 -94.5t108 -267.5v-448zM532 161q60 0 121.5 34t96.5 95v206h-104q-147 0 -212.5 -47t-65.5 -133q0 -74 42 -114.5t122 -40.5zM994 60l32 -88q-97 -37 -148 -73.5t-70 -73.5t-19 -76q0 -48 29.5 -72.5t85.5 -24.5q32 0 58 3.5t55 10.5l-21 -169
q-28 -6 -56.5 -10.5t-64.5 -4.5q-123 0 -202.5 61.5t-79.5 167.5q0 93 49.5 157.5t139.5 110t212 81.5z" />
    <glyph glyph-name="Cacute" unicode="&#x106;" 
d="M716 1413q144 0 244 -37.5t185 -107.5l-139 -165q-59 50 -129.5 76t-150.5 26q-96 0 -176.5 -51t-129 -163.5t-48.5 -296.5q0 -181 46.5 -293t127 -163.5t182.5 -51.5q108 0 179 38t128 83l129 -163q-73 -72 -182.5 -123t-265.5 -51q-181 0 -323 83t-223 244t-81 397
q0 232 83.5 392.5t226 243.5t317.5 83zM885 1872l103 -203l-458 -164l-64 136z" />
    <glyph glyph-name="cacute" unicode="&#x107;" 
d="M694 182q70 0 131.5 26t118.5 66l120 -169q-70 -59 -169 -97t-212 -38q-166 0 -284.5 69.5t-182 194t-63.5 289.5q0 163 64.5 291.5t184 201.5t285.5 73q114 0 206.5 -32.5t169.5 -96.5l-117 -162q-59 41 -121.5 62.5t-129.5 21.5q-117 0 -190.5 -84.5t-73.5 -274.5
q0 -125 34.5 -200t94 -108t134.5 -33zM845 1620l107 -205l-453 -181l-74 136z" />
    <glyph glyph-name="Ccircumflex" unicode="&#x108;" 
d="M716 1413q144 0 244 -37.5t185 -107.5l-139 -165q-59 50 -129.5 76t-150.5 26q-96 0 -176.5 -51t-129 -163.5t-48.5 -296.5q0 -181 46.5 -293t127 -163.5t182.5 -51.5q108 0 179 38t128 83l129 -163q-73 -72 -182.5 -123t-265.5 -51q-181 0 -323 83t-223 244t-81 397
q0 232 83.5 392.5t226 243.5t317.5 83zM808 1863l278 -245l-100 -113l-261 166l-261 -166l-101 113l280 245h165z" />
    <glyph glyph-name="ccircumflex" unicode="&#x109;" 
d="M694 182q70 0 131.5 26t118.5 66l120 -169q-70 -59 -169 -97t-212 -38q-166 0 -284.5 69.5t-182 194t-63.5 289.5q0 163 64.5 291.5t184 201.5t285.5 73q114 0 206.5 -32.5t169.5 -96.5l-117 -162q-59 41 -121.5 62.5t-129.5 21.5q-117 0 -190.5 -84.5t-73.5 -274.5
q0 -125 34.5 -200t94 -108t134.5 -33zM430 1212l-104 113l280 265h165l278 -265l-100 -113l-260 186z" />
    <glyph glyph-name="Cdotaccent" unicode="&#x10a;" 
d="M716 1413q144 0 244 -37.5t185 -107.5l-139 -165q-59 50 -129.5 76t-150.5 26q-96 0 -176.5 -51t-129 -163.5t-48.5 -296.5q0 -181 46.5 -293t127 -163.5t182.5 -51.5q108 0 179 38t128 83l129 -163q-73 -72 -182.5 -123t-265.5 -51q-181 0 -323 83t-223 244t-81 397
q0 232 83.5 392.5t226 243.5t317.5 83zM724 1839q73 0 118.5 -45t45.5 -112t-45.5 -112.5t-118.5 -45.5t-118.5 45.5t-45.5 112.5t45.5 112t118.5 45z" />
    <glyph glyph-name="cdotaccent" unicode="&#x10b;" 
d="M694 182q70 0 131.5 26t118.5 66l120 -169q-70 -59 -169 -97t-212 -38q-166 0 -284.5 69.5t-182 194t-63.5 289.5q0 163 64.5 291.5t184 201.5t285.5 73q114 0 206.5 -32.5t169.5 -96.5l-117 -162q-59 41 -121.5 62.5t-129.5 21.5q-117 0 -190.5 -84.5t-73.5 -274.5
q0 -125 34.5 -200t94 -108t134.5 -33zM687 1570q73 0 118.5 -45t45.5 -112t-45.5 -112.5t-118.5 -45.5t-118.5 45.5t-45.5 112.5t45.5 112t118.5 45z" />
    <glyph glyph-name="Ccaron" unicode="&#x10c;" 
d="M716 1413q144 0 244 -37.5t185 -107.5l-139 -165q-59 50 -129.5 76t-150.5 26q-96 0 -176.5 -51t-129 -163.5t-48.5 -296.5q0 -181 46.5 -293t127 -163.5t182.5 -51.5q108 0 179 38t128 83l129 -163q-73 -72 -182.5 -123t-265.5 -51q-181 0 -323 83t-223 244t-81 397
q0 232 83.5 392.5t226 243.5t317.5 83zM986 1863l100 -114l-278 -245h-165l-280 245l101 114l261 -167z" />
    <glyph glyph-name="ccaron" unicode="&#x10d;" 
d="M694 182q70 0 131.5 26t118.5 66l120 -169q-70 -59 -169 -97t-212 -38q-166 0 -284.5 69.5t-182 194t-63.5 289.5q0 163 64.5 291.5t184 201.5t285.5 73q114 0 206.5 -32.5t169.5 -96.5l-117 -162q-59 41 -121.5 62.5t-129.5 21.5q-117 0 -190.5 -84.5t-73.5 -274.5
q0 -125 34.5 -200t94 -108t134.5 -33zM949 1590l100 -113l-278 -265h-165l-280 265l104 113l259 -186z" />
    <glyph glyph-name="Dcaron" unicode="&#x10e;" 
d="M848 698q0 154 -28.5 249t-77.5 145.5t-111 68.5t-129 18h-102v-976h103q70 0 132.5 22t110.5 76.5t75 151t27 245.5zM1134 698q0 -170 -36.5 -291t-100.5 -200.5t-147.5 -124.5t-178 -63.5t-191.5 -18.5h-354v1383h330q129 0 250 -27.5t217.5 -100.5t153.5 -207.5
t57 -349.5zM833 1863l100 -114l-278 -245h-165l-280 245l101 114l261 -167z" />
    <glyph glyph-name="dcaron" unicode="&#x10f;" 
d="M705 1510l264 -28v-1482h-234l-16 125q-49 -70 -123 -112.5t-172 -42.5q-134 0 -221.5 70t-130 196.5t-42.5 294.5q0 162 50 288t144.5 198t224.5 72q78 0 142 -27t114 -80v528zM520 892q-100 0 -157.5 -86.5t-57.5 -275.5q0 -133 24 -212.5t68 -114.5t104 -35
q66 0 116.5 39.5t87.5 98.5v482q-37 49 -82.5 76.5t-102.5 27.5zM1097 1516l232 -28l-137 -425l-161 25z" />
    <glyph glyph-name="Dcroat" unicode="&#x110;" 
d="M689 794v-176h-662v176h662zM872 698q0 154 -29 249t-77.5 145.5t-110.5 68.5t-129 18h-103v-976h103q71 0 133 22t110 76.5t75.5 151t27.5 245.5zM1157 698q0 -170 -36 -291t-100 -200.5t-147.5 -124.5t-178 -63.5t-192.5 -18.5h-353v1383h330q129 0 250 -27.5
t217.5 -100.5t153 -207.5t56.5 -349.5z" />
    <glyph glyph-name="dcroat" unicode="&#x111;" 
d="M1016 1356h159v-167h-423h-278v167h542zM752 1510l264 -28v-1482h-233l-16 125q-49 -70 -123.5 -112.5t-172.5 -42.5q-134 0 -221 70t-130 196.5t-43 294.5q0 162 50.5 288t144.5 198t225 72q78 0 142 -27t113 -80v528zM567 892q-99 0 -156.5 -86.5t-57.5 -275.5
q0 -133 24 -212.5t67.5 -114.5t103.5 -35q66 0 116.5 39.5t87.5 98.5v482q-36 49 -81.5 76.5t-103.5 27.5z" />
    <glyph glyph-name="Emacron" unicode="&#x112;" 
d="M483 1181v-379h490v-199h-490v-402h595v-201h-869v1383h862l-28 -202h-560zM933 1574h-585v188h585v-188z" />
    <glyph glyph-name="emacron" unicode="&#x113;" 
d="M386 449q8 -99 45.5 -161t96.5 -91t131 -29q76 0 143 24t132 67l110 -151q-74 -62 -176.5 -100t-225.5 -38q-172 0 -289.5 71t-177.5 197t-60 290q0 158 59 285t170 201.5t268 74.5q146 0 252 -64t164 -183.5t58 -287.5q0 -27 -1.5 -55t-3.5 -50h-695zM613 903
q-96 0 -157.5 -68.5t-72.5 -216.5h446q-2 134 -55.5 209.5t-160.5 75.5zM908 1328h-585v188h585v-188z" />
    <glyph glyph-name="Ebreve" unicode="&#x114;" 
d="M483 1181v-379h490v-199h-490v-402h595v-201h-869v1383h862l-28 -202h-560zM639 1507q-98 0 -168 37.5t-110 102t-49 145.5l154 29q20 -62 62 -93.5t111 -31.5q70 0 113 31.5t63 93.5l154 -29q-9 -81 -49.5 -145.5t-111 -102t-169.5 -37.5z" />
    <glyph glyph-name="ebreve" unicode="&#x115;" 
d="M386 449q8 -99 45.5 -161t96.5 -91t131 -29q76 0 143 24t132 67l110 -151q-74 -62 -176.5 -100t-225.5 -38q-172 0 -289.5 71t-177.5 197t-60 290q0 158 59 285t170 201.5t268 74.5q146 0 252 -64t164 -183.5t58 -287.5q0 -27 -1.5 -55t-3.5 -50h-695zM613 903
q-96 0 -157.5 -68.5t-72.5 -216.5h446q-2 134 -55.5 209.5t-160.5 75.5zM614 1236q-103 0 -173 47.5t-108 122t-46 152.5l154 29q19 -73 61.5 -118.5t111.5 -45.5q71 0 114 45.5t62 118.5l154 -29q-8 -78 -46.5 -152.5t-109 -122t-174.5 -47.5z" />
    <glyph glyph-name="Edotaccent" unicode="&#x116;" 
d="M483 1181v-379h490v-199h-490v-402h595v-201h-869v1383h862l-28 -202h-560zM640 1839q73 0 118.5 -45t45.5 -112t-45.5 -112.5t-118.5 -45.5t-118.5 45.5t-45.5 112.5t45.5 112t118.5 45z" />
    <glyph glyph-name="edotaccent" unicode="&#x117;" 
d="M386 449q8 -99 45.5 -161t96.5 -91t131 -29q76 0 143 24t132 67l110 -151q-74 -62 -176.5 -100t-225.5 -38q-172 0 -289.5 71t-177.5 197t-60 290q0 158 59 285t170 201.5t268 74.5q146 0 252 -64t164 -183.5t58 -287.5q0 -27 -1.5 -55t-3.5 -50h-695zM613 903
q-96 0 -157.5 -68.5t-72.5 -216.5h446q-2 134 -55.5 209.5t-160.5 75.5zM615 1593q73 0 118.5 -45t45.5 -112t-45.5 -112.5t-118.5 -45.5t-118.5 45.5t-45.5 112.5t45.5 112t118.5 45z" />
    <glyph glyph-name="Eogonek" unicode="&#x118;" 
d="M483 1181v-379h490v-199h-490v-402h595v-201h-869v1383h862l-28 -202h-560zM903 88l32 -88q-97 -37 -148 -73.5t-70 -73.5t-19 -76q0 -48 29.5 -72.5t85.5 -24.5q32 0 58 3.5t55 10.5l-21 -169q-28 -6 -56.5 -10.5t-64.5 -4.5q-123 0 -202.5 61.5t-79.5 167.5
q0 93 49.5 157.5t139.5 110t212 81.5z" />
    <glyph glyph-name="eogonek" unicode="&#x119;" 
d="M822 65l23 -65q-97 -37 -147.5 -73.5t-69.5 -73.5t-19 -76q0 -48 29 -72.5t85 -24.5q32 0 58 3.5t56 10.5l-22 -169q-28 -6 -56.5 -10.5t-64.5 -4.5q-123 0 -202.5 61.5t-79.5 167.5q0 87 51.5 149.5t144 105.5t214.5 71zM386 449q8 -99 45.5 -161t96.5 -91t131 -29
q76 0 143 24t132 67l110 -151q-74 -62 -176.5 -100t-225.5 -38q-172 0 -289.5 71t-177.5 197t-60 290q0 158 59 285t170 201.5t268 74.5q146 0 252 -64t164 -183.5t58 -287.5q0 -27 -1.5 -55t-3.5 -50h-695zM613 903q-96 0 -157.5 -68.5t-72.5 -216.5h446
q-2 134 -55.5 209.5t-160.5 75.5z" />
    <glyph glyph-name="Ecaron" unicode="&#x11a;" 
d="M483 1181v-379h490v-199h-490v-402h595v-201h-869v1383h862l-28 -202h-560zM902 1863l100 -114l-278 -245h-165l-280 245l101 114l261 -167z" />
    <glyph glyph-name="ecaron" unicode="&#x11b;" 
d="M386 449q8 -99 45.5 -161t96.5 -91t131 -29q76 0 143 24t132 67l110 -151q-74 -62 -176.5 -100t-225.5 -38q-172 0 -289.5 71t-177.5 197t-60 290q0 158 59 285t170 201.5t268 74.5q146 0 252 -64t164 -183.5t58 -287.5q0 -27 -1.5 -55t-3.5 -50h-695zM613 903
q-96 0 -157.5 -68.5t-72.5 -216.5h446q-2 134 -55.5 209.5t-160.5 75.5zM877 1613l100 -113l-278 -265h-165l-280 265l104 113l259 -186z" />
    <glyph glyph-name="Gcircumflex" unicode="&#x11c;" 
d="M643 -30q-185 0 -315 82t-198.5 243t-68.5 399q0 177 49 311.5t134.5 225t198 136.5t238.5 46q146 0 245 -44t180 -120l-149 -153q-63 57 -125 84t-140 27q-72 0 -134.5 -28t-110 -89t-74.5 -159t-27 -239q0 -187 33.5 -300.5t101 -164t169.5 -50.5q57 0 107.5 13.5
t96.5 36.5v353h-208l-28 200h497v-677q-100 -59 -214.5 -96t-257.5 -37zM743 1863l278 -245l-100 -113l-261 166l-261 -166l-101 113l280 245h165z" />
    <glyph glyph-name="gcircumflex" unicode="&#x11d;" 
d="M1074 1208l66 -206q-60 -21 -135 -29.5t-172 -8.5q97 -42 147.5 -106.5t50.5 -163.5q0 -103 -52.5 -184t-149 -127t-229.5 -46q-41 0 -73 4t-62 11q-20 -11 -31 -32t-11 -43q0 -30 23.5 -51.5t101.5 -21.5h180q117 0 205.5 -39.5t138 -106.5t49.5 -154q0 -160 -139 -250
t-406 -90q-191 0 -297.5 39t-149.5 113.5t-43 179.5h235q0 -51 20.5 -84t77 -49t162.5 -16t166.5 17t85.5 48.5t25 73.5q0 57 -48 89t-136 32h-175q-160 0 -233 62.5t-73 144.5q0 56 30.5 107.5t87.5 87.5q-98 52 -141.5 124.5t-43.5 175.5q0 115 58 200t161 132t237 47
q123 -1 209.5 15t153 44t129.5 61zM587 912q-94 0 -143.5 -55t-49.5 -146q0 -94 51 -149t143 -55q91 0 138.5 53.5t47.5 153.5t-47.5 149t-139.5 49zM339 1235l-104 113l280 265h165l278 -265l-100 -113l-260 186z" />
    <glyph glyph-name="Gbreve" unicode="&#x11e;" 
d="M643 -30q-185 0 -315 82t-198.5 243t-68.5 399q0 177 49 311.5t134.5 225t198 136.5t238.5 46q146 0 245 -44t180 -120l-149 -153q-63 57 -125 84t-140 27q-72 0 -134.5 -28t-110 -89t-74.5 -159t-27 -239q0 -187 33.5 -300.5t101 -164t169.5 -50.5q57 0 107.5 13.5
t96.5 36.5v353h-208l-28 200h497v-677q-100 -59 -214.5 -96t-257.5 -37zM658 1507q-98 0 -168 37.5t-110 102t-49 145.5l154 29q20 -62 62 -93.5t111 -31.5q70 0 113 31.5t63 93.5l154 -29q-9 -81 -49.5 -145.5t-111 -102t-169.5 -37.5z" />
    <glyph glyph-name="gbreve" unicode="&#x11f;" 
d="M1074 1208l66 -206q-60 -21 -135 -29.5t-172 -8.5q97 -42 147.5 -106.5t50.5 -163.5q0 -103 -52.5 -184t-149 -127t-229.5 -46q-41 0 -73 4t-62 11q-20 -11 -31 -32t-11 -43q0 -30 23.5 -51.5t101.5 -21.5h180q117 0 205.5 -39.5t138 -106.5t49.5 -154q0 -160 -139 -250
t-406 -90q-191 0 -297.5 39t-149.5 113.5t-43 179.5h235q0 -51 20.5 -84t77 -49t162.5 -16t166.5 17t85.5 48.5t25 73.5q0 57 -48 89t-136 32h-175q-160 0 -233 62.5t-73 144.5q0 56 30.5 107.5t87.5 87.5q-98 52 -141.5 124.5t-43.5 175.5q0 115 58 200t161 132t237 47
q123 -1 209.5 15t153 44t129.5 61zM587 912q-94 0 -143.5 -55t-49.5 -146q0 -94 51 -149t143 -55q91 0 138.5 53.5t47.5 153.5t-47.5 149t-139.5 49zM595 1236q-103 0 -173 47.5t-108 122t-46 152.5l154 29q19 -73 61.5 -118.5t111.5 -45.5q71 0 114 45.5t62 118.5l154 -29
q-8 -78 -46.5 -152.5t-109 -122t-174.5 -47.5z" />
    <glyph glyph-name="Gdotaccent" unicode="&#x120;" 
d="M643 -30q-185 0 -315 82t-198.5 243t-68.5 399q0 177 49 311.5t134.5 225t198 136.5t238.5 46q146 0 245 -44t180 -120l-149 -153q-63 57 -125 84t-140 27q-72 0 -134.5 -28t-110 -89t-74.5 -159t-27 -239q0 -187 33.5 -300.5t101 -164t169.5 -50.5q57 0 107.5 13.5
t96.5 36.5v353h-208l-28 200h497v-677q-100 -59 -214.5 -96t-257.5 -37zM659 1839q73 0 118.5 -45t45.5 -112t-45.5 -112.5t-118.5 -45.5t-118.5 45.5t-45.5 112.5t45.5 112t118.5 45z" />
    <glyph glyph-name="gdotaccent" unicode="&#x121;" 
d="M1074 1208l66 -206q-60 -21 -135 -29.5t-172 -8.5q97 -42 147.5 -106.5t50.5 -163.5q0 -103 -52.5 -184t-149 -127t-229.5 -46q-41 0 -73 4t-62 11q-20 -11 -31 -32t-11 -43q0 -30 23.5 -51.5t101.5 -21.5h180q117 0 205.5 -39.5t138 -106.5t49.5 -154q0 -160 -139 -250
t-406 -90q-191 0 -297.5 39t-149.5 113.5t-43 179.5h235q0 -51 20.5 -84t77 -49t162.5 -16t166.5 17t85.5 48.5t25 73.5q0 57 -48 89t-136 32h-175q-160 0 -233 62.5t-73 144.5q0 56 30.5 107.5t87.5 87.5q-98 52 -141.5 124.5t-43.5 175.5q0 115 58 200t161 132t237 47
q123 -1 209.5 15t153 44t129.5 61zM587 912q-94 0 -143.5 -55t-49.5 -146q0 -94 51 -149t143 -55q91 0 138.5 53.5t47.5 153.5t-47.5 149t-139.5 49zM596 1593q73 0 118.5 -45t45.5 -112t-45.5 -112.5t-118.5 -45.5t-118.5 45.5t-45.5 112.5t45.5 112t118.5 45z" />
    <glyph glyph-name="uni0122" unicode="&#x122;" 
d="M643 -30q-185 0 -315 82t-198.5 243t-68.5 399q0 177 49 311.5t134.5 225t198 136.5t238.5 46q146 0 245 -44t180 -120l-149 -153q-63 57 -125 84t-140 27q-72 0 -134.5 -28t-110 -89t-74.5 -159t-27 -239q0 -187 33.5 -300.5t101 -164t169.5 -50.5q57 0 107.5 13.5
t96.5 36.5v353h-208l-28 200h497v-677q-100 -59 -214.5 -96t-257.5 -37zM659 -134q59 0 99.5 -39t40.5 -99q0 -32 -11 -68t-31 -78l-99 -201h-138l55 232q-25 20 -41.5 49t-16.5 66q0 58 40.5 98t101.5 40z" />
    <glyph glyph-name="uni0123" unicode="&#x123;" 
d="M1074 1208l66 -206q-60 -21 -135 -29.5t-172 -8.5q97 -42 147.5 -106.5t50.5 -163.5q0 -103 -52.5 -184t-149 -127t-229.5 -46q-41 0 -73 4t-62 11q-20 -11 -31 -32t-11 -43q0 -30 23.5 -51.5t101.5 -21.5h180q117 0 205.5 -39.5t138 -106.5t49.5 -154q0 -160 -139 -250
t-406 -90q-191 0 -297.5 39t-149.5 113.5t-43 179.5h235q0 -51 20.5 -84t77 -49t162.5 -16t166.5 17t85.5 48.5t25 73.5q0 57 -48 89t-136 32h-175q-160 0 -233 62.5t-73 144.5q0 56 30.5 107.5t87.5 87.5q-98 52 -141.5 124.5t-43.5 175.5q0 115 58 200t161 132t237 47
q123 -1 209.5 15t153 44t129.5 61zM587 912q-94 0 -143.5 -55t-49.5 -146q0 -94 51 -149t143 -55q91 0 138.5 53.5t47.5 153.5t-47.5 149t-139.5 49zM594 1193q-59 0 -99.5 39t-40.5 99q0 32 11 68t31 78l99 201h138l-55 -232q25 -20 41.5 -49t16.5 -66q0 -58 -40.5 -98
t-101.5 -40z" />
    <glyph glyph-name="Hcircumflex" unicode="&#x124;" 
d="M800 0v608h-400v-608h-274v1383h274v-550h400v550h274v-1383h-274zM683 1863l278 -245l-100 -113l-261 166l-261 -166l-101 113l280 245h165z" />
    <glyph glyph-name="hcircumflex" unicode="&#x125;" 
d="M425 1507v-567q66 75 148.5 112t172.5 37q146 0 219.5 -82.5t73.5 -231.5v-775h-264v716q0 96 -29.5 136t-100.5 40q-42 0 -81.5 -19.5t-74 -52.5t-64.5 -74v-746h-264v1481zM683 1962l278 -245l-100 -113l-261 166l-261 -166l-101 113l280 245h165z" />
    <glyph glyph-name="Hbar" unicode="&#x126;" 
d="M1069 1383v-1383h-274v615h-390v-615h-274v1383h274v-552h390v552h274zM1196 1172v-166h-1192v166h1192z" />
    <glyph glyph-name="hbar" unicode="&#x127;" 
d="M726 1356v-167h-301h-400v167h136h565zM425 1507v-567q66 75 148.5 112t172.5 37q146 0 219.5 -82.5t73.5 -231.5v-775h-264v716q0 96 -29.5 136t-100.5 40q-42 0 -81.5 -19.5t-74 -52.5t-64.5 -74v-746h-264v1481z" />
    <glyph glyph-name="Itilde" unicode="&#x128;" 
d="M1030 1383v-205h-293v-973h293v-205h-860v205h293v973h-293v205h860zM714 1532q-56 0 -94.5 23t-70 46t-65.5 23q-36 0 -59 -22.5t-47 -66.5l-141 69q37 87 98 149.5t145 62.5q60 0 98.5 -23t68.5 -46t65 -23q32 0 55.5 21.5t49.5 65.5l141 -70q-39 -94 -101.5 -151.5
t-142.5 -57.5z" />
    <glyph glyph-name="itilde" unicode="&#x129;" 
d="M770 1059v-872h279v-187h-853v187h310v685h-300v187h564zM714 1286q-56 0 -94.5 23t-70 46t-65.5 23q-36 0 -59 -22.5t-47 -66.5l-141 69q37 87 98 149.5t145 62.5q60 0 98.5 -23t68.5 -46t65 -23q32 0 55.5 21.5t49.5 65.5l141 -70q-39 -94 -101.5 -151.5t-142.5 -57.5z
" />
    <glyph glyph-name="Imacron" unicode="&#x12a;" 
d="M1030 1383v-205h-293v-973h293v-205h-860v205h293v973h-293v205h860zM892 1574h-585v188h585v-188z" />
    <glyph glyph-name="imacron" unicode="&#x12b;" 
d="M770 1059v-872h279v-187h-853v187h310v685h-300v187h564zM892 1328h-585v188h585v-188z" />
    <glyph glyph-name="Ibreve" unicode="&#x12c;" 
d="M1030 1383v-205h-293v-973h293v-205h-860v205h293v973h-293v205h860zM598 1507q-98 0 -168 37.5t-110 102t-49 145.5l154 29q20 -62 62 -93.5t111 -31.5q70 0 113 31.5t63 93.5l154 -29q-9 -81 -49.5 -145.5t-111 -102t-169.5 -37.5z" />
    <glyph glyph-name="ibreve" unicode="&#x12d;" 
d="M770 1059v-872h279v-187h-853v187h310v685h-300v187h564zM598 1236q-103 0 -173 47.5t-108 122t-46 152.5l154 29q19 -73 61.5 -118.5t111.5 -45.5q71 0 114 45.5t62 118.5l154 -29q-8 -78 -46.5 -152.5t-109 -122t-174.5 -47.5z" />
    <glyph glyph-name="Iogonek" unicode="&#x12e;" 
d="M1030 1383v-205h-293v-973h293v-205h-860v205h293v973h-293v205h860zM706 88l32 -88q-97 -37 -148 -73.5t-70 -73.5t-19 -76q0 -48 29.5 -72.5t85.5 -24.5q32 0 58 3.5t55 10.5l-21 -169q-28 -6 -56.5 -10.5t-64.5 -4.5q-123 0 -202.5 61.5t-79.5 167.5q0 93 49.5 157.5
t139.5 110t212 81.5z" />
    <glyph glyph-name="iogonek" unicode="&#x12f;" 
d="M770 1059v-872h279v-187h-853v187h310v685h-300v187h564zM599 1593q73 0 118.5 -45t45.5 -112t-45.5 -112.5t-118.5 -45.5t-118.5 45.5t-45.5 112.5t45.5 112t118.5 45zM738 88l32 -88q-97 -37 -148 -73.5t-70 -73.5t-19 -76q0 -48 29.5 -72.5t85.5 -24.5q32 0 58 3.5
t55 10.5l-21 -169q-28 -6 -56.5 -10.5t-64.5 -4.5q-123 0 -202.5 61.5t-79.5 167.5q0 93 49.5 157.5t139.5 110t212 81.5z" />
    <glyph glyph-name="Idotaccent" unicode="&#x130;" 
d="M1030 1383v-205h-293v-973h293v-205h-860v205h293v973h-293v205h860zM599 1839q73 0 118.5 -45t45.5 -112t-45.5 -112.5t-118.5 -45.5t-118.5 45.5t-45.5 112.5t45.5 112t118.5 45z" />
    <glyph glyph-name="dotlessi" unicode="&#x131;" 
d="M770 1059v-872h279v-187h-853v187h310v685h-300v187h564z" />
    <glyph glyph-name="IJ" unicode="&#x132;" 
d="M372 -143q191 27 289.5 89.5t133.5 162.5t35 240v852h-388v-1018h125v-183h-549v183h165v1018h-165v182h1078v-1030q0 -132 -34.5 -245.5t-114 -202.5t-213 -149.5t-331.5 -87.5z" />
    <glyph glyph-name="ij" unicode="&#x133;" 
d="M1059 1059v-862q0 -186 -70 -306.5t-198 -197t-301 -129.5l-86 197q89 29 161.5 62.5t124 80t79.5 112.5t28 160v699h-303v-688h135v-187h-549v187h155v688h-145v184h969zM366 1593q72 0 119 -45t47 -112t-47 -112.5t-119 -45.5q-73 0 -118.5 45.5t-45.5 112.5t45.5 112
t118.5 45zM907 1593q72 0 118.5 -45t46.5 -112t-46.5 -112.5t-118.5 -45.5q-73 0 -119.5 45.5t-46.5 112.5t46.5 112t119.5 45z" />
    <glyph glyph-name="Jcircumflex" unicode="&#x134;" 
d="M1033 1383v-899q0 -108 -32 -202t-97.5 -163t-164.5 -108t-233 -39q-122 0 -219.5 34t-184.5 95l108 171q77 -51 143.5 -70.5t138.5 -19.5q120 0 194 76.5t74 226.5v692h-420v206h693zM785 1863l278 -245l-100 -113l-261 166l-261 -166l-101 113l280 245h165z" />
    <glyph glyph-name="jcircumflex" unicode="&#x135;" 
d="M926 1059v-800q0 -211 -83.5 -349t-245.5 -220t-397 -126l-43 202q160 33 272.5 87t172.5 147t60 242v630h-402v187h666zM480 1235l-104 113l280 265h165l278 -265l-100 -113l-260 186z" />
    <glyph glyph-name="uni0136" unicode="&#x136;" 
d="M424 0h-274v1383h274v-1383zM434 738l436 645h294l-444 -625l482 -758h-323zM620 -134q59 0 99.5 -39t40.5 -99q0 -32 -11 -68t-31 -78l-99 -201h-138l55 232q-25 20 -41.5 49t-16.5 66q0 58 40.5 98t101.5 40z" />
    <glyph glyph-name="uni0137" unicode="&#x137;" 
d="M1125 1059l-393 -472l431 -587h-311l-408 580l390 479h291zM429 1510v-1510h-264v1482zM607 -134q59 0 99.5 -39t40.5 -99q0 -32 -11 -68t-31 -78l-99 -201h-138l55 232q-25 20 -41.5 49t-16.5 66q0 58 40.5 98t101.5 40z" />
    <glyph glyph-name="kgreenlandic" unicode="&#x138;" 
d="M1121 1059l-395 -484l433 -575h-312l-407 557l390 502h291zM425 1059v-1059h-264v1059h264z" />
    <glyph glyph-name="Lacute" unicode="&#x139;" 
d="M216 0v1383h274v-1161h610l-29 -222h-855zM513 1872l103 -203l-458 -164l-64 136z" />
    <glyph glyph-name="lacute" unicode="&#x13a;" 
d="M665 1482v-1174q0 -69 40.5 -98t109.5 -29q43 0 83 9.5t76 23.5l65 -180q-50 -25 -121.5 -44.5t-165.5 -19.5q-173 0 -262 99t-89 267v959h-317v187h581zM675 2066l107 -205l-453 -181l-74 136z" />
    <glyph glyph-name="uni013B" unicode="&#x13b;" 
d="M216 0v1383h274v-1161h610l-29 -222h-855zM649 -134q59 0 99.5 -39t40.5 -99q0 -32 -11 -68t-31 -78l-99 -201h-138l55 232q-25 20 -41.5 49t-16.5 66q0 58 40.5 98t101.5 40z" />
    <glyph glyph-name="uni013C" unicode="&#x13c;" 
d="M665 1482v-1174q0 -69 40.5 -98t109.5 -29q43 0 83 9.5t76 23.5l65 -180q-50 -25 -121.5 -44.5t-165.5 -19.5q-173 0 -262 99t-89 267v959h-317v187h581zM717 -134q59 0 99.5 -39t40.5 -99q0 -32 -11 -68t-31 -78l-99 -201h-138l55 232q-25 20 -41.5 49t-16.5 66
q0 58 40.5 98t101.5 40z" />
    <glyph glyph-name="Lcaron" unicode="&#x13d;" 
d="M216 0v1383h274v-1161h610l-29 -222h-855zM670 1417l232 -28l-137 -425l-161 25z" />
    <glyph glyph-name="lcaron" unicode="&#x13e;" 
d="M665 1482v-1174q0 -69 40.5 -98t109.5 -29q43 0 83 9.5t76 23.5l65 -180q-50 -25 -121.5 -44.5t-165.5 -19.5q-173 0 -262 99t-89 267v959h-317v187h581zM813 1516l232 -28l-137 -425l-161 25z" />
    <glyph glyph-name="Ldot" unicode="&#x13f;" 
d="M216 0v1383h274v-1161h610l-29 -222h-855zM936 922q73 0 118.5 -45t45.5 -112t-45.5 -112.5t-118.5 -45.5t-118.5 45.5t-45.5 112.5t45.5 112t118.5 45z" />
    <glyph glyph-name="ldot" unicode="&#x140;" 
d="M665 1482v-1174q0 -69 40.5 -98t109.5 -29q43 0 83 9.5t76 23.5l65 -180q-50 -25 -121.5 -44.5t-165.5 -19.5q-173 0 -262 99t-89 267v959h-317v187h581zM1130 922q73 0 118.5 -45t45.5 -112t-45.5 -112.5t-118.5 -45.5t-118.5 45.5t-45.5 112.5t45.5 112t118.5 45z" />
    <glyph glyph-name="Lslash" unicode="&#x141;" 
d="M135 424l-95 153l743 460l97 -150zM233 0v1383h274v-1161h611l-29 -222h-856z" />
    <glyph glyph-name="lslash" unicode="&#x142;" 
d="M401 761l411 253l98 -153l-245 -151l-369 -224l-97 152zM665 1482v-1174q0 -69 40.5 -98t109.5 -29q43 0 83 9.5t76 23.5l65 -180q-50 -25 -121.5 -44.5t-165.5 -19.5q-173 0 -262 99t-89 267v959h-317v187h581z" />
    <glyph glyph-name="Nacute" unicode="&#x143;" 
d="M730 0l-407 1149q5 -38 12 -98t13.5 -136t11 -161t4.5 -172v-582h-238v1383h348l403 -1147q-8 51 -17.5 135t-16.5 193t-7 232v587h238v-1383h-344zM771 1872l103 -203l-458 -164l-64 136z" />
    <glyph glyph-name="nacute" unicode="&#x144;" 
d="M161 0v1059h230l19 -131q68 80 153 120.5t183 40.5q143 0 218 -82.5t75 -231.5v-775h-264v672q0 80 -10 128.5t-38 70t-81 21.5q-43 0 -82.5 -19t-74 -51t-64.5 -71v-751h-264zM758 1643l107 -205l-453 -181l-74 136z" />
    <glyph glyph-name="uni0145" unicode="&#x145;" 
d="M730 0l-407 1149q5 -38 12 -98t13.5 -136t11 -161t4.5 -172v-582h-238v1383h348l403 -1147q-8 51 -17.5 135t-16.5 193t-7 232v587h238v-1383h-344zM604 -134q59 0 99.5 -39t40.5 -99q0 -32 -11 -68t-31 -78l-99 -201h-138l55 232q-25 20 -41.5 49t-16.5 66q0 58 40.5 98
t101.5 40z" />
    <glyph glyph-name="uni0146" unicode="&#x146;" 
d="M161 0v1059h230l19 -131q68 80 153 120.5t183 40.5q143 0 218 -82.5t75 -231.5v-775h-264v672q0 80 -10 128.5t-38 70t-81 21.5q-43 0 -82.5 -19t-74 -51t-64.5 -71v-751h-264zM605 -134q59 0 99.5 -39t40.5 -99q0 -32 -11 -68t-31 -78l-99 -201h-138l55 232
q-25 20 -41.5 49t-16.5 66q0 58 40.5 98t101.5 40z" />
    <glyph glyph-name="Ncaron" unicode="&#x147;" 
d="M730 0l-407 1149q5 -38 12 -98t13.5 -136t11 -161t4.5 -172v-582h-238v1383h348l403 -1147q-8 51 -17.5 135t-16.5 193t-7 232v587h238v-1383h-344zM872 1863l100 -114l-278 -245h-165l-280 245l101 114l261 -167z" />
    <glyph glyph-name="ncaron" unicode="&#x148;" 
d="M161 0v1059h230l19 -131q68 80 153 120.5t183 40.5q143 0 218 -82.5t75 -231.5v-775h-264v672q0 80 -10 128.5t-38 70t-81 21.5q-43 0 -82.5 -19t-74 -51t-64.5 -71v-751h-264zM862 1613l100 -113l-278 -265h-165l-280 265l104 113l259 -186z" />
    <glyph glyph-name="napostrophe" unicode="&#x149;" 
d="M121 1519q59 0 98.5 -38t39.5 -97q0 -33 -11 -65t-38 -85l-82 -165h-137l49 202q-24 20 -40.5 48t-16.5 65q0 56 40 95.5t98 39.5zM193 0v1059h229l19 -131q69 80 154 120.5t182 40.5q143 0 218.5 -82.5t75.5 -231.5v-775h-264v672q0 80 -10 128.5t-38 70t-82 21.5
q-43 0 -82.5 -19t-74 -51t-63.5 -71v-751h-264z" />
    <glyph glyph-name="Eng" unicode="&#x14a;" 
d="M712 -444q-87 0 -147.5 24.5t-107.5 58.5l102 161q30 -17 58 -28.5t72 -11.5q53 0 82 33t29 108v99h274v-78q0 -181 -96 -273.5t-266 -92.5zM730 0l-407 1149q5 -38 12 -98t13.5 -136t11 -161t4.5 -172v-582h-238v1383h348l403 -1147q-8 51 -17.5 135t-16.5 193t-7 232
v587h238v-1383h-344z" />
    <glyph glyph-name="eng" unicode="&#x14b;" 
d="M1039 98q0 -165 -46 -264t-131.5 -159t-205.5 -110l-93 192q69 31 116.5 66.5t71.5 95t24 163.5v590q0 80 -9.5 128.5t-37.5 70t-83 21.5q-42 0 -81.5 -19.5t-74 -52.5t-64.5 -74v-746h-264v1059h230l19 -131q68 80 155 120.5t181 40.5q146 0 219.5 -82.5t73.5 -231.5
v-677z" />
    <glyph glyph-name="Omacron" unicode="&#x14c;" 
d="M1138 692q0 -216 -60.5 -378.5t-180.5 -253t-297 -90.5q-176 0 -296.5 88.5t-181 250t-60.5 382.5q0 216 60.5 378.5t181 253t296.5 90.5q177 0 297 -88t180.5 -250t60.5 -383zM856 692q0 262 -59.5 388.5t-196.5 126.5t-196.5 -127t-59.5 -389q0 -263 61 -388.5
t195 -125.5q139 0 197.5 127t58.5 388zM892 1574h-585v188h585v-188z" />
    <glyph glyph-name="omacron" unicode="&#x14d;" 
d="M601 1089q158 0 268 -69t167.5 -194.5t57.5 -293.5q0 -172 -58 -298t-168 -195t-268 -69q-157 0 -267.5 67.5t-168.5 193t-58 299.5q0 166 58 292t169 196.5t268 70.5zM601 890q-111 0 -165.5 -87t-54.5 -273q0 -188 54 -274.5t165 -86.5t165 86.5t54 276.5
q0 185 -54 271.5t-164 86.5zM892 1328h-585v188h585v-188z" />
    <glyph glyph-name="Obreve" unicode="&#x14e;" 
d="M1138 692q0 -216 -60.5 -378.5t-180.5 -253t-297 -90.5q-176 0 -296.5 88.5t-181 250t-60.5 382.5q0 216 60.5 378.5t181 253t296.5 90.5q177 0 297 -88t180.5 -250t60.5 -383zM856 692q0 262 -59.5 388.5t-196.5 126.5t-196.5 -127t-59.5 -389q0 -263 61 -388.5
t195 -125.5q139 0 197.5 127t58.5 388zM598 1507q-98 0 -168 37.5t-110 102t-49 145.5l154 29q20 -62 62 -93.5t111 -31.5q70 0 113 31.5t63 93.5l154 -29q-9 -81 -49.5 -145.5t-111 -102t-169.5 -37.5z" />
    <glyph glyph-name="obreve" unicode="&#x14f;" 
d="M601 1089q158 0 268 -69t167.5 -194.5t57.5 -293.5q0 -172 -58 -298t-168 -195t-268 -69q-157 0 -267.5 67.5t-168.5 193t-58 299.5q0 166 58 292t169 196.5t268 70.5zM601 890q-111 0 -165.5 -87t-54.5 -273q0 -188 54 -274.5t165 -86.5t165 86.5t54 276.5
q0 185 -54 271.5t-164 86.5zM598 1236q-103 0 -173 47.5t-108 122t-46 152.5l154 29q19 -73 61.5 -118.5t111.5 -45.5q71 0 114 45.5t62 118.5l154 -29q-8 -78 -46.5 -152.5t-109 -122t-174.5 -47.5z" />
    <glyph glyph-name="Ohungarumlaut" unicode="&#x150;" 
d="M1138 692q0 -216 -60.5 -378.5t-180.5 -253t-297 -90.5q-176 0 -296.5 88.5t-181 250t-60.5 382.5q0 216 60.5 378.5t181 253t296.5 90.5q177 0 297 -88t180.5 -250t60.5 -383zM856 692q0 262 -59.5 388.5t-196.5 126.5t-196.5 -127t-59.5 -389q0 -263 61 -388.5
t195 -125.5q139 0 197.5 127t58.5 388zM334 1569l184 377l191 -89l-229 -352zM661 1571l193 375l189 -94l-239 -350z" />
    <glyph glyph-name="ohungarumlaut" unicode="&#x151;" 
d="M601 1089q158 0 268 -69t167.5 -194.5t57.5 -293.5q0 -172 -58 -298t-168 -195t-268 -69q-157 0 -267.5 67.5t-168.5 193t-58 299.5q0 166 58 292t169 196.5t268 70.5zM601 890q-111 0 -165.5 -87t-54.5 -273q0 -188 54 -274.5t165 -86.5t165 86.5t54 276.5
q0 185 -54 271.5t-164 86.5zM331 1323l184 377l191 -89l-229 -352zM658 1325l193 375l189 -94l-239 -350z" />
    <glyph glyph-name="OE" unicode="&#x152;" 
d="M440 1413q49 0 89.5 -7.5t84.5 -22.5h587l-29 -194h-407q41 -64 65 -161t31 -230h266v-194h-265q-5 -138 -32.5 -239.5t-73.5 -170.5h452v-194h-601q-40 -12 -79 -21t-88 -9q-224 0 -326.5 186t-102.5 535q0 228 45.5 389.5t140.5 247t243 85.5zM441 1219
q-100 0 -141.5 -121.5t-41.5 -406.5q0 -286 44 -406.5t139 -120.5q101 0 144.5 121t43.5 407q0 193 -18 308.5t-59 167t-111 51.5z" />
    <glyph glyph-name="oe" unicode="&#x153;" 
d="M885 1089q180 0 256.5 -140t76.5 -395q0 -27 -1.5 -51t-2.5 -46h-490q13 -157 60.5 -230t137.5 -73q51 0 91.5 18.5t86.5 51.5l103 -143q-58 -49 -128.5 -80t-163.5 -31q-107 0 -182 46t-120 128q-37 -79 -97.5 -126.5t-165.5 -47.5q-124 0 -203 67.5t-117 193t-38 299.5
q0 166 37 292t116.5 196.5t204.5 70.5q109 0 170.5 -48t96.5 -132q38 79 102.5 129.5t169.5 50.5zM361 891q-77 0 -108.5 -85t-31.5 -276q0 -198 31.5 -279.5t108.5 -81.5q76 0 107 79t31 284q0 191 -31.5 275t-106.5 84zM875 912q-70 0 -106.5 -65t-45.5 -233h283
q-2 150 -28.5 224t-102.5 74z" />
    <glyph glyph-name="Racute" unicode="&#x154;" 
d="M1106 974q0 -100 -39.5 -175t-107 -126t-151.5 -79l379 -594h-314l-327 551h-126v-551h-273v1383h407q273 0 412.5 -101t139.5 -308zM822 974q0 112 -65 161.5t-196 49.5h-141v-440h150q121 0 186.5 54t65.5 175zM759 1872l103 -203l-458 -164l-64 136z" />
    <glyph glyph-name="racute" unicode="&#x155;" 
d="M171 0v183h149v694h-149v182h350l49 -243q58 135 146 203.5t221 68.5q51 0 90.5 -8t75.5 -21l-79 -222q-31 8 -59 12.5t-63 4.5q-110 0 -191.5 -85.5t-126.5 -231.5v-354h211v-183h-624zM880 646v281l36 132h187l-47 -413h-176zM811 1643l107 -205l-453 -181l-74 136z
" />
    <glyph glyph-name="uni0156" unicode="&#x156;" 
d="M1106 974q0 -100 -39.5 -175t-107 -126t-151.5 -79l379 -594h-314l-327 551h-126v-551h-273v1383h407q273 0 412.5 -101t139.5 -308zM822 974q0 112 -65 161.5t-196 49.5h-141v-440h150q121 0 186.5 54t65.5 175zM615 -134q59 0 99.5 -39t40.5 -99q0 -32 -11 -68t-31 -78
l-99 -201h-138l55 232q-25 20 -41.5 49t-16.5 66q0 58 40.5 98t101.5 40z" />
    <glyph glyph-name="uni0157" unicode="&#x157;" 
d="M171 0v183h149v694h-149v182h350l49 -243q58 135 146 203.5t221 68.5q51 0 90.5 -8t75.5 -21l-79 -222q-31 8 -59 12.5t-63 4.5q-110 0 -191.5 -85.5t-126.5 -231.5v-354h211v-183h-624zM880 646v281l36 132h187l-47 -413h-176zM455 -134q59 0 99.5 -39t40.5 -99
q0 -32 -11 -68t-31 -78l-99 -201h-138l55 232q-25 20 -41.5 49t-16.5 66q0 58 40.5 98t101.5 40z" />
    <glyph glyph-name="Rcaron" unicode="&#x158;" 
d="M1106 974q0 -100 -39.5 -175t-107 -126t-151.5 -79l379 -594h-314l-327 551h-126v-551h-273v1383h407q273 0 412.5 -101t139.5 -308zM822 974q0 112 -65 161.5t-196 49.5h-141v-440h150q121 0 186.5 54t65.5 175zM861 1863l100 -114l-278 -245h-165l-280 245l101 114
l261 -167z" />
    <glyph glyph-name="rcaron" unicode="&#x159;" 
d="M171 0v183h149v694h-149v182h350l49 -243q58 135 146 203.5t221 68.5q51 0 90.5 -8t75.5 -21l-79 -222q-31 8 -59 12.5t-63 4.5q-110 0 -191.5 -85.5t-126.5 -231.5v-354h211v-183h-624zM880 646v281l36 132h187l-47 -413h-176zM915 1613l100 -113l-278 -265h-165
l-280 265l104 113l259 -186z" />
    <glyph glyph-name="Sacute" unicode="&#x15a;" 
d="M1114 397q0 -126 -64.5 -222t-185.5 -150.5t-293 -54.5q-180 0 -309 53.5t-216 137.5l144 161q75 -67 168 -105t209 -38q74 0 133.5 23t94 67.5t34.5 109.5q0 57 -24 96t-82.5 70t-162.5 62q-153 47 -252 103.5t-147 134t-48 183.5q0 119 66 205.5t178.5 133t251.5 46.5
q154 0 271 -44.5t206 -126.5l-137 -155q-71 61 -153.5 90t-167.5 29q-67 0 -119.5 -18t-82.5 -53t-30 -89q0 -49 27.5 -83.5t94.5 -64t184 -66.5q123 -37 215.5 -89t144.5 -134.5t52 -211.5zM776 1872l103 -203l-458 -164l-64 136z" />
    <glyph glyph-name="sacute" unicode="&#x15b;" 
d="M564 165q93 0 149.5 32.5t56.5 91.5q0 39 -18.5 66t-72.5 50.5t-162 52.5q-102 26 -178.5 64.5t-119 99.5t-42.5 154t52 163.5t150.5 110t237.5 39.5q136 0 238 -35.5t175 -88.5l-108 -161q-64 41 -138.5 66.5t-160.5 25.5q-93 0 -135.5 -27t-42.5 -75q0 -34 21.5 -57.5
t78 -45t161.5 -51.5q103 -28 179.5 -66t118.5 -101t42 -165q0 -115 -67 -190t-176.5 -111.5t-237.5 -36.5q-150 0 -262 43t-190 111l137 154q62 -49 141.5 -81t172.5 -32zM779 1643l107 -205l-453 -181l-74 136z" />
    <glyph glyph-name="Scircumflex" unicode="&#x15c;" 
d="M1114 397q0 -126 -64.5 -222t-185.5 -150.5t-293 -54.5q-180 0 -309 53.5t-216 137.5l144 161q75 -67 168 -105t209 -38q74 0 133.5 23t94 67.5t34.5 109.5q0 57 -24 96t-82.5 70t-162.5 62q-153 47 -252 103.5t-147 134t-48 183.5q0 119 66 205.5t178.5 133t251.5 46.5
q154 0 271 -44.5t206 -126.5l-137 -155q-71 61 -153.5 90t-167.5 29q-67 0 -119.5 -18t-82.5 -53t-30 -89q0 -49 27.5 -83.5t94.5 -64t184 -66.5q123 -37 215.5 -89t144.5 -134.5t52 -211.5zM700 1863l278 -245l-100 -113l-261 166l-261 -166l-101 113l280 245h165z" />
    <glyph glyph-name="scircumflex" unicode="&#x15d;" 
d="M564 165q93 0 149.5 32.5t56.5 91.5q0 39 -18.5 66t-72.5 50.5t-162 52.5q-102 26 -178.5 64.5t-119 99.5t-42.5 154t52 163.5t150.5 110t237.5 39.5q136 0 238 -35.5t175 -88.5l-108 -161q-64 41 -138.5 66.5t-160.5 25.5q-93 0 -135.5 -27t-42.5 -75q0 -34 21.5 -57.5
t78 -45t161.5 -51.5q103 -28 179.5 -66t118.5 -101t42 -165q0 -115 -67 -190t-176.5 -111.5t-237.5 -36.5q-150 0 -262 43t-190 111l137 154q62 -49 141.5 -81t172.5 -32zM364 1235l-104 113l280 265h165l278 -265l-100 -113l-260 186z" />
    <glyph glyph-name="Scedilla" unicode="&#x15e;" 
d="M1114 397q0 -126 -64.5 -222t-185.5 -150.5t-293 -54.5q-180 0 -309 53.5t-216 137.5l144 161q75 -67 168 -105t209 -38q74 0 133.5 23t94 67.5t34.5 109.5q0 57 -24 96t-82.5 70t-162.5 62q-153 47 -252 103.5t-147 134t-48 183.5q0 119 66 205.5t178.5 133t251.5 46.5
q154 0 271 -44.5t206 -126.5l-137 -155q-71 61 -153.5 90t-167.5 29q-67 0 -119.5 -18t-82.5 -53t-30 -89q0 -49 27.5 -83.5t94.5 -64t184 -66.5q123 -37 215.5 -89t144.5 -134.5t52 -211.5zM652 -287q0 45 -46.5 59.5t-134.5 14.5l25 245h154v-134q103 -11 151.5 -62.5
t48.5 -124.5q0 -68 -36 -117t-99 -75.5t-144 -26.5q-68 0 -127 17t-99 40l67 128q28 -15 62.5 -24t67.5 -9q50 0 80 15.5t30 53.5z" />
    <glyph glyph-name="scedilla" unicode="&#x15f;" 
d="M564 165q93 0 149.5 32.5t56.5 91.5q0 39 -18.5 66t-72.5 50.5t-162 52.5q-102 26 -178.5 64.5t-119 99.5t-42.5 154t52 163.5t150.5 110t237.5 39.5q136 0 238 -35.5t175 -88.5l-108 -161q-64 41 -138.5 66.5t-160.5 25.5q-93 0 -135.5 -27t-42.5 -75q0 -34 21.5 -57.5
t78 -45t161.5 -51.5q103 -28 179.5 -66t118.5 -101t42 -165q0 -115 -67 -190t-176.5 -111.5t-237.5 -36.5q-150 0 -262 43t-190 111l137 154q62 -49 141.5 -81t172.5 -32zM653 -287q0 45 -46.5 59.5t-134.5 14.5l25 245h154v-134q103 -11 151.5 -62.5t48.5 -124.5
q0 -68 -36 -117t-99 -75.5t-144 -26.5q-68 0 -127 17t-99 40l67 128q28 -15 62.5 -24t67.5 -9q50 0 80 15.5t30 53.5z" />
    <glyph glyph-name="Scaron" unicode="&#x160;" 
d="M1114 397q0 -126 -64.5 -222t-185.5 -150.5t-293 -54.5q-180 0 -309 53.5t-216 137.5l144 161q75 -67 168 -105t209 -38q74 0 133.5 23t94 67.5t34.5 109.5q0 57 -24 96t-82.5 70t-162.5 62q-153 47 -252 103.5t-147 134t-48 183.5q0 119 66 205.5t178.5 133t251.5 46.5
q154 0 271 -44.5t206 -126.5l-137 -155q-71 61 -153.5 90t-167.5 29q-67 0 -119.5 -18t-82.5 -53t-30 -89q0 -49 27.5 -83.5t94.5 -64t184 -66.5q123 -37 215.5 -89t144.5 -134.5t52 -211.5zM878 1863l100 -114l-278 -245h-165l-280 245l101 114l261 -167z" />
    <glyph glyph-name="scaron" unicode="&#x161;" 
d="M564 165q93 0 149.5 32.5t56.5 91.5q0 39 -18.5 66t-72.5 50.5t-162 52.5q-102 26 -178.5 64.5t-119 99.5t-42.5 154t52 163.5t150.5 110t237.5 39.5q136 0 238 -35.5t175 -88.5l-108 -161q-64 41 -138.5 66.5t-160.5 25.5q-93 0 -135.5 -27t-42.5 -75q0 -34 21.5 -57.5
t78 -45t161.5 -51.5q103 -28 179.5 -66t118.5 -101t42 -165q0 -115 -67 -190t-176.5 -111.5t-237.5 -36.5q-150 0 -262 43t-190 111l137 154q62 -49 141.5 -81t172.5 -32zM883 1613l100 -113l-278 -265h-165l-280 265l104 113l259 -186z" />
    <glyph glyph-name="uni0162" unicode="&#x162;" 
d="M734 1168v-1168h-273v1168h-404v215h1093l-28 -215h-388zM682 -287q0 45 -46.5 59.5t-134.5 14.5l25 245h154v-134q103 -11 151.5 -62.5t48.5 -124.5q0 -68 -36 -117t-99 -75.5t-144 -26.5q-68 0 -127 17t-99 40l67 128q28 -15 62.5 -24t67.5 -9q50 0 80 15.5t30 53.5z
" />
    <glyph glyph-name="uni0163" unicode="&#x163;" 
d="M1075 59q-59 -39 -143 -64t-182 -25q-194 0 -292 100.5t-98 267.5v534h-230v187h230v233l264 32v-265h350l-27 -187h-323v-533q0 -82 40 -120t129 -38q57 0 104.5 13.5t86.5 34.5zM783 -287q0 45 -46.5 59.5t-134.5 14.5l25 245h154v-134q103 -11 151.5 -62.5
t48.5 -124.5q0 -68 -36 -117t-99 -75.5t-144 -26.5q-68 0 -127 17t-99 40l67 128q28 -15 62.5 -24t67.5 -9q50 0 80 15.5t30 53.5z" />
    <glyph glyph-name="Tcaron" unicode="&#x164;" 
d="M734 1168v-1168h-273v1168h-404v215h1093l-28 -215h-388zM859 1863l100 -114l-278 -245h-165l-280 245l101 114l261 -167z" />
    <glyph glyph-name="tcaron" unicode="&#x165;" 
d="M1075 59q-59 -39 -143 -64t-182 -25q-194 0 -292 100.5t-98 267.5v534h-230v187h230v233l264 32v-265h350l-27 -187h-323v-533q0 -82 40 -120t129 -38q57 0 104.5 13.5t86.5 34.5zM771 1614l232 -28l-137 -425l-161 25z" />
    <glyph glyph-name="Tbar" unicode="&#x166;" 
d="M218 653v168h761v-168h-761zM734 1168v-1168h-273v1168h-404v215h1093l-28 -215h-388z" />
    <glyph glyph-name="tbar" unicode="&#x167;" 
d="M946 716v-175h-322h-470v175h206h586zM1075 59q-59 -39 -143 -64t-182 -25q-194 0 -292 100.5t-98 267.5v534h-230v187h230v233l264 32v-265h350l-27 -187h-323v-533q0 -82 40 -120t129 -38q57 0 104.5 13.5t86.5 34.5z" />
    <glyph glyph-name="Utilde" unicode="&#x168;" 
d="M1095 1383v-925q0 -141 -57.5 -251.5t-167.5 -173.5t-271 -63q-162 0 -272 61.5t-166 171.5t-56 255v925h274v-848q0 -177 48 -265.5t172 -88.5q125 0 173 88.5t48 265.5v848h275zM714 1532q-56 0 -94.5 23t-70 46t-65.5 23q-36 0 -59 -22.5t-47 -66.5l-141 69
q37 87 98 149.5t145 62.5q60 0 98.5 -23t68.5 -46t65 -23q32 0 55.5 21.5t49.5 65.5l141 -70q-39 -94 -101.5 -151.5t-142.5 -57.5z" />
    <glyph glyph-name="utilde" unicode="&#x169;" 
d="M425 1059v-734q0 -86 34 -121t99 -35q62 0 121 37.5t96 95.5v757h264v-1059h-230l-14 130q-57 -78 -146 -119t-184 -41q-153 0 -228.5 86.5t-75.5 236.5v766h264zM714 1286q-56 0 -94.5 23t-70 46t-65.5 23q-36 0 -59 -22.5t-47 -66.5l-141 69q37 87 98 149.5t145 62.5
q60 0 98.5 -23t68.5 -46t65 -23q32 0 55.5 21.5t49.5 65.5l141 -70q-39 -94 -101.5 -151.5t-142.5 -57.5z" />
    <glyph glyph-name="Umacron" unicode="&#x16a;" 
d="M1095 1383v-925q0 -141 -57.5 -251.5t-167.5 -173.5t-271 -63q-162 0 -272 61.5t-166 171.5t-56 255v925h274v-848q0 -177 48 -265.5t172 -88.5q125 0 173 88.5t48 265.5v848h275zM892 1574h-585v188h585v-188z" />
    <glyph glyph-name="umacron" unicode="&#x16b;" 
d="M425 1059v-734q0 -86 34 -121t99 -35q62 0 121 37.5t96 95.5v757h264v-1059h-230l-14 130q-57 -78 -146 -119t-184 -41q-153 0 -228.5 86.5t-75.5 236.5v766h264zM892 1328h-585v188h585v-188z" />
    <glyph glyph-name="Ubreve" unicode="&#x16c;" 
d="M1095 1383v-925q0 -141 -57.5 -251.5t-167.5 -173.5t-271 -63q-162 0 -272 61.5t-166 171.5t-56 255v925h274v-848q0 -177 48 -265.5t172 -88.5q125 0 173 88.5t48 265.5v848h275zM598 1507q-98 0 -168 37.5t-110 102t-49 145.5l154 29q20 -62 62 -93.5t111 -31.5
q70 0 113 31.5t63 93.5l154 -29q-9 -81 -49.5 -145.5t-111 -102t-169.5 -37.5z" />
    <glyph glyph-name="ubreve" unicode="&#x16d;" 
d="M425 1059v-734q0 -86 34 -121t99 -35q62 0 121 37.5t96 95.5v757h264v-1059h-230l-14 130q-57 -78 -146 -119t-184 -41q-153 0 -228.5 86.5t-75.5 236.5v766h264zM598 1236q-103 0 -173 47.5t-108 122t-46 152.5l154 29q19 -73 61.5 -118.5t111.5 -45.5q71 0 114 45.5
t62 118.5l154 -29q-8 -78 -46.5 -152.5t-109 -122t-174.5 -47.5z" />
    <glyph glyph-name="Uring" unicode="&#x16e;" 
d="M1095 1383v-925q0 -141 -57.5 -251.5t-167.5 -173.5t-271 -63q-162 0 -272 61.5t-166 171.5t-56 255v925h274v-848q0 -177 48 -265.5t172 -88.5q125 0 173 88.5t48 265.5v848h275zM599 1947q79 0 137 -33t90 -88.5t32 -121.5q0 -65 -32 -120.5t-90 -89t-137 -33.5
q-78 0 -136 33.5t-89.5 89t-31.5 120.5q0 66 31.5 121.5t89.5 88.5t136 33zM599 1808q-43 0 -69 -26.5t-26 -77.5t26 -78t69 -27q44 0 70.5 27t26.5 78t-26.5 77.5t-70.5 26.5z" />
    <glyph glyph-name="uring" unicode="&#x16f;" 
d="M425 1059v-734q0 -86 34 -121t99 -35q62 0 121 37.5t96 95.5v757h264v-1059h-230l-14 130q-57 -78 -146 -119t-184 -41q-153 0 -228.5 86.5t-75.5 236.5v766h264zM599 1701q79 0 137 -33t90 -88.5t32 -121.5q0 -65 -32 -120.5t-90 -89t-137 -33.5q-78 0 -136 33.5
t-89.5 89t-31.5 120.5q0 66 31.5 121.5t89.5 88.5t136 33zM599 1562q-43 0 -69 -26.5t-26 -77.5t26 -78t69 -27q44 0 70.5 27t26.5 78t-26.5 77.5t-70.5 26.5z" />
    <glyph glyph-name="Uhungarumlaut" unicode="&#x170;" 
d="M1095 1383v-925q0 -141 -57.5 -251.5t-167.5 -173.5t-271 -63q-162 0 -272 61.5t-166 171.5t-56 255v925h274v-848q0 -177 48 -265.5t172 -88.5q125 0 173 88.5t48 265.5v848h275zM334 1569l184 377l191 -89l-229 -352zM661 1571l193 375l189 -94l-239 -350z" />
    <glyph glyph-name="uhungarumlaut" unicode="&#x171;" 
d="M425 1059v-734q0 -86 34 -121t99 -35q62 0 121 37.5t96 95.5v757h264v-1059h-230l-14 130q-57 -78 -146 -119t-184 -41q-153 0 -228.5 86.5t-75.5 236.5v766h264zM331 1323l184 377l191 -89l-229 -352zM658 1325l193 375l189 -94l-239 -350z" />
    <glyph glyph-name="Uogonek" unicode="&#x172;" 
d="M1095 1383v-925q0 -141 -57.5 -251.5t-167.5 -173.5t-271 -63q-162 0 -272 61.5t-166 171.5t-56 255v925h274v-848q0 -177 48 -265.5t172 -88.5q125 0 173 88.5t48 265.5v848h275zM758 88l32 -88q-97 -37 -148 -73.5t-70 -73.5t-19 -76q0 -48 29.5 -72.5t85.5 -24.5
q32 0 58 3.5t55 10.5l-21 -169q-28 -6 -56.5 -10.5t-64.5 -4.5q-123 0 -202.5 61.5t-79.5 167.5q0 93 49.5 157.5t139.5 110t212 81.5z" />
    <glyph glyph-name="uogonek" unicode="&#x173;" 
d="M425 1059v-734q0 -86 34 -121t99 -35q62 0 121 37.5t96 95.5v757h264v-1059h-230l-14 130q-57 -78 -146 -119t-184 -41q-153 0 -228.5 86.5t-75.5 236.5v766h264zM1007 88l32 -88q-97 -37 -148 -73.5t-70 -73.5t-19 -76q0 -48 29.5 -72.5t85.5 -24.5q32 0 58 3.5t55 10.5
l-21 -169q-28 -6 -56.5 -10.5t-64.5 -4.5q-123 0 -202.5 61.5t-79.5 167.5q0 93 49.5 157.5t139.5 110t212 81.5z" />
    <glyph glyph-name="Wcircumflex" unicode="&#x174;" 
d="M1201 1383l-179 -1383h-301l-121 1008l-128 -1008h-307l-166 1383h261l82 -1134l132 974h258l125 -974l102 1134h242zM683 1863l278 -245l-100 -113l-261 166l-261 -166l-101 113l280 245h165z" />
    <glyph glyph-name="wcircumflex" unicode="&#x175;" 
d="M1021 0h-310l-107 735l-114 -735h-304l-169 1059h248l92 -895l131 761h243l120 -761l94 895h238zM342 1235l-104 113l280 265h165l278 -265l-100 -113l-260 186z" />
    <glyph glyph-name="Ycircumflex" unicode="&#x176;" 
d="M737 524v-524h-274v522l-457 861h300l299 -630l302 630h287zM685 1863l278 -245l-100 -113l-261 166l-261 -166l-101 113l280 245h165z" />
    <glyph glyph-name="ycircumflex" unicode="&#x177;" 
d="M1120 1059l-359 -1061q-44 -130 -114 -223t-176.5 -147.5t-260.5 -64.5l-33 191q107 15 171 45t102.5 79t66.5 122h-90l-347 1059h279l240 -883l250 883h271zM342 1235l-104 113l280 265h165l278 -265l-100 -113l-260 186z" />
    <glyph glyph-name="Ydieresis" unicode="&#x178;" 
d="M737 524v-524h-274v522l-457 861h300l299 -630l302 630h287zM379 1529q-61 0 -103 40t-42 101q0 60 42 100.5t103 40.5q62 0 103.5 -40.5t41.5 -100.5q0 -61 -41.5 -101t-103.5 -40zM824 1529q-60 0 -102 40t-42 101q0 60 42 100.5t102 40.5q62 0 104 -40.5t42 -100.5
q0 -61 -42 -101t-104 -40z" />
    <glyph glyph-name="Zacute" unicode="&#x179;" 
d="M418 222h682l-30 -222h-969v208l682 959h-610v216h918v-210zM789 1872l103 -203l-458 -164l-64 136z" />
    <glyph glyph-name="zacute" unicode="&#x17a;" 
d="M480 205h551l-27 -205h-839v189l547 664h-502v206h812v-190zM773 1643l107 -205l-453 -181l-74 136z" />
    <glyph glyph-name="Zdotaccent" unicode="&#x17b;" 
d="M418 222h682l-30 -222h-969v208l682 959h-610v216h918v-210zM629 1839q73 0 118.5 -45t45.5 -112t-45.5 -112.5t-118.5 -45.5t-118.5 45.5t-45.5 112.5t45.5 112t118.5 45z" />
    <glyph glyph-name="zdotaccent" unicode="&#x17c;" 
d="M480 205h551l-27 -205h-839v189l547 664h-502v206h812v-190zM615 1593q73 0 118.5 -45t45.5 -112t-45.5 -112.5t-118.5 -45.5t-118.5 45.5t-45.5 112.5t45.5 112t118.5 45z" />
    <glyph glyph-name="Zcaron" unicode="&#x17d;" 
d="M418 222h682l-30 -222h-969v208l682 959h-610v216h918v-210zM891 1863l100 -114l-278 -245h-165l-280 245l101 114l261 -167z" />
    <glyph glyph-name="zcaron" unicode="&#x17e;" 
d="M480 205h551l-27 -205h-839v189l547 664h-502v206h812v-190zM877 1613l100 -113l-278 -265h-165l-280 265l104 113l259 -186z" />
    <glyph glyph-name="florin" unicode="&#x192;" 
d="M750 1510q85 0 154 -16.5t133 -45.5l-76 -177q-51 23 -95 31.5t-83 8.5q-84 0 -115.5 -34t-31.5 -112v-106h254l-31 -189h-223v-760q0 -127 -26.5 -215.5t-76 -149.5t-120 -103.5t-159.5 -76.5l-93 190q69 33 116.5 69t72 95t24.5 163v788h-166v189h166v112
q0 97 41.5 173.5t125.5 121t209 44.5z" />
    <glyph glyph-name="AEacute" unicode="&#x1fc;" 
d="M638 321h-326l-70 -321h-266l368 1383h787l-30 -194h-401l78 -391h335v-194h-299l82 -410h313v-194h-513zM352 518h253l-118 674zM868 1872l103 -203l-458 -164l-64 136z" />
    <glyph glyph-name="aeacute" unicode="&#x1fd;" 
d="M861 1089q185 0 264.5 -140t79.5 -395q0 -53 -6 -97h-501q14 -155 63 -229t142 -74q52 0 94.5 18.5t87.5 51.5l105 -143q-59 -49 -131.5 -80t-168.5 -31q-109 0 -185.5 45.5t-129.5 131.5q-59 -93 -122 -135t-165 -42q-139 0 -219.5 93t-80.5 240q0 168 103 257t310 89
h85v61q0 105 -46.5 154.5t-132.5 49.5q-50 0 -91.5 -11t-103.5 -40l-62 157q74 33 141.5 51t141.5 18q111 0 174.5 -41.5t97.5 -111.5q34 70 98.5 111.5t157.5 41.5zM486 498h-57q-115 0 -160.5 -49t-45.5 -133q0 -80 29.5 -123.5t81.5 -43.5q51 0 90.5 37t75.5 109
q-6 48 -10 100t-4 103zM852 912q-72 0 -108.5 -65t-45.5 -233h295q-2 150 -31 224t-110 74zM766 1643l107 -205l-453 -181l-74 136z" />
    <glyph glyph-name="Oslashacute" unicode="&#x1fe;" 
d="M600 1413q170 0 290.5 -88t184 -250t63.5 -383q0 -216 -60.5 -378.5t-180.5 -253t-297 -90.5q-170 0 -290.5 88.5t-184 250t-63.5 382.5q0 216 60.5 378.5t181 253t296.5 90.5zM772 1606l197 -56l-77 -245l-88 -170l-281 -967l-27 -159l-68 -228l-196 56l83 269l89 163
l285 977l17 137zM600 1211q-141 0 -202.5 -127.5t-61.5 -392.5q0 -185 27 -299t85.5 -166.5t151.5 -52.5q143 0 203.5 127.5t60.5 391.5q0 185 -26.5 299t-84.5 167t-153 53zM759 1872l103 -203l-458 -164l-64 136z" />
    <glyph glyph-name="oslashacute" unicode="&#x1ff;" 
d="M601 1089q157 0 266.5 -69t168 -194.5t58.5 -293.5q0 -172 -58 -298t-168 -195t-268 -69q-155 0 -265.5 67.5t-169.5 193t-59 299.5q0 166 58 292t169 196.5t268 70.5zM752 1320l199 -59l-87 -262l-91 -151l-223 -707l-21 -150l-79 -260l-200 58l92 275l88 149l226 715
l15 141zM601 894q-113 0 -168.5 -87.5t-55.5 -276.5q0 -137 21.5 -217t71 -114t130.5 -34q113 0 168 87.5t55 279.5q0 135 -21.5 214t-70 113.5t-130.5 34.5zM757 1643l107 -205l-453 -181l-74 136z" />
    <glyph glyph-name="uni0218" unicode="&#x218;" 
d="M1114 397q0 -126 -64.5 -222t-185.5 -150.5t-293 -54.5q-180 0 -309 53.5t-216 137.5l144 161q75 -67 168 -105t209 -38q74 0 133.5 23t94 67.5t34.5 109.5q0 57 -24 96t-82.5 70t-162.5 62q-153 47 -252 103.5t-147 134t-48 183.5q0 119 66 205.5t178.5 133t251.5 46.5
q154 0 271 -44.5t206 -126.5l-137 -155q-71 61 -153.5 90t-167.5 29q-67 0 -119.5 -18t-82.5 -53t-30 -89q0 -49 27.5 -83.5t94.5 -64t184 -66.5q123 -37 215.5 -89t144.5 -134.5t52 -211.5zM602 -134q59 0 99.5 -39t40.5 -99q0 -32 -11 -68t-31 -78l-99 -201h-138l55 232
q-25 20 -41.5 49t-16.5 66q0 58 40.5 98t101.5 40z" />
    <glyph glyph-name="uni0219" unicode="&#x219;" 
d="M564 165q93 0 149.5 32.5t56.5 91.5q0 39 -18.5 66t-72.5 50.5t-162 52.5q-102 26 -178.5 64.5t-119 99.5t-42.5 154t52 163.5t150.5 110t237.5 39.5q136 0 238 -35.5t175 -88.5l-108 -161q-64 41 -138.5 66.5t-160.5 25.5q-93 0 -135.5 -27t-42.5 -75q0 -34 21.5 -57.5
t78 -45t161.5 -51.5q103 -28 179.5 -66t118.5 -101t42 -165q0 -115 -67 -190t-176.5 -111.5t-237.5 -36.5q-150 0 -262 43t-190 111l137 154q62 -49 141.5 -81t172.5 -32zM602 -134q59 0 99.5 -39t40.5 -99q0 -32 -11 -68t-31 -78l-99 -201h-138l55 232q-25 20 -41.5 49
t-16.5 66q0 58 40.5 98t101.5 40z" />
    <glyph glyph-name="uni021A" unicode="&#x21a;" 
d="M734 1168v-1168h-273v1168h-404v215h1093l-28 -215h-388zM602 -134q59 0 99.5 -39t40.5 -99q0 -32 -11 -68t-31 -78l-99 -201h-138l55 232q-25 20 -41.5 49t-16.5 66q0 58 40.5 98t101.5 40z" />
    <glyph glyph-name="uni021B" unicode="&#x21b;" 
d="M1075 59q-59 -39 -143 -64t-182 -25q-194 0 -292 100.5t-98 267.5v534h-230v187h230v233l264 32v-265h350l-27 -187h-323v-533q0 -82 40 -120t129 -38q57 0 104.5 13.5t86.5 34.5zM731 -134q59 0 99.5 -39t40.5 -99q0 -32 -11 -68t-31 -78l-99 -201h-138l55 232
q-25 20 -41.5 49t-16.5 66q0 58 40.5 98t101.5 40z" />
    <glyph glyph-name="uni0237" unicode="&#x237;" 
d="M926 1059v-800q0 -211 -83.5 -349t-245.5 -220t-397 -126l-43 202q160 33 272.5 87t172.5 147t60 242v630h-402v187h666z" />
    <glyph glyph-name="uni02B9" unicode="&#x2b9;" 
d="M392 839l165 544h252l-235 -544h-182z" />
    <glyph glyph-name="uni02BA" unicode="&#x2ba;" 
d="M215 839l165 544h252l-235 -544h-182zM568 839l165 544h252l-235 -544h-182z" />
    <glyph glyph-name="uni02BC" unicode="&#x2bc;" 
d="M584 1510q59 0 99.5 -39t40.5 -94q0 -32 -14 -68t-41 -90l-76 -150h-138l45 187q-25 22 -42 50t-17 66q0 57 41 97.5t102 40.5z" />
    <glyph glyph-name="circumflex" unicode="&#x2c6;" 
d="M342 1235l-104 113l280 265h165l278 -265l-100 -113l-260 186z" />
    <glyph glyph-name="caron" unicode="&#x2c7;" 
d="M861 1613l100 -113l-278 -265h-165l-280 265l104 113l259 -186z" />
    <glyph glyph-name="uni02C9" unicode="&#x2c9;" 
d="M892 1351h-586v187h586v-187z" />
    <glyph glyph-name="breve" unicode="&#x2d8;" 
d="M598 1236q-103 0 -173 47.5t-108 122t-46 152.5l154 29q19 -73 61.5 -118.5t111.5 -45.5q71 0 114 45.5t62 118.5l154 -29q-8 -78 -46.5 -152.5t-109 -122t-174.5 -47.5z" />
    <glyph glyph-name="dotaccent" unicode="&#x2d9;" 
d="M599 1593q73 0 118.5 -45t45.5 -112t-45.5 -112.5t-118.5 -45.5t-118.5 45.5t-45.5 112.5t45.5 112t118.5 45z" />
    <glyph glyph-name="ring" unicode="&#x2da;" 
d="M599 1701q79 0 137 -33t90 -88.5t32 -121.5q0 -65 -32 -120.5t-90 -89t-137 -33.5q-78 0 -136 33.5t-89.5 89t-31.5 120.5q0 66 31.5 121.5t89.5 88.5t136 33zM599 1562q-43 0 -69 -26.5t-26 -77.5t26 -78t69 -27q44 0 70.5 27t26.5 78t-26.5 77.5t-70.5 26.5z" />
    <glyph glyph-name="ogonek" unicode="&#x2db;" 
d="M763 88l32 -88q-97 -37 -148 -73.5t-70 -73.5t-19 -76q0 -48 29.5 -72.5t85.5 -24.5q32 0 58 3.5t55 10.5l-21 -169q-28 -6 -56.5 -10.5t-64.5 -4.5q-123 0 -202.5 61.5t-79.5 167.5q0 93 49.5 157.5t139.5 110t212 81.5z" />
    <glyph glyph-name="tilde" unicode="&#x2dc;" 
d="M714 1286q-56 0 -94.5 23t-70 46t-65.5 23q-36 0 -59 -22.5t-47 -66.5l-141 69q37 87 98 149.5t145 62.5q60 0 98.5 -23t68.5 -46t65 -23q32 0 55.5 21.5t49.5 65.5l141 -70q-39 -94 -101.5 -151.5t-142.5 -57.5z" />
    <glyph glyph-name="hungarumlaut" unicode="&#x2dd;" 
d="M245 1323l184 377l191 -89l-229 -352zM572 1325l193 375l189 -94l-239 -350z" />
    <glyph glyph-name="gravecomb" unicode="&#x300;" horiz-adv-x="0" 
d="M445 1643l422 -250l-75 -136l-454 181z" />
    <glyph glyph-name="acutecomb" unicode="&#x301;" horiz-adv-x="0" 
d="M757 1643l107 -205l-453 -181l-74 136z" />
    <glyph glyph-name="uni0302" unicode="&#x302;" horiz-adv-x="0" 
d="M684 1539l278 -245l-99 -113l-262 166l-260 -166l-102 113l280 245h165z" />
    <glyph glyph-name="tildecomb" unicode="&#x303;" horiz-adv-x="0" 
d="M715 1286q-56 0 -94.5 23t-70 46t-65.5 23q-36 0 -59 -22.5t-47 -66.5l-141 69q37 87 98 149.5t145 62.5q60 0 98.5 -23t68.5 -46t65 -23q32 0 55.5 21.5t49.5 65.5l141 -70q-39 -94 -101.5 -151.5t-142.5 -57.5z" />
    <glyph glyph-name="uni0304" unicode="&#x304;" horiz-adv-x="0" 
d="M893 1242h-585v188h585v-188z" />
    <glyph glyph-name="uni0305" unicode="&#x305;" horiz-adv-x="0" 
d="M1053 1242h-905v187h905v-187z" />
    <glyph glyph-name="uni0306" unicode="&#x306;" horiz-adv-x="0" 
d="M598 1176q-98 0 -167.5 37t-110 101.5t-49.5 144.5l154 30q21 -62 62.5 -94t110.5 -32q71 0 114 32t63 94l154 -30q-9 -80 -49.5 -144.5t-111 -101.5t-170.5 -37z" />
    <glyph glyph-name="uni0307" unicode="&#x307;" horiz-adv-x="0" 
d="M601 1507q73 0 118.5 -45t45.5 -112t-45.5 -112.5t-118.5 -45.5t-118.5 45.5t-45.5 112.5t45.5 112t118.5 45z" />
    <glyph glyph-name="uni0308" unicode="&#x308;" horiz-adv-x="0" 
d="M377 1283q-61 0 -103 40t-42 101q0 60 42 100.5t103 40.5q62 0 103.5 -40.5t41.5 -100.5q0 -61 -41.5 -101t-103.5 -40zM822 1283q-60 0 -102 40t-42 101q0 60 42 100.5t102 40.5q62 0 104 -40.5t42 -100.5q0 -61 -42 -101t-104 -40z" />
    <glyph glyph-name="uni030A" unicode="&#x30a;" horiz-adv-x="0" 
d="M600 1615q79 0 137 -33t90 -88.5t32 -121.5q0 -65 -32 -120.5t-90 -89t-137 -33.5q-78 0 -136 33.5t-89.5 89t-31.5 120.5q0 66 31.5 121.5t89.5 88.5t136 33zM600 1476q-43 0 -69 -26.5t-26 -77.5t26 -78t69 -27q44 0 70.5 27t26.5 78t-26.5 77.5t-70.5 26.5z" />
    <glyph glyph-name="uni030B" unicode="&#x30b;" horiz-adv-x="0" 
d="M246 1237l184 377l191 -89l-229 -352zM573 1239l193 375l189 -94l-239 -350z" />
    <glyph glyph-name="uni030C" unicode="&#x30c;" horiz-adv-x="0" 
d="M863 1530l99 -113l-278 -244h-165l-280 244l102 113l260 -167z" />
    <glyph glyph-name="uni030F" unicode="&#x30f;" horiz-adv-x="0" 
d="M955 1323l-184 377l-191 -89l229 -352zM628 1325l-193 375l-189 -94l239 -350z" />
    <glyph glyph-name="uni0313" unicode="&#x313;" horiz-adv-x="0" 
d="M458 1564q59 0 99.5 -39t40.5 -99q0 -32 -11 -68t-31 -78l-99 -201h-138l55 232q-25 20 -41.5 49t-16.5 66q0 58 40.5 98t101.5 40z" />
    <glyph glyph-name="uni0314" unicode="&#x314;" horiz-adv-x="0" 
d="M539 1564q-59 0 -99.5 -39t-40.5 -99q0 -32 11 -68t31 -78l99 -201h138l-55 232q25 20 41.5 49t16.5 66q0 58 -40.5 98t-101.5 40z" />
    <glyph glyph-name="uni0326" unicode="&#x326;" horiz-adv-x="0" 
d="M604 -134q59 0 99.5 -39t40.5 -99q0 -32 -11 -68t-31 -78l-99 -201h-138l55 232q-25 20 -41.5 49t-16.5 66q0 58 40.5 98t101.5 40z" />
    <glyph glyph-name="uni0327" unicode="&#x327;" horiz-adv-x="0" 
d="M655 -296q0 45 -46.5 59.5t-134.5 14.5l25 245h154v-134q103 -11 151.5 -62.5t48.5 -124.5q0 -68 -36 -117t-99 -75.5t-144 -26.5q-68 0 -127 17t-99 40l67 128q28 -15 62.5 -24t67.5 -9q50 0 80 15.5t30 53.5z" />
    <glyph glyph-name="strokeshortoverlay" unicode="&#x335;" 
d="M978 561h-755v168h755v-168z" />
    <glyph glyph-name="strokelongoverlay" unicode="&#x336;" 
d="M1263 561h-1325v168h1325v-168z" />
    <glyph glyph-name="uni0342" unicode="&#x342;" horiz-adv-x="0" 
d="M714 1286q-56 0 -94.5 23t-70 46t-65.5 23q-36 0 -59 -22.5t-47 -66.5l-141 69q37 87 98 149.5t145 62.5q60 0 98.5 -23t68.5 -46t65 -23q32 0 55.5 21.5t49.5 65.5l141 -70q-39 -94 -101.5 -151.5t-142.5 -57.5z" />
    <glyph glyph-name="uni0345" unicode="&#x345;" horiz-adv-x="0" 
d="M619 -396q-121 0 -185 65.5t-64 170.5v78h199v-73q0 -81 81 -81q32 0 56 8t49 23l77 -119q-36 -28 -87.5 -50t-125.5 -22z" />
    <glyph glyph-name="uni0370" unicode="&#x370;" 
d="M996 611h-518v-611h-273v1383h273v-551h518v-221z" />
    <glyph glyph-name="uni0371" unicode="&#x371;" 
d="M1058 437h-652v209h652v-209zM435 1085q28 -56 48 -144t20 -256v-685h-264v744q0 98 -14.5 174.5t-32.5 133.5z" />
    <glyph glyph-name="uni0372" unicode="&#x372;" 
d="M464 0v1169h-417v214h1108v-214h-418v-1169h-273zM47 815v450h212v-450h-212zM943 816v444h212v-444h-212z" />
    <glyph glyph-name="uni0373" unicode="&#x373;" 
d="M730 981v-1389l-264 -28v1417h264zM69 834l-42 191q33 13 66 20.5t73 10.5t93 3h878v-202l-875 -1q-32 0 -64 -1.5t-64 -6.5t-65 -14z" />
    <glyph glyph-name="uni0374" unicode="&#x374;" 
d="M392 839l165 544h252l-235 -544h-182z" />
    <glyph glyph-name="uni0375" unicode="&#x375;" 
d="M809 278l-165 -544h-252l235 544h182z" />
    <glyph glyph-name="uni0376" unicode="&#x376;" 
d="M126 0v1383h255v-550q0 -135 -6 -238.5t-16.5 -188.5t-23.5 -167l426 1144h313v-1383h-255v543q0 187 13.5 333t31.5 262l-420 -1138h-318z" />
    <glyph glyph-name="uni0377" unicode="&#x377;" 
d="M153 0v1059h252v-395q0 -113 -11.5 -221t-31.5 -196l391 812h275l-194 -246l-401 -813h-280zM1036 -30q-128 30 -193.5 105t-65.5 213q0 41 5.5 108t14.5 144t19 149t18 124l194 246v-731q0 -72 19 -106.5t70 -57.5z" />
    <glyph glyph-name="uni037A" unicode="&#x37a;" 
d="M619 -396q-121 0 -185 65.5t-64 170.5v78h199v-73q0 -81 81 -81q32 0 56 8t49 23l77 -119q-36 -28 -87.5 -50t-125.5 -22z" />
    <glyph glyph-name="reversedlunatesigmasymbol" unicode="&#x37b;" 
d="M518 -30q-117 0 -210 36t-166 95l118 167q60 -39 116.5 -62.5t128.5 -23.5q78 0 137.5 33t93.5 108t34 200q0 191 -60.5 275t-184.5 84q-79 0 -140.5 -20t-125.5 -59l-117 161q91 64 182 94.5t212 30.5q168 0 281.5 -69t172 -196.5t58.5 -301.5q0 -168 -64.5 -292
t-183 -192t-282.5 -68z" />
    <glyph glyph-name="dottedlunatesigmasymbol" unicode="&#x37c;" 
d="M694 182q70 0 131.5 26t118.5 66l120 -169q-70 -59 -169 -97t-212 -38q-166 0 -284.5 69.5t-182 194t-63.5 289.5q0 163 64.5 291.5t184 201.5t285.5 73q114 0 206.5 -32.5t169.5 -96.5l-117 -162q-59 41 -121.5 62.5t-129.5 21.5q-117 0 -190.5 -84.5t-73.5 -274.5
q0 -125 34.5 -200t94 -108t134.5 -33zM801.931 878.081q77.1221 0 125.19 -47.54q48.0693 -47.541 48.0693 -118.323q0 -70.7832 -48.0693 -118.852q-48.0684 -48.0693 -125.19 -48.0693q-77.1211 0 -125.189 48.0693q-48.0693 48.0684 -48.0693 118.852
q0 70.7822 48.0693 118.323q48.0684 47.54 125.189 47.54z" />
    <glyph glyph-name="reverseddottedlunatesigmasymbol" unicode="&#x37d;" 
d="M518 -30q-117 0 -210 36t-166 95l118 167q60 -39 116.5 -62.5t128.5 -23.5q78 0 137.5 33t93.5 108t34 200q0 191 -60.5 275t-184.5 84q-79 0 -140.5 -20t-125.5 -59l-117 161q91 64 182 94.5t212 30.5q168 0 281.5 -69t172 -196.5t58.5 -301.5q0 -168 -64.5 -292
t-183 -192t-282.5 -68zM551.931 878.081q77.1221 0 125.19 -47.54q48.0693 -47.541 48.0693 -118.323q0 -70.7832 -48.0693 -118.852q-48.0684 -48.0693 -125.19 -48.0693q-77.1211 0 -125.189 48.0693q-48.0693 48.0684 -48.0693 118.852q0 70.7822 48.0693 118.323
q48.0684 47.54 125.189 47.54z" />
    <glyph glyph-name="uni037E" unicode="&#x37e;" 
d="M608 372q83 0 138 -55.5t55 -135.5q0 -49 -17 -100.5t-51 -128.5l-147 -335h-186l98 406q-83 54 -83 159q0 80 56 135t137 55zM608 1058q82 0 137.5 -57t55.5 -135q0 -79 -55.5 -136t-137.5 -57q-81 0 -137 57t-56 136q0 53 26 96.5t70 69.5t97 26z" />
    <glyph glyph-name="Yotgreek" unicode="&#x37f;" 
d="M1033 1383v-899q0 -108 -32 -202t-97.5 -163t-164.5 -108t-233 -39q-122 0 -219.5 34t-184.5 95l108 171q77 -51 143.5 -70.5t138.5 -19.5q120 0 194 76.5t74 226.5v692h-420v206h693z" />
    <glyph glyph-name="tonos" unicode="&#x384;" 
d="M508 1666l261 -52l-161 -434l-175 30z" />
    <glyph glyph-name="dieresistonos" unicode="&#x385;" 
d="M574 1880l232 -44l-135 -365l-155 25zM359 1502q59 0 100 -41t41 -100q0 -58 -41 -100t-100 -42q-62 0 -103.5 42t-41.5 100q0 59 41.5 100t103.5 41zM841 1502q61 0 102.5 -41t41.5 -100q0 -58 -41.5 -100t-102.5 -42q-60 0 -101 42t-41 100q0 59 41 100t101 41z" />
    <glyph glyph-name="Alphatonos" unicode="&#x386;" 
d="M824 317h-455l-86 -317h-283l433 1383h336l432 -1383h-291zM418 522h355l-177 656zM81 1435l266 -52l-165 -432l-177 31z" />
    <glyph glyph-name="anoteleia" unicode="&#x387;" 
d="M394 684q0 56 27.5 103t74.5 75t104 28q58 0 105 -28t74.5 -75t27.5 -103t-27.5 -103.5t-74.5 -75.5t-105 -28q-57 0 -104 28t-74.5 75.5t-27.5 103.5z" />
    <glyph glyph-name="Epsilontonos" unicode="&#x388;" 
d="M483 1181v-379h490v-199h-490v-402h595v-201h-869v1383h862l-28 -202h-560zM-104 1435l266 -52l-165 -432l-177 31z" />
    <glyph glyph-name="Etatonos" unicode="&#x389;" 
d="M800 0v608h-400v-608h-274v1383h274v-550h400v550h274v-1383h-274zM-186 1435l266 -52l-165 -432l-177 31z" />
    <glyph glyph-name="Iotatonos" unicode="&#x38a;" 
d="M1030 1383v-205h-293v-973h293v-205h-860v205h293v973h-293v205h860zM-142 1435l266 -52l-165 -432l-177 31z" />
    <glyph glyph-name="Omicrontonos" unicode="&#x38c;" 
d="M1138 692q0 -216 -60.5 -378.5t-180.5 -253t-297 -90.5q-176 0 -296.5 88.5t-181 250t-60.5 382.5q0 216 60.5 378.5t181 253t296.5 90.5q177 0 297 -88t180.5 -250t60.5 -383zM856 692q0 262 -59.5 388.5t-196.5 126.5t-196.5 -127t-59.5 -389q0 -263 61 -388.5
t195 -125.5q139 0 197.5 127t58.5 388zM-96 1435l266 -52l-165 -432l-177 31z" />
    <glyph glyph-name="Upsilontonos" unicode="&#x38e;" 
d="M737 524v-524h-274v522l-457 861h300l299 -630l302 630h287zM-286 1435l266 -52l-165 -432l-177 31z" />
    <glyph glyph-name="Omegatonos" unicode="&#x38f;" 
d="M600 1206q-87 0 -144 -50t-84.5 -154t-27.5 -268q0 -230 48.5 -357t148.5 -183v-194h-457v200h234q-129 68 -192.5 201.5t-63.5 332.5q0 204 63.5 357t184 237.5t290.5 84.5q171 0 291 -84.5t183.5 -237.5t63.5 -357q0 -199 -64.5 -331.5t-193.5 -202.5h236v-200h-457
v194q102 55 149.5 182.5t47.5 357.5q0 164 -28 268t-85 154t-143 50zM-93 1435l266 -52l-165 -432l-177 31z" />
    <glyph glyph-name="iotadieresistonos" unicode="&#x390;" 
d="M430 860h-337l23 199h578v-752q0 -68 41 -97t109 -29q41 0 81.5 9.5t78.5 23.5l64 -180q-47 -25 -121.5 -44.5t-164.5 -19.5q-162 0 -257 90t-95 246v554zM550 1880l232 -44l-135 -365l-155 25zM335 1502q59 0 100 -41t41 -100q0 -58 -41 -100t-100 -42q-62 0 -103.5 42
t-41.5 100q0 59 41.5 100t103.5 41zM817 1502q61 0 102.5 -41t41.5 -100q0 -58 -41.5 -100t-102.5 -42q-60 0 -101 42t-41 100q0 59 41 100t101 41z" />
    <glyph glyph-name="Alpha" unicode="&#x391;" 
d="M824 317h-455l-86 -317h-283l433 1383h336l432 -1383h-291zM418 522h355l-177 656z" />
    <glyph glyph-name="Beta" unicode="&#x392;" 
d="M836 408q0 84 -32.5 131t-89.5 66.5t-130 19.5h-170v-420h158q49 0 96 8t85.5 29.5t60.5 61.5t22 104zM783 1007q0 94 -58.5 135t-172.5 41h-138v-365h150q112 0 165.5 44.5t53.5 144.5zM1120 401q0 -117 -45.5 -195t-123.5 -123t-176.5 -64t-205.5 -19h-429v1383h404
q102 0 194 -17t164.5 -57.5t115 -108.5t42.5 -169q0 -85 -35.5 -146t-94 -98.5t-125.5 -54.5q75 -12 147.5 -46.5t120 -103t47.5 -181.5z" />
    <glyph glyph-name="Gamma" unicode="&#x393;" 
d="M1107 1383l-26 -220h-595v-1163h-274v1383h895z" />
    <glyph glyph-name="uni0394" unicode="&#x394;" 
d="M769 1383l432 -1383h-1201l433 1383h336zM596 1177l-255 -954h511z" />
    <glyph glyph-name="Epsilon" unicode="&#x395;" 
d="M483 1181v-379h490v-199h-490v-402h595v-201h-869v1383h862l-28 -202h-560z" />
    <glyph glyph-name="Zeta" unicode="&#x396;" 
d="M418 222h682l-30 -222h-969v208l682 959h-610v216h918v-210z" />
    <glyph glyph-name="Eta" unicode="&#x397;" 
d="M800 0v608h-400v-608h-274v1383h274v-550h400v550h274v-1383h-274z" />
    <glyph glyph-name="Theta" unicode="&#x398;" 
d="M768 620h-338v168h338v-168zM1138 692q0 -216 -60.5 -378.5t-180.5 -253t-297 -90.5q-176 0 -296.5 88.5t-181 250t-60.5 382.5q0 216 60.5 378.5t181 253t296.5 90.5q177 0 297 -88t180.5 -250t60.5 -383zM864 692q0 265 -63.5 390t-200.5 125t-200.5 -125t-63.5 -391
q0 -265 65 -389.5t199 -124.5q139 0 201.5 125t62.5 390z" />
    <glyph glyph-name="Iota" unicode="&#x399;" 
d="M1030 1383v-205h-293v-973h293v-205h-860v205h293v973h-293v205h860z" />
    <glyph glyph-name="Kappa" unicode="&#x39a;" 
d="M424 0h-274v1383h274v-1383zM434 738l436 645h294l-444 -625l482 -758h-323z" />
    <glyph glyph-name="Lambda" unicode="&#x39b;" 
d="M769 1383l422 -1383h-291l-303 1168l-304 -1168h-285l425 1383h336z" />
    <glyph glyph-name="Mu" unicode="&#x39c;" 
d="M1078 1383l78 -1383h-244l-26 637q-3 80 -3.5 148.5t0.5 130t3.5 118.5t6.5 112l-183 -906h-222l-196 906q4 -53 7 -111t4.5 -121t2 -133t-2.5 -146l-19 -635h-240l78 1383h304l178 -913l170 913h304z" />
    <glyph glyph-name="Nu" unicode="&#x39d;" 
d="M730 0l-407 1149q5 -38 12 -98t13.5 -136t11 -161t4.5 -172v-582h-238v1383h348l403 -1147q-8 51 -17.5 135t-16.5 193t-7 232v587h238v-1383h-344z" />
    <glyph glyph-name="Xi" unicode="&#x39e;" 
d="M1078 232v-232h-956v232h956zM954 810v-216h-719v216h719zM1070 1383l-32 -225h-916v225h948z" />
    <glyph glyph-name="Omicron" unicode="&#x39f;" 
d="M1138 692q0 -216 -60.5 -378.5t-180.5 -253t-297 -90.5q-176 0 -296.5 88.5t-181 250t-60.5 382.5q0 216 60.5 378.5t181 253t296.5 90.5q177 0 297 -88t180.5 -250t60.5 -383zM856 692q0 262 -59.5 388.5t-196.5 126.5t-196.5 -127t-59.5 -389q0 -263 61 -388.5
t195 -125.5q139 0 197.5 127t58.5 388z" />
    <glyph glyph-name="Pi" unicode="&#x3a0;" 
d="M800 0v1166h-400v-1166h-274v1383h948v-1383h-274z" />
    <glyph glyph-name="Rho" unicode="&#x3a1;" 
d="M855 940q0 86 -32.5 139.5t-94.5 78.5t-149 25h-143v-501h151q82 0 141.5 25.5t93 82.5t33.5 150zM1139 942q0 -161 -68.5 -263.5t-191.5 -151t-284 -48.5h-159v-479h-274v1383h407q269 0 419.5 -109t150.5 -332z" />
    <glyph glyph-name="Sigma" unicode="&#x3a3;" 
d="M832 625l-405 -416h651v-209h-956v206l454 478l-454 492v207h956v-206h-649l403 -424v-128z" />
    <glyph glyph-name="Tau" unicode="&#x3a4;" 
d="M734 1168v-1168h-273v1168h-404v215h1093l-28 -215h-388z" />
    <glyph glyph-name="Upsilon" unicode="&#x3a5;" 
d="M737 524v-524h-274v522l-457 861h300l299 -630l302 630h287z" />
    <glyph glyph-name="Phi" unicode="&#x3a6;" 
d="M703 1383v-158q242 -10 363 -137t121 -390q0 -264 -123.5 -396.5t-360.5 -140.5v-161h-206v161q-242 8 -363 140.5t-121 396.5q0 262 118 389.5t366 137.5v158h206zM510 1065q-88 -1 -143 -40.5t-79.5 -120t-24.5 -206.5q0 -183 53.5 -276t193.5 -99v742zM690 1065v-742
q140 6 193.5 99.5t53.5 275.5q0 126 -25 207t-79.5 120t-142.5 40z" />
    <glyph glyph-name="Chi" unicode="&#x3a7;" 
d="M59 1383h299l242 -475l245 475h291l-376 -635l414 -748h-299l-279 562l-278 -562h-292l408 735z" />
    <glyph glyph-name="Psi" unicode="&#x3a8;" 
d="M476 0v372q-156 19 -256.5 82t-148 164t-47.5 233v532h241v-533q0 -129 46 -199.5t179 -89.5v822h222v-820q129 20 176 89.5t47 197.5v533h241v-532q0 -195 -110 -321.5t-340 -155.5v-374h-250z" />
    <glyph glyph-name="uni03A9" unicode="&#x3a9;" 
d="M600 1206q-87 0 -144 -50t-84.5 -154t-27.5 -268q0 -230 48.5 -357t148.5 -183v-194h-457v200h234q-129 68 -192.5 201.5t-63.5 332.5q0 204 63.5 357t184 237.5t290.5 84.5q171 0 291 -84.5t183.5 -237.5t63.5 -357q0 -199 -64.5 -331.5t-193.5 -202.5h236v-200h-457
v194q102 55 149.5 182.5t47.5 357.5q0 164 -28 268t-85 154t-143 50z" />
    <glyph glyph-name="Iotadieresis" unicode="&#x3aa;" 
d="M1030 1383v-205h-293v-973h293v-205h-860v205h293v973h-293v205h860zM377 1529q-61 0 -103 40t-42 101q0 60 42 100.5t103 40.5q62 0 103.5 -40.5t41.5 -100.5q0 -61 -41.5 -101t-103.5 -40zM822 1529q-60 0 -102 40t-42 101q0 60 42 100.5t102 40.5q62 0 104 -40.5
t42 -100.5q0 -61 -42 -101t-104 -40z" />
    <glyph glyph-name="Upsilondieresis" unicode="&#x3ab;" 
d="M737 524v-524h-274v522l-457 861h300l299 -630l302 630h287zM379 1529q-61 0 -103 40t-42 101q0 60 42 100.5t103 40.5q62 0 103.5 -40.5t41.5 -100.5q0 -61 -41.5 -101t-103.5 -40zM824 1529q-60 0 -102 40t-42 101q0 60 42 100.5t102 40.5q62 0 104 -40.5t42 -100.5
q0 -61 -42 -101t-104 -40z" />
    <glyph glyph-name="alphatonos" unicode="&#x3ac;" 
d="M498 1089q95 0 161 -33t106.5 -100.5t54.5 -169.5l51 273h239l-146 -519l53 -246q14 -61 39 -85t68 -36l-88 -204q-82 14 -135 54t-70 135l-21 108q-26 -93 -69.5 -159t-108 -101.5t-151.5 -35.5q-184 0 -289.5 142.5t-105.5 410.5q0 164 49.5 292t141.5 201t221 73z
M531 892q-83 0 -128 -91.5t-45 -277.5q0 -190 44 -273t121 -83q31 0 62 15.5t61 55.5t56 111.5t47 183.5q-22 136 -53.5 214.5t-72 111.5t-92.5 33zM546 1666l261 -52l-161 -434l-175 30z" />
    <glyph glyph-name="epsilontonos" unicode="&#x3ad;" 
d="M818 458h-191q-112 0 -160.5 -35t-48.5 -104q0 -71 62 -112.5t180 -41.5q102 0 187 24.5t157 68.5l124 -153q-87 -60 -210.5 -97.5t-278.5 -37.5q-144 0 -256.5 37.5t-177 111.5t-64.5 181q0 120 68 183t209 82q-123 27 -179.5 89t-56.5 151q0 92 59.5 155.5t161.5 96
t228 32.5q116 0 230.5 -26t205.5 -83l-120 -148q-61 35 -136 51.5t-151 16.5q-100 0 -155 -32t-55 -98q0 -59 48.5 -96t141.5 -37h205zM619 1666l261 -52l-161 -434l-175 30z" />
    <glyph glyph-name="etatonos" unicode="&#x3ae;" 
d="M753 1089q146 0 220 -82.5t74 -231.5v-1183l-264 -28v1108q0 80 -10 128.5t-38 70t-83 21.5q-43 0 -82.5 -19.5t-74 -52.5t-63.5 -74v-746h-264v744q0 89 -15 170.5t-31 137.5l245 33q10 -17 19 -44t16.5 -57.5t10.5 -59.5q71 83 159 124t181 41zM600 1666l261 -52
l-161 -434l-175 30z" />
    <glyph glyph-name="iotatonos" unicode="&#x3af;" 
d="M430 860h-337l23 199h578v-752q0 -68 41 -97t109 -29q41 0 81.5 9.5t78.5 23.5l64 -180q-47 -25 -121.5 -44.5t-164.5 -19.5q-162 0 -257 90t-95 246v554zM565 1666l261 -52l-161 -434l-175 30z" />
    <glyph glyph-name="upsilondieresistonos" unicode="&#x3b0;" 
d="M1029 1059q24 -124 40 -256.5t16 -291.5q0 -188 -73 -307.5t-191 -176.5t-253 -57q-180 0 -295.5 94t-115.5 282v713h264v-695q0 -103 42.5 -149t120.5 -46q48 0 90 18.5t75 60.5t52 111t19 169q0 124 -14 260.5t-39 270.5h262zM574 1880l232 -44l-135 -365l-155 25z
M359 1502q59 0 100 -41t41 -100q0 -58 -41 -100t-100 -42q-62 0 -103.5 42t-41.5 100q0 59 41.5 100t103.5 41zM841 1502q61 0 102.5 -41t41.5 -100q0 -58 -41.5 -100t-102.5 -42q-60 0 -101 42t-41 100q0 59 41 100t101 41z" />
    <glyph glyph-name="alpha" unicode="&#x3b1;" 
d="M498 1089q95 0 161 -33t106.5 -100.5t54.5 -169.5l51 273h239l-146 -519l53 -246q14 -61 39 -85t68 -36l-88 -204q-82 14 -135 54t-70 135l-21 108q-26 -93 -69.5 -159t-108 -101.5t-151.5 -35.5q-184 0 -289.5 142.5t-105.5 410.5q0 164 49.5 292t141.5 201t221 73z
M531 892q-83 0 -128 -91.5t-45 -277.5q0 -190 44 -273t121 -83q31 0 62 15.5t61 55.5t56 111.5t47 183.5q-22 136 -53.5 214.5t-72 111.5t-92.5 33z" />
    <glyph glyph-name="beta" unicode="&#x3b2;" 
d="M573 1516q132 0 230.5 -48.5t153.5 -134t55 -196.5q0 -92 -33 -158t-95.5 -108t-150.5 -61q64 -6 132 -27t125.5 -64.5t93 -117t35.5 -186.5q0 -134 -57 -235t-157.5 -157.5t-231.5 -56.5q-106 0 -203 48.5t-180 136.5l56 122q57 -50 120 -77.5t145 -27.5
q66 0 119.5 27.5t85.5 85t32 146.5q0 136 -76 202.5t-202 66.5h-80l20 192h62q51 0 91 24.5t63 74t23 126.5q0 104 -47.5 154.5t-127.5 50.5q-84 0 -130 -52.5t-46 -163.5v-1503l-265 -42v1535q0 135 56 229.5t155.5 144.5t228.5 50z" />
    <glyph glyph-name="gamma" unicode="&#x3b3;" 
d="M885 1085l265 -60l-424 -979q-45 -105 -51 -212.5t20 -243.5l-209 -25q-34 71 -46.5 148t-4 157.5t37.5 160.5q-37 152 -84 293t-101 265t-114 226.5t-124 176.5l262 94q61 -84 117 -208.5t102 -281t75 -340.5z" />
    <glyph glyph-name="delta" unicode="&#x3b4;" 
d="M637 1510q117 0 206.5 -34t158.5 -89l-128 -146q-58 43 -113.5 60.5t-119.5 17.5q-76 0 -115.5 -29t-39.5 -77q0 -36 17.5 -62t61.5 -50t125 -56q142 -58 234 -129t136 -172.5t44 -250.5q0 -113 -34.5 -208.5t-99.5 -166.5t-157.5 -109.5t-208.5 -38.5q-158 0 -270 66.5
t-171.5 183t-59.5 265.5q0 109 38 197t108.5 154t165.5 106q-111 59 -153 120.5t-42 151.5q0 89 49 155.5t142.5 103.5t225.5 37zM573 872q-111 -68 -153 -159.5t-42 -219.5q0 -158 58 -241t166 -83q110 0 168.5 80.5t58.5 244.5q0 107 -22.5 174t-78.5 113.5t-155 90.5z
" />
    <glyph glyph-name="epsilon" unicode="&#x3b5;" 
d="M818 458h-191q-112 0 -160.5 -35t-48.5 -104q0 -71 62 -112.5t180 -41.5q102 0 187 24.5t157 68.5l124 -153q-87 -60 -210.5 -97.5t-278.5 -37.5q-144 0 -256.5 37.5t-177 111.5t-64.5 181q0 120 68 183t209 82q-123 27 -179.5 89t-56.5 151q0 92 59.5 155.5t161.5 96
t228 32.5q116 0 230.5 -26t205.5 -83l-120 -148q-61 35 -136 51.5t-151 16.5q-100 0 -155 -32t-55 -98q0 -59 48.5 -96t141.5 -37h205z" />
    <glyph glyph-name="zeta" unicode="&#x3b6;" 
d="M1075 1482l31 -164q-217 -166 -356 -304t-205.5 -259.5t-66.5 -239.5q0 -84 26 -136t87.5 -88t165.5 -74q119 -42 192 -79t107 -84.5t34 -121.5q0 -122 -85 -213.5t-261 -168.5l-99 166q75 41 123 82t48 103q0 28 -15.5 46t-51.5 34t-100 39q-151 55 -250.5 113t-149 145
t-49.5 227q0 137 66.5 266t210.5 262t377 278q-28 -12 -81 -18t-120.5 -7.5t-137.5 -1.5h-242l30 198h772z" />
    <glyph glyph-name="eta" unicode="&#x3b7;" 
d="M753 1089q146 0 220 -82.5t74 -231.5v-1183l-264 -28v1108q0 80 -10 128.5t-38 70t-83 21.5q-43 0 -82.5 -19.5t-74 -52.5t-63.5 -74v-746h-264v744q0 89 -15 170.5t-31 137.5l245 33q10 -17 19 -44t16.5 -57.5t10.5 -59.5q71 83 159 124t181 41z" />
    <glyph glyph-name="theta" unicode="&#x3b8;" 
d="M601 1510q158 0 268 -88t167.5 -258.5t57.5 -418.5q0 -246 -58 -419.5t-168 -264.5t-268 -91q-157 0 -267.5 89.5t-168.5 262t-58 421.5q0 245 58 416.5t169 261t268 89.5zM833 659h-468q5 -184 32.5 -292t78.5 -154.5t124 -46.5q74 0 124 46.5t77 154.5t32 292z
M601 1314q-74 0 -124.5 -46.5t-78.5 -153t-32 -289.5h468q-5 183 -32 289.5t-77 153t-124 46.5z" />
    <glyph glyph-name="iota" unicode="&#x3b9;" 
d="M430 860h-337l23 199h578v-752q0 -68 41 -97t109 -29q41 0 81.5 9.5t78.5 23.5l64 -180q-47 -25 -121.5 -44.5t-164.5 -19.5q-162 0 -257 90t-95 246v554z" />
    <glyph glyph-name="kappa" unicode="&#x3ba;" 
d="M879 1088l218 -110l-369 -406l246 -281q48 -54 87 -77.5t89 -34.5l-90 -210q-67 7 -117.5 29.5t-93.5 64.5t-89 106l-313 390zM384 1059q26 -76 40.5 -181t14.5 -213v-665h-264v691q0 94 -10.5 185t-36.5 183h256z" />
    <glyph glyph-name="lambda" unicode="&#x3bb;" 
d="M434 1059h90q-28 83 -67 135.5t-104 83.5t-173 46l35 187q137 -18 234 -55t164 -102t112.5 -166t79.5 -246q56 -226 108 -392t111 -286t134 -207l-263 -87q-71 99 -125 222.5t-97.5 288.5t-82.5 387l-262 -899l-260 60z" />
    <glyph glyph-name="uni03BC" unicode="&#x3bc;" 
d="M1020 1059v-697q0 -102 10.5 -193.5t24.5 -168.5l-240 -26q-10 28 -20 72t-15 88q-44 -73 -108.5 -117.5t-138.5 -44.5q-65 0 -104 21.5t-81 76.5q25 -65 39 -122t14 -131v-225l-253 -28v1495h263v-599q0 -92 8 -155t36 -96t90 -33q67 0 120 37.5t91 92.5v753h264z" />
    <glyph glyph-name="nu" unicode="&#x3bd;" 
d="M431 0q-32 153 -74.5 306.5t-92 290.5t-105.5 242.5t-117 161.5l247 86q68 -78 125 -208.5t103.5 -301t78.5 -370.5l278 882l256 -58l-395 -1031h-304z" />
    <glyph glyph-name="xi" unicode="&#x3be;" 
d="M716 1510q122 0 225.5 -30.5t188.5 -90.5l-117 -145q-58 38 -129 57.5t-142 19.5q-104 0 -167.5 -43.5t-63.5 -126.5q0 -97 61.5 -139t172.5 -42h211l-26 -189h-197q-91 0 -156.5 -29.5t-100.5 -82.5t-35 -126q0 -90 34.5 -142t114 -89.5t217.5 -86.5q102 -36 169.5 -73
t101 -88.5t33.5 -133.5q0 -120 -86 -211.5t-260 -168.5l-99 166q43 22 81.5 50t62.5 63.5t24 80.5q0 29 -13 48t-44.5 35t-87.5 36q-123 45 -220 88.5t-165 96.5t-103 128t-35 184q0 86 29.5 149t78.5 106.5t108.5 69.5t119.5 37q-72 24 -130.5 60.5t-93.5 91.5t-35 132
q0 105 65.5 180.5t173 116.5t234.5 41z" />
    <glyph glyph-name="omicron" unicode="&#x3bf;" 
d="M601 1089q158 0 268 -69t167.5 -194.5t57.5 -293.5q0 -172 -58 -298t-168 -195t-268 -69q-157 0 -267.5 67.5t-168.5 193t-58 299.5q0 166 58 292t169 196.5t268 70.5zM601 890q-111 0 -165.5 -87t-54.5 -273q0 -188 54 -274.5t165 -86.5t165 86.5t54 276.5
q0 185 -54 271.5t-164 86.5z" />
    <glyph glyph-name="pi" unicode="&#x3c0;" 
d="M459 894v-894h-254v894h254zM991 895v-567q0 -71 21.5 -105.5t71.5 -53.5l-83 -199q-130 26 -199 101t-69 223v600zM1140 1059v-197h-844q-69 0 -109 -2.5t-68 -8.5t-62 -18l-47 185q32 14 65 23t74 13.5t95 4.5h896z" />
    <glyph glyph-name="rho" unicode="&#x3c1;" 
d="M619 1089q239 0 356 -143t117 -414q0 -156 -47 -283.5t-139 -203t-226 -75.5q-79 0 -145.5 28.5t-117.5 87.5v-494l-264 -28v983q0 263 116 402.5t350 139.5zM615 893q-110 0 -154 -95t-44 -296v-224q36 -54 83.5 -81t104.5 -27q103 0 157.5 88t54.5 271q0 133 -23 213
t-68 115.5t-111 35.5z" />
    <glyph glyph-name="uni03C2" unicode="&#x3c2;" 
d="M708 1089q118 0 208 -30.5t171 -93.5l-118 -161q-56 40 -114 59t-130 19q-77 0 -139.5 -35t-99.5 -107.5t-37 -186.5q0 -93 26.5 -149.5t91 -95.5t177.5 -82q97 -36 166 -73.5t105 -89.5t36 -134q0 -120 -85.5 -208t-259.5 -164l-103 168q75 35 124 74t49 100
q0 34 -18 56t-63 44t-129 53q-120 45 -209 104.5t-137 153t-48 243.5q0 159 68 279.5t189 188.5t279 68z" />
    <glyph glyph-name="sigma" unicode="&#x3c3;" 
d="M639 1075q117 0 255 -4.5t248 -11.5v-186l-266 20l-141 1q-84 2 -150 -11.5t-111.5 -52t-69 -112.5t-23.5 -192q0 -186 54.5 -271.5t164.5 -85.5q108 0 162 86t54 272q0 168 -36 253t-90 125l202 7q90 -50 145 -148.5t55 -246.5q0 -168 -58 -290.5t-168 -189.5t-266 -67
q-155 0 -266 67t-169.5 192t-58.5 297q0 165 60.5 288.5t179 192t293.5 68.5z" />
    <glyph glyph-name="tau" unicode="&#x3c4;" 
d="M1051 1059v-200h-731q-36 0 -72.5 -2t-74 -7.5t-78.5 -17.5l-40 189q55 21 119.5 29.5t148.5 8.5h728zM677 891v-584q0 -68 40.5 -97t107.5 -29q42 0 83 9.5t77 23.5l66 -180q-48 -25 -122.5 -44.5t-164.5 -19.5q-164 0 -257.5 90t-93.5 246v585h264z" />
    <glyph glyph-name="upsilon" unicode="&#x3c5;" 
d="M1029 1059q24 -124 40 -256.5t16 -291.5q0 -188 -73 -307.5t-191 -176.5t-253 -57q-180 0 -295.5 94t-115.5 282v713h264v-695q0 -103 42.5 -149t120.5 -46q48 0 90 18.5t75 60.5t52 111t19 169q0 124 -14 260.5t-39 270.5h262z" />
    <glyph glyph-name="phi" unicode="&#x3c6;" 
d="M802 1089q187 0 268.5 -139.5t81.5 -411.5q0 -183 -55 -302t-158 -181.5t-245 -78.5v-390l-213 -22v412q-227 24 -330 154t-103 349q0 180 33 324.5t73 255.5h228q-52 -157 -78 -286.5t-26 -250.5q0 -112 18 -190t62.5 -123.5t122.5 -60.5v496q0 143 32 242.5t102.5 151
t186.5 51.5zM798 913q-49 0 -71 -34.5t-27.5 -97.5t-5.5 -149v-485q123 22 172 115t49 275q0 205 -23.5 290.5t-93.5 85.5z" />
    <glyph glyph-name="chi" unicode="&#x3c7;" 
d="M315 1087q60 -69 111.5 -149.5t97 -183t85.5 -236.5l138 -161l395 -744l-260 -68l-280 638l-143 171q-44 115 -89.5 209t-94.5 171.5t-102 142t-113 120.5zM852 1086l252 -51l-357 -678l-145 -174l-276 -635l-263 56l396 750l150 164z" />
    <glyph glyph-name="psi" unicode="&#x3c8;" 
d="M708 1059v-897q89 15 134 55.5t61.5 114.5t16.5 190q0 125 -12.5 255.5t-34.5 281.5h225q24 -125 38.5 -259t14.5 -290q0 -158 -44.5 -269t-142 -176t-256.5 -86v-387l-214 -28v415q-159 15 -253 73t-134.5 148t-40.5 198v661h230v-652q0 -112 46 -171t152 -74v897h214z
" />
    <glyph glyph-name="omega" unicode="&#x3c9;" 
d="M1058 1059q40 -122 72.5 -268.5t32.5 -308.5q0 -249 -78 -380.5t-228 -131.5q-105 0 -169.5 51.5t-89.5 165.5q-29 -111 -91 -164t-161 -53q-152 0 -230.5 129t-78.5 383q0 162 32 310t71 267h214q-28 -104 -45.5 -197.5t-25.5 -184t-8 -184.5q0 -106 10 -178t35 -109
t70 -37t68 34t31.5 100t8.5 163v229l205 33v-256q0 -105 8.5 -172t32.5 -99t69 -32q47 0 71 37t32.5 109t8.5 178q0 93 -8.5 184t-26 185t-46.5 197h214z" />
    <glyph glyph-name="iotadieresis" unicode="&#x3ca;" 
d="M430 860h-337l23 199h578v-752q0 -68 41 -97t109 -29q41 0 81.5 9.5t78.5 23.5l64 -180q-47 -25 -121.5 -44.5t-164.5 -19.5q-162 0 -257 90t-95 246v554zM353 1283q-61 0 -103 40t-42 101q0 60 42 100.5t103 40.5q62 0 103.5 -40.5t41.5 -100.5q0 -61 -41.5 -101
t-103.5 -40zM798 1283q-60 0 -102 40t-42 101q0 60 42 100.5t102 40.5q62 0 104 -40.5t42 -100.5q0 -61 -42 -101t-104 -40z" />
    <glyph glyph-name="upsilondieresis" unicode="&#x3cb;" 
d="M1029 1059q24 -124 40 -256.5t16 -291.5q0 -188 -73 -307.5t-191 -176.5t-253 -57q-180 0 -295.5 94t-115.5 282v713h264v-695q0 -103 42.5 -149t120.5 -46q48 0 90 18.5t75 60.5t52 111t19 169q0 124 -14 260.5t-39 270.5h262zM377 1283q-61 0 -103 40t-42 101
q0 60 42 100.5t103 40.5q62 0 103.5 -40.5t41.5 -100.5q0 -61 -41.5 -101t-103.5 -40zM822 1283q-60 0 -102 40t-42 101q0 60 42 100.5t102 40.5q62 0 104 -40.5t42 -100.5q0 -61 -42 -101t-104 -40z" />
    <glyph glyph-name="omicrontonos" unicode="&#x3cc;" 
d="M601 1089q158 0 268 -69t167.5 -194.5t57.5 -293.5q0 -172 -58 -298t-168 -195t-268 -69q-157 0 -267.5 67.5t-168.5 193t-58 299.5q0 166 58 292t169 196.5t268 70.5zM601 890q-111 0 -165.5 -87t-54.5 -273q0 -188 54 -274.5t165 -86.5t165 86.5t54 276.5
q0 185 -54 271.5t-164 86.5zM589 1666l261 -52l-161 -434l-175 30z" />
    <glyph glyph-name="upsilontonos" unicode="&#x3cd;" 
d="M1029 1059q24 -124 40 -256.5t16 -291.5q0 -188 -73 -307.5t-191 -176.5t-253 -57q-180 0 -295.5 94t-115.5 282v713h264v-695q0 -103 42.5 -149t120.5 -46q48 0 90 18.5t75 60.5t52 111t19 169q0 124 -14 260.5t-39 270.5h262zM589 1666l261 -52l-161 -434l-175 30z" />
    <glyph glyph-name="omegatonos" unicode="&#x3ce;" 
d="M1058 1059q40 -122 72.5 -268.5t32.5 -308.5q0 -249 -78 -380.5t-228 -131.5q-105 0 -169.5 51.5t-89.5 165.5q-29 -111 -91 -164t-161 -53q-152 0 -230.5 129t-78.5 383q0 162 32 310t71 267h214q-28 -104 -45.5 -197.5t-25.5 -184t-8 -184.5q0 -106 10 -178t35 -109
t70 -37t68 34t31.5 100t8.5 163v229l205 33v-256q0 -105 8.5 -172t32.5 -99t69 -32q47 0 71 37t32.5 109t8.5 178q0 93 -8.5 184t-26 185t-46.5 197h214zM589 1666l261 -52l-161 -434l-175 30z" />
    <glyph glyph-name="uni03CF" unicode="&#x3cf;" 
d="M864 214h295v-214h-295v214zM410 0h-274v1383h274v-1383zM420 738l394 645h289l-397 -625l435 -758h-317zM797 -442q-87 0 -147.5 24.5t-107.5 58.5l101 161q30 -17 58.5 -28.5t72.5 -11.5q53 0 82 33t29 108v99h274v-78q0 -181 -96 -273.5t-266 -92.5z" />
    <glyph glyph-name="uni03D0" unicode="&#x3d0;" 
d="M673 1510q115 0 185.5 -40.5t102.5 -103.5t32 -132q0 -87 -40 -161t-117 -130t-189 -92q61 16 107 16q98 0 171 -46t113 -137t40 -227q0 -101 -33 -189.5t-95.5 -155t-151.5 -104.5t-200 -38q-170 0 -274.5 86.5t-152.5 248t-48 384.5q0 198 44.5 350.5t121.5 257.5
t175.5 159t208.5 54zM655 1321q-62 0 -122 -57t-99.5 -189t-39.5 -357q0 -206 21.5 -326.5t67 -172t115.5 -51.5q64 0 109.5 33.5t70 96t24.5 149.5q0 90 -17.5 154.5t-57.5 99.5t-108 35q-43 0 -83 -12t-94 -35l-83 -38l2 186l89 36q161 64 229.5 146.5t68.5 196.5
q0 54 -25 79.5t-68 25.5z" />
    <glyph glyph-name="uni03D1" unicode="&#x3d1;" 
d="M532 -30q-98 0 -181 40.5t-133 124t-50 212.5v356h256v-361q0 -91 33 -133.5t88 -42.5q67 0 112.5 59t68 198t22.5 379q0 189 -25.5 301t-74.5 161.5t-119 49.5t-110.5 -45t-40.5 -116q0 -83 53.5 -123t138.5 -40l522 2v-186l-522 -2q-219 0 -327 96t-108 246
q0 100 50.5 182.5t139 132t203.5 49.5q168 0 278 -86.5t163.5 -245t53.5 -373.5q0 -415 -114 -625t-377 -210z" />
    <glyph glyph-name="uni03D2" unicode="&#x3d2;" 
d="M1152 1203q-11 3 -22 5t-26 2q-34 0 -57 -22t-48 -78l-264 -586v-524h-276v522l-416 861h301l257 -631l171 428q35 85 74 136.5t93 74t133 22.5q38 0 69 -5.5t56 -14.5z" />
    <glyph glyph-name="uni03D3" unicode="&#x3d3;" 
d="M1152 1203q-11 3 -22 5t-26 2q-34 0 -57 -22t-48 -78l-264 -586v-524h-276v522l-416 861h301l257 -631l171 428q35 85 74 136.5t93 74t133 22.5q38 0 69 -5.5t56 -14.5zM-255 1435l266 -52l-165 -432l-177 31z" />
    <glyph glyph-name="uni03D4" unicode="&#x3d4;" 
d="M1152 1203q-11 3 -22 5t-26 2q-34 0 -57 -22t-48 -78l-264 -586v-524h-276v522l-416 861h301l257 -631l171 428q35 85 74 136.5t93 74t133 22.5q38 0 69 -5.5t56 -14.5zM383 1529q-61 0 -103 40t-42 101q0 60 42 100.5t103 40.5q62 0 103.5 -40.5t41.5 -100.5
q0 -61 -41.5 -101t-103.5 -40zM828 1529q-60 0 -102 40t-42 101q0 60 42 100.5t102 40.5q62 0 104 -40.5t42 -100.5q0 -61 -42 -101t-104 -40z" />
    <glyph glyph-name="uni03D5" unicode="&#x3d5;" 
d="M690 1053q125 -4 228 -62.5t164 -172.5t61 -284q0 -176 -63 -291.5t-166 -174t-223 -61.5l-3 166q105 6 160 92.5t55 268.5q0 181 -57 265t-156 87v167zM505 1053l4 -166q-103 -4 -158 -89.5t-55 -270.5q0 -175 56.5 -262t156.5 -91l-3 -167q-122 4 -225 62.5t-164.5 173
t-61.5 284.5q0 176 63 291.5t166 173.5t221 61zM723 1507v-495l-16 -109v-751l17 -112l-1 -448l-249 -28l2 476l16 112v751l-18 109v469z" />
    <glyph glyph-name="uni03D6" unicode="&#x3d6;" 
d="M33 852l-47 167q36 15 74 23.5t98.5 12.5t160.5 4h848v-183l-955 -2q-67 0 -100 -4t-79 -18zM965 1015q75 -115 122.5 -252t47.5 -294q0 -239 -79 -369t-222 -130q-90 0 -150 51.5t-86 165.5q-29 -111 -86.5 -164t-140.5 -53q-144 0 -224 127.5t-80 371.5
q0 155 46.5 292.5t120.5 251.5h132q-24 -94 -39 -180t-21.5 -169.5t-6.5 -170.5q0 -106 9.5 -178t32.5 -109t63 -37t61 34t29 100t8 163v189l198 29v-212q0 -105 8 -172t30 -99t62 -32q42 0 64 37t30.5 109t8.5 178q0 87 -7.5 171t-23 170.5t-39.5 180.5h132z" />
    <glyph glyph-name="uni03D7" unicode="&#x3d7;" 
d="M747 -444q-90 0 -157 25t-111 58l94 157q37 -18 71 -29.5t86 -11.5q59 0 94 31t35 102v232l240 31v-240q0 -177 -95 -266t-257 -89zM380 -22l-192 66l174 248l455 789l193 -65l-175 -248zM1019 2q-127 29 -193 89.5t-66 189.5q0 36 5 86.5t13.5 107t18.5 112t20 103
t18 78.5l175 248v-688q0 -83 20 -117.5t69 -58.5zM180 1089q128 -28 193.5 -104.5t65.5 -205.5q0 -37 -5.5 -87t-14 -106.5t-18.5 -112t-20 -103t-19 -78.5l-174 -248v688q0 74 -19.5 108t-68.5 58z" />
    <glyph glyph-name="uni03D8" unicode="&#x3d8;" 
d="M469 -414v414h263v-414h-263zM1138 692q0 -216 -60.5 -378.5t-180.5 -253t-297 -90.5q-176 0 -296.5 88.5t-181 250t-60.5 382.5q0 216 60.5 378.5t181 253t296.5 90.5q177 0 297 -88t180.5 -250t60.5 -383zM856 692q0 262 -59.5 388.5t-196.5 126.5t-196.5 -127
t-59.5 -389q0 -263 61 -388.5t195 -125.5q139 0 197.5 127t58.5 388z" />
    <glyph glyph-name="uni03D9" unicode="&#x3d9;" 
d="M730 5v-413l-260 -28v441h260zM601 1089q158 0 268 -69t167.5 -194.5t57.5 -293.5q0 -172 -58 -298t-168 -195t-268 -69q-157 0 -267.5 67.5t-168.5 193t-58 299.5q0 166 58 292t169 196.5t268 70.5zM601 890q-111 0 -165.5 -87t-54.5 -273q0 -188 54 -274.5t165 -86.5
t165 86.5t54 276.5q0 185 -54 271.5t-164 86.5z" />
    <glyph glyph-name="uni03DA" unicode="&#x3da;" 
d="M736 -440l-100 164q74 38 122 76.5t48 96.5q0 33 -24 58.5t-82 53.5t-159 69q-135 57 -232 133.5t-149 195t-52 297.5q0 141 43 264t129.5 216.5t218 146t308.5 52.5h339l-33 -221h-284q-154 0 -251 -57t-142 -158.5t-45 -235.5q0 -124 28 -205t101 -138.5t205 -112.5
q114 -45 191.5 -90t118 -102.5t40.5 -141.5q0 -115 -81.5 -200t-257.5 -161z" />
    <glyph glyph-name="uni03DB" unicode="&#x3db;" 
d="M811 1166l233 -19q0 -121 -43 -187.5t-121.5 -101t-187.5 -64.5q-100 -27 -165 -56.5t-96 -79.5t-31 -141q0 -82 27 -134.5t94 -90.5t187 -79q102 -34 173 -70.5t109 -89t38 -134.5q0 -116 -85 -199.5t-259 -159.5l-103 164q81 39 126.5 77t45.5 95q0 36 -26 59t-80 45
t-140 51q-87 29 -157.5 65t-121 87.5t-78 125.5t-27.5 180q0 135 46.5 221.5t131.5 140t200 86.5q102 30 163.5 51t93 41.5t42.5 47.5t11 69z" />
    <glyph glyph-name="uni03DC" unicode="&#x3dc;" 
d="M910 547q-37 14 -77.5 22.5t-104.5 8.5h-422v205h441q77 0 129 -13t99 -39zM1095 1383l-26 -220h-595v-1163h-274v1383h895z" />
    <glyph glyph-name="uni03DD" unicode="&#x3dd;" 
d="M593 1059h477l-28 -203h-421q-74 0 -112.5 -39.5t-38.5 -121.5v-1096l-264 -37v1133q0 110 44 191.5t130.5 127t212.5 45.5zM930 259q-37 14 -79 22.5t-102 8.5h-426v196h443q78 0 130 -12.5t97 -38.5z" />
    <glyph glyph-name="uni03DE" unicode="&#x3de;" 
d="M360 0l491 655l241 -68l-438 -587h-294zM153 587l-46 219h939l47 -219h-940zM350 739l-243 67l438 577h294z" />
    <glyph glyph-name="uni03DF" unicode="&#x3df;" 
d="M723 -30l-234 52q5 73 27 146.5t64 158.5t105 194l198 346l179 -94l-188 -387q-49 -102 -78.5 -173t-46 -128t-26.5 -115zM205 525l-67 188l856 247l69 -187zM316 616l-178 97l188 386q50 102 79.5 173t45.5 127.5t26 115.5l233 -52q-4 -74 -26.5 -146.5t-64.5 -158
t-105 -194.5z" />
    <glyph glyph-name="uni03E0" unicode="&#x3e0;" 
d="M930 0l-365 1103l-117 280h219l509 -1383h-246zM24 0l494 1266l174 -46l-414 -1220h-254zM422 3l264 820l161 -29l-236 -794z" />
    <glyph glyph-name="uni03E1" unicode="&#x3e1;" 
d="M33 0l547 1159l152 -144l-474 -1015h-225zM448 0l336 792l129 -116l-278 -676h-187zM174 1515q298 -128 498 -308t301.5 -430.5t101.5 -589.5q0 -101 -11.5 -213t-31 -218t-42.5 -190l-196 30q28 130 45 277t17 314q0 288 -79 499t-247.5 371.5t-437.5 295.5z" />
    <glyph glyph-name="uni03F0" unicode="&#x3f0;" 
d="M381 -22l-190 66l174 248l454 789l191 -69l-175 -244zM1019 -30q-127 29 -193 105.5t-66 205.5q0 36 5 86.5t13.5 107t18.5 112t20 103t18 78.5l175 244v-684q0 -74 20 -108t69 -57zM182 1089q127 -28 193 -104.5t66 -205.5q0 -37 -5 -87t-13.5 -106.5t-18.5 -112
t-20 -103t-19 -78.5l-174 -248v688q0 74 -20 108t-69 58z" />
    <glyph glyph-name="uni03F1" unicode="&#x3f1;" 
d="M751 -441q-14 30 -35 47t-68 28.5t-138 25.5q-117 17 -196.5 60.5t-120 125t-40.5 210.5l264 -26q0 -68 22.5 -105.5t79 -57t157.5 -36.5q143 -21 212.5 -69.5t94.5 -136.5zM387 221l11 187q36 -86 89.5 -126t119.5 -40q97 0 153 86.5t56 247.5q0 168 -52.5 242.5
t-142.5 74.5q-113 0 -158.5 -93t-45.5 -283v-487l-264 26v491q0 264 116.5 403t347.5 139q154 0 260 -62t160.5 -176.5t54.5 -272.5q0 -107 -27.5 -203t-81 -171t-130 -118t-173.5 -43q-87 0 -162.5 40.5t-130.5 137.5z" />
    <glyph glyph-name="uni03F2" unicode="&#x3f2;" 
d="M694 182q70 0 131.5 26t118.5 66l120 -169q-70 -59 -169 -97t-212 -38q-166 0 -284.5 69.5t-182 194t-63.5 289.5q0 163 64.5 291.5t184 201.5t285.5 73q114 0 206.5 -32.5t169.5 -96.5l-117 -162q-59 41 -121.5 62.5t-129.5 21.5q-117 0 -190.5 -84.5t-73.5 -274.5
q0 -125 34.5 -200t94 -108t134.5 -33z" />
    <glyph glyph-name="uni03F3" unicode="&#x3f3;" 
d="M926 1059v-800q0 -211 -83.5 -349t-245.5 -220t-397 -126l-43 202q160 33 272.5 87t172.5 147t60 242v630h-402v187h666zM738 1593q72 0 118 -45t46 -112t-46 -112.5t-118 -45.5q-73 0 -119 45.5t-46 112.5t46 112t119 45z" />
    <glyph glyph-name="uni03F4" unicode="&#x3f4;" 
d="M1039 620h-855v168h855v-168zM1138 692q0 -216 -60.5 -378.5t-180.5 -253t-297 -90.5q-176 0 -296.5 88.5t-181 250t-60.5 382.5q0 216 60.5 378.5t181 253t296.5 90.5q177 0 297 -88t180.5 -250t60.5 -383zM864 692q0 265 -63.5 390t-200.5 125t-200.5 -125t-63.5 -391
q0 -265 65 -389.5t199 -124.5q139 0 201.5 125t62.5 390z" />
    <glyph glyph-name="uni03F5" unicode="&#x3f5;" 
d="M685 1089q113 0 207.5 -31.5t171.5 -95.5l-114 -152q-64 43 -127 63t-128 20q-111 0 -183 -65t-89 -199h441v-175h-442q13 -152 88.5 -219t187.5 -67q69 0 129.5 21t121.5 63l115 -156q-75 -60 -176.5 -93t-204.5 -33q-168 0 -286.5 69.5t-181 194t-62.5 289.5
q0 163 64.5 291.5t183.5 201.5t284 73z" />
    <glyph glyph-name="uni03F6" unicode="&#x3f6;" 
d="M555 1089q165 0 278.5 -70t172 -196t58.5 -293q0 -166 -61.5 -292t-179.5 -197t-289 -71q-115 0 -210 33t-171 100l120 148q60 -43 120.5 -63t134.5 -20q113 0 183 66t84 220h-429v175h426q-14 137 -79.5 200.5t-174.5 63.5q-72 0 -134.5 -20t-122.5 -62l-115 152
q83 63 176.5 94.5t212.5 31.5z" />
    <glyph glyph-name="uni03F7" unicode="&#x3f7;" 
d="M427 1383v-227h141q270 0 420 -110t150 -337q0 -162 -66.5 -265.5t-188 -153t-287.5 -49.5h-169v-241h-274v1383h274zM581 956h-154v-512h163q80 0 139 24.5t91 81.5t32 156q0 132 -72 191t-199 59z" />
    <glyph glyph-name="uni03F8" unicode="&#x3f8;" 
d="M425 1510v-566q52 70 124.5 107.5t158.5 37.5q140 0 224.5 -68.5t123 -193.5t38.5 -295q0 -163 -47 -290t-137.5 -199.5t-222.5 -72.5q-162 0 -262 115v-493l-264 -28v1918zM631 891q-67 0 -117.5 -40t-88.5 -99v-474q36 -54 82 -81t104 -27q101 0 154.5 84.5t53.5 274.5
q0 134 -21.5 213.5t-63.5 114t-103 34.5z" />
    <glyph glyph-name="uni03F9" unicode="&#x3f9;" 
d="M716 1413q144 0 244 -37.5t185 -107.5l-139 -165q-59 50 -129.5 76t-150.5 26q-96 0 -176.5 -51t-129 -163.5t-48.5 -296.5q0 -181 46.5 -293t127 -163.5t182.5 -51.5q108 0 179 38t128 83l129 -163q-73 -72 -182.5 -123t-265.5 -51q-181 0 -323 83t-223 244t-81 397
q0 232 83.5 392.5t226 243.5t317.5 83z" />
    <glyph glyph-name="uni03FA" unicode="&#x3fa;" 
d="M1078 1383l78 -1383h-244l-26 637q-3 80 -3.5 148.5t0.5 130t3.5 118.5t6.5 112l-183 -906h-222l-196 906q4 -53 7 -111t4.5 -121t2 -133t-2.5 -146l-19 -635h-240l78 1383h304l178 -913l170 913h304z" />
    <glyph glyph-name="uni03FB" unicode="&#x3fb;" 
d="M16 -436l135 1495h305l137 -713l157 713h302l89 -1059h-239l-23 371q-4 84 -5 159.5t0 156t4 178.5l-177 -739h-230l-150 733q1 -93 1.5 -172.5t-1.5 -156t-9 -163.5l-62 -782z" />
    <glyph glyph-name="uni03FC" unicode="&#x3fc;" 
d="M70 -114h692v-168h-556h-136v168zM671 1089q240 0 357 -143t117 -414q0 -156 -47.5 -283.5t-139 -203t-225.5 -75.5q-80 0 -146.5 28.5t-116.5 87.5v-494l-264 -28v983q0 263 116 402.5t349 139.5zM667 893q-110 0 -153.5 -95t-43.5 -296v-224q35 -54 82.5 -81t104.5 -27
q103 0 157.5 88t54.5 271q0 133 -22.5 213t-67.5 115.5t-112 35.5z" />
    <glyph glyph-name="uni03FD" unicode="&#x3fd;" 
d="M504 1413q188 0 323.5 -83t209.5 -243.5t74 -392.5q0 -236 -81 -397t-222.5 -244t-323.5 -83q-155 0 -265 51t-183 123l129 161q57 -44 128.5 -81.5t178.5 -37.5q102 0 182.5 51.5t127 163.5t46.5 293q0 184 -39.5 296.5t-115 163.5t-184.5 51q-86 0 -163 -25.5
t-153 -75.5l-118 164q99 72 204 108.5t245 36.5z" />
    <glyph glyph-name="uni03FE" unicode="&#x3fe;" 
d="M716 1413q144 0 244 -37.5t185 -107.5l-139 -165q-59 50 -129.5 76t-150.5 26q-96 0 -176.5 -51t-129 -163.5t-48.5 -296.5q0 -181 46.5 -293t127 -163.5t182.5 -51.5q108 0 179 38t128 83l129 -163q-73 -72 -182.5 -123t-265.5 -51q-181 0 -323 83t-223 244t-81 397
q0 232 83.5 392.5t226 243.5t317.5 83zM773.983 950.587q75.0635 0 121.85 -46.2715q46.7852 -46.2725 46.7852 -115.165q0 -68.8936 -46.7852 -115.68q-46.7861 -46.7852 -121.85 -46.7852q-75.0625 0 -121.849 46.7852q-46.7852 46.7861 -46.7852 115.68
q0 68.8926 46.7852 115.165q46.7861 46.2715 121.849 46.2715z" />
    <glyph glyph-name="uni03FF" unicode="&#x3ff;" 
d="M504 1413q188 0 323.5 -83t209.5 -243.5t74 -392.5q0 -236 -81 -397t-222.5 -244t-323.5 -83q-155 0 -265 51t-183 123l129 161q57 -44 128.5 -81.5t178.5 -37.5q102 0 182.5 51.5t127 163.5t46.5 293q0 184 -39.5 296.5t-115 163.5t-184.5 51q-86 0 -163 -25.5
t-153 -75.5l-118 164q99 72 204 108.5t245 36.5zM502.983 950.587q75.0635 0 121.85 -46.2715q46.7852 -46.2725 46.7852 -115.165q0 -68.8936 -46.7852 -115.68q-46.7861 -46.7852 -121.85 -46.7852q-75.0625 0 -121.849 46.7852q-46.7852 46.7861 -46.7852 115.68
q0 68.8926 46.7852 115.165q46.7861 46.2715 121.849 46.2715z" />
    <glyph glyph-name="uni0400" unicode="&#x400;" 
d="M483 1181v-379h490v-199h-490v-402h595v-201h-869v1383h862l-28 -202h-560zM491 1875l410 -234l-68 -136l-452 167z" />
    <glyph glyph-name="uni0401" unicode="&#x401;" 
d="M483 1181v-379h490v-199h-490v-402h595v-201h-869v1383h862l-28 -202h-560zM418 1529q-61 0 -103 40t-42 101q0 60 42 100.5t103 40.5q62 0 103.5 -40.5t41.5 -100.5q0 -61 -41.5 -101t-103.5 -40zM863 1529q-60 0 -102 40t-42 101q0 60 42 100.5t102 40.5
q62 0 104 -40.5t42 -100.5q0 -61 -42 -101t-104 -40z" />
    <glyph glyph-name="uni0402" unicode="&#x402;" 
d="M540 1180v-353q50 44 113.5 71.5t141.5 27.5q178 0 267.5 -107.5t89.5 -318.5v-304q0 -156 -50 -255t-139 -158.5t-203 -98.5l-71 195q85 34 128.5 75.5t59.5 100t16 144.5v316q0 111 -38 158t-129 47q-65 0 -109.5 -24.5t-76.5 -54.5v-641h-261v1180h-293v203h876
l-29 -203h-293z" />
    <glyph glyph-name="uni0403" unicode="&#x403;" 
d="M1107 1383l-26 -220h-595v-1163h-274v1383h895zM836 1872l103 -203l-458 -164l-64 136z" />
    <glyph glyph-name="uni0404" unicode="&#x404;" 
d="M712 1413q144 0 243 -38.5t185 -107.5l-131 -153q-64 45 -132 70.5t-148 25.5q-93 0 -172 -40.5t-130 -127t-62 -226.5h547v-215h-548q8 -145 56.5 -238t127.5 -137t177 -44q106 0 178.5 34t129.5 78l127 -154q-72 -68 -183 -119t-269 -51q-184 0 -324.5 83t-220 244
t-79.5 397q0 232 83.5 392.5t226 243.5t318.5 83z" />
    <glyph glyph-name="uni0405" unicode="&#x405;" 
d="M1114 397q0 -126 -64.5 -222t-185.5 -150.5t-293 -54.5q-180 0 -309 53.5t-216 137.5l144 161q75 -67 168 -105t209 -38q74 0 133.5 23t94 67.5t34.5 109.5q0 57 -24 96t-82.5 70t-162.5 62q-153 47 -252 103.5t-147 134t-48 183.5q0 119 66 205.5t178.5 133t251.5 46.5
q154 0 271 -44.5t206 -126.5l-137 -155q-71 61 -153.5 90t-167.5 29q-67 0 -119.5 -18t-82.5 -53t-30 -89q0 -49 27.5 -83.5t94.5 -64t184 -66.5q123 -37 215.5 -89t144.5 -134.5t52 -211.5z" />
    <glyph glyph-name="uni0406" unicode="&#x406;" 
d="M1030 1383v-205h-293v-973h293v-205h-860v205h293v973h-293v205h860z" />
    <glyph glyph-name="uni0407" unicode="&#x407;" 
d="M1030 1383v-205h-293v-973h293v-205h-860v205h293v973h-293v205h860zM377 1529q-61 0 -103 40t-42 101q0 60 42 100.5t103 40.5q62 0 103.5 -40.5t41.5 -100.5q0 -61 -41.5 -101t-103.5 -40zM822 1529q-60 0 -102 40t-42 101q0 60 42 100.5t102 40.5q62 0 104 -40.5
t42 -100.5q0 -61 -42 -101t-104 -40z" />
    <glyph glyph-name="uni0408" unicode="&#x408;" 
d="M1033 1383v-899q0 -108 -32 -202t-97.5 -163t-164.5 -108t-233 -39q-122 0 -219.5 34t-184.5 95l108 171q77 -51 143.5 -70.5t138.5 -19.5q120 0 194 76.5t74 226.5v692h-420v206h693z" />
    <glyph glyph-name="uni0409" unicode="&#x409;" 
d="M722 1383v-482q232 0 355 -107.5t123 -332.5q0 -241 -127.5 -351t-344.5 -110h-229v1198h-140l-33 -585q-11 -178 -29.5 -289t-46.5 -176t-67.5 -104.5t-92.5 -77.5l-108 162q22 21 40 50.5t32.5 82.5t26 143.5t21.5 233.5l47 745h573zM746 720h-24v-533h30
q71 0 117.5 28.5t69 88.5t22.5 155q0 132 -52 196.5t-163 64.5z" />
    <glyph glyph-name="uni040A" unicode="&#x40a;" 
d="M728 1383v-529q225 -1 348.5 -100t123.5 -311q0 -153 -55 -251t-161.5 -145t-261.5 -47h-220v662h-209v-662h-227v1383h227v-529h209v529h226zM747 666h-19v-471h19q76 1 124 24t71 76.5t23 145.5q0 126 -53.5 175t-164.5 50z" />
    <glyph glyph-name="uni040B" unicode="&#x40b;" 
d="M862 1383l-29 -203h-293v-353q50 45 112.5 72t142.5 27q178 0 267.5 -107.5t89.5 -318.5v-500h-259v515q0 111 -38 158t-129 47q-65 0 -109.5 -24.5t-76.5 -54.5v-641h-261v1180h-293v203h876z" />
    <glyph glyph-name="uni040C" unicode="&#x40c;" 
d="M545 620h-137v-620h-274v1383h274v-557h135l348 557h273l-392 -636l430 -747h-306zM804 1872l103 -203l-458 -164l-64 136z" />
    <glyph glyph-name="uni040D" unicode="&#x40d;" 
d="M126 0v1383h255v-550q0 -135 -6 -238.5t-16.5 -188.5t-23.5 -167l426 1144h313v-1383h-255v543q0 187 13.5 333t31.5 262l-420 -1138h-318zM450 1875l410 -234l-68 -136l-452 167z" />
    <glyph glyph-name="uni040E" unicode="&#x40e;" 
d="M1196 1383l-377 -951q-45 -116 -96 -199t-117.5 -136.5t-159.5 -84t-222 -42.5l-38 194q106 12 172 35t109 64.5t77 107.5h-93l-439 1012h283l329 -851l295 851h277zM618 1507q-98 0 -168 37.5t-110 102t-49 145.5l154 29q20 -62 62 -93.5t111 -31.5q70 0 113 31.5
t63 93.5l154 -29q-9 -81 -49.5 -145.5t-111 -102t-169.5 -37.5z" />
    <glyph glyph-name="uni040F" unicode="&#x40f;" 
d="M460 130h280l-39 -460h-202zM126 0v1383h274v-1167h400v1167h274v-1383h-948z" />
    <glyph glyph-name="uni0410" unicode="&#x410;" 
d="M824 317h-455l-86 -317h-283l433 1383h336l432 -1383h-291zM418 522h355l-177 656z" />
    <glyph glyph-name="uni0411" unicode="&#x411;" 
d="M981 1383l-27 -212h-536v-300h152q258 0 403.5 -103t145.5 -322q0 -153 -69.5 -251.5t-190.5 -146.5t-277 -48h-437v1383h836zM565 669h-147v-461h149q84 0 144 21.5t93 73t33 141.5q0 79 -32 129t-93 73t-147 23z" />
    <glyph glyph-name="uni0412" unicode="&#x412;" 
d="M836 408q0 84 -32.5 131t-89.5 66.5t-130 19.5h-170v-420h158q49 0 96 8t85.5 29.5t60.5 61.5t22 104zM783 1007q0 94 -58.5 135t-172.5 41h-138v-365h150q112 0 165.5 44.5t53.5 144.5zM1120 401q0 -117 -45.5 -195t-123.5 -123t-176.5 -64t-205.5 -19h-429v1383h404
q102 0 194 -17t164.5 -57.5t115 -108.5t42.5 -169q0 -85 -35.5 -146t-94 -98.5t-125.5 -54.5q75 -12 147.5 -46.5t120 -103t47.5 -181.5z" />
    <glyph glyph-name="uni0413" unicode="&#x413;" 
d="M1107 1383l-26 -220h-595v-1163h-274v1383h895z" />
    <glyph glyph-name="uni0414" unicode="&#x414;" 
d="M1041 1383v-1174l-119 -210l-713 1l-141 209q36 37 61.5 88t46 133t38.5 210.5t40 321.5l45 421h742zM785 1181h-255l-20 -206q-18 -185 -36 -313.5t-42 -214t-57 -141.5t-81 -97h491v972zM1145 209v-539h-212l-36 330h-57l57 209h248zM-12 209h247l58 -209h-58l-36 -330
h-211v539z" />
    <glyph glyph-name="uni0415" unicode="&#x415;" 
d="M483 1181v-379h490v-199h-490v-402h595v-201h-869v1383h862l-28 -202h-560z" />
    <glyph glyph-name="uni0416" unicode="&#x416;" 
d="M509 645h-83l-174 -645h-240l225 747l-202 636h233l163 -582h78v582h182v-582h78l164 582h232l-202 -636l225 -747h-244l-174 645h-79v-645h-182v645z" />
    <glyph glyph-name="uni0417" unicode="&#x417;" 
d="M564 1413q154 0 266.5 -46t174 -128.5t61.5 -190.5q0 -85 -37.5 -147.5t-106 -102t-160.5 -56.5q100 -10 178.5 -51.5t124 -113.5t45.5 -176q0 -127 -67 -224t-193 -152t-305 -55q-161 0 -291 51.5t-220 145.5l146 143q77 -64 167 -98.5t196 -34.5q135 0 211.5 62
t76.5 169q0 78 -35 128t-99 74t-151 24h-235l31 203h199q72 0 129 20.5t91 62.5t34 106q0 59 -31.5 100t-88 62.5t-133.5 21.5q-101 0 -185 -30.5t-154 -86.5l-137 144q101 88 226 132t272 44z" />
    <glyph glyph-name="uni0418" unicode="&#x418;" 
d="M126 0v1383h255v-550q0 -135 -6 -238.5t-16.5 -188.5t-23.5 -167l426 1144h313v-1383h-255v543q0 187 13.5 333t31.5 262l-420 -1138h-318z" />
    <glyph glyph-name="uni0419" unicode="&#x419;" 
d="M126 0v1383h255v-550q0 -135 -6 -238.5t-16.5 -188.5t-23.5 -167l426 1144h313v-1383h-255v543q0 187 13.5 333t31.5 262l-420 -1138h-318zM598 1500q-98 0 -168 38t-110.5 101.5t-48.5 141.5l154 27q17 -59 60.5 -89.5t112.5 -30.5q70 0 115 30.5t61 89.5l154 -27
q-8 -78 -49 -141.5t-112 -101.5t-169 -38z" />
    <glyph glyph-name="uni041A" unicode="&#x41a;" 
d="M545 620h-137v-620h-274v1383h274v-557h135l348 557h273l-392 -636l430 -747h-306z" />
    <glyph glyph-name="uni041B" unicode="&#x41b;" 
d="M1074 1383v-1383h-274v1168h-271l-30 -288q-21 -196 -44.5 -335t-54.5 -233t-71.5 -156.5t-95.5 -106.5t-128 -83l-111 186q45 34 79.5 74t63 113t53 202.5t46.5 342.5l54 499h784z" />
    <glyph glyph-name="uni041C" unicode="&#x41c;" 
d="M1078 1383l78 -1383h-244l-26 637q-3 80 -3.5 148.5t0.5 130t3.5 118.5t6.5 112l-183 -906h-222l-196 906q4 -53 7 -111t4.5 -121t2 -133t-2.5 -146l-19 -635h-240l78 1383h304l178 -913l170 913h304z" />
    <glyph glyph-name="uni041D" unicode="&#x41d;" 
d="M800 0v608h-400v-608h-274v1383h274v-550h400v550h274v-1383h-274z" />
    <glyph glyph-name="uni041E" unicode="&#x41e;" 
d="M1138 692q0 -216 -60.5 -378.5t-180.5 -253t-297 -90.5q-176 0 -296.5 88.5t-181 250t-60.5 382.5q0 216 60.5 378.5t181 253t296.5 90.5q177 0 297 -88t180.5 -250t60.5 -383zM856 692q0 262 -59.5 388.5t-196.5 126.5t-196.5 -127t-59.5 -389q0 -263 61 -388.5
t195 -125.5q139 0 197.5 127t58.5 388z" />
    <glyph glyph-name="uni041F" unicode="&#x41f;" 
d="M800 0v1166h-400v-1166h-274v1383h948v-1383h-274z" />
    <glyph glyph-name="uni0420" unicode="&#x420;" 
d="M855 940q0 86 -32.5 139.5t-94.5 78.5t-149 25h-143v-501h151q82 0 141.5 25.5t93 82.5t33.5 150zM1139 942q0 -161 -68.5 -263.5t-191.5 -151t-284 -48.5h-159v-479h-274v1383h407q269 0 419.5 -109t150.5 -332z" />
    <glyph glyph-name="uni0421" unicode="&#x421;" 
d="M716 1413q144 0 244 -37.5t185 -107.5l-139 -165q-59 50 -129.5 76t-150.5 26q-96 0 -176.5 -51t-129 -163.5t-48.5 -296.5q0 -181 46.5 -293t127 -163.5t182.5 -51.5q108 0 179 38t128 83l129 -163q-73 -72 -182.5 -123t-265.5 -51q-181 0 -323 83t-223 244t-81 397
q0 232 83.5 392.5t226 243.5t317.5 83z" />
    <glyph glyph-name="uni0422" unicode="&#x422;" 
d="M734 1168v-1168h-273v1168h-404v215h1093l-28 -215h-388z" />
    <glyph glyph-name="uni0423" unicode="&#x423;" 
d="M1196 1383l-377 -951q-45 -116 -96 -199t-117.5 -136.5t-159.5 -84t-222 -42.5l-38 194q106 12 172 35t109 64.5t77 107.5h-93l-439 1012h283l329 -851l295 851h277z" />
    <glyph glyph-name="uni0424" unicode="&#x424;" 
d="M703 1451v-137q245 -16 364 -169t119 -447q0 -296 -121.5 -454.5t-361.5 -172.5v-141h-206v141q-241 13 -362 171t-121 456q0 294 118.5 447t364.5 169v137h206zM510 1154q-84 -5 -135.5 -52t-75.5 -145t-24 -259q0 -234 52 -343t183 -122v921zM690 1154v-921
q132 13 183.5 122t51.5 343q0 161 -23.5 259t-75.5 145t-136 52z" />
    <glyph glyph-name="uni0425" unicode="&#x425;" 
d="M59 1383h299l242 -475l245 475h291l-376 -635l414 -748h-299l-279 562l-278 -562h-292l408 735z" />
    <glyph glyph-name="uni0426" unicode="&#x426;" 
d="M126 0v1383h274v-1167h400v1167h274v-1383h-948zM1180 209v-539h-211l-36 330h-58l58 209h247z" />
    <glyph glyph-name="uni0427" unicode="&#x427;" 
d="M341 1383v-511q0 -134 54.5 -192t166.5 -58q96 0 156.5 32t99.5 75l12 -192q-50 -41 -102.5 -69.5t-110.5 -43t-128 -14.5q-131 0 -225.5 52.5t-145.5 153t-51 243.5v524h274zM1074 1383v-1383h-274v1383h274z" />
    <glyph glyph-name="uni0428" unicode="&#x428;" 
d="M1121 1383v-1383h-1042v1383h225v-1187h194v1187h204v-1187h194v1187h225z" />
    <glyph glyph-name="uni0429" unicode="&#x429;" 
d="M1228 209v-539h-212l-36 330h-57l57 209h248zM1121 1383v-1383h-1042v1383h225v-1187h194v1187h204v-1187h194v1187h225z" />
    <glyph glyph-name="uni042A" unicode="&#x42a;" 
d="M465 1383v-482h142q263 0 413 -106t150 -334q0 -162 -70 -263.5t-193.5 -149.5t-283.5 -48h-420v1174h-207v209h469zM610 704h-145v-502h130q89 0 155.5 22t103 78t36.5 157q0 86 -33 140.5t-95 79.5t-152 25z" />
    <glyph glyph-name="uni042B" unicode="&#x42b;" 
d="M285 1383v-480h56q244 0 374 -111t130 -330q0 -238 -134.5 -350t-365.5 -112h-295v1383h235zM366 714h-81v-519h69q118 0 181.5 57.5t63.5 207.5q0 254 -233 254zM1150 1383v-1383h-235v1383h235z" />
    <glyph glyph-name="uni042C" unicode="&#x42c;" 
d="M411 1383v-482h161q264 0 413.5 -106t149.5 -334q0 -160 -69 -262t-192.5 -150.5t-286.5 -48.5h-449v1383h273zM574 700h-163v-495h169q83 0 143.5 24t94 79.5t33.5 150.5q0 86 -33 139.5t-94.5 77.5t-149.5 24z" />
    <glyph glyph-name="uni042D" unicode="&#x42d;" 
d="M526 1413q271 0 425.5 -178.5t154.5 -530.5q0 -245 -76 -408t-212.5 -244.5t-319.5 -81.5q-138 0 -253 47t-197 129l135 150q69 -54 142 -84t168 -30q150 0 237 100t96 326h-546v202h546q-11 219 -93.5 309.5t-226.5 90.5q-104 0 -178 -36t-132 -81l-132 149
q89 75 200.5 123t261.5 48z" />
    <glyph glyph-name="uni042E" unicode="&#x42e;" 
d="M784 1413q146 0 230.5 -80.5t120 -240.5t35.5 -400q0 -354 -86.5 -538t-299.5 -184q-140 0 -222.5 76.5t-119.5 221.5t-41 350h-106v-618h-221v1383h221v-571h108q12 289 98.5 445t282.5 156zM784 1223q-55 0 -87.5 -45.5t-46 -161t-13.5 -322.5t13 -323.5t45.5 -163.5
t88.5 -47q55 0 86.5 46.5t46 162.5t14.5 323q0 208 -14 323.5t-46 161.5t-87 46z" />
    <glyph glyph-name="uni042F" unicode="&#x42f;" 
d="M1074 1383v-1383h-274v519h-217l-260 -519h-297l312 574q-116 53 -176.5 147t-60.5 234q0 210 140 319t412 109h421zM800 1185h-151q-131 0 -197.5 -58.5t-66.5 -176.5q0 -127 66.5 -181.5t188.5 -54.5h160v471z" />
    <glyph glyph-name="uni0430" unicode="&#x430;" 
d="M1006 279q0 -61 18 -88.5t58 -41.5l-57 -177q-85 9 -144.5 42.5t-91.5 100.5q-60 -73 -151.5 -109t-191.5 -36q-162 0 -257 92t-95 239q0 169 132.5 260.5t375.5 91.5h148v57q0 94 -58 136.5t-167 42.5q-51 0 -127.5 -13.5t-157.5 -41.5l-63 181q101 38 203.5 56
t186.5 18q223 0 331 -94.5t108 -267.5v-448zM532 161q60 0 121.5 34t96.5 95v206h-104q-147 0 -212.5 -47t-65.5 -133q0 -74 42 -114.5t122 -40.5z" />
    <glyph glyph-name="uni0431" unicode="&#x431;" 
d="M882 1512l100 -177q-49 -32 -99 -57.5t-109.5 -48t-137.5 -47.5q-67 -23 -115.5 -51.5t-80 -73.5t-49 -114.5t-23.5 -172.5l12 -6v-245q0 -173 55.5 -263.5t163.5 -90.5q62 0 112 27.5t80 97.5t30 200q0 172 -53 242t-149 70q-69 0 -125 -36t-96.5 -92t-64.5 -117l-2 203
q56 114 145.5 175t212.5 61q115 0 205 -59.5t142 -171.5t52 -270q0 -171 -63 -288.5t-173 -177t-253 -59.5q-151 0 -260.5 65.5t-169 203t-59.5 352.5q0 220 35 371.5t124.5 246.5t253.5 146q81 26 139 48t109 47.5t111 61.5z" />
    <glyph glyph-name="uni0432" unicode="&#x432;" 
d="M591 1089q135 0 237.5 -32t160.5 -93.5t58 -154.5q0 -87 -54.5 -144.5t-163.5 -85.5q133 -16 201.5 -82.5t68.5 -179.5q0 -114 -64.5 -184t-171.5 -101.5t-237 -31.5h-445v1047q102 19 201 30.5t209 11.5zM589 911q-44 0 -77.5 -2t-66.5 -7v-719h173q107 0 159 37.5
t52 112.5q0 55 -26.5 88t-73 48.5t-105.5 15.5h-211v154h195q86 0 133.5 31.5t47.5 104.5q0 71 -50 103.5t-150 32.5z" />
    <glyph glyph-name="uni0433" unicode="&#x433;" 
d="M533 0h-264v1059h798l-30 -207h-504v-852z" />
    <glyph glyph-name="uni0434" unicode="&#x434;" 
d="M1027 1059v-860l-123 -199h-654l-135 199q40 38 66.5 92.5t45 154.5t31.5 273l26 340h743zM775 868h-256l-10 -137q-9 -132 -22.5 -221t-33.5 -146.5t-49 -95t-71 -69.5h442v669zM36 199h341l-25 -199h-77l-36 -330h-203v529zM1119 199v-529h-202l-37 330h-76l-26 199
h341z" />
    <glyph glyph-name="uni0435" unicode="&#x435;" 
d="M386 449q8 -99 45.5 -161t96.5 -91t131 -29q76 0 143 24t132 67l110 -151q-74 -62 -176.5 -100t-225.5 -38q-172 0 -289.5 71t-177.5 197t-60 290q0 158 59 285t170 201.5t268 74.5q146 0 252 -64t164 -183.5t58 -287.5q0 -27 -1.5 -55t-3.5 -50h-695zM613 903
q-96 0 -157.5 -68.5t-72.5 -216.5h446q-2 134 -55.5 209.5t-160.5 75.5z" />
    <glyph glyph-name="uni0436" unicode="&#x436;" 
d="M504 0v475h-73l-183 -475h-241l244 568l-233 491h238l173 -424h75v424h192v-424h75l180 424h231l-231 -491l244 -568h-241l-187 475h-71v-475h-192z" />
    <glyph glyph-name="uni0437" unicode="&#x437;" 
d="M353 637h191q93 0 142.5 36.5t49.5 96.5q0 66 -53.5 98t-149.5 32q-79 0 -160.5 -21t-148.5 -63l-117 144q88 63 202.5 96t237.5 33q131 0 234 -33t163 -98t60 -161q0 -89 -64.5 -147t-176.5 -88q88 -9 154.5 -38.5t104 -81.5t37.5 -132q0 -111 -67 -187t-183.5 -114.5
t-264.5 -38.5q-158 0 -274.5 40t-197.5 102l116 156q80 -50 164.5 -76.5t190.5 -26.5q120 0 179.5 42t59.5 112q0 69 -55 104t-165 35h-225z" />
    <glyph glyph-name="uni0438" unicode="&#x438;" 
d="M1039 1059v-1059h-253v392q0 124 12 231.5t30 188.5l-383 -812h-284v1059h253v-395q0 -114 -11.5 -223.5t-31.5 -193.5l382 812h286z" />
    <glyph glyph-name="uni0439" unicode="&#x439;" 
d="M1039 1059v-1059h-253v392q0 124 12 231.5t30 188.5l-383 -812h-284v1059h253v-395q0 -114 -11.5 -223.5t-31.5 -193.5l382 812h286zM598 1248q-98 0 -168 38t-110.5 101.5t-48.5 141.5l154 27q17 -59 60.5 -89.5t112.5 -30.5q70 0 115 30.5t61 89.5l154 -27
q-8 -78 -49 -141.5t-112 -101.5t-169 -38z" />
    <glyph glyph-name="uni043A" unicode="&#x43a;" 
d="M169 0v1059h264v-413h169l256 413h265l-315 -491l353 -568h-288l-278 462h-162v-462h-264z" />
    <glyph glyph-name="uni043B" unicode="&#x43b;" 
d="M1043 1059v-1059h-264v859h-285l-13 -182q-11 -180 -31 -298t-56 -193.5t-93.5 -125.5t-142.5 -94l-110 168q37 26 66 57t50.5 85t37.5 147.5t28 243.5l29 392h784z" />
    <glyph glyph-name="uni043C" unicode="&#x43c;" 
d="M1070 1059l74 -1059h-239l-24 416q-5 95 -5.5 193.5t5.5 204.5h-8l-168 -643h-207l-182 643h-8q9 -98 8 -200t-6 -204l-19 -410h-235l72 1059h299l178 -677l159 677h306z" />
    <glyph glyph-name="uni043D" unicode="&#x43d;" 
d="M775 0v439h-350v-439h-264v1059h264v-420h350v420h264v-1059h-264z" />
    <glyph glyph-name="uni043E" unicode="&#x43e;" 
d="M601 1089q158 0 268 -69t167.5 -194.5t57.5 -293.5q0 -172 -58 -298t-168 -195t-268 -69q-157 0 -267.5 67.5t-168.5 193t-58 299.5q0 166 58 292t169 196.5t268 70.5zM601 890q-111 0 -165.5 -87t-54.5 -273q0 -188 54 -274.5t165 -86.5t165 86.5t54 276.5
q0 185 -54 271.5t-164 86.5z" />
    <glyph glyph-name="uni043F" unicode="&#x43f;" 
d="M776 0v859h-352v-859h-263v1059h878v-1059h-263z" />
    <glyph glyph-name="uni0440" unicode="&#x440;" 
d="M708 1089q140 0 224.5 -68.5t123 -193.5t38.5 -295q0 -163 -47 -290t-137.5 -199.5t-222.5 -72.5q-162 0 -262 115v-493l-264 -28v1495h232l14 -129q63 82 141 120.5t160 38.5zM631 891q-67 0 -117.5 -40t-88.5 -99v-474q36 -54 82 -81t104 -27q101 0 154.5 84.5
t53.5 274.5q0 134 -21.5 213.5t-63.5 114t-103 34.5z" />
    <glyph glyph-name="uni0441" unicode="&#x441;" 
d="M694 182q70 0 131.5 26t118.5 66l120 -169q-70 -59 -169 -97t-212 -38q-166 0 -284.5 69.5t-182 194t-63.5 289.5q0 163 64.5 291.5t184 201.5t285.5 73q114 0 206.5 -32.5t169.5 -96.5l-117 -162q-59 41 -121.5 62.5t-129.5 21.5q-117 0 -190.5 -84.5t-73.5 -274.5
q0 -125 34.5 -200t94 -108t134.5 -33z" />
    <glyph glyph-name="uni0442" unicode="&#x442;" 
d="M1111 1059l-32 -201h-347v-858h-264v858h-367v201h1010z" />
    <glyph glyph-name="uni0443" unicode="&#x443;" 
d="M1120 1059l-359 -1061q-44 -130 -114 -223t-176.5 -147.5t-260.5 -64.5l-33 191q107 15 171 45t102.5 79t66.5 122h-90l-347 1059h279l240 -883l250 883h271z" />
    <glyph glyph-name="uni0444" unicode="&#x444;" 
d="M500 1510l200 -23v-499q42 54 90 77.5t105 23.5q109 0 166.5 -68t78.5 -194t21 -298q0 -170 -30 -295.5t-93.5 -194.5t-163.5 -69q-52 0 -95.5 25t-78.5 75v-483l-200 -23v504q-35 -48 -81 -73t-96 -25q-99 0 -162 69t-92.5 194.5t-29.5 295.5q0 172 25 298t86 194
t169 68q55 0 99 -23t82 -75v519zM392 903q-61 0 -86 -84.5t-25 -289.5q0 -202 25 -287.5t86 -85.5q32 0 55.5 19.5t52.5 55.5v601q-27 36 -50 53.5t-58 17.5zM821 903q-38 0 -64.5 -17.5t-56.5 -54.5v-600q28 -37 51.5 -56t56.5 -19q58 0 85 83t27 290q0 205 -21.5 289.5
t-77.5 84.5z" />
    <glyph glyph-name="uni0445" unicode="&#x445;" 
d="M357 0h-289l372 557l-334 502h300l196 -358l193 358h286l-322 -491l373 -568h-304l-238 416z" />
    <glyph glyph-name="uni0446" unicode="&#x446;" 
d="M752 1059h263v-1059h-877v1059h262v-859h352v859zM1163 199v-529h-202l-36 330h-77l-26 199h341z" />
    <glyph glyph-name="uni0447" unicode="&#x447;" 
d="M1026 1059v-1059h-264v413q-57 -48 -137.5 -76.5t-176.5 -28.5q-160 0 -243 86t-83 236v429h264v-396q0 -86 39.5 -121.5t112.5 -35.5q60 0 122 24t102 63v466h264z" />
    <glyph glyph-name="uni0448" unicode="&#x448;" 
d="M1134 1059v-1059h-1068v1059h230v-859h201v859h206v-859h200v859h231z" />
    <glyph glyph-name="uni0449" unicode="&#x449;" 
d="M1250 199v-529h-203l-36 330h-77l-25 199h341zM1134 1059v-1059h-1068v1059h230v-859h201v859h206v-859h200v859h231z" />
    <glyph glyph-name="uni044A" unicode="&#x44a;" 
d="M528 1059v-325h97q162 0 273 -38.5t169 -118.5t58 -205q0 -132 -59 -214t-166.5 -120t-252.5 -38h-383v867h-223v192h487zM634 554h-106v-365h112q63 0 110.5 16t73.5 56.5t26 113.5q0 96 -54.5 137.5t-161.5 41.5z" />
    <glyph glyph-name="uni044B" unicode="&#x44b;" 
d="M308 1059v-331h37q226 0 344.5 -85.5t118.5 -271.5q0 -126 -53.5 -208t-152 -122.5t-234.5 -40.5h-291v1059h231zM360 563h-52v-390h58q61 0 105.5 19t68 62.5t23.5 118.5q0 102 -48.5 146t-154.5 44zM1123 1059v-1059h-232v1059h232z" />
    <glyph glyph-name="uni044C" unicode="&#x44c;" 
d="M467 1059v-322h144q169 0 276 -42t158.5 -123.5t51.5 -200.5q0 -138 -63.5 -219.5t-170 -116.5t-235.5 -35h-425v1059h264zM612 555h-145v-366h160q90 0 142.5 40t52.5 145q0 94 -47.5 137.5t-162.5 43.5z" />
    <glyph glyph-name="uni044D" unicode="&#x44d;" 
d="M555 1089q165 0 278.5 -70t172 -196t58.5 -293q0 -166 -61.5 -292t-179.5 -197t-289 -71q-115 0 -210 33t-171 100l120 148q60 -43 120.5 -63t134.5 -20q113 0 183 66t84 220h-429v175h426q-14 137 -79.5 200.5t-174.5 63.5q-72 0 -134.5 -20t-122.5 -62l-115 152
q83 63 176.5 94.5t212.5 31.5z" />
    <glyph glyph-name="uni044E" unicode="&#x44e;" 
d="M786 1089q133 0 215.5 -68t120.5 -193t38 -296q0 -172 -37 -298.5t-119.5 -195t-217.5 -68.5q-123 0 -201 59t-118 165.5t-48 250.5h-108v-445h-231v1059h231v-427h110q9 138 49.5 241t118.5 159.5t197 56.5zM786 906q-80 0 -106 -89.5t-26 -286.5q0 -127 10.5 -210.5
t39 -125t82.5 -41.5q56 0 85.5 41.5t40 125.5t10.5 212q0 193 -28.5 283.5t-107.5 90.5z" />
    <glyph glyph-name="uni044F" unicode="&#x44f;" 
d="M758 0v882h-148q-104 0 -152.5 -39.5t-48.5 -119.5q0 -83 48.5 -125.5t154.5 -42.5h178v-171h-267l-171 43q-102 40 -158.5 113.5t-56.5 177.5q0 157 119.5 249t357.5 92h408v-1059h-264zM63 0l273 469l235 -57l-225 -412h-283z" />
    <glyph glyph-name="uni0450" unicode="&#x450;" 
d="M386 449q8 -99 45.5 -161t96.5 -91t131 -29q76 0 143 24t132 67l110 -151q-74 -62 -176.5 -100t-225.5 -38q-172 0 -289.5 71t-177.5 197t-60 290q0 158 59 285t170 201.5t268 74.5q146 0 252 -64t164 -183.5t58 -287.5q0 -27 -1.5 -55t-3.5 -50h-695zM613 903
q-96 0 -157.5 -68.5t-72.5 -216.5h446q-2 134 -55.5 209.5t-160.5 75.5zM805 1244l-449 187l112 204l412 -255z" />
    <glyph glyph-name="uni0451" unicode="&#x451;" 
d="M386 449q8 -99 45.5 -161t96.5 -91t131 -29q76 0 143 24t132 67l110 -151q-74 -62 -176.5 -100t-225.5 -38q-172 0 -289.5 71t-177.5 197t-60 290q0 158 59 285t170 201.5t268 74.5q146 0 252 -64t164 -183.5t58 -287.5q0 -27 -1.5 -55t-3.5 -50h-695zM613 903
q-96 0 -157.5 -68.5t-72.5 -216.5h446q-2 134 -55.5 209.5t-160.5 75.5zM393 1283q-61 0 -103 40t-42 101q0 60 42 100.5t103 40.5q62 0 103.5 -40.5t41.5 -100.5q0 -61 -41.5 -101t-103.5 -40zM838 1283q-60 0 -102 40t-42 101q0 60 42 100.5t102 40.5q62 0 104 -40.5
t42 -100.5q0 -61 -42 -101t-104 -40z" />
    <glyph glyph-name="uni0452" unicode="&#x452;" 
d="M425 1507v-151h301v-167h-301v-249q65 71 147.5 110t173.5 39q146 0 219.5 -82.5t73.5 -231.5v-652q0 -132 -25 -222.5t-73.5 -151t-119.5 -103.5t-165 -81l-93 192q67 30 114.5 65.5t72.5 93.5t25 157v674q0 77 -32.5 111t-97.5 34q-42 0 -81.5 -19.5t-74 -52.5
t-64.5 -74v-746h-264v1189h-136v167h136v125z" />
    <glyph glyph-name="uni0453" unicode="&#x453;" 
d="M533 0h-264v1059h798l-30 -207h-504v-852zM835 1643l107 -205l-453 -181l-74 136z" />
    <glyph glyph-name="uni0454" unicode="&#x454;" 
d="M685 1089q113 0 207.5 -31.5t171.5 -95.5l-114 -152q-64 43 -127 63t-128 20q-111 0 -183 -65t-89 -199h441v-175h-442q13 -152 88.5 -219t187.5 -67q69 0 129.5 21t121.5 63l115 -156q-75 -60 -176.5 -93t-204.5 -33q-168 0 -286.5 69.5t-181 194t-62.5 289.5
q0 163 64.5 291.5t183.5 201.5t284 73z" />
    <glyph glyph-name="uni0455" unicode="&#x455;" 
d="M564 165q93 0 149.5 32.5t56.5 91.5q0 39 -18.5 66t-72.5 50.5t-162 52.5q-102 26 -178.5 64.5t-119 99.5t-42.5 154t52 163.5t150.5 110t237.5 39.5q136 0 238 -35.5t175 -88.5l-108 -161q-64 41 -138.5 66.5t-160.5 25.5q-93 0 -135.5 -27t-42.5 -75q0 -34 21.5 -57.5
t78 -45t161.5 -51.5q103 -28 179.5 -66t118.5 -101t42 -165q0 -115 -67 -190t-176.5 -111.5t-237.5 -36.5q-150 0 -262 43t-190 111l137 154q62 -49 141.5 -81t172.5 -32z" />
    <glyph glyph-name="uni0456" unicode="&#x456;" 
d="M770 1059v-872h279v-187h-853v187h310v685h-300v187h564zM599 1593q73 0 118.5 -45t45.5 -112t-45.5 -112.5t-118.5 -45.5t-119 45.5t-46 112.5t46 112t119 45z" />
    <glyph glyph-name="uni0457" unicode="&#x457;" 
d="M770 1059v-872h279v-187h-853v187h310v685h-300v187h564zM377 1283q-61 0 -103 40t-42 101q0 60 42 100.5t103 40.5q62 0 103.5 -40.5t41.5 -100.5q0 -61 -41.5 -101t-103.5 -40zM822 1283q-60 0 -102 40t-42 101q0 60 42 100.5t102 40.5q62 0 104 -40.5t42 -100.5
q0 -61 -42 -101t-104 -40z" />
    <glyph glyph-name="uni0458" unicode="&#x458;" 
d="M926 1059v-800q0 -211 -83.5 -349t-245.5 -220t-397 -126l-43 202q160 33 272.5 87t172.5 147t60 242v630h-402v187h666zM738 1593q72 0 118 -45t46 -112t-46 -112.5t-118 -45.5q-73 0 -119 45.5t-46 112.5t46 112t119 45z" />
    <glyph glyph-name="uni0459" unicode="&#x459;" 
d="M750 1059v-335h21q215 0 320 -86.5t105 -270.5t-111.5 -275.5t-297.5 -91.5h-259v876h-152l-10 -235q-7 -172 -24.5 -284.5t-50 -184t-85 -118.5t-127.5 -88l-88 167q30 23 54.5 51.5t43 81.5t32 145t20.5 241l19 407h590zM774 560h-24v-389h28q89 0 134.5 42t45.5 157
q0 101 -42 145.5t-142 44.5z" />
    <glyph glyph-name="uni045A" unicode="&#x45a;" 
d="M756 1059v-383h22q139 0 233.5 -36t142.5 -110.5t48 -188.5q0 -119 -51.5 -194.5t-147 -111t-228.5 -35.5h-242v506h-214v-506h-225v1059h225v-383h214v383h223zM788 510h-32v-334h18q62 0 105 13.5t65.5 50t22.5 102.5q0 91 -43.5 129.5t-135.5 38.5z" />
    <glyph glyph-name="uni045B" unicode="&#x45b;" 
d="M726 1356v-167h-301h-400v167h136h565zM425 1507v-567q66 75 148.5 112t172.5 37q146 0 219.5 -82.5t73.5 -231.5v-775h-264v716q0 96 -29.5 136t-100.5 40q-42 0 -81.5 -19.5t-74 -52.5t-64.5 -74v-746h-264v1481z" />
    <glyph glyph-name="uni045C" unicode="&#x45c;" 
d="M169 0v1059h264v-413h169l256 413h265l-315 -491l353 -568h-288l-278 462h-162v-462h-264zM797 1643l107 -205l-453 -181l-74 136z" />
    <glyph glyph-name="uni045D" unicode="&#x45d;" 
d="M1039 1059v-1059h-253v392q0 124 12 231.5t30 188.5l-383 -812h-284v1059h253v-395q0 -114 -11.5 -223.5t-31.5 -193.5l382 812h286zM789 1244l-449 187l112 204l412 -255z" />
    <glyph glyph-name="uni045E" unicode="&#x45e;" 
d="M1120 1059l-359 -1061q-44 -130 -114 -223t-176.5 -147.5t-260.5 -64.5l-33 191q107 15 171 45t102.5 79t66.5 122h-90l-347 1059h279l240 -883l250 883h271zM598 1248q-98 0 -168 38t-110.5 101.5t-48.5 141.5l154 27q17 -59 60.5 -89.5t112.5 -30.5q70 0 115 30.5
t61 89.5l154 -27q-8 -78 -49 -141.5t-112 -101.5t-169 -38z" />
    <glyph glyph-name="uni045F" unicode="&#x45f;" 
d="M460 130h280l-39 -460h-202zM776 1059h263v-1059h-878v1059h263v-859h352v859z" />
    <glyph glyph-name="uni0460" unicode="&#x460;" 
d="M1027 1383q34 -89 68 -197.5t57 -250t23 -331.5q0 -223 -45.5 -364.5t-123 -207.5t-173.5 -66q-105 0 -156 52.5t-77 144.5q-30 -92 -83 -144.5t-144 -52.5q-70 0 -133 36.5t-111 113.5t-75.5 198t-27.5 290q0 190 23 331.5t57 250t66 197.5h231q-31 -110 -59.5 -221.5
t-47 -244.5t-18.5 -308q0 -161 16.5 -255t45.5 -134.5t67 -40.5q35 0 59.5 33.5t24.5 113.5v471h218v-469q0 -78 24.5 -113.5t64.5 -35.5q27 0 49.5 20t39.5 68t26 131.5t9 208.5q0 175 -17.5 308.5t-46 245.5t-60.5 222h229z" />
    <glyph glyph-name="uni0461" unicode="&#x461;" 
d="M1058 1059q40 -122 72.5 -268.5t32.5 -308.5q0 -249 -78 -380.5t-228 -131.5q-105 0 -169.5 51.5t-89.5 165.5q-29 -111 -91 -164t-161 -53q-152 0 -230.5 129t-78.5 383q0 162 32 310t71 267h214q-28 -104 -45.5 -197.5t-25.5 -184t-8 -184.5q0 -106 10 -178t35 -109
t70 -37t68 34t31.5 100t8.5 163v229l205 33v-256q0 -105 8.5 -172t32.5 -99t69 -32q47 0 71 37t32.5 109t8.5 178q0 93 -8.5 184t-26 185t-46.5 197h214z" />
    <glyph glyph-name="uni0462" unicode="&#x462;" 
d="M272 0v1383h273v-1178h86q71 0 126.5 24t87.5 78t32 143q0 119 -67.5 173t-183.5 54h-113v199h119q159 0 277.5 -46.5t185 -140t66.5 -235.5q0 -155 -68 -256t-186.5 -149.5t-270.5 -48.5h-364zM20 1047v168h252h540v-168h-792z" />
    <glyph glyph-name="uni0463" unicode="&#x463;" 
d="M494 1334v-247h266l-25 -167h-241v-192h115q162 0 273 -38.5t168.5 -118t57.5 -203.5q0 -126 -56 -207.5t-160.5 -121t-249.5 -39.5h-412v920h-143v167h143v219zM617 547h-123v-358h129q64 0 111 16t73 55.5t26 111.5q0 93 -54.5 134t-161.5 41z" />
    <glyph glyph-name="uni0464" unicode="&#x464;" 
d="M319 1387v-575h207v-209h-207v-603h-263v1387h263zM1206 51q-56 -36 -123.5 -58.5t-155.5 -22.5q-164 0 -275.5 83t-168.5 244t-57 397q0 232 60.5 392.5t177 243.5t282.5 83q81 0 140.5 -17.5t113.5 -52.5l-95 -164q-37 20 -75 30t-80 10q-77 0 -131.5 -42.5t-86 -132.5
t-38.5 -234h364v-202h-366q4 -152 33 -249t84 -143t136 -46q53 0 95 12.5t80 32.5z" />
    <glyph glyph-name="uni0465" unicode="&#x465;" 
d="M340 1059v-427h171v-187h-171v-445h-231v1059h231zM879 1089q84 0 151.5 -29t125.5 -86l-113 -127q-35 27 -72 43t-85 16q-89 0 -138.5 -68t-63.5 -209h327v-175h-327q5 -163 59.5 -231t140.5 -68q50 0 88.5 17.5t71.5 47.5l110 -124q-56 -58 -129 -92t-154 -34
q-140 0 -235 69t-143.5 193.5t-48.5 290.5q0 163 48.5 291.5t146 201.5t240.5 73z" />
    <glyph glyph-name="uni0466" unicode="&#x466;" 
d="M0 0l433 1383h336l432 -1383h-268l-337 1213l-336 -1213h-260zM492 -1v559h214v-559h-214zM362 520l54 199h365l53 -199h-472z" />
    <glyph glyph-name="uni0467" unicode="&#x467;" 
d="M764 1059l390 -1059h-248l-313 918l-301 -918h-245l392 1059h325zM811 557v-178h-425v178h425zM499 426h195v-426h-195v426z" />
    <glyph glyph-name="uni0468" unicode="&#x468;" 
d="M558 546h-307v-548h-224v1385h224v-667h338zM294 0l302 1383h335l302 -1383h-225l-249 1240l-248 -1240h-217zM668 -1v574h182v-574h-182zM525 546l54 170h365l52 -170h-471z" />
    <glyph glyph-name="uni0469" unicode="&#x469;" 
d="M684 0v421h171v-421h-171zM55 0v1059h217v-512h714v-172h-714v-375h-217zM326 0l301 1059h291l306 -1059h-206l-246 920l-241 -920h-205z" />
    <glyph glyph-name="uni046A" unicode="&#x46a;" 
d="M30 0l224 787h693l223 -787h-228l-154 621h-77v-621h-221v621h-79l-156 -621h-225zM467 655l-316 571v157h152l298 -596l291 596h150v-157l-314 -570zM249 1219l28 164h706v-164h-734z" />
    <glyph glyph-name="uni046B" unicode="&#x46b;" 
d="M22 0l211 600h737l209 -600h-226l-123 425h-115v-425h-228v425h-113l-124 -425h-228zM475 480l-309 450v129h146l285 -459l282 459h145v-129l-310 -450h-239zM302 898l-19 161h614l-13 -161h-582z" />
    <glyph glyph-name="uni046C" unicode="&#x46c;" 
d="M20 -2v1385h224v-596h359l-31 -166h-328v-623h-224zM295 0l146 787h651l145 -787h-216l-88 621h-65v-621h-206v621h-65l-88 -621h-214zM632 655l-254 574v154h147l242 -596l236 596h145v-154l-254 -573zM479 1225l21 158h585v-158h-606z" />
    <glyph glyph-name="uni046D" unicode="&#x46d;" 
d="M23 0v1059h219v-454h272v-172h-272v-433h-219zM655 485l-272 445v129h148l242 -454l237 454h145v-129l-272 -445h-228zM524 904l-16 155h524l-15 -155h-493zM300 0l169 605h616l165 -605h-211l-93 433h-66v-433h-204v433h-69l-95 -433h-212z" />
    <glyph glyph-name="uni046E" unicode="&#x46e;" 
d="M478 -443q-165 67 -244 147.5t-79 175.5q0 70 32 119.5t103 85.5t188 63q97 23 164.5 51t103.5 74t36 120l282 -15q0 -100 -36.5 -170.5t-98 -118t-137.5 -77.5t-158 -48q-87 -20 -132.5 -35.5t-61.5 -32.5t-16 -41q0 -39 39 -69t108 -67zM1064 378l-282 15
q0 103 -60 150t-181 47h-238l218 175h97q229 -2 337.5 -101t108.5 -286zM303 590v162l390 420h-557v211h856v-204l-491 -515zM826 1863l99 -114l-277 -245h-166l-279 245l101 114l261 -167z" />
    <glyph glyph-name="uni046F" unicode="&#x46f;" 
d="M430 -444q-137 53 -213.5 125t-76.5 170q0 101 78 164t266 99q110 23 174 44t91.5 49.5t27.5 74.5q0 56 -33.5 80.5t-102.5 24.5h-330v165l375 309h-531v198h847v-190l-385 -301h100q160 0 252 -74.5t92 -214.5q0 -105 -50.5 -171.5t-142.5 -106t-216 -64.5
q-105 -20 -158 -36.5t-71 -34t-18 -42.5q0 -30 27 -55t77 -52zM840 1613l100 -113l-277 -265h-166l-279 265l103 113l259 -186z" />
    <glyph glyph-name="uni0470" unicode="&#x470;" 
d="M476 0v372q-156 19 -256.5 82t-148 164t-47.5 233v532h241v-533q0 -129 46 -199.5t179 -89.5v822h222v-820q129 20 176 89.5t47 197.5v533h241v-532q0 -195 -110 -321.5t-340 -155.5v-374h-250z" />
    <glyph glyph-name="uni0471" unicode="&#x471;" 
d="M708 1059v-897q89 15 134 55.5t61.5 114.5t16.5 190q0 125 -12.5 255.5t-34.5 281.5h225q24 -125 38.5 -259t14.5 -290q0 -158 -44.5 -269t-142 -176t-256.5 -86v-387l-214 -28v415q-159 15 -253 73t-134.5 148t-40.5 198v661h230v-652q0 -112 46 -171t152 -74v897h214z
" />
    <glyph glyph-name="uni0472" unicode="&#x472;" 
d="M1138 692q0 -216 -60.5 -378.5t-180.5 -253t-297 -90.5q-176 0 -296.5 88.5t-181 250t-60.5 382.5q0 216 60.5 378.5t181 253t296.5 90.5q177 0 297 -88t180.5 -250t60.5 -383zM600 177q134 0 194.5 109.5t67.5 327.5h-525q6 -219 69.5 -328t193.5 -109zM600 1207
q-126 0 -188 -102.5t-74 -313.5h522q-11 211 -72 313.5t-188 102.5z" />
    <glyph glyph-name="uni0473" unicode="&#x473;" 
d="M601 1089q158 0 268 -69t167.5 -194.5t57.5 -293.5q0 -172 -58 -298t-168 -195t-268 -69q-157 0 -267.5 67.5t-168.5 193t-58 299.5q0 166 58 292t169 196.5t268 70.5zM827 455h-455q12 -154 69 -221.5t159 -67.5q100 0 157.5 67.5t69.5 221.5zM601 894
q-102 0 -159.5 -67.5t-68.5 -209.5h453q-11 142 -68 209.5t-157 67.5z" />
    <glyph glyph-name="uni0474" unicode="&#x474;" 
d="M1145 1205q-10 4 -20 6t-24 2q-29 0 -46 -17t-28 -57l-294 -1139h-332l-369 1383h291l247 -1150l198 925q30 141 100.5 199.5t187.5 58.5q44 0 78.5 -6.5t58.5 -16.5z" />
    <glyph glyph-name="uni0475" unicode="&#x475;" 
d="M416 0l-351 1059h286l224 -848l173 684q34 141 97 199t175 58q45 0 82 -8t73 -22l-53 -184q-11 4 -25 6.5t-29 2.5q-28 0 -45.5 -17t-30.5 -62l-264 -868h-312z" />
    <glyph glyph-name="uni0476" unicode="&#x476;" 
d="M1145 1205q-10 4 -20 6t-24 2q-29 0 -46 -17t-28 -57l-294 -1139h-332l-369 1383h291l247 -1150l198 925q30 141 100.5 199.5t187.5 58.5q44 0 78.5 -6.5t58.5 -16.5zM839 1647l-184 377l-191 -89l229 -352zM512 1649l-193 375l-189 -94l239 -350z" />
    <glyph glyph-name="uni0477" unicode="&#x477;" 
d="M416 0l-351 1059h286l224 -848l173 684q34 141 97 199t175 58q45 0 82 -8t73 -22l-53 -184q-11 4 -25 6.5t-29 2.5q-28 0 -45.5 -17t-30.5 -62l-264 -868h-312zM839 1323l-184 377l-191 -89l229 -352zM512 1325l-193 375l-189 -94l239 -350z" />
    <glyph glyph-name="uni0478" unicode="&#x478;" 
d="M313 -30q-109 0 -180 87t-105 248t-34 386q0 220 34 382.5t105 251t180 88.5q114 0 184 -86.5t102 -248.5t32 -386q0 -222 -32 -384t-102 -250t-184 -88zM313 146q67 0 93 128t26 418q0 291 -26.5 418t-92.5 127q-67 0 -93.5 -127.5t-26.5 -418.5q0 -292 28 -418.5
t92 -126.5zM694 -437l-37 139q91 34 143.5 99.5t73.5 198.5h-90l-149 1059h181l95 -883l99 883h179l-156 -1061q-21 -138 -70 -226.5t-118 -138t-151 -70.5z" />
    <glyph glyph-name="uni0479" unicode="&#x479;" 
d="M658 -437l-38 138q77 24 130 59t86 92.5t50 147.5h-91l-158 1059h192l99 -883l105 883h186l-164 -1054q-22 -143 -78 -235t-138 -141t-181 -66zM315 -30q-105 0 -177.5 67.5t-109 193t-36.5 299.5q0 166 37 292t109.5 196.5t177.5 70.5q113 0 184 -69t104.5 -194.5
t33.5 -293.5q0 -172 -34.5 -298t-105.5 -195t-183 -69zM315 124q72 0 101.5 94.5t29.5 313.5q0 217 -29.5 310.5t-100.5 93.5q-72 0 -102.5 -94.5t-30.5 -311.5t30.5 -311.5t101.5 -94.5z" />
    <glyph glyph-name="uni048A" unicode="&#x48a;" 
d="M1254 246l-183 -576h-223l76 330h-43l-3 246h376zM126 0v1383h255v-550q0 -135 -6 -238.5t-16.5 -188.5t-23.5 -167l426 1144h313v-1383h-255v543q0 187 13.5 333t31.5 262l-420 -1138h-318zM598 1500q-98 0 -168 38t-110.5 101.5t-48.5 141.5l154 27q17 -59 60.5 -89.5
t112.5 -30.5q70 0 115 30.5t61 89.5l154 -27q-8 -78 -49 -141.5t-111.5 -101.5t-169.5 -38z" />
    <glyph glyph-name="uni048B" unicode="&#x48b;" 
d="M996 1059v-1059h-252v392q0 137 11.5 247t24.5 175l-350 -814h-280v1059h250v-395q0 -81 -5.5 -159.5t-15 -147.5t-22.5 -123l357 825h282zM1181 228l-175 -558h-215l76 330h-77l-25 228h416zM571 1248q-98 0 -168.5 38t-111 101.5t-48.5 141.5l155 27q17 -59 60 -89.5
t113 -30.5q69 0 114 30.5t61 89.5l154 -27q-8 -78 -48.5 -141.5t-111.5 -101.5t-169 -38z" />
    <glyph glyph-name="uni048C" unicode="&#x48c;" 
d="M200 0v1383h273v-1178h145q71 0 127 24t88 78t32 143q0 119 -67.5 173t-183.5 54h-173v199h179q159 0 278 -46.5t185.5 -140t66.5 -235.5q0 -155 -68.5 -256t-186.5 -149.5t-270 -48.5h-425zM60 1050v162h140h521v-162h-661z" />
    <glyph glyph-name="uni048D" unicode="&#x48d;" 
d="M238 0v1059h264v-870h111q62 0 109 15.5t73 52t26 100.5q0 155 -193 155h-158v181h157q230 0 349 -88t119 -252q0 -128 -63 -205.5t-174 -112.5t-259 -35h-361zM96 808v153h142h567l-21 -153h-688z" />
    <glyph glyph-name="uni048E" unicode="&#x48e;" 
d="M533 958h158l380 -622h-158zM866 939q0 86 -32.5 140t-94.5 79t-149 25h-154v-501h164q129 0 197.5 55t68.5 202zM1139 939q0 -147 -71 -250t-194 -156.5t-279 -53.5h-159v-479h-274v1383h407q269 0 419.5 -109t150.5 -335z" />
    <glyph glyph-name="uni048F" unicode="&#x48f;" 
d="M483 438h158l380 -622h-158zM685 1089q139 0 224 -68.5t123 -193.5t38 -295q0 -163 -46.5 -290t-137.5 -199.5t-222 -72.5q-162 0 -262 115v-493l-264 -28v1495h232l14 -129q62 82 140.5 120.5t160.5 38.5zM607 891q-66 0 -116.5 -40t-88.5 -99v-474q36 -54 83 -81
t115 -27q71 0 117 28.5t68.5 106.5t22.5 224q0 134 -22.5 213.5t-66.5 114t-112 34.5z" />
    <glyph glyph-name="uni0490" unicode="&#x490;" 
d="M1107 1686v-303l-255 -20v323h255zM1107 1383l-26 -220h-595v-1163h-274v1383h895z" />
    <glyph glyph-name="uni0491" unicode="&#x491;" 
d="M821 1017v333h246v-291zM533 0h-264v1059h798l-30 -207h-504v-852z" />
    <glyph glyph-name="uni0492" unicode="&#x492;" 
d="M835 866v-174h-294h-445v174h171h568zM1161 1383l-27 -220h-594v-1163h-274v1383h895z" />
    <glyph glyph-name="uni0493" unicode="&#x493;" 
d="M827 616v-175h-667v175h164h503zM588 0h-264v1059h799l-30 -207h-505v-852z" />
    <glyph glyph-name="uni0494" unicode="&#x494;" 
d="M960 1383l-33 -212h-539l-260 212h832zM758 -442q-87 0 -147.5 24.5t-107.5 58.5l101 161q30 -17 58.5 -28.5t72.5 -11.5q53 0 82 33t29 108v99h274v-78q0 -181 -96 -273.5t-266 -92.5zM706 926q200 0 307 -120t107 -341v-465h-273v463q0 132 -51 192t-160 60
q-95 0 -157 -35.5t-110 -89.5l-3 197q65 64 148.5 101.5t191.5 37.5zM388 1383v-1383h-273v1383h273z" />
    <glyph glyph-name="uni0495" unicode="&#x495;" 
d="M783 0v348q0 82 -32.5 115t-93.5 33q-73 0 -128 -42.5t-102 -103.5l-13 173q55 75 139.5 123t190.5 48q92 0 160 -37.5t105.5 -110.5t37.5 -179v-367h-264zM178 0v1059h264v-1059h-264zM442 863l-264 196h726l-37 -196h-425zM691 -442q-86 0 -146.5 24.5t-107.5 58.5
l101 155q30 -16 58.5 -27.5t72.5 -11.5q53 0 83 32t30 108v105h264v-78q0 -180 -94 -273t-261 -93z" />
    <glyph glyph-name="uni0496" unicode="&#x496;" 
d="M1220 209v-539h-184l-32 330h-50l49 209h217zM509 645h-83l-174 -645h-240l225 747l-202 636h233l163 -582h78v582h182v-582h78l164 582h232l-202 -636l225 -747h-244l-174 645h-79v-645h-182v645z" />
    <glyph glyph-name="uni0497" unicode="&#x497;" 
d="M504 0v475h-73l-167 -475h-241l228 568l-218 491h240l156 -424h75v424h192v-424h75l164 424h232l-216 -491l227 -568h-239l-172 475h-71v-475h-192zM1222 199v-529h-171l-35 330h-77l-26 199h309z" />
    <glyph glyph-name="uni0498" unicode="&#x498;" 
d="M564 1413q154 0 266.5 -46t174 -128.5t61.5 -190.5q0 -85 -37.5 -147.5t-106 -102t-160.5 -56.5q100 -10 178.5 -51.5t124 -113.5t45.5 -176q0 -127 -67 -224t-193 -152t-305 -55q-161 0 -291 51.5t-220 145.5l146 143q77 -64 167 -98.5t196 -34.5q135 0 211.5 62
t76.5 169q0 78 -35 128t-99 74t-151 24h-235l31 203h199q72 0 129 20.5t91 62.5t34 106q0 59 -31.5 100t-88 62.5t-133.5 21.5q-101 0 -185 -30.5t-154 -86.5l-137 144q101 88 226 132t272 44zM633 -287q0 45 -46.5 59.5t-134.5 14.5l25 245h154v-134q103 -11 151.5 -62.5
t48.5 -124.5q0 -68 -36 -117t-99 -75.5t-144 -26.5q-68 0 -127 17t-99 40l67 128q28 -15 62.5 -24t67.5 -9q50 0 80 15.5t30 53.5z" />
    <glyph glyph-name="uni0499" unicode="&#x499;" 
d="M353 637h191q93 0 142.5 36.5t49.5 96.5q0 66 -53.5 98t-149.5 32q-79 0 -160.5 -21t-148.5 -63l-117 144q88 63 202.5 96t237.5 33q131 0 234 -33t163 -98t60 -161q0 -89 -64.5 -147t-176.5 -88q88 -9 154.5 -38.5t104 -81.5t37.5 -132q0 -111 -67 -187t-183.5 -114.5
t-264.5 -38.5q-158 0 -274.5 40t-197.5 102l116 156q80 -50 164.5 -76.5t190.5 -26.5q120 0 179.5 42t59.5 112q0 69 -55 104t-165 35h-225zM648 -287q0 45 -46.5 59.5t-134.5 14.5l25 245h154v-134q103 -11 151.5 -62.5t48.5 -124.5q0 -68 -36 -117t-99 -75.5t-144 -26.5
q-68 0 -127 17t-99 40l67 128q28 -15 62.5 -24t67.5 -9q50 0 80 15.5t30 53.5z" />
    <glyph glyph-name="uni049A" unicode="&#x49a;" 
d="M1202 209v-539h-211l-37 330h-57l58 209h247zM545 620h-137v-620h-274v1383h274v-557h135l348 557h273l-392 -636l430 -747h-306z" />
    <glyph glyph-name="uni049B" unicode="&#x49b;" 
d="M1188 199v-529h-202l-37 330h-76l-26 199h341zM169 0v1059h264v-413h169l256 413h265l-315 -491l353 -568h-288l-278 462h-162v-462h-264z" />
    <glyph glyph-name="uni049C" unicode="&#x49c;" 
d="M467 296v334h-81v-630h-252v1383h252v-568h81v329h109v-329h39l275 568h268l-338 -636l376 -747h-292l-286 630h-42v-334h-109z" />
    <glyph glyph-name="uni049D" unicode="&#x49d;" 
d="M169 0v1059h253v-425h76v230h101v-230h43l222 425h259l-273 -490l311 -569h-279l-240 476h-43v-240h-101v240h-76v-476h-253z" />
    <glyph glyph-name="uni049E" unicode="&#x49e;" 
d="M38 1063v170h128h462v-170h-590zM576 620h-137v-620h-274v1383h274v-557h136l307 557h273l-352 -636l390 -747h-306z" />
    <glyph glyph-name="uni049F" unicode="&#x49f;" 
d="M802 568l353 -568h-289l-277 462h-124v-462h-264v1482l264 28v-864h131l256 413h265zM203 1299h527v-167h-263h-424v167h160z" />
    <glyph glyph-name="uni04A0" unicode="&#x4a0;" 
d="M597 624h-122v-624h-260v1174h-206v209h466v-561h120l306 561h268l-355 -636l392 -747h-299z" />
    <glyph glyph-name="uni04A1" unicode="&#x4a1;" 
d="M230 0v1039l264 20v-413h149l245 413h265l-304 -491l342 -568h-289l-265 462h-143v-462h-264zM230 867h-225v192h489z" />
    <glyph glyph-name="uni04A2" unicode="&#x4a2;" 
d="M1178 209v-539h-212l-36 330h-57l57 209h248zM786 0v608h-400v-608h-274v1383h274v-550h400v550h274v-1383h-274z" />
    <glyph glyph-name="uni04A3" unicode="&#x4a3;" 
d="M1151 199v-529h-202l-37 330h-76l-26 199h341zM738 0v439h-349v-439h-264v1059h264v-420h349v420h264v-1059h-264z" />
    <glyph glyph-name="uni04A4" unicode="&#x4a4;" 
d="M706 1383h521l-31 -217h-250zM673 0v606h-309v-606h-274v1383h274v-547h309v547h274v-1383h-274z" />
    <glyph glyph-name="uni04A5" unicode="&#x4a5;" 
d="M935 857l-263 202h540l-36 -202h-241zM672 0v439h-290v-439h-264v1059h264v-420h290v420h264v-1059h-264z" />
    <glyph glyph-name="uni04A6" unicode="&#x4a6;" 
d="M489 0v1186h-204v-1186h-236v1383h676v-1383h-236zM910 914q124 0 194 -84t70 -219v-611h-236v598q0 61 -26 91t-73 30q-52 0 -93 -31t-83 -82l-10 154q42 62 102.5 108t154.5 46zM849 -442q-87 0 -147.5 24.5t-107.5 58.5l96 145q29 -17 60.5 -30t76.5 -13q53 0 82 32.5
t29 106.5v120h236v-102q0 -162 -91.5 -252t-233.5 -90z" />
    <glyph glyph-name="uni04A7" unicode="&#x4a7;" 
d="M44 0v1059h703v-1059h-240v867h-224v-867h-239zM873 -442q-85 0 -145 24.5t-106 58.5l96 144q30 -17 59 -29t76 -12q52 0 82 31t30 101v126h239v-90q0 -172 -92 -263t-239 -91zM965 0v390q0 58 -25 86.5t-73 28.5q-58 0 -101 -29.5t-90 -84.5l-16 140q55 76 118.5 119.5
t164.5 43.5q114 0 187.5 -80.5t73.5 -220.5v-393h-239z" />
    <glyph glyph-name="uni04A8" unicode="&#x4a8;" 
d="M619 -34q-167 0 -294.5 83.5t-199 245t-71.5 395.5q0 177 43 312.5t118.5 227.5t176 139t216.5 47q137 0 228.5 -40.5t176.5 -111.5l-133 -158q-65 51 -127 77.5t-135 26.5q-56 0 -106.5 -28.5t-89 -90t-60 -160.5t-21.5 -241q0 -188 36 -303.5t99.5 -167.5t144.5 -52z
M946 -275q-87 119 -163 223.5t-132.5 201t-88 191t-31.5 192.5q0 101 39 175t109.5 114.5t164.5 40.5q91 0 163.5 -36.5t114.5 -109t42 -180.5q0 -107 -36 -208.5t-106 -183.5t-171.5 -130.5t-231.5 -48.5l2 201q161 0 242 93.5t80 283.5q0 143 -100 143q-51 0 -78 -39.5
t-27 -109.5q0 -84 24.5 -163.5t71 -161t112.5 -175t148 -206.5z" />
    <glyph glyph-name="uni04A9" unicode="&#x4a9;" 
d="M961 -275q-144 166 -233.5 293t-131.5 227.5t-42 186.5q0 84 34.5 148t99.5 100.5t156 36.5q126 0 207.5 -74t81.5 -216q0 -84 -35 -165.5t-101.5 -147.5t-162 -105t-216.5 -39l13 210q99 0 165 33t98.5 92.5t32.5 134.5q0 57 -23 85.5t-62 28.5q-43 0 -66.5 -31.5
t-23.5 -86.5q0 -75 30 -156t103 -188.5t203 -263.5zM777 844q-35 18 -72 28t-81 10q-111 0 -180.5 -84.5t-69.5 -274.5q0 -125 32 -200.5t90 -109t135 -33.5l-13 -210q-162 0 -278.5 68t-179 192t-62.5 292q0 166 63 294.5t178 200.5t273 72q71 0 136 -15t120 -47z" />
    <glyph glyph-name="uni04AA" unicode="&#x4aa;" 
d="M622 54q152 -49 242.5 -124.5t90.5 -196.5q0 -107 -76 -171t-209 -64q-64 0 -114 13.5t-92 36.5l57 138q22 -12 55 -22t75 -10q58 0 85.5 29t27.5 75q0 57 -39.5 120t-144.5 122zM716 1413q144 0 244 -37.5t185 -107.5l-139 -165q-59 50 -129.5 76t-150.5 26
q-96 0 -176.5 -51t-129 -163.5t-48.5 -296.5q0 -181 46.5 -293t127 -163.5t182.5 -51.5q108 0 179 38t128 83l129 -163q-73 -72 -182.5 -123t-265.5 -51q-181 0 -323 83t-223 244t-81 397q0 232 83.5 392.5t226 243.5t317.5 83z" />
    <glyph glyph-name="uni04AB" unicode="&#x4ab;" 
d="M597 54q153 -49 243.5 -124.5t90.5 -196.5q0 -107 -76.5 -171t-208.5 -64q-64 0 -114 13.5t-92 36.5l57 138q22 -12 55 -22t74 -10q59 0 86 29t27 75q0 57 -39 120t-144 122zM694 182q70 0 131.5 26t118.5 66l120 -169q-70 -59 -169 -97t-212 -38q-166 0 -284.5 69.5
t-182 194t-63.5 289.5q0 163 64.5 291.5t184 201.5t285.5 73q114 0 206.5 -32.5t169.5 -96.5l-117 -162q-59 41 -121.5 62.5t-129.5 21.5q-117 0 -190.5 -84.5t-73.5 -274.5q0 -125 34.5 -200t94 -108t134.5 -33z" />
    <glyph glyph-name="uni04AC" unicode="&#x4ac;" 
d="M841 209v-539h-212l-36 330h-57l57 209h248zM734 1168v-1168h-273v1168h-404v215h1093l-28 -215h-388z" />
    <glyph glyph-name="uni04AD" unicode="&#x4ad;" 
d="M881 199v-529h-203l-36 330h-77l-25 199h341zM1111 1059l-32 -201h-347v-858h-264v858h-367v201h1010z" />
    <glyph glyph-name="Ustraitcy" unicode="&#x4ae;" 
d="M737 524v-524h-274v522l-457 861h300l299 -630l302 630h287z" />
    <glyph glyph-name="ustraitcy" unicode="&#x4af;" 
d="M471 -436v453l-399 1042h285l248 -812l253 812h270l-399 -1040v-427z" />
    <glyph glyph-name="Ustraitstrokecy" unicode="&#x4b0;" 
d="M979 605v-167h-242h-516v167h196h562zM737 524v-524h-274v522l-457 861h300l299 -630l302 630h287z" />
    <glyph glyph-name="ustraitstrokecy" unicode="&#x4b1;" 
d="M928 144v-162h-199h-456v162h655zM471 -436v453l-399 1042h285l248 -812l253 812h270l-399 -1040v-427z" />
    <glyph glyph-name="uni04B2" unicode="&#x4b2;" 
d="M1179 209v-539h-211l-36 330h-58l58 209h247zM59 1383h299l242 -475l245 475h291l-376 -635l414 -748h-299l-279 562l-278 -562h-292l408 735z" />
    <glyph glyph-name="uni04B3" unicode="&#x4b3;" 
d="M1145 199v-529h-203l-36 330h-77l-25 199h341zM357 0h-289l372 557l-334 502h300l196 -358l193 358h286l-322 -491l373 -568h-304l-238 416z" />
    <glyph glyph-name="uni04B4" unicode="&#x4b4;" 
d="M669 1383l-27 -188h-182h-252h-208v188h669zM1130 209v-539h-187l-36 330h-58l46 209h235zM208 0v1323h250v-1107h325v1167h250v-1383h-825z" />
    <glyph glyph-name="uni04B5" unicode="&#x4b5;" 
d="M659 1059l-38 -179h-170h-253h-198v179h659zM754 1059h251v-1059h-805v1059h251v-859h303v859zM1125 199v-529h-196l-36 330h-77l-14 199h323z" />
    <glyph glyph-name="uni04B6" unicode="&#x4b6;" 
d="M1180 209v-539h-211l-36 330h-58l58 209h247zM341 1383v-511q0 -134 54.5 -192t166.5 -58q96 0 156.5 32t99.5 75l12 -192q-50 -41 -102.5 -69.5t-110.5 -43t-128 -14.5q-131 0 -225.5 52.5t-145.5 153t-51 243.5v524h274zM1074 1383v-1383h-274v1383h274z" />
    <glyph glyph-name="uni04B7" unicode="&#x4b7;" 
d="M1153 199v-529h-202l-36 330h-77l-26 199h341zM1006 1059v-1059h-264v413q-57 -48 -137.5 -76.5t-176.5 -28.5q-160 0 -243 86t-83 236v429h264v-396q0 -86 39.5 -121.5t112.5 -35.5q60 0 122 24t102 63v466h264z" />
    <glyph glyph-name="uni04B8" unicode="&#x4b8;" 
d="M645 1098v-852h-126v381v471h126zM341 1383v-511q0 -134 54.5 -192t166.5 -58q96 0 156.5 32t99.5 75l12 -192q-50 -41 -102.5 -69.5t-110.5 -43t-128 -14.5q-131 0 -225.5 52.5t-145.5 153t-51 243.5v524h274zM1074 1383v-1383h-274v1383h274z" />
    <glyph glyph-name="uni04B9" unicode="&#x4b9;" 
d="M622 791v-621h-116v621h116zM1026 1059v-1059h-264v413q-57 -48 -137.5 -76.5t-176.5 -28.5q-160 0 -243 86t-83 236v429h264v-396q0 -86 39.5 -121.5t112.5 -35.5q60 0 122 24t102 63v466h264z" />
    <glyph glyph-name="uni04BA" unicode="&#x4ba;" 
d="M717 926q200 0 307.5 -120t107.5 -341v-465h-274v463q0 132 -50.5 192t-159.5 60q-96 0 -158 -35.5t-110 -89.5l-3 197q66 64 149 101.5t191 37.5zM400 1383v-1383h-274v1383h274z" />
    <glyph glyph-name="uni04BB" unicode="&#x4bb;" 
d="M772 0v625q0 87 -33 121t-96 34q-74 0 -129 -43.5t-102 -110.5l-12 173q55 81 139 130t190 49q144 0 225.5 -86t81.5 -245v-647h-264zM165 0v1481l264 26v-1507h-264z" />
    <glyph glyph-name="uni04BC" unicode="&#x4bc;" 
d="M1146 714q0 -27 -2 -62.5t-7 -64.5h-616q2 -155 32.5 -248.5t82.5 -135t120 -41.5q73 0 126 27t101 61l105 -139q-67 -62 -152.5 -101.5t-189.5 -39.5q-155 0 -260.5 79.5t-159 237.5t-53.5 394q0 233 53.5 397t155.5 249.5t245 85.5q142 0 235 -82t138.5 -238.5
t45.5 -378.5zM726 1224q-61 0 -104.5 -43t-69 -141t-31.5 -266h386q0 171 -22 269t-62 139.5t-97 41.5zM-6 863q0 66 19.5 115t44.5 91l151 -62q-12 -30 -22 -60.5t-10 -68.5q0 -104 97 -104h119v-182h-114q-139 0 -212 77.5t-73 193.5z" />
    <glyph glyph-name="uni04BD" unicode="&#x4bd;" 
d="M14 704q0 62 21 109.5t46 87.5l145 -63q-12 -29 -21.5 -59t-9.5 -68q0 -44 23.5 -68.5t73.5 -24.5h108v-171h-93q-138 0 -215.5 68.5t-77.5 188.5zM541 449q3 -103 33 -166t81 -92.5t116 -29.5q73 0 125 22.5t97 51.5l108 -138q-58 -50 -143 -88.5t-195 -38.5
q-159 0 -262.5 71t-154 197t-50.5 290q0 157 50 284t146 202t234 75q200 0 305 -142t105 -393q0 -27 -1 -55t-4 -50h-590zM725 908q-81 0 -129.5 -70t-57.5 -220h358q-1 142 -41.5 216t-129.5 74z" />
    <glyph glyph-name="uni04BE" unicode="&#x4be;" 
d="M1146 714q0 -27 -2 -62.5t-7 -64.5h-616q2 -155 32.5 -248.5t82.5 -135t120 -41.5q73 0 126 27t101 61l105 -139q-67 -62 -152.5 -101.5t-189.5 -39.5q-155 0 -260.5 79.5t-159 237.5t-53.5 394q0 233 53.5 397t155.5 249.5t245 85.5q142 0 235 -82t138.5 -238.5
t45.5 -378.5zM726 1224q-61 0 -104.5 -43t-69 -141t-31.5 -266h386q0 171 -22 269t-62 139.5t-97 41.5zM-6 863q0 66 19.5 115t44.5 91l151 -62q-12 -30 -22 -60.5t-10 -68.5q0 -104 97 -104h119v-182h-114q-139 0 -212 77.5t-73 193.5zM880 88l32 -88q-97 -37 -148 -73.5
t-70 -73.5t-19 -76q0 -48 29.5 -72.5t85.5 -24.5q32 0 58 3.5t55 10.5l-21 -169q-28 -6 -56.5 -10.5t-64.5 -4.5q-123 0 -202.5 61.5t-79.5 167.5q0 93 49.5 157.5t139.5 110t212 81.5z" />
    <glyph glyph-name="uni04BF" unicode="&#x4bf;" 
d="M14 704q0 62 21 109.5t46 87.5l145 -63q-12 -29 -21.5 -59t-9.5 -68q0 -44 23.5 -68.5t73.5 -24.5h108v-171h-93q-138 0 -215.5 68.5t-77.5 188.5zM541 449q3 -103 33 -166t81 -92.5t116 -29.5q73 0 125 22.5t97 51.5l108 -138q-58 -50 -143 -88.5t-195 -38.5
q-159 0 -262.5 71t-154 197t-50.5 290q0 157 50 284t146 202t234 75q200 0 305 -142t105 -393q0 -27 -1 -55t-4 -50h-590zM725 908q-81 0 -129.5 -70t-57.5 -220h358q-1 142 -41.5 216t-129.5 74zM906 88l32 -88q-97 -37 -148 -73.5t-70 -73.5t-19 -76q0 -48 29.5 -72.5
t85.5 -24.5q32 0 58 3.5t55 10.5l-21 -169q-28 -6 -56.5 -10.5t-64.5 -4.5q-123 0 -202.5 61.5t-79.5 167.5q0 93 49.5 157.5t139.5 110t212 81.5z" />
    <glyph glyph-name="uni04C0" unicode="&#x4c0;" 
d="M1030 1383v-205h-293v-973h293v-205h-860v205h293v973h-293v205h860z" />
    <glyph glyph-name="uni04C1" unicode="&#x4c1;" 
d="M509 645h-83l-174 -645h-240l225 747l-202 636h233l163 -582h78v582h182v-582h78l164 582h232l-202 -636l225 -747h-244l-174 645h-79v-645h-182v645zM598 1500q-98 0 -168 38t-110.5 101.5t-48.5 141.5l154 27q17 -59 60.5 -89.5t112.5 -30.5q70 0 115 30.5t61 89.5
l154 -27q-8 -78 -49 -141.5t-112 -101.5t-169 -38z" />
    <glyph glyph-name="uni04C2" unicode="&#x4c2;" 
d="M504 0v475h-73l-183 -475h-241l244 568l-233 491h238l173 -424h75v424h192v-424h75l180 424h231l-231 -491l244 -568h-241l-187 475h-71v-475h-192zM598 1248q-98 0 -168 38t-110.5 101.5t-48.5 141.5l154 27q17 -59 60.5 -89.5t112.5 -30.5q70 0 115 30.5t61 89.5
l154 -27q-8 -78 -49 -141.5t-112 -101.5t-169 -38z" />
    <glyph glyph-name="uni04C3" unicode="&#x4c3;" 
d="M126 0v1383h274v-580h153l314 580h272l-386 -675l-62 -110h-291v-598h-274zM837 0v379q0 111 -49 165t-166 54l54 205q222 0 328.5 -102.5t106.5 -318.5v-382h-274zM749 -442q-87 0 -147.5 24.5t-107.5 58.5l102 161q30 -17 58 -28.5t72 -11.5q53 0 82 33t29 108v99h274
v-78q0 -181 -96 -273.5t-266 -92.5z" />
    <glyph glyph-name="uni04C4" unicode="&#x4c4;" 
d="M166 0v1059h264v-442h128l254 442h257l-311 -520l-120 -106h-208v-433h-264zM784 0v286q0 79 -35.5 113t-112.5 34l88 176q155 0 239.5 -83t84.5 -242v-284h-264zM693 -442q-86 0 -146.5 24.5t-107.5 58.5l101 155q30 -16 58.5 -27.5t72.5 -11.5q53 0 83 32t30 108v105
h264v-78q0 -180 -94 -273t-261 -93z" />
    <glyph glyph-name="uni04C5" unicode="&#x4c5;" 
d="M1019 1383v-1383h-272v1168h-213l-30 -288q-20 -196 -43.5 -335t-54 -233t-72 -156.5t-96.5 -106.5t-128 -83l-109 186q44 34 78.5 74t63 113t52.5 202.5t47 342.5l54 499h723zM1199 246l-182 -576h-224l76 330h-43l-2 246h375z" />
    </font>
</defs>
</svg>
