<?xml version="1.0" encoding="UTF-8" standalone="no"?>
<!-- Created with Inkscape (http://www.inkscape.org/) -->

<svg
   width="746mm"
   height="264mm"
   viewBox="0 0 746 264"
   version="1.1"
   id="svg1"
   xml:space="preserve"
   xmlns="http://www.w3.org/2000/svg"
   xmlns:svg="http://www.w3.org/2000/svg"><defs
     id="defs1" /><g
     id="layer1"><path
       d="m 169.32206,148.69778 c 0,28.2575 -22.78063,51.03813 -50.8,51.03813 -28.019381,0 -50.800003,-22.78857 -50.800003,-50.8 0,-15.52311 7.3607,-28.2575 14.438312,-35.48063 3.96081,-4.39208 10.96169,-1.61396 10.96169,4.1275 v 22.62188 c 0,9.30539 7.400391,17.06562 16.711081,17.18204 9.45621,0.14816 17.15558,-7.49829 17.15558,-16.91746 0,-23.28333 -46.328541,-25.43175 -13.79802,-73.342501 3.57188,-5.217583 11.68136,-2.849562 11.68136,3.447521 -0.23813,27.29706 44.45,33.3031 44.45,78.12352 z"
       id="path4"
       style="fill:#ff9c13;fill-opacity:1;stroke-width:0.264583" /><path
       d="m 269.00087,148.39949 q 0,7.33288 -3.86539,12.96043 -3.80855,5.62756 -10.97089,8.81082 -7.16235,3.18327 -17.22373,3.18327 -11.14143,0 -18.70168,-3.24011 -7.50341,-3.29695 -12.44884,-8.12869 l 9.43611,-10.4593 q 4.37698,3.80855 9.66348,5.91178 5.28649,2.04638 11.59617,2.04638 3.92224,0 6.87813,-1.13688 2.95589,-1.13688 4.60436,-3.29695 1.64848,-2.16007 1.64848,-5.22965 0,-2.89904 -1.30741,-4.88858 -1.30742,-1.98954 -4.43384,-3.58118 -3.06957,-1.59163 -8.58344,-3.2401 -9.20873,-2.8422 -14.83629,-6.25284 -5.57071,-3.41064 -8.12869,-7.90132 -2.50113,-4.49068 -2.50113,-10.4593 0,-7.21919 3.97908,-12.33515 4.03592,-5.115956 10.80036,-7.787624 6.76443,-2.728512 14.89313,-2.728512 9.15188,0 16.14369,2.671668 6.99181,2.614824 12.10777,7.503408 l -8.81082,10.11823 q -3.97908,-3.35379 -8.58344,-4.94543 -4.60436,-1.64847 -9.37926,-1.64847 -3.52433,0 -6.196,0.9095 -2.67166,0.85266 -4.14961,2.55798 -1.47794,1.70532 -1.47794,4.2633 0,2.50114 1.4211,4.20646 1.4211,1.70532 4.94543,3.24011 3.52432,1.47794 9.77716,3.46748 7.44657,2.27376 12.73306,5.45703 5.34334,3.12642 8.12869,7.90131 2.8422,4.7749 2.8422,12.05093 z m 46.95319,-41.49612 v 64.51794 H 297.30923 V 106.90337 H 275.19691 V 92.635524 h 63.77897 l -1.93269,14.267846 z m 88.73353,9.66348 q 0,5.62755 -2.10323,9.83401 -2.10323,4.20646 -5.6844,7.1055 -3.58117,2.89905 -8.015,4.66121 l 20.63437,33.25374 h -21.08912 l -17.0532,-30.12732 h -5.2865 v 30.12732 H 347.44568 V 92.635524 h 24.78399 q 16.08685,0 24.27238,5.854932 8.18554,5.854934 8.18554,18.076394 z m -19.21327,0 q 0,-5.6844 -3.3538,-8.24238 -3.29695,-2.61483 -9.83401,-2.61483 h -6.196 v 22.79445 h 6.93497 q 6.08231,0 9.26557,-2.8422 3.18327,-2.8422 3.18327,-9.09504 z m 52.80812,-10.62983 v 18.92905 h 27.28512 v 13.07412 h -27.28512 v 20.12278 h 32.91267 v 13.35834 h -51.5575 V 92.635524 h 51.50066 l -1.87585,13.301496 z m 84.47023,48.48793 H 499.674 l -4.14961,16.99636 H 476.0269 l 24.10185,-78.785786 h 22.62392 l 24.10185,78.785786 h -19.95224 z m -20.12278,-13.52887 h 17.0532 l -8.5266,-34.84537 z m 68.21283,30.52523 H 552.19789 V 92.635524 h 18.64483 z m 0.56844,-42.06456 21.54388,-36.721226 h 19.55433 l -22.28285,35.356966 24.44293,43.42882 h -21.60073 z m 106.86678,19.04274 q 0,7.33288 -3.86539,12.96043 -3.80855,5.62756 -10.97089,8.81082 -7.16235,3.18327 -17.22374,3.18327 -11.14142,0 -18.70167,-3.24011 -7.50341,-3.29695 -12.44884,-8.12869 l 9.43611,-10.4593 q 4.37698,3.80855 9.66348,5.91178 5.28649,2.04638 11.59617,2.04638 3.92224,0 6.87813,-1.13688 2.95588,-1.13688 4.60436,-3.29695 1.64848,-2.16007 1.64848,-5.22965 0,-2.89904 -1.30742,-4.88858 -1.30741,-1.98954 -4.43383,-3.58118 -3.06957,-1.59163 -8.58344,-3.2401 -9.20873,-2.8422 -14.83629,-6.25284 -5.57071,-3.41064 -8.12869,-7.90132 -2.50113,-4.49068 -2.50113,-10.4593 0,-7.21919 3.97908,-12.33515 4.03592,-5.115956 10.80036,-7.787624 6.76443,-2.728512 14.89312,-2.728512 9.15189,0 16.1437,2.671668 6.99181,2.614824 12.10777,7.503408 l -8.81082,10.11823 q -3.97908,-3.35379 -8.58344,-4.94543 -4.60437,-1.64847 -9.37926,-1.64847 -3.52433,0 -6.196,0.9095 -2.67167,0.85266 -4.14961,2.55798 -1.47794,1.70532 -1.47794,4.2633 0,2.50114 1.4211,4.20646 1.4211,1.70532 4.94542,3.24011 3.52433,1.47794 9.77717,3.46748 7.44657,2.27376 12.73306,5.45703 5.34334,3.12642 8.12869,7.90131 2.8422,4.7749 2.8422,12.05093 z"
       id="path3"
       style="font-size:113.688px;font-family:'Fira Code';-inkscape-font-specification:'Fira Code, @wght=700';font-variation-settings:'wght' 700;fill:#425d64;stroke-width:14.6494;stroke-linecap:round;stroke-linejoin:round"
       aria-label="STREAKS" /></g></svg>
