<?xml version="1.0" standalone="no"?>
<!DOCTYPE svg PUBLIC "-//W3C//DTD SVG 20010904//EN"
 "http://www.w3.org/TR/2001/REC-SVG-20010904/DTD/svg10.dtd">
<svg version="1.0" xmlns="http://www.w3.org/2000/svg"
 width="700.000000pt" height="700.000000pt" viewBox="0 0 700.000000 700.000000"
 preserveAspectRatio="xMidYMid meet">
<metadata>
Created by potrace 1.14, written by Peter Selinger 2001-2017
</metadata>
<g transform="translate(0.000000,700.000000) scale(0.100000,-0.100000)"
fill="#000000" stroke="none">
<path d="M3385 6517 c-80 -39 -105 -68 -250 -297 -20 -31 -77 -130 -107 -185
-114 -206 -218 -469 -254 -638 -25 -119 -29 -168 -28 -317 1 -115 6 -163 24
-235 43 -170 127 -335 251 -490 69 -87 62 -79 353 -375 128 -129 257 -266 287
-305 107 -136 172 -264 203 -404 19 -80 14 -264 -8 -346 -39 -145 -146 -307
-264 -400 -70 -56 -195 -119 -282 -142 -89 -24 -290 -23 -380 1 -157 42 -270
116 -403 264 -53 59 -130 224 -153 327 -9 41 -14 284 -17 810 -2 435 -2 440
-25 482 -70 132 -198 189 -335 149 -70 -20 -145 -87 -258 -230 -44 -56 -84
-107 -90 -113 -31 -39 -137 -218 -180 -303 -225 -450 -299 -926 -219 -1400 11
-63 22 -127 25 -143 4 -22 34 -122 79 -262 2 -5 8 -21 13 -35 6 -14 20 -48 32
-77 37 -95 159 -323 194 -363 9 -11 17 -23 17 -26 0 -5 79 -115 89 -124 4 -3
19 -23 36 -45 70 -96 315 -325 435 -408 146 -101 180 -121 345 -202 227 -111
488 -188 720 -211 28 -2 66 -7 85 -10 47 -7 303 -6 365 1 28 3 70 8 95 10 38
5 152 24 225 39 136 27 325 95 490 176 135 65 166 83 301 174 261 176 509 446
675 732 39 68 116 219 124 245 4 13 16 42 26 64 31 70 76 216 102 335 30 134
38 187 52 340 6 61 6 278 0 370 -6 101 -15 163 -49 355 -39 212 -164 522 -300
740 -42 67 -208 299 -226 315 -3 3 -30 34 -60 70 -59 70 -305 318 -435 440
-45 41 -139 129 -210 195 -381 354 -549 567 -640 809 -45 120 -62 209 -70 360
-5 118 -32 185 -95 238 -85 69 -213 88 -305 45z"/>
</g>
</svg>
