<?xml version="1.0" standalone="no"?>
<!DOCTYPE svg PUBLIC "-//W3C//DTD SVG 20010904//EN"
 "http://www.w3.org/TR/2001/REC-SVG-20010904/DTD/svg10.dtd">
<svg version="1.0" xmlns="http://www.w3.org/2000/svg"
 width="700.000000pt" height="700.000000pt" viewBox="0 0 700.000000 700.000000"
 preserveAspectRatio="xMidYMid meet">
<metadata>
Created by potrace 1.14, written by Peter Selinger 2001-2017
</metadata>
<g transform="translate(0.000000,700.000000) scale(0.100000,-0.100000)"
fill="#000000" stroke="none">
<path d="M3240 6989 c-1013 -77 -1935 -584 -2549 -1403 -362 -482 -591 -1062
-667 -1686 -25 -199 -25 -599 -1 -800 48 -392 155 -767 317 -1106 345 -722
932 -1310 1654 -1654 1015 -485 2224 -446 3206 102 292 163 525 341 771 587
292 293 486 561 665 921 566 1140 462 2519 -269 3555 -161 227 -382 473 -582
645 -705 606 -1624 909 -2545 839z m760 -2824 c271 -610 495 -1113 499 -1117
3 -4 122 38 264 93 142 54 262 99 266 99 6 0 -532 -1420 -544 -1438 -1 -1
-184 -20 -406 -42 -222 -22 -442 -44 -489 -48 -70 -7 -171 -1 -577 38 -271 25
-495 48 -497 51 -8 8 -554 1434 -551 1437 3 3 322 -116 516 -193 12 -5 111
210 515 1119 274 618 502 1121 505 1118 4 -4 228 -506 499 -1117z m-1644 200
c143 -181 263 -335 267 -341 3 -6 -43 -117 -104 -245 -61 -129 -117 -249 -125
-267 l-15 -33 -32 23 c-243 172 -443 323 -445 337 -2 10 31 217 73 461 41 244
75 445 75 447 0 7 28 -28 306 -382z m2669 -65 c42 -245 75 -452 73 -461 -2
-14 -214 -174 -445 -337 l-32 -23 -15 33 c-8 18 -64 138 -125 267 -95 201
-109 237 -99 253 29 41 563 716 566 714 1 -2 36 -202 77 -446z"/>
</g>
</svg>
