<svg id="icon" xmlns="http://www.w3.org/2000/svg" xmlns:xlink="http://www.w3.org/1999/xlink" x="0px" y="0px"
	viewBox="0 0 32 32" xml:space="preserve">
<path d="M29.586,9.414L26,13l-7-7l3.586-3.586c0.778-0.778,2.051-0.778,2.828,0l4.172,4.172
	C30.364,7.364,30.364,8.636,29.586,9.414z M18,7l7,7L10.707,28.293C10.318,28.682,9.55,29,9,29H4c-0.55,0-1-0.45-1-1v-5
	c0-0.55,0.318-1.318,0.707-1.707L18,7z M8.464,26.293l-2.757-2.757C5.318,23.147,5,23.278,5,23.828V26c0,0.55,0.45,1,1,1h2.172
	C8.722,27,8.853,26.682,8.464,26.293z"/>
</svg>
