<?xml version="1.0" encoding="UTF-8" standalone="no"?>
<!-- Created with Inkscape (http://www.inkscape.org/) -->

<svg
   width="746mm"
   height="264mm"
   viewBox="0 0 746 264"
   version="1.1"
   id="svg8092"
   xmlns="http://www.w3.org/2000/svg"
   xmlns:svg="http://www.w3.org/2000/svg">
  <defs
     id="defs8089">
    <clipPath
       clipPathUnits="userSpaceOnUse"
       id="clipPath7932">
      <circle
         style="fill:#19292d;fill-opacity:1;stroke:none;stroke-width:0.43299;stroke-linecap:round;stroke-linejoin:round;stroke-dashoffset:45.3543"
         id="circle7934"
         cx="128"
         cy="128"
         r="128"
         clip-path="url(#clipPath7028)"
         transform="translate(-6.8791796,2.1166767)" />
    </clipPath>
    <clipPath
       clipPathUnits="userSpaceOnUse"
       id="clipPath7028">
      <path
         style="fill:#22373c;fill-opacity:0.385737;stroke:none;stroke-width:0.264583px;stroke-linecap:butt;stroke-linejoin:miter;stroke-opacity:1"
         d="m 193.51087,113.81832 -31.98675,31.55007 9.33842,42.74493 -87.166632,84.58595 -101.433366,-72.4436 99.699961,-120.092339 21.166677,26.881659 31.75003,-46.778325 22.06655,57.645205 9.68345,-10.86688 z"
         id="path7030" />
    </clipPath>
    <clipPath
       clipPathUnits="userSpaceOnUse"
       id="clipPath7932-4">
      <circle
         style="fill:#19292d;fill-opacity:1;stroke:none;stroke-width:0.43299;stroke-linecap:round;stroke-linejoin:round;stroke-dashoffset:45.3543"
         id="circle7934-4"
         cx="128"
         cy="128"
         r="128"
         clip-path="url(#clipPath7028)"
         transform="translate(-6.8791796,2.1166767)" />
    </clipPath>
  </defs>
  <g
     id="layer1">
    <g
       id="g30624"
       transform="matrix(0.76870561,0,0,0.76870561,114.44799,4.697029)">
      <g
         id="layer1-7"
         transform="translate(-98.349673,37.606923)">
        <circle
           style="fill:#131f22;fill-opacity:1;stroke:none;stroke-width:0.43299;stroke-linecap:round;stroke-linejoin:round;stroke-dashoffset:45.3543"
           id="path7076-4"
           cx="128"
           cy="128"
           r="128" />
        <circle
           style="fill:#19292d;fill-opacity:1;stroke:none;stroke-width:0.43299;stroke-linecap:round;stroke-linejoin:round;stroke-dashoffset:45.3543"
           id="path7076"
           cx="128"
           cy="128"
           r="128"
           clip-path="url(#clipPath7932-4)" />
        <g
           id="g1390"
           transform="translate(2.3212712,-41.256686)">
          <polygon
             style="fill:#ffc114"
             points="248,496 112,483.2 35.2,283.2 235.2,360 "
             id="polygon1223"
             transform="matrix(0.26458333,0,0,0.26458333,60.062063,103.64002)" />
          <polyline
             style="fill:#ffcd50"
             points="248,496 112,483.2 35.2,283.2 "
             id="polyline1225"
             transform="matrix(0.26458333,0,0,0.26458333,60.062063,103.64002)" />
          <polygon
             style="fill:#f9a035"
             points="248,496 240,414.4 120,368 166.4,488 "
             id="polygon1227"
             transform="matrix(0.26458333,0,0,0.26458333,60.062063,103.64002)" />
          <polyline
             style="fill:#ff9a15"
             points="248,496 240,414.4 120,368 "
             id="polyline1229"
             transform="matrix(0.26458333,0,0,0.26458333,60.062063,103.64002)" />
          <polygon
             style="fill:#ffc114"
             points="248,496 260.8,360 460.8,283.2 384,483.2 "
             id="polygon1231"
             transform="matrix(0.26458333,0,0,0.26458333,60.062063,103.64002)" />
          <polyline
             style="fill:#ffcd50"
             points="248,496 260.8,360 460.8,283.2 "
             id="polyline1233"
             transform="matrix(0.26458333,0,0,0.26458333,60.062063,103.64002)" />
          <polygon
             style="fill:#f9a035"
             points="248,496 329.6,488 376,368 256,414.4 "
             id="polygon1235"
             transform="matrix(0.26458333,0,0,0.26458333,60.062063,103.64002)" />
          <polyline
             style="fill:#ff9a15"
             points="248,496 329.6,488 376,368 "
             id="polyline1237"
             transform="matrix(0.26458333,0,0,0.26458333,60.062063,103.64002)" />
          <polygon
             style="fill:#eaad13"
             points="248,496 104.8,322.4 248,0 391.2,322.4 "
             id="polygon1239"
             transform="matrix(0.26458333,0,0,0.26458333,60.062063,103.64002)" />
          <polyline
             style="fill:#ffcd50"
             points="248,496 104.8,322.4 248,0 "
             id="polyline1241"
             transform="matrix(0.26458333,0,0,0.26458333,60.062063,103.64002)" />
          <polygon
             style="fill:#f9a035"
             points="248,496 333.6,392 248,197.6 162.4,392 "
             id="polygon1243"
             transform="matrix(0.26458333,0,0,0.26458333,60.062063,103.64002)" />
          <polyline
             style="fill:#ef8a11"
             points="248,496 333.6,392 248,197.6 "
             id="polyline1245"
             transform="matrix(0.26458333,0,0,0.26458333,60.062063,103.64002)" />
          <polygon
             style="fill:#ffc114"
             points="92.8,250.4 26.4,202.4 48,75.2 128,176.8 "
             id="polygon1247"
             transform="matrix(0.26458333,0,0,0.26458333,60.062063,103.64002)" />
          <polyline
             style="fill:#ffcd50"
             points="92.8,250.4 26.4,202.4 48,75.2 "
             id="polyline1249"
             transform="matrix(0.26458333,0,0,0.26458333,60.062063,103.64002)" />
          <polygon
             style="fill:#f9a035"
             points="92.8,250.4 113.6,206.4 65.6,145.6 52.8,221.6 "
             id="polygon1251"
             transform="matrix(0.26458333,0,0,0.26458333,60.062063,103.64002)" />
          <polyline
             style="fill:#ff9a15"
             points="92.8,250.4 113.6,206.4 65.6,145.6 "
             id="polyline1253"
             transform="matrix(0.26458333,0,0,0.26458333,60.062063,103.64002)" />
          <polygon
             style="fill:#ffc114"
             points="403.2,250.4 469.6,202.4 448,75.2 368,176.8 "
             id="polygon1255"
             transform="matrix(0.26458333,0,0,0.26458333,60.062063,103.64002)" />
          <polyline
             style="fill:#ffcd50"
             points="403.2,250.4 469.6,202.4 448,75.2 "
             id="polyline1257"
             transform="matrix(0.26458333,0,0,0.26458333,60.062063,103.64002)" />
          <polygon
             style="fill:#f9a035"
             points="403.2,250.4 382.4,206.4 430.4,145.6 443.2,221.6 "
             id="polygon1259"
             transform="matrix(0.26458333,0,0,0.26458333,60.062063,103.64002)" />
          <polyline
             style="fill:#ff9a15"
             points="403.2,250.4 382.4,206.4 430.4,145.6 "
             id="polyline1261"
             transform="matrix(0.26458333,0,0,0.26458333,60.062063,103.64002)" />
        </g>
        <g
           id="g1263"
           transform="matrix(0.26458333,0,0,0.26458333,60.062063,103.64002)" />
        <g
           id="g1265"
           transform="matrix(0.26458333,0,0,0.26458333,60.062063,103.64002)" />
        <g
           id="g1267"
           transform="matrix(0.26458333,0,0,0.26458333,60.062063,103.64002)" />
        <g
           id="g1269"
           transform="matrix(0.26458333,0,0,0.26458333,60.062063,103.64002)" />
        <g
           id="g1271"
           transform="matrix(0.26458333,0,0,0.26458333,60.062063,103.64002)" />
        <g
           id="g1273"
           transform="matrix(0.26458333,0,0,0.26458333,60.062063,103.64002)" />
        <g
           id="g1275"
           transform="matrix(0.26458333,0,0,0.26458333,60.062063,103.64002)" />
        <g
           id="g1277"
           transform="matrix(0.26458333,0,0,0.26458333,60.062063,103.64002)" />
        <g
           id="g1279"
           transform="matrix(0.26458333,0,0,0.26458333,60.062063,103.64002)" />
        <g
           id="g1281"
           transform="matrix(0.26458333,0,0,0.26458333,60.062063,103.64002)" />
        <g
           id="g1283"
           transform="matrix(0.26458333,0,0,0.26458333,60.062063,103.64002)" />
        <g
           id="g1285"
           transform="matrix(0.26458333,0,0,0.26458333,60.062063,103.64002)" />
        <g
           id="g1287"
           transform="matrix(0.26458333,0,0,0.26458333,60.062063,103.64002)" />
        <g
           id="g1289"
           transform="matrix(0.26458333,0,0,0.26458333,60.062063,103.64002)" />
        <g
           id="g1291"
           transform="matrix(0.26458333,0,0,0.26458333,60.062063,103.64002)" />
      </g>
    </g>
    <g
       aria-label="STREAKS"
       id="text9993"
       style="font-size:183.117px;line-height:1.25;fill:#eaad13;stroke-width:4.57795">
      <path
         d="m 322.60777,115.15324 c 2.92987,0 4.57792,-1.64806 4.57792,-4.57793 v -1.28182 c 0,-17.762346 -9.52208,-27.467548 -27.46755,-27.467548 -17.94546,0 -27.46755,9.705202 -27.46755,27.467548 v 8.24027 c 0,14.83248 8.05715,22.88962 22.88963,22.88962 8.97273,0 14.10001,1.46494 13.73377,13.36755 -0.18311,5.85974 -3.11298,10.07143 -9.15585,10.07143 -6.04286,0 -9.15585,-3.29611 -9.15585,-9.15585 v -1.28182 c 0,-2.92987 -1.64805,-4.57792 -4.57792,-4.57792 h -9.15585 c -2.92987,0 -4.57793,1.64805 -4.57793,4.57792 v 1.28182 c 0,17.76235 9.52209,27.46755 27.46755,27.46755 17.94547,0 27.46755,-9.7052 27.46755,-27.46755 v -9.7052 c 0,-14.83248 -8.05714,-22.88963 -22.88962,-22.88963 -8.97273,0 -14.10001,-1.83117 -13.73378,-12.81819 0.18312,-5.85974 3.11299,-9.15585 9.15585,-9.15585 6.04287,0 9.15585,3.29611 9.15585,9.15585 v 1.28182 c 0,2.92987 1.64806,4.57793 4.57793,4.57793 z"
         style="font-family:Kalmansk;-inkscape-font-specification:'Kalmansk, Normal'"
         id="path31095" />
      <path
         d="m 391.27671,86.22075 c 0,-2.929872 -1.64805,-4.577925 -4.57792,-4.577925 h -50.35718 c -2.92987,0 -4.57792,1.648053 -4.57792,4.577925 v 9.155851 c 0,2.929872 1.64805,4.577925 4.57792,4.577925 h 11.53637 c 2.92988,0 4.57793,1.648054 4.57793,4.577924 v 73.2468 c 0,2.92987 1.64805,4.57793 4.57792,4.57793 h 9.15585 c 2.92988,0 4.57793,-1.64806 4.57793,-4.57793 v -73.2468 c 0,-2.92987 1.64805,-4.577924 4.57792,-4.577924 h 11.35326 c 2.92987,0 4.57792,-1.648053 4.57792,-4.577925 z"
         style="font-family:Kalmansk;-inkscape-font-specification:'Kalmansk, Normal'"
         id="path31097" />
      <path
         d="m 441.2678,145.18443 c -0.18312,-0.54936 0.18311,-0.91559 0.73247,-1.09871 5.67662,-2.74675 8.78961,-8.24026 8.78961,-16.48053 V 99.954526 c 0,-11.902606 -6.40909,-18.311701 -18.3117,-18.311701 h -32.04547 c -2.92988,0 -4.57793,1.648053 -4.57793,4.577925 v 91.5585 c 0,2.92987 1.64805,4.57793 4.57793,4.57793 h 9.15585 c 2.92987,0 4.57792,-1.64806 4.57792,-4.57793 v -27.28443 c 0,-2.92987 1.64805,-4.57793 4.57793,-4.57793 h 0.73246 c 2.74676,0 4.39481,1.28182 4.94416,4.02858 l 7.32468,28.38313 c 0.73247,2.74676 2.19741,4.02858 4.94416,4.02858 h 9.33897 c 3.29611,0 4.76104,-2.01429 3.84546,-5.12728 z m -13.36754,-44.86367 c 2.92987,0 4.57792,1.64805 4.57792,4.57792 v 17.94547 c 0,2.92987 -1.64805,4.57793 -4.57792,4.57793 h -9.15585 c -2.92988,0 -4.57793,-1.64806 -4.57793,-4.57793 v -17.94547 c 0,-2.92987 1.64805,-4.57792 4.57793,-4.57792 z"
         style="font-family:Kalmansk;-inkscape-font-specification:'Kalmansk, Normal'"
         id="path31099" />
      <path
         d="m 510.30298,99.954526 c 2.92987,0 4.57792,-1.648053 4.57792,-4.577925 V 86.22075 c 0,-2.929872 -1.64805,-4.577925 -4.57792,-4.577925 H 478.2575 c -11.90261,0 -18.3117,6.409095 -18.3117,18.311701 v 64.090954 c 0,11.9026 6.40909,18.3117 18.3117,18.3117 h 32.04548 c 2.92987,0 4.57792,-1.64806 4.57792,-4.57793 v -9.15585 c 0,-2.92987 -1.64805,-4.57792 -4.57792,-4.57792 h -27.46756 c -2.92987,0 -4.57792,-1.64806 -4.57792,-4.57793 v -9.15585 c 0,-2.92987 1.64805,-4.57792 4.57792,-4.57792 h 27.46756 c 2.92987,0 4.57792,-1.64806 4.57792,-4.57793 V 132 c 0,-2.92987 -1.64805,-4.57792 -4.57792,-4.57792 h -27.46756 c -2.92987,0 -4.57792,-1.64806 -4.57792,-4.57793 v -18.3117 c 0,-2.92987 1.64805,-4.577924 4.57792,-4.577924 z"
         style="font-family:Kalmansk;-inkscape-font-specification:'Kalmansk, Normal'"
         id="path31101" />
      <path
         d="m 542.34852,81.642825 c -11.90261,0 -18.3117,6.409095 -18.3117,18.311701 v 77.824724 c 0,2.92987 1.64805,4.57793 4.57792,4.57793 h 9.15585 c 2.92988,0 4.57793,-1.64806 4.57793,-4.57793 V 150.3117 c 0,-2.92987 1.64805,-4.57792 4.57792,-4.57792 h 9.15585 c 2.92988,0 4.57793,1.64805 4.57793,4.57792 v 27.46755 c 0,2.92987 1.64805,4.57793 4.57792,4.57793 h 9.15585 c 2.92988,0 4.57793,-1.64806 4.57793,-4.57793 V 99.954526 c 0,-11.902606 -6.4091,-18.311701 -18.3117,-18.311701 z m 13.73377,18.311701 c 2.92988,0 4.57793,1.648054 4.57793,4.577924 v 18.3117 c 0,2.92987 -1.64805,4.57793 -4.57793,4.57793 h -9.15585 c -2.92987,0 -4.57792,-1.64806 -4.57792,-4.57793 v -18.3117 c 0,-2.92987 1.64805,-4.577924 4.57792,-4.577924 z"
         style="font-family:Kalmansk;-inkscape-font-specification:'Kalmansk, Normal'"
         id="path31103" />
      <path
         d="m 642.51357,86.953218 c 1.46494,-3.112989 -0.18312,-5.310393 -3.66234,-5.310393 h -8.6065 c -2.56364,0 -4.21169,1.098702 -5.31039,3.479223 l -17.39612,37.538982 c -0.36623,0.91559 -1.0987,0.73247 -1.0987,-0.18311 V 86.22075 c 0,-2.929872 -1.64805,-4.577925 -4.57792,-4.577925 h -9.15585 c -2.92988,0 -4.57793,1.648053 -4.57793,4.577925 v 91.5585 c 0,2.92987 1.64805,4.57793 4.57793,4.57793 h 9.15585 c 2.92987,0 4.57792,-1.64806 4.57792,-4.57793 V 148.1143 c 0,-0.91559 0.54935,-1.0987 1.0987,-0.18312 l 17.213,31.12989 c 1.0987,2.19741 2.74676,3.29611 5.3104,3.29611 h 8.60649 c 3.47923,0 4.94416,-2.19741 3.29611,-5.49351 l -21.24157,-39.73639 c -0.18312,-0.54935 -0.36624,-0.73247 -0.18312,-1.0987 z"
         style="font-family:Kalmansk;-inkscape-font-specification:'Kalmansk, Normal'"
         id="path31105" />
      <path
         d="m 702.57603,115.15324 c 2.92987,0 4.57793,-1.64806 4.57793,-4.57793 v -1.28182 c 0,-17.762346 -9.52209,-27.467548 -27.46755,-27.467548 -17.94547,0 -27.46755,9.705202 -27.46755,27.467548 v 8.24027 c 0,14.83248 8.05714,22.88962 22.88962,22.88962 8.97273,0 14.10001,1.46494 13.73378,13.36755 -0.18312,5.85974 -3.11299,10.07143 -9.15585,10.07143 -6.04287,0 -9.15585,-3.29611 -9.15585,-9.15585 v -1.28182 c 0,-2.92987 -1.64806,-4.57792 -4.57793,-4.57792 h -9.15585 c -2.92987,0 -4.57792,1.64805 -4.57792,4.57792 v 1.28182 c 0,17.76235 9.52208,27.46755 27.46755,27.46755 17.94546,0 27.46755,-9.7052 27.46755,-27.46755 v -9.7052 c 0,-14.83248 -8.05715,-22.88963 -22.88963,-22.88963 -8.97273,0 -14.10001,-1.83117 -13.73377,-12.81819 0.18311,-5.85974 3.11298,-9.15585 9.15585,-9.15585 6.04286,0 9.15585,3.29611 9.15585,9.15585 v 1.28182 c 0,2.92987 1.64805,4.57793 4.57792,4.57793 z"
         style="font-family:Kalmansk;-inkscape-font-specification:'Kalmansk, Normal'"
         id="path31107" />
    </g>
  </g>
</svg>
