<?xml version="1.0" encoding="UTF-8" standalone="no"?>
<!-- Created with Inkscape (http://www.inkscape.org/) -->

<svg
   width="53mm"
   height="17mm"
   viewBox="0 0 53 17"
   version="1.1"
   id="svg62635"
   xmlns="http://www.w3.org/2000/svg"
   xmlns:svg="http://www.w3.org/2000/svg">
  <defs
     id="defs62632" />
  <g
     id="layer1">
    <g
       id="g117012"
       transform="translate(-29.407837,-140.52916)">
      <g
         id="g9434"
         transform="translate(-1.0583337)">
        <path
           d="m 66.047089,149.5727 c 0,1.81533 -1.463475,3.27881 -3.263506,3.27881 -1.80003,0 -3.263514,-1.46399 -3.263514,-3.2635 0,-0.99725 0.472868,-1.81534 0.927557,-2.27936 0.254448,-0.28216 0.704205,-0.10369 0.704205,0.26516 v 1.45328 c 0,0.5978 0.475413,1.09633 1.073557,1.10382 0.607486,0.01 1.102107,-0.48172 1.102107,-1.08682 0,-1.49578 -2.97625,-1.6338 -0.88641,-4.7117 0.229465,-0.33519 0.750434,-0.18306 0.750434,0.22148 -0.01526,1.75362 2.85557,2.13947 2.85557,5.01883 z"
           id="path62727"
           style="fill:#ff9c13;fill-opacity:1;stroke-width:0.0169974" />
        <g
           aria-label="{"
           id="text64805"
           style="font-size:19.0608px;line-height:1.25;fill:#425d64;fill-opacity:1;stroke-width:0.47652"
           transform="translate(1.0583333)">
          <path
             d="m 35.788957,157.33967 q -1.753594,-0.0191 -2.763816,-0.76243 -1.010223,-0.74337 -1.010223,-2.26824 v -2.80193 q 0,-0.97211 -0.609945,-1.37238 -0.590885,-0.41934 -1.715472,-0.41934 v -1.39144 q 1.124587,-0.0191 1.715472,-0.41934 0.609945,-0.40027 0.609945,-1.35331 v -2.821 q 0,-1.52487 1.048344,-2.26824 1.048344,-0.74337 2.725695,-0.74337 v 1.37238 q -0.991162,0.0191 -1.562986,0.4384 -0.552763,0.41934 -0.552763,1.35332 v 2.74475 q 0,1.96326 -2.077627,2.32542 v 0.11436 q 2.077627,0.36216 2.077627,2.32542 v 2.80194 q 0,0.93398 0.552763,1.33425 0.552763,0.41934 1.562986,0.4384 z"
             style="font-family:monospace;-inkscape-font-specification:monospace;fill:#425d64;fill-opacity:1"
             id="path115943" />
        </g>
        <g
           aria-label="}"
           id="text65469"
           style="font-size:19.0611px;line-height:1.25;fill:#425d64;fill-opacity:1;stroke-width:0.476527"
           transform="translate(0.70072603,0.52916667)">
          <path
             d="m 76.384229,140.18936 q 1.753622,0.0191 2.76386,0.76244 1.010238,0.74338 1.010238,2.26827 v 2.80198 q 0,0.97212 0.590894,1.39146 0.609955,0.40029 1.73456,0.40029 v 1.39146 q -1.124605,0.0191 -1.73456,0.41934 -0.590894,0.40028 -0.590894,1.35334 v 2.82104 q 0,1.52489 -1.04836,2.26827 -1.048361,0.74338 -2.725738,0.74338 v -1.37239 q 0.991178,-0.0191 1.543949,-0.43841 0.571833,-0.41934 0.571833,-1.35334 v -2.7448 q 0,-1.96329 2.07766,-2.32545 v -0.11437 q -2.07766,-0.36216 -2.07766,-2.32545 v -2.80198 q 0,-0.934 -0.552771,-1.33428 -0.552772,-0.41934 -1.563011,-0.43841 z"
             style="font-family:monospace;-inkscape-font-specification:monospace;fill:#425d64;fill-opacity:1"
             id="path115329" />
        </g>
        <path
           d="m 38.815122,152.14595 q -0.529165,0 -1.015997,-0.0952 -0.476249,-0.0952 -0.825498,-0.26458 v -0.87842 q 0.370416,0.16934 0.814915,0.3175 0.455081,0.13758 1.079496,0.13758 0.698498,0 0.984247,-0.21166 0.296332,-0.22225 0.296332,-0.635 0,-0.22225 -0.105833,-0.35983 -0.09525,-0.14817 -0.380998,-0.29633 -0.28575,-0.14817 -0.836081,-0.381 -0.550332,-0.24342 -0.941914,-0.45509 -0.391582,-0.21166 -0.603248,-0.49741 -0.211666,-0.29633 -0.211666,-0.75141 0,-0.75142 0.571498,-1.13242 0.582082,-0.381 1.608662,-0.381 0.465665,0 0.888997,0.0847 0.423332,0.0847 0.878414,0.27517 l -0.285749,0.74083 q -0.423332,-0.17992 -0.783164,-0.24342 -0.349249,-0.0635 -0.698498,-0.0635 -0.656165,0 -0.96308,0.16933 -0.296333,0.16934 -0.296333,0.52917 0,0.23283 0.127,0.39158 0.137583,0.15875 0.433915,0.30692 0.306916,0.14816 0.804331,0.35983 0.560915,0.23283 0.952497,0.43391 0.391582,0.20109 0.592665,0.48684 0.201082,0.27516 0.201082,0.76199 0,0.80433 -0.582081,1.22767 -0.571498,0.42333 -1.703911,0.42333 z"
           style="font-size:10.5833px;line-height:1.25;font-family:monospace;-inkscape-font-specification:monospace;fill:#425d64;fill-opacity:1;stroke-width:0.264583"
           id="path115946" />
        <path
           d="m 74.836672,152.14595 q -0.529165,0 -1.015997,-0.0952 -0.476249,-0.0952 -0.825498,-0.26458 v -0.87842 q 0.370416,0.16934 0.814915,0.3175 0.455081,0.13758 1.079496,0.13758 0.698498,0 0.984247,-0.21166 0.296332,-0.22225 0.296332,-0.635 0,-0.22225 -0.105833,-0.35983 -0.09525,-0.14817 -0.380998,-0.29633 -0.28575,-0.14817 -0.836081,-0.381 -0.550332,-0.24342 -0.941914,-0.45509 -0.391582,-0.21166 -0.603248,-0.49741 -0.211666,-0.29633 -0.211666,-0.75141 0,-0.75142 0.571498,-1.13242 0.582082,-0.381 1.608662,-0.381 0.465665,0 0.888997,0.0847 0.423332,0.0847 0.878414,0.27517 l -0.285749,0.74083 q -0.423332,-0.17992 -0.783164,-0.24342 -0.349249,-0.0635 -0.698498,-0.0635 -0.656165,0 -0.96308,0.16933 -0.296333,0.16934 -0.296333,0.52917 0,0.23283 0.127,0.39158 0.137583,0.15875 0.433915,0.30692 0.306916,0.14816 0.804331,0.35983 0.560915,0.23283 0.952497,0.43391 0.391582,0.20109 0.592665,0.48684 0.201082,0.27516 0.201082,0.76199 0,0.80433 -0.582081,1.22767 -0.571498,0.42333 -1.703911,0.42333 z"
           style="font-size:10.5833px;line-height:1.25;font-family:monospace;-inkscape-font-specification:monospace;fill:#425d64;fill-opacity:1;stroke-width:0.264583"
           id="path115946-3" />
        <path
           d="m 45.408517,152.14603 q -0.603248,0 -1.079496,-0.15875 -0.476249,-0.15875 -0.761998,-0.56092 -0.275166,-0.40216 -0.275166,-1.11124 v -3.15383 h -1.545162 v -0.65616 l 1.545162,-0.16933 0.1905,-1.48167 h 0.761997 v 1.51342 h 2.21191 v 0.79374 h -2.21191 v 2.97391 q 0,0.64558 0.285749,0.94192 0.285749,0.29633 0.941914,0.29633 0.275166,0 0.592665,-0.0529 0.317499,-0.0529 0.550331,-0.10583 v 0.762 q -0.253999,0.0635 -0.560915,0.11641 -0.306915,0.0529 -0.645581,0.0529 z"
           style="font-size:10.5833px;line-height:1.25;font-family:monospace;-inkscape-font-specification:monospace;fill:#425d64;fill-opacity:1;stroke-width:0.264583"
           id="path115948" />
        <path
           d="m 47.159059,152.14603 v -0.635 l 1.725078,-0.15875 v -4.08516 l -1.555745,-0.13758 v -0.65616 h 2.317742 l 0.127,1.03716 h 0.04233 q 0.296333,-0.56091 0.645581,-0.84666 0.359833,-0.29634 0.941914,-0.29634 0.359832,0 0.634998,0.0635 0.285749,0.0635 0.518582,0.16934 l -0.253999,0.83608 q -0.169333,-0.0952 -0.402166,-0.15875 -0.232832,-0.0741 -0.497415,-0.0741 -0.455082,0 -0.804331,0.28575 -0.349249,0.28575 -0.550331,0.762 -0.201083,0.47625 -0.201083,1.04775 v 2.05316 l 1.650995,0.15875 v 0.635 z"
           style="font-size:10.5833px;line-height:1.25;font-family:monospace;-inkscape-font-specification:monospace;fill:#425d64;fill-opacity:1;stroke-width:0.264583"
           id="path115950" />
        <path
           d="m 55.83307,152.14603 q -1.365246,0 -2.14841,-0.75142 -0.783164,-0.76199 -0.783164,-2.16957 0,-0.93133 0.338665,-1.5875 0.338666,-0.66675 0.941914,-1.01599 0.603248,-0.35984 1.407579,-0.35984 1.111246,0 1.746244,0.71967 0.645581,0.71966 0.645581,1.96849 v 0.43392 h -4.116903 q 0.02117,0.74083 0.275166,1.17474 0.264582,0.43392 0.709081,0.62442 0.455082,0.17991 1.047746,0.17991 0.465665,0 0.920747,-0.127 0.455082,-0.127 0.910164,-0.33866 v 0.84666 q -0.486832,0.21167 -0.973663,0.30692 -0.486832,0.0952 -0.920747,0.0952 z m 1.195912,-3.52424 q -0.03175,-0.74083 -0.402165,-1.16416 -0.359832,-0.42334 -1.037163,-0.42334 -0.709081,0 -1.15358,0.43392 -0.433915,0.42333 -0.550332,1.15358 z"
           style="font-size:10.5833px;line-height:1.25;font-family:monospace;-inkscape-font-specification:monospace;fill:#425d64;fill-opacity:1;stroke-width:0.264583"
           id="path115952" />
        <g
           aria-label="k"
           id="text69887"
           style="font-size:10.5833px;line-height:1.25;fill:#425d64;fill-opacity:1;stroke-width:0.264583"
           transform="translate(-3.0592676,-0.37562)">
          <path
             d="m 70.310778,152.52165 v -8.04331 h 0.952497 v 3.87349 q 0,0.32808 -0.03175,0.78317 -0.02117,0.44449 -0.04233,0.81491 h 0.02117 q 0.201083,-0.26458 0.380999,-0.47625 0.1905,-0.22225 0.391582,-0.45508 L 73.94085,146.849 h 1.142996 l -2.254243,2.44475 2.402409,3.2279 h -1.100663 l -1.936744,-2.66699 -0.93133,0.89958 v 1.76741 z"
             style="font-family:monospace;-inkscape-font-specification:monospace;fill:#425d64;fill-opacity:1"
             id="path115955" />
        </g>
      </g>
    </g>
  </g>
</svg>
