<?xml version="1.0" standalone="no"?>
<!DOCTYPE svg PUBLIC "-//W3C//DTD SVG 1.1//EN" "http://www.w3.org/Graphics/SVG/1.1/DTD/svg11.dtd" >
<svg xmlns="http://www.w3.org/2000/svg" xmlns:xlink="http://www.w3.org/1999/xlink" version="1.1">
<metadata>
Created by FontForge 20170731 at Thu Sep  2 01:27:10 2021
 By Aleksey,,,
Copyright 2014-2020 The Fira Code Project Authors (https://github.com/tonsky/FiraCode)
</metadata>
<defs>
<font id="FiraCode-Medium" horiz-adv-x="1200" >
  <font-face 
    font-family="Fira Code Medium"
    font-weight="500"
    font-stretch="normal"
    units-per-em="2000"
    panose-1="2 11 8 9 5 0 0 2 0 4"
    ascent="1600"
    descent="-400"
    x-height="1056"
    cap-height="1380"
    bbox="-3573 -1000 2384 2400"
    underline-thickness="50"
    underline-position="-175"
    unicode-range="U+000D-1F310"
  />
<missing-glyph 
d="M80 1478h1040v-1582h-1040v1582zM1012 0v1374h-822v-1374h822zM614 516q0 -22 -16 -35t-34 -13q-19 0 -34.5 13t-15.5 35v168q108 6 145 40.5t37 113.5q0 59 -23.5 98.5t-98.5 39.5q-31 0 -54.5 -5.5t-49.5 -16.5q-15 -6 -26 -6q-22 0 -35 13.5t-13 32.5q0 27 30.5 44.5
t73.5 25.5t82 8q86 0 134.5 -32.5t68 -85t19.5 -112.5q0 -105 -44.5 -163t-145.5 -73v-90zM494 340q0 30 20 50t50 20t50 -20t20 -50q0 -31 -20 -52.5t-50 -21.5t-50 21.5t-20 52.5z" />
    <glyph glyph-name=".notdef" 
d="M80 1478h1040v-1582h-1040v1582zM1012 0v1374h-822v-1374h822zM614 516q0 -22 -16 -35t-34 -13q-19 0 -34.5 13t-15.5 35v168q108 6 145 40.5t37 113.5q0 59 -23.5 98.5t-98.5 39.5q-31 0 -54.5 -5.5t-49.5 -16.5q-15 -6 -26 -6q-22 0 -35 13.5t-13 32.5q0 27 30.5 44.5
t73.5 25.5t82 8q86 0 134.5 -32.5t68 -85t19.5 -112.5q0 -105 -44.5 -163t-145.5 -73v-90zM494 340q0 30 20 50t50 20t50 -20t20 -50q0 -31 -20 -52.5t-50 -21.5t-50 21.5t-20 52.5z" />
    <glyph glyph-name=".null" horiz-adv-x="0" 
 />
    <glyph glyph-name="nonmarkingreturn" horiz-adv-x="666" 
 />
    <glyph glyph-name="CR" unicode="&#xd;" 
 />
    <glyph glyph-name="space" unicode=" " 
 />
    <glyph glyph-name="exclam" unicode="!" 
d="M719 1380l-26 -905h-190l-28 905h244zM599 276q65 0 108.5 -44.5t43.5 -106.5q0 -63 -43.5 -107.5t-108.5 -44.5q-63 0 -107 44.5t-44 107.5q0 62 44 106.5t107 44.5z" />
    <glyph glyph-name="quotedbl" unicode="&#x22;" 
d="M335 945l-34 535h244l-33 -535h-177zM688 945l-34 535h245l-34 -535h-177z" />
    <glyph glyph-name="numbersign" unicode="#" 
d="M942 905l-56 -425h148v-160h-170l-41 -320h-188l42 320h-253l-42 -320h-188l42 320h-143v160h164l58 425h-148v161h169l41 314h189l-44 -314h254l42 314h188l-43 -314h145v-161h-166zM445 480h253l57 425h-254z" />
    <glyph glyph-name="dollar" unicode="$" 
d="M694 1702v-299q121 -11 216 -55.5t161 -103.5l-122 -127q-56 50 -120.5 79.5t-134.5 36.5v-415q113 -38 202.5 -91t142 -134.5t52.5 -202.5q0 -101 -45 -188t-133.5 -145.5t-218.5 -75.5v-294h-145v288q-144 10 -253 66t-179 123l120 135q65 -61 141 -101t171 -47v501
q-191 64 -285.5 157.5t-94.5 233.5q0 91 43.5 168t128.5 128.5t208 63.5v299h145zM694 599v-440q173 36 173 215q0 75 -37 128.5t-136 96.5zM549 1230q-74 -13 -118 -57t-44 -114q0 -62 32 -105.5t130 -85.5v362z" />
    <glyph glyph-name="percent" unicode="%" 
d="M949 1421l131 -70l-847 -1398l-129 70zM885 492q-55 0 -86 -46t-31 -139q0 -88 31 -137.5t86 -49.5q56 0 86.5 46.5t30.5 140.5q0 97 -30.5 141t-86.5 44zM317 1274q-55 0 -86 -46.5t-31 -137.5q0 -88 31 -137.5t86 -49.5q56 0 86.5 46t30.5 141q0 97 -30.5 140.5
t-86.5 43.5zM317 1408q92 0 156.5 -42.5t99 -114.5t34.5 -161t-34.5 -161.5t-99 -115t-156.5 -42.5q-91 0 -156.5 42.5t-100 115t-34.5 161.5q0 88 34.5 160t100 115t156.5 43zM885 625q92 0 156.5 -42.5t99 -114.5t34.5 -161t-34.5 -161t-99 -115t-156.5 -43
q-91 0 -156.5 43t-100 115t-34.5 161q0 88 34.5 160.5t100 115t156.5 42.5z" />
    <glyph glyph-name="ampersand" unicode="&#x26;" 
d="M558 1406q102 0 187 -31.5t168 -120.5l-127 -113q-49 54 -97.5 79.5t-117.5 25.5q-93 0 -140 -51.5t-47 -134.5q0 -57 29 -105.5t79.5 -77t114.5 -28.5h543v-159h-161v-536q-34 -40 -90.5 -82t-141 -70.5t-201.5 -28.5q-156 0 -258.5 59t-152.5 154.5t-50 205.5
q0 159 81.5 255t228.5 128v7q-86 21 -138.5 63.5t-76.5 101.5t-24 128q0 91 49 166t137 120t206 45zM784 690h-199q-95 0 -154.5 -43t-88 -109t-28.5 -134q0 -70 27 -129t82.5 -95t142.5 -36q71 0 127 23t91 64v459z" />
    <glyph glyph-name="quotesingle" unicode="'" 
d="M511 945l-33 535h244l-34 -535h-177z" />
    <glyph glyph-name="parenleft" unicode="(" 
d="M462 700q0 -144 23.5 -260.5t73.5 -217t127.5 -196.5t184.5 -199l-124 -120q-161 134 -276.5 277.5t-177.5 317.5t-62 398q0 225 62 399t177.5 317.5t276.5 276.5l124 -120q-105 -101 -182.5 -196.5t-128 -196.5t-74.5 -218t-24 -262z" />
    <glyph glyph-name="parenright" unicode=")" 
d="M738 700q0 145 -24 262t-74.5 218t-128 196.5t-182.5 196.5l124 120q161 -133 276.5 -276.5t177.5 -317.5t62 -399q0 -224 -62 -398t-177.5 -317.5t-276.5 -277.5l-124 120q107 103 184.5 199t127.5 196.5t73.5 217t23.5 260.5z" />
    <glyph glyph-name="asterisk" unicode="*" 
d="M490 1168l25 -395l-367 144l-67 -206l382 -99l-251 -306l175 -126l213 332l213 -332l175 126l-251 306l382 99l-67 206l-367 -144l25 395h-220z" />
    <glyph glyph-name="plus" unicode="+" 
d="M697 1116v-403h397v-180h-397v-402h-197v402h-394v180h394v403h197z" />
    <glyph glyph-name="comma" unicode="," 
d="M600 360q79 0 131 -52.5t52 -128.5q0 -45 -13.5 -90.5t-43.5 -111.5l-155 -354h-174l98 406q-36 25 -56 64.5t-20 86.5q0 75 52 127.5t129 52.5z" />
    <glyph glyph-name="hyphen" unicode="-" 
d="M187 534v184h826v-184h-826z" />
    <glyph glyph-name="period" unicode="." 
d="M406 167q0 54 25.5 97.5t69.5 69.5t98 26q55 0 99 -26t69.5 -69.5t25.5 -97.5q0 -53 -25.5 -97.5t-69.5 -70.5t-99 -26q-54 0 -98 26t-69.5 70.5t-25.5 97.5z" />
    <glyph glyph-name="slash" unicode="/" 
d="M265 -213l-178 80l850 1757l176 -83z" />
    <glyph glyph-name="zero" unicode="0" 
d="M600 1408q232 0 351 -187t119 -529q0 -343 -119 -531t-351 -188q-233 0 -351.5 188t-118.5 531q0 342 118.5 529t351.5 187zM600 1237q-119 0 -183 -126.5t-64 -418.5q0 -156 13.5 -261.5t43 -168.5t76.5 -90.5t114 -27.5q80 0 135 54.5t83.5 175.5t28.5 318
q0 205 -24.5 324.5t-78.5 170t-144 50.5zM786 1190l58 -157l-412 -841l-74 127z" />
    <glyph glyph-name="one" unicode="1" 
d="M784 1380v-1340h-222v1110l-304 -187l-96 157l424 260h198zM1060 176v-176h-835v176h835z" />
    <glyph glyph-name="two" unicode="2" 
d="M544 1408q141 0 238.5 -52.5t149 -140.5t51.5 -197q0 -90 -31.5 -177t-101 -182.5t-183.5 -212t-279 -266.5h627l-26 -180h-858v170q149 142 255 250.5t177 191t112 149t58.5 125t17.5 118.5q0 104 -59 164t-164 60q-94 0 -156 -34t-123 -110l-146 111q81 103 186 158
t255 55z" />
    <glyph glyph-name="three" unicode="3" 
d="M540 1408q137 0 236 -48t152 -127t53 -174q0 -85 -36 -152t-98 -111t-140 -62q87 -9 159 -48t115.5 -111t43.5 -181q0 -118 -61.5 -213.5t-174 -151.5t-264.5 -56q-130 0 -247.5 48t-199.5 145l137 120q59 -69 138 -102t162 -33q128 0 203 66.5t75 184.5
q0 90 -33.5 142.5t-93.5 75.5t-139 23h-119l26 165h84q65 0 120 23.5t88.5 72.5t33.5 122q0 101 -68.5 155t-169.5 54q-86 0 -153.5 -31.5t-132.5 -92.5l-119 127q91 87 197 128.5t226 41.5z" />
    <glyph glyph-name="four" unicode="4" 
d="M520 1408l189 -75l-352 -841h719v-174h-953v156zM912 861v-861h-215l-2 460l29 401h188z" />
    <glyph glyph-name="five" unicode="5" 
d="M995 1380l-29 -168h-530v-384q59 31 114.5 42.5t111.5 11.5q110 0 196 -52t135.5 -150t49.5 -237q0 -138 -61.5 -244.5t-172.5 -166t-261 -59.5q-135 0 -239.5 48.5t-183.5 132.5l134 126q58 -64 127.5 -96.5t152.5 -32.5q126 0 198.5 76.5t72.5 216.5q0 102 -29.5 161.5
t-80.5 85.5t-115 26q-52 0 -97.5 -11t-100.5 -35h-165v709h773z" />
    <glyph glyph-name="six" unicode="6" 
d="M682 1408q85 0 155.5 -22.5t128.5 -61.5l-87 -144q-44 29 -94 43.5t-102 14.5q-99 0 -170.5 -65t-109.5 -185t-38 -286l2 -77q0 -247 56.5 -364.5t193.5 -117.5q115 0 171.5 86.5t56.5 226.5q0 107 -26 169t-73 89t-111 27q-91 0 -165 -53t-122 -140l-4 168
q67 102 153 147.5t185 45.5q107 0 195.5 -49.5t141.5 -148t53 -245.5t-59.5 -258t-162.5 -173t-234 -62q-130 0 -221.5 49t-148.5 139t-83.5 212.5t-26.5 268.5q0 231 65.5 403t187.5 267.5t293 95.5z" />
    <glyph glyph-name="seven" unicode="7" 
d="M486 -24l-211 65l529 1163h-632v176h859v-161z" />
    <glyph glyph-name="eight" unicode="8" 
d="M1031 1051q0 -99 -58 -171.5t-172 -135.5q137 -60 211 -154.5t74 -217.5q0 -111 -58 -201.5t-167.5 -144t-265.5 -53.5q-155 0 -263 53t-163 142.5t-55 198.5q0 124 73 211.5t195 142.5q-108 58 -160.5 130.5t-52.5 187.5q0 93 37 161.5t99 115t139 69.5t157 23
q85 0 162 -22.5t137.5 -67t95.5 -111.5t35 -156zM857 371q0 84 -39.5 134t-113.5 84t-177 70q-50 -26 -92 -64.5t-67 -92.5t-25 -128q0 -106 64 -168.5t191 -62.5q128 0 193.5 66t65.5 162zM386 1038q0 -68 31 -110t90 -70.5t143 -57.5q85 53 124.5 106.5t39.5 133.5
q0 93 -55 149t-158 56q-102 0 -158.5 -54t-56.5 -153z" />
    <glyph glyph-name="nine" unicode="9" 
d="M584 1406q157 0 262 -69t157.5 -194.5t52.5 -295.5q0 -205 -45.5 -352.5t-140 -250.5t-241 -173t-349.5 -120l-49 164q189 51 316 122.5t195.5 179t79.5 262.5l2 100q1 163 -22 264t-76 147t-143 46q-115 0 -177 -75t-62 -225q0 -146 60.5 -210t160.5 -64q90 0 158 47.5
t131 130.5l-2 -159q-66 -83 -148.5 -134.5t-194.5 -51.5q-113 0 -202 53.5t-140 153t-51 234.5q0 149 62.5 254t168.5 160.5t237 55.5z" />
    <glyph glyph-name="colon" unicode=":" 
d="M419 154q0 73 52 125.5t128 52.5q77 0 128.5 -52.5t51.5 -125.5q0 -75 -51.5 -128t-128.5 -53q-76 0 -128 53t-52 128zM419 864q0 49 24 90t65 65t91 24q77 0 128.5 -52.5t51.5 -126.5t-51.5 -127.5t-128.5 -53.5q-76 0 -128 53.5t-52 127.5z" />
    <glyph glyph-name="semicolon" unicode=";" 
d="M599 355q77 0 128.5 -52t51.5 -127q0 -43 -13.5 -88.5t-42.5 -110.5l-153 -350h-172l96 401q-75 52 -75 149q0 75 52 126.5t128 51.5zM599 1043q77 0 128.5 -52.5t51.5 -126.5t-51.5 -127.5t-128.5 -53.5q-76 0 -128 53.5t-52 127.5q0 49 24 90t65 65t91 24z" />
    <glyph glyph-name="less" unicode="&#x3c;" 
d="M936 1202l103 -162l-684 -413l684 -413l-110 -161l-767 478v192z" />
    <glyph glyph-name="equal" unicode="=" 
d="M1014 911v-183h-828v183h828zM1014 516v-183h-828v183h828z" />
    <glyph glyph-name="greater" unicode="&#x3e;" 
d="M266 1202l773 -478v-193l-767 -478l-110 158l685 416l-685 410z" />
    <glyph glyph-name="question" unicode="?" 
d="M596 1408q135 0 228.5 -45.5t142.5 -118t49 -155.5q0 -96 -37 -157t-91 -102.5t-108.5 -80t-91.5 -88t-37 -127.5v-59h-214v69q0 99 34.5 163.5t86.5 108.5t103.5 79.5t86 76.5t34.5 100q0 75 -59 114.5t-148 39.5q-70 0 -141 -33t-130 -104l-150 114q87 102 197.5 153.5
t244.5 51.5zM548 276q65 0 109 -44.5t44 -106.5q0 -63 -44 -107.5t-109 -44.5q-63 0 -106.5 44.5t-43.5 107.5q0 62 43.5 106.5t106.5 44.5z" />
    <glyph glyph-name="at" unicode="@" 
d="M570 1408q150 0 256 -43.5t175.5 -121t108.5 -182.5t55 -228t16 -255q0 -252 -24 -421.5t-89.5 -255t-188.5 -85.5q-60 0 -104.5 27t-73 69.5t-43 92t-16.5 93.5h-8q-20 -48 -55 -92t-89 -72t-132 -28q-112 0 -180 59.5t-99 163.5t-31 235q0 255 104 389.5t301 134.5
q74 0 146.5 -17.5t156.5 -62.5v-594q0 -95 15 -147t41.5 -72t60.5 -20q40 0 62.5 41t32.5 118.5t12 187.5t2 248q0 148 -16.5 271.5t-61 213.5t-126.5 139t-213 49q-101 0 -212.5 -38t-234.5 -146l-108 125q136 118 275.5 171t284.5 53zM456 736q-115 0 -157 -89.5
t-42 -282.5q0 -96 12 -164t42 -104t81 -36q61 0 95 28t51 66.5t26 67.5v488q-27 14 -52 20t-56 6z" />
    <glyph glyph-name="A" unicode="A" 
d="M842 332h-493l-96 -332h-236l439 1380h288l440 -1380h-246zM397 511h396l-197 689z" />
    <glyph glyph-name="B" unicode="B" 
d="M861 399q0 93 -36 144t-97 71.5t-137 20.5h-197v-455h187q50 0 99.5 8.5t90.5 32t65.5 66.5t24.5 112zM808 1012q0 104 -65 149t-183 45h-166v-399h180q116 0 175 48.5t59 156.5zM1103 398q0 -115 -45 -192.5t-121.5 -122.5t-172.5 -64t-198 -19h-404v1380h377
q97 0 187 -16.5t161.5 -56.5t113.5 -107.5t42 -168.5q0 -87 -36 -148t-94.5 -98.5t-124.5 -53.5q75 -12 147.5 -46.5t120 -103.5t47.5 -183z" />
    <glyph glyph-name="C" unicode="C" 
d="M716 1408q140 0 236.5 -36.5t179.5 -104.5l-121 -144q-62 52 -133 77t-151 25q-103 0 -190 -52t-139.5 -169t-52.5 -312q0 -191 50 -308t137 -170t195 -53q111 0 184 36.5t129 82.5l112 -143q-69 -67 -175 -115.5t-258 -48.5q-175 0 -314.5 82.5t-220 242.5t-80.5 394
q0 232 83 391.5t222 242t307 82.5z" />
    <glyph glyph-name="D" unicode="D" 
d="M878 697q0 165 -32.5 265t-87 152t-121 70t-135.5 18h-127v-1026h128q72 0 139 23t120.5 80t84.5 158.5t31 259.5zM1122 697q0 -171 -36.5 -292t-100 -200.5t-146 -124t-174.5 -62.5t-184 -18h-338v1380h315q126 0 244.5 -27t213 -100t150.5 -207t56 -349z" />
    <glyph glyph-name="E" unicode="E" 
d="M458 1204v-415h500v-176h-500v-437h609v-176h-841v1380h830l-26 -176h-572z" />
    <glyph glyph-name="F" unicode="F" 
d="M486 1204v-439h519v-176h-519v-589h-232v1380h849l-26 -176h-591z" />
    <glyph glyph-name="G" unicode="G" 
d="M636 -27q-176 0 -302 80.5t-193 240.5t-67 398q0 177 48 311t132 224t192.5 135.5t229.5 45.5q141 0 235.5 -42t175.5 -117l-130 -135q-63 58 -128.5 85.5t-146.5 27.5q-73 0 -138.5 -28.5t-116.5 -91t-80.5 -165t-29.5 -251.5q0 -192 37 -310.5t110.5 -172.5t182.5 -54
q63 0 120 15t108 43v380h-234l-25 177h484v-669q-98 -55 -208.5 -91t-255.5 -36z" />
    <glyph glyph-name="H" unicode="H" 
d="M825 0v627h-450v-627h-232v1380h232v-562h450v562h232v-1380h-232z" />
    <glyph glyph-name="I" unicode="I" 
d="M1015 1380v-177h-298v-1025h298v-178h-830v178h298v1025h-298v177h830z" />
    <glyph glyph-name="J" unicode="J" 
d="M1016 1380v-907q0 -99 -28 -189t-88.5 -159.5t-156 -110t-230.5 -40.5q-114 0 -211 33t-182 94l95 148q82 -54 151.5 -73t137.5 -19q130 0 205.5 83t75.5 238v724h-415v178h646z" />
    <glyph glyph-name="K" unicode="K" 
d="M407 0h-232v1380h232v-1380zM417 737l480 643h255l-483 -627l521 -753h-278z" />
    <glyph glyph-name="L" unicode="L" 
d="M239 0v1380h232v-1186h618l-25 -194h-825z" />
    <glyph glyph-name="M" unicode="M" 
d="M1071 1380l78 -1380h-212l-33 672q-3 76 -4.5 147t-1.5 136t1.5 120.5t3.5 100.5l-203 -933h-202l-218 933q3 -43 5 -100.5t3 -123.5t0.5 -138t-2.5 -144l-27 -670h-208l78 1380h278l197 -925l188 925h279z" />
    <glyph glyph-name="N" unicode="N" 
d="M755 0l-439 1174q3 -31 8.5 -88t11 -132t9.5 -159t4 -168v-627h-206v1380h301l440 -1175q-5 42 -12.5 123.5t-14 190t-6.5 232.5v629h206v-1380h-302z" />
    <glyph glyph-name="O" unicode="O" 
d="M1125 690q0 -213 -59 -374.5t-176 -252t-290 -90.5q-172 0 -289.5 88.5t-176.5 249t-59 377.5q0 214 59 375.5t176.5 253t289.5 91.5q173 0 290 -89t176 -250.5t59 -378.5zM885 690q0 268 -66.5 402.5t-218.5 134.5t-218.5 -135.5t-66.5 -403.5q0 -267 68 -400.5
t217 -133.5q154 0 219.5 134.5t65.5 401.5z" />
    <glyph glyph-name="P" unicode="P" 
d="M885 945q0 95 -36.5 152t-103 83t-156.5 26h-166v-537h169q87 0 153 26t103 86t37 164zM1129 947q0 -161 -68.5 -261t-190.5 -147t-280 -47h-167v-492h-232v1380h383q260 0 407.5 -106.5t147.5 -326.5z" />
    <glyph glyph-name="Q" unicode="Q" 
d="M1123 690q0 -143 -27 -264t-90 -213.5t-171 -149.5q102 -19 174 -56t122 -103t85 -171l-215 -79q-42 105 -94 177.5t-129.5 109.5t-197.5 37q-164 0 -275 87t-167.5 246.5t-56.5 376.5q0 214 58 375.5t174 253t289 91.5t288.5 -89t174 -250.5t58.5 -378.5zM882 690
q0 267 -63.5 401.5t-216.5 134.5t-216.5 -135t-63.5 -403q0 -267 65.5 -400.5t214.5 -133.5q153 0 216.5 134.5t63.5 401.5z" />
    <glyph glyph-name="R" unicode="R" 
d="M1093 981q0 -102 -41.5 -177.5t-113 -125.5t-159.5 -77l391 -601h-270l-347 568h-151v-568h-232v1380h385q266 0 402 -99.5t136 -299.5zM850 981q0 120 -69.5 173.5t-212.5 53.5h-166v-470h171q133 0 205 56.5t72 186.5z" />
    <glyph glyph-name="S" unicode="S" 
d="M1097 390q0 -122 -62.5 -216.5t-180 -147.5t-283.5 -53q-168 0 -294.5 50.5t-213.5 134.5l127 142q74 -67 167 -105.5t213 -38.5q78 0 143 24.5t104 74t39 124.5q0 61 -25 103t-86.5 76t-171.5 66q-146 44 -245 98t-149.5 129.5t-50.5 183.5q0 112 61.5 196t169 130.5
t243.5 46.5q150 0 262 -43t200 -123l-122 -138q-73 64 -156.5 93t-169.5 29q-70 0 -127 -20t-90 -59t-33 -99q0 -53 29.5 -91t100 -70.5t193.5 -69.5q116 -34 208.5 -84t146 -131t53.5 -212z" />
    <glyph glyph-name="T" unicode="T" 
d="M713 1193v-1193h-232v1193h-414v187h1070l-24 -187h-400z" />
    <glyph glyph-name="U" unicode="U" 
d="M1078 1380v-927q0 -141 -56.5 -249t-164 -169.5t-258.5 -61.5q-154 0 -260 60.5t-161.5 169t-55.5 250.5v927h232v-885q0 -168 58 -252.5t187 -84.5t187.5 84.5t58.5 252.5v885h233z" />
    <glyph glyph-name="V" unicode="V" 
d="M605 220l330 1160h235l-437 -1380h-266l-437 1380h248z" />
    <glyph glyph-name="W" unicode="W" 
d="M1196 1380l-191 -1380h-271l-136 1021l-141 -1021h-277l-176 1380h224l109 -1156l146 996h239l138 -996l129 1156h207z" />
    <glyph glyph-name="X" unicode="X" 
d="M76 1380h257l267 -497l270 497h247l-382 -634l424 -746h-257l-306 587l-307 -587h-248l418 735z" />
    <glyph glyph-name="Y" unicode="Y" 
d="M717 527v-527h-234v525l-460 855h255l327 -654l329 654h243z" />
    <glyph glyph-name="Z" unicode="Z" 
d="M383 192h698l-26 -192h-937v180l702 1012h-630v188h886v-182z" />
    <glyph glyph-name="bracketleft" unicode="[" 
d="M347 -236v1872h545v-179h-334v-1516h334v-177h-545z" />
    <glyph glyph-name="backslash" unicode="\" 
d="M87 1541l177 83l849 -1757l-178 -80z" />
    <glyph glyph-name="bracketright" unicode="]" 
d="M853 1636v-1872h-545v177h334v1516h-334v179h545z" />
    <glyph glyph-name="asciicircum" unicode="^" 
d="M701 1682l378 -628h-230l-251 445l-247 -445h-230l378 628h202z" />
    <glyph glyph-name="underscore" unicode="_" 
d="M100 -366v185h1000v-185h-1000z" />
    <glyph glyph-name="grave" unicode="`" 
d="M782 1244l-430 187l103 179l394 -248z" />
    <glyph glyph-name="a" unicode="a" 
d="M985 259q0 -62 19 -90.5t61 -42.5l-50 -152q-78 9 -134 43t-85 103q-58 -73 -147 -110t-190 -37q-160 0 -253.5 90.5t-93.5 237.5q0 167 130 257t372 90h151v69q0 102 -61.5 147t-173.5 45q-52 0 -126 -13.5t-155 -41.5l-55 158q99 37 194 54.5t176 17.5q212 0 316.5 -94
t104.5 -260v-471zM527 138q68 0 133 36t105 101v233h-124q-158 0 -226 -52.5t-68 -144.5q0 -84 45.5 -128.5t134.5 -44.5z" />
    <glyph glyph-name="b" unicode="b" 
d="M402 930q55 72 128.5 113t161.5 41q139 0 225.5 -68.5t127 -193t40.5 -292.5q0 -161 -48 -287t-141.5 -198t-230.5 -72q-177 0 -278 131l-12 -104h-197v1480l224 25v-575zM609 144q114 0 176.5 93t62.5 292q0 135 -25 219.5t-73.5 123.5t-118.5 39q-75 0 -132 -45
t-97 -106v-494q37 -57 89.5 -89.5t117.5 -32.5z" />
    <glyph glyph-name="c" unicode="c" 
d="M687 157q74 0 138 25.5t122 66.5l104 -144q-69 -59 -167.5 -95.5t-203.5 -36.5q-162 0 -277 68.5t-176 192.5t-61 289q0 161 61.5 287.5t177.5 200t279 73.5q108 0 199 -32t167 -95l-103 -141q-62 43 -126.5 65.5t-132.5 22.5q-125 0 -204.5 -92t-79.5 -289
q0 -132 36.5 -212.5t100.5 -117t146 -36.5z" />
    <glyph glyph-name="d" unicode="d" 
d="M798 1505l224 -25v-1480h-197l-16 130q-54 -75 -129 -116t-168 -41q-136 0 -224 69.5t-130.5 195t-42.5 290.5q0 161 50 286.5t143 197.5t224 72q83 0 149 -29.5t117 -85.5v536zM591 912q-113 0 -176 -93.5t-63 -290.5q0 -135 26 -219.5t75 -124t118 -39.5q76 0 132 44
t95 106v500q-39 56 -91 86.5t-116 30.5z" />
    <glyph glyph-name="e" unicode="e" 
d="M364 456q7 -108 46 -176.5t102.5 -100.5t139.5 -32q78 0 144 24t133 68l97 -134q-74 -60 -173 -96t-212 -36q-164 0 -277.5 70t-172.5 195t-59 289q0 159 58 284.5t166 199t258 73.5q141 0 242.5 -64t157 -181.5t55.5 -282.5q0 -27 -1.5 -53.5t-3.5 -46.5h-700zM616 918
q-105 0 -173.5 -75t-79.5 -234h489q-3 149 -63.5 229t-172.5 80z" />
    <glyph glyph-name="f" unicode="f" 
d="M820 1505q97 0 173.5 -16.5t141.5 -44.5l-66 -155q-53 22 -110.5 32t-116.5 10q-104 0 -154 -39.5t-50 -124.5v-187h353l-24 -165h-329v-815h-223v815h-240v165h240v189q0 100 50.5 175.5t141.5 118t213 42.5z" />
    <glyph glyph-name="g" unicode="g" 
d="M1067 1190l60 -186q-63 -21 -138.5 -28t-168.5 -7q95 -42 143 -107.5t48 -160.5q0 -103 -50 -184t-143 -127t-223 -46q-46 0 -79.5 4t-65.5 13q-20 -14 -33.5 -37.5t-13.5 -49.5q0 -32 26.5 -55.5t105.5 -23.5h184q113 0 199.5 -38.5t136 -105t49.5 -150.5
q0 -158 -136 -245t-392 -87q-181 0 -284 37t-145 110t-42 179h201q0 -55 21.5 -91t80.5 -54t170 -18t176.5 18.5t95 53t29.5 82.5q0 64 -56 99t-150 35h-181q-150 0 -219.5 61t-69.5 142q0 54 30.5 104t87.5 87q-95 50 -138.5 121.5t-43.5 173.5q0 112 56 196t155.5 131
t229.5 47q127 0 212 13.5t148.5 38.5t126.5 55zM582 929q-107 0 -161 -60.5t-54 -157.5q0 -100 55.5 -160.5t162.5 -60.5q99 0 151.5 58t52.5 165q0 108 -52 162t-155 54z" />
    <glyph glyph-name="h" unicode="h" 
d="M402 1502v-575q64 78 150 117.5t177 39.5q149 0 222 -82.5t73 -231.5v-770h-224v735q0 95 -36 136.5t-116 41.5q-50 0 -95.5 -22.5t-84 -58.5t-66.5 -77v-755h-224v1478z" />
    <glyph glyph-name="i" unicode="i" 
d="M755 1056v-892h287v-164h-827v164h316v728h-306v164h530zM599 1573q66 0 106.5 -40t40.5 -100t-40.5 -101t-106.5 -41q-64 0 -105 41t-41 101t41 100t105 40z" />
    <glyph glyph-name="j" unicode="j" 
d="M911 1056v-834q0 -197 -81.5 -327t-238.5 -207.5t-383 -118.5l-36 172q157 30 273 83t179 145t63 238v685h-417v164h641zM736 1573q65 0 106 -40t41 -100t-41 -101t-106 -41t-105.5 41t-40.5 101t40.5 100t105.5 40z" />
    <glyph glyph-name="k" unicode="k" 
d="M1108 1056l-427 -472l472 -584h-274l-454 578l422 478h261zM409 1505v-1505h-224v1480z" />
    <glyph glyph-name="l" unicode="l" 
d="M642 1480v-1192q0 -73 44.5 -103.5t115.5 -30.5q46 0 87 10t80 25l57 -156q-47 -24 -115.5 -42t-156.5 -18q-159 0 -247.5 89.5t-88.5 245.5v1007h-319v165h543z" />
    <glyph glyph-name="m" unicode="m" 
d="M906 1084q60 0 108 -26t75.5 -91t27.5 -182v-785h-199v754q0 83 -11.5 119t-59.5 36q-38 0 -77 -23.5t-79 -80.5v-805h-181v754q0 83 -11.5 119t-59.5 36q-39 0 -77.5 -23.5t-78.5 -80.5v-805h-200v1056h169l15 -114q45 63 98 102.5t128 39.5q60 0 109 -30t72 -105
q44 60 100 97.5t132 37.5z" />
    <glyph glyph-name="n" unicode="n" 
d="M178 0v1056h193l17 -137q66 81 156 123t185 42q148 0 221.5 -82.5t73.5 -231.5v-770h-224v659q0 92 -11 148t-43.5 81t-96.5 25q-51 0 -97 -22t-84 -57.5t-66 -75.5v-758h-224z" />
    <glyph glyph-name="o" unicode="o" 
d="M601 1084q155 0 261 -69t160.5 -193t54.5 -292q0 -167 -55.5 -292.5t-162 -195t-259.5 -69.5t-259.5 67.5t-162 192.5t-55.5 295q0 165 55.5 290t162.5 195.5t260 70.5zM601 910q-121 0 -182 -92.5t-61 -289.5q0 -196 60.5 -289t181.5 -93t181.5 93t60.5 291
q0 195 -60 287.5t-181 92.5z" />
    <glyph glyph-name="p" unicode="p" 
d="M693 1084q140 0 224 -68.5t122 -193t38 -292.5q0 -161 -46 -287t-136.5 -198t-224.5 -72q-166 0 -268 117v-496l-224 -25v1487h195l14 -136q60 82 139.5 123t166.5 41zM631 911q-75 0 -132 -45t-97 -106v-494q38 -57 90.5 -87.5t118.5 -30.5q113 0 172 91t59 290
q0 135 -23.5 219.5t-70 123.5t-117.5 39z" />
    <glyph glyph-name="q" unicode="q" 
d="M533 1084q90 0 160 -33.5t122 -97.5l14 103h193v-1487l-224 25v522q-53 -70 -125.5 -106.5t-161.5 -36.5q-139 0 -225 69t-124.5 194t-38.5 292q0 161 47.5 286.5t139 197.5t223.5 72zM591 912q-115 0 -174 -93.5t-59 -290.5q0 -135 24.5 -218.5t71.5 -122.5t117 -39
q75 0 131.5 42.5t95.5 104.5v500q-37 56 -89.5 86.5t-117.5 30.5z" />
    <glyph glyph-name="r" unicode="r" 
d="M188 0v160h155v737h-155v159h326l41 -245q59 133 146.5 202.5t225.5 69.5q47 0 84.5 -7.5t74.5 -19.5l-67 -192q-32 9 -60 13.5t-62 4.5q-115 0 -198.5 -86t-131.5 -244v-392h213v-160h-592zM888 667v260l28 129h170l-38 -389h-160z" />
    <glyph glyph-name="s" unicode="s" 
d="M562 145q105 0 167 37.5t62 103.5q0 43 -18 73.5t-72 56t-164 53.5q-104 27 -182.5 64t-121.5 96t-43 152q0 91 51 159t146.5 106t224.5 38q133 0 232 -35t169 -87l-94 -141q-62 41 -135.5 67t-165.5 26q-107 0 -153.5 -32t-46.5 -85q0 -39 23.5 -65.5t81.5 -49
t164 -52.5q103 -28 179.5 -66t119 -100.5t42.5 -162.5q0 -114 -65.5 -186.5t-172 -107t-228.5 -34.5q-147 0 -254 42.5t-180 106.5l119 136q62 -50 142 -81.5t173 -31.5z" />
    <glyph glyph-name="t" unicode="t" 
d="M1060 56q-58 -37 -139 -60t-169 -23q-184 0 -279.5 95.5t-95.5 251.5v573h-235v163h235v236l224 27v-263h356l-25 -163h-331v-571q0 -85 42.5 -126.5t139.5 -41.5q58 0 107 14t89 36z" />
    <glyph glyph-name="u" unicode="u" 
d="M402 1056v-738q0 -94 37.5 -134t113.5 -40q72 0 139 43t106 105v764h224v-1056h-193l-14 135q-59 -79 -149 -120.5t-184 -41.5q-153 0 -228.5 84.5t-75.5 232.5v766h224z" />
    <glyph glyph-name="v" unicode="v" 
d="M1103 1056l-372 -1056h-262l-372 1056h240l268 -870l269 870h229z" />
    <glyph glyph-name="w" unicode="w" 
d="M1004 0h-280l-119 750l-128 -750h-274l-179 1056h216l110 -917l147 783h224l137 -783l110 917h208z" />
    <glyph glyph-name="x" unicode="x" 
d="M334 0h-248l379 557l-337 499h258l216 -372l216 372h246l-330 -490l380 -566h-263l-259 431z" />
    <glyph glyph-name="y" unicode="y" 
d="M1102 1056l-364 -1060q-41 -120 -105 -211.5t-164 -147.5t-248 -69l-29 168q107 17 170.5 49.5t101 85.5t66.5 129h-76l-356 1056h238l266 -900l270 900h230z" />
    <glyph glyph-name="z" unicode="z" 
d="M451 180h565l-24 -180h-810v164l562 712h-517v180h782v-164z" />
    <glyph glyph-name="braceleft" unicode="{" 
d="M914 1674v-165q-68 0 -121.5 -13t-82 -45t-22.5 -89l37 -367q10 -94 -15.5 -154.5t-81.5 -93.5t-137 -47q84 -14 140 -45.5t80 -91.5t14 -158l-37 -367q-6 -57 22.5 -89.5t82 -45t121.5 -12.5v-165q-104 0 -188.5 16.5t-143 54.5t-85 102.5t-16.5 159.5l37 345
q7 71 -18.5 116.5t-91.5 67.5t-182 22v180q115 0 181.5 21.5t92 67t18.5 116.5l-37 345q-10 96 16.5 161t85 102.5t143 54t188.5 16.5z" />
    <glyph glyph-name="bar" unicode="|" 
d="M702 1800v-2400h-204v2400h204z" />
    <glyph glyph-name="braceright" unicode="}" 
d="M286 1674q104 0 188.5 -16.5t143 -54.5t85.5 -102.5t16 -159.5l-37 -346q-7 -71 21.5 -116.5t95.5 -67t175 -21.5v-180q-108 0 -175 -22t-95.5 -67.5t-21.5 -116.5l37 -344q10 -96 -16.5 -161t-85 -102.5t-143 -54t-188.5 -16.5v165q68 0 121.5 12.5t82 45t22.5 89.5
l-37 367q-10 98 15.5 158t84.5 91.5t148 44.5q-89 14 -148 47.5t-84.5 93.5t-15.5 155l37 367q6 57 -22.5 89t-81.5 45t-122 13v165z" />
    <glyph glyph-name="asciitilde" unicode="~" 
d="M409 824q75 0 128 -30t95 -70t81 -70t85 -30q60 0 105.5 45.5t84.5 118.5l142 -68q-34 -71 -79.5 -134t-108 -103t-151.5 -40q-71 0 -123.5 30t-95 70t-83 70t-87.5 30q-62 0 -106.5 -46.5t-83.5 -118.5l-142 67q35 69 79.5 132.5t107.5 105t152 41.5z" />
    <glyph glyph-name="uni00A0" unicode="&#xa0;" 
 />
    <glyph glyph-name="exclamdown" unicode="&#xa1;" 
d="M691 505l33 -905h-249l31 905h185zM599 1007q64 0 108 -45t44 -108q0 -61 -44 -105.5t-108 -44.5q-63 0 -107 44.5t-44 105.5q0 63 44 108t107 45z" />
    <glyph glyph-name="cent" unicode="&#xa2;" 
d="M761 1373v-300q67 -8 129 -34.5t119 -73.5l-104 -142q-62 47 -114 64t-107 17q-120 0 -187.5 -92t-67.5 -289q0 -199 69 -282.5t186 -83.5q57 0 107.5 19t112.5 66l105 -150q-57 -47 -119 -73t-129 -36v-295h-180v298q-191 30 -290.5 172.5t-99.5 364.5q0 144 45 260
t132.5 191.5t214.5 96.5v302h178z" />
    <glyph glyph-name="sterling" unicode="&#xa3;" 
d="M698 1408q119 0 214 -44t164 -140l-144 -107q-47 61 -99.5 87t-121.5 26q-96 0 -147.5 -55t-51.5 -166v-223h395v-135h-395v-212q0 -80 -23.5 -147.5t-101.5 -111.5h667l-27 -180h-903v171q79 25 113.5 61.5t43 87.5t8.5 117v214h-157v135h157v235q0 111 48 198.5
t139.5 138t221.5 50.5z" />
    <glyph glyph-name="currency" unicode="&#xa4;" 
d="M187 1221l172 -173q51 31 112.5 47.5t130.5 16.5q68 0 129 -16t111 -48l171 171l121 -121l-168 -169q33 -49 51.5 -111.5t18.5 -133.5q0 -73 -19.5 -135.5t-52.5 -112.5l170 -168l-121 -121l-173 169q-49 -30 -109.5 -46t-128.5 -16q-69 0 -131 16t-113 46l-171 -171
l-121 121l172 172q-32 50 -50 112t-18 134q0 71 17.5 133t48.5 111l-170 172zM602 946q-115 0 -174.5 -69.5t-59.5 -192.5q0 -124 59.5 -193.5t174.5 -69.5t173.5 69.5t58.5 193.5q0 123 -58.5 192.5t-173.5 69.5z" />
    <glyph glyph-name="yen" unicode="&#xa5;" 
d="M1145 1380l-375 -684h223v-135h-278v-158h278v-135h-278v-268h-229v268h-274v135h274v158h-274v135h217l-374 684h245l303 -609h8l300 609h234z" />
    <glyph glyph-name="brokenbar" unicode="&#xa6;" 
d="M701 1616v-717h-204v717h204zM701 511v-717h-204v717h204z" />
    <glyph glyph-name="section" unicode="&#xa7;" 
d="M635 1408q110 0 196.5 -30t157.5 -79l-93 -141q-60 40 -122 61t-140 21q-80 0 -126.5 -34t-46.5 -90q0 -40 18 -68t70 -53.5t153 -58.5q156 -50 231 -118t75 -190q0 -84 -47 -148.5t-113 -105.5q54 -41 85.5 -95t31.5 -126q0 -92 -51.5 -160t-143.5 -105.5t-213 -37.5
q-114 0 -203 30.5t-157 80.5l91 144q62 -42 125.5 -64t142.5 -22q81 0 133 33t52 90q0 40 -18.5 68t-70.5 53.5t-155 58.5q-155 51 -230.5 119t-75.5 190q0 83 48 146.5t114 104.5q-55 43 -86 98t-31 123q0 92 52 160.5t142 106.5t205 38zM480 816q-40 -36 -60 -76.5
t-20 -78.5q0 -52 26 -83.5t95 -60.5t199 -75q38 36 59 77t21 80q0 50 -26 80.5t-95 60t-199 76.5z" />
    <glyph glyph-name="dieresis" unicode="&#xa8;" 
d="M384 1288q-56 0 -93.5 36.5t-37.5 90.5t37.5 90.5t93.5 36.5q55 0 92 -36.5t37 -90.5t-37 -90.5t-92 -36.5zM815 1288q-54 0 -91.5 36.5t-37.5 90.5t37.5 90.5t91.5 36.5q56 0 93.5 -36.5t37.5 -90.5t-37.5 -90.5t-93.5 -36.5z" />
    <glyph glyph-name="copyright" unicode="&#xa9;" 
d="M602 1502q177 0 300.5 -86t189 -231t65.5 -323q0 -176 -65.5 -321t-189 -231t-300.5 -86q-178 0 -303 86t-190.5 231t-65.5 321q0 178 66 323t191 231t302 86zM613 1248q76 0 129 -20.5t104 -63.5l-81 -106q-34 28 -68 41t-72 13q-71 0 -119 -57t-48 -191q0 -127 46 -185
t121 -58q49 0 87 17.5t70 46.5l74 -110q-43 -39 -101.5 -67.5t-139.5 -28.5q-148 0 -240 99.5t-92 285.5q0 124 44.5 210t119.5 130t166 44zM602 1388q-145 0 -239.5 -71t-140.5 -190t-46 -265q0 -144 46 -262.5t140.5 -189t239.5 -70.5q144 0 238 70.5t140 189t46 262.5
q0 146 -46 265t-139.5 190t-238.5 71z" />
    <glyph glyph-name="ordfeminine" unicode="&#xaa;" 
d="M581 1505q183 0 267 -75.5t84 -213.5v-370q0 -44 16 -65.5t48 -32.5l-46 -135q-72 8 -117 35.5t-70 82.5q-49 -57 -120 -88t-148 -31q-137 0 -221 74.5t-84 195.5q0 135 114.5 208t319.5 73h113v47q0 79 -47 110t-138 31q-40 0 -104 -11t-136 -36l-53 141q90 33 172 46.5
t150 13.5zM1008 176v-176h-801v176h801zM737 1031h-96q-126 0 -182 -36t-56 -105q0 -66 38 -100t107 -34q54 0 104 28.5t85 77.5v169z" />
    <glyph glyph-name="guillemotleft" unicode="&#xab;" 
d="M620 165l-131 -84l-347 425v151l347 426l131 -84l-255 -417zM1057 165l-132 -84l-349 425v151l349 426l132 -84l-255 -417z" />
    <glyph glyph-name="logicalnot" unicode="&#xac;" 
d="M994 719v-473h-195v292h-593v181h788z" />
    <glyph glyph-name="uni00AD" unicode="&#xad;" 
d="M281 534v184h638v-184h-638z" />
    <glyph glyph-name="registered" unicode="&#xae;" 
d="M601 1502q146 0 264 -70t187.5 -189t69.5 -265t-69.5 -264t-187.5 -187.5t-264 -69.5q-147 0 -266 69.5t-189 187.5t-70 264q0 109 40 204.5t112 167.5t167.5 112t205.5 40zM601 1394q-115 0 -206 -56t-143 -150t-52 -210q0 -115 52 -208.5t143 -148.5t206 -55t204.5 55
t141 148.5t51.5 208.5q0 116 -51.5 210t-141 150t-204.5 56zM567 1271q254 0 254 -171q0 -62 -36 -101t-91 -57l165 -236h-145l-141 213h-53v-213h-124v565h171zM574 1176h-54v-159h57q55 0 85.5 19.5t30.5 64.5q0 75 -119 75z" />
    <glyph glyph-name="macron" unicode="&#xaf;" 
d="M882 1338h-565v163h565v-163z" />
    <glyph glyph-name="degree" unicode="&#xb0;" 
d="M472 1505q85 0 162 -37.5t126 -109.5t49 -175t-49 -175.5t-126 -110.5t-162 -38q-84 0 -161.5 38t-126.5 111t-49 176t49 174.5t126.5 109t161.5 37.5zM472 1362q-44 0 -81.5 -20t-60 -59t-22.5 -99q0 -59 22.5 -99.5t60 -61t81.5 -20.5q67 0 115 46t48 134t-48 133.5
t-115 45.5z" />
    <glyph glyph-name="plusminus" unicode="&#xb1;" 
d="M700 1091v-304h294v-178h-294v-275h-200v275h-294v178h294v304h200zM994 181v-181h-788v181h788z" />
    <glyph glyph-name="uni00B2" unicode="&#xb2;" 
d="M876 1073q0 -61 -29.5 -108.5t-99 -93.5t-189.5 -103h339l-20 -138h-560v121q155 91 235 143.5t109.5 88.5t29.5 76t-27 63.5t-77 23.5q-45 0 -87 -19t-82 -68l-117 87q121 138 302 138q133 0 203 -60t70 -151z" />
    <glyph glyph-name="uni00B3" unicode="&#xb3;" 
d="M615 1284q127 0 197 -49t70 -129q0 -55 -32.5 -88.5t-108.5 -47.5q86 -13 128 -46.5t42 -104.5q0 -90 -83.5 -145.5t-232.5 -55.5q-84 0 -166 26t-143 88l106 89q46 -38 96.5 -55.5t106.5 -17.5q67 0 100 22.5t33 59.5q0 42 -30.5 61t-95.5 19h-98l19 102h73
q51 0 79.5 16.5t28.5 51.5q0 75 -106 75q-52 0 -99.5 -15.5t-98.5 -53.5l-91 95q68 55 144.5 79t161.5 24z" />
    <glyph glyph-name="acute" unicode="&#xb4;" 
d="M762 1623l94 -180l-438 -176l-66 116z" />
    <glyph glyph-name="uni00B5" unicode="&#xb5;" 
d="M998 1056v-705q0 -103 14 -192t30 -159l-207 -25q-12 27 -23.5 75t-16.5 89q-45 -75 -115.5 -120t-146.5 -45q-71 0 -112 22t-82 77q18 -60 28.5 -112t10.5 -109v-258l-218 -25v1487h224v-595q0 -97 9 -165.5t41 -104.5t101 -36q79 0 138.5 42t100.5 100v759h224z" />
    <glyph glyph-name="paragraph" unicode="&#xb6;" 
d="M1132 1380v-1789l-196 -22v1643h-203v-1621l-196 -22v990q-155 6 -260 59.5t-157.5 144t-52.5 204.5q0 117 57 210.5t170 148t280 54.5h558z" />
    <glyph glyph-name="periodcentered" unicode="&#xb7;" 
d="M406 684q0 54 25.5 97.5t69.5 69.5t98 26q55 0 99 -26t69.5 -69.5t25.5 -97.5q0 -53 -25.5 -97.5t-69.5 -70.5t-99 -26q-54 0 -98 26t-69.5 70.5t-25.5 97.5z" />
    <glyph glyph-name="cedilla" unicode="&#xb8;" 
d="M665 -284q0 48 -46.5 63t-130.5 15l21 238h138v-139q101 -10 147.5 -60.5t46.5 -118.5q0 -66 -35.5 -113t-95 -71.5t-134.5 -24.5q-64 0 -121.5 15.5t-97.5 38.5l62 115q29 -15 64 -24t68 -9q51 0 82.5 17t31.5 58z" />
    <glyph glyph-name="uni00B9" unicode="&#xb9;" 
d="M644 630v457l-178 -96l-84 116l292 165h143v-642h-173z" />
    <glyph glyph-name="ordmasculine" unicode="&#xba;" 
d="M600 1505q130 0 224 -56t145 -156t51 -233q0 -132 -51.5 -233.5t-145.5 -158t-223 -56.5q-130 0 -224.5 56t-145.5 156.5t-51 235.5q0 130 51.5 230t146.5 157.5t223 57.5zM1001 176v-176h-801v176h801zM600 1351q-98 0 -155 -69.5t-57 -221.5q0 -153 57 -223t155 -70
t154.5 70t56.5 223q0 152 -56.5 221.5t-154.5 69.5z" />
    <glyph glyph-name="guillemotright" unicode="&#xbb;" 
d="M832 582l-256 417l132 84l349 -426v-151l-349 -425l-132 84zM397 582l-255 417l131 84l347 -426v-151l-347 -425l-131 84z" />
    <glyph glyph-name="onequarter" unicode="&#xbc;" 
d="M99 361l-71 124l1070 512l69 -124zM248 738v457l-179 -96l-83 116l291 165h143v-642h-172zM1114 112v-112h-170v112h-358v109l259 440l149 -55l-217 -364h168l19 167h150v-167h101v-130h-101z" />
    <glyph glyph-name="onehalf" unicode="&#xbd;" 
d="M91 361l-71 124l1070 512l69 -124zM242 738v457l-179 -96l-83 116l291 165h143v-642h-172zM1200 443q0 -61 -29.5 -108.5t-99 -93.5t-189.5 -103h338l-19 -138h-561v121q155 91 235 143.5t109.5 88.5t29.5 76t-27 63.5t-77 23.5q-44 0 -86 -19t-83 -68l-117 87
q122 138 303 138q133 0 203 -60t70 -151z" />
    <glyph glyph-name="threequarters" unicode="&#xbe;" 
d="M114 361l-71 124l1070 512l69 -124zM315 1392q127 0 197.5 -48.5t70.5 -129.5q0 -55 -33 -88t-108 -48q86 -13 128 -46.5t42 -104.5q0 -90 -84 -145.5t-233 -55.5q-83 0 -165.5 26.5t-143.5 87.5l106 89q46 -38 97 -55.5t107 -17.5q67 0 99.5 22.5t32.5 60.5
q0 41 -30 60.5t-96 19.5h-97l19 101h72q52 0 80 16.5t28 51.5q0 75 -105 75q-53 0 -100 -15.5t-98 -53.5l-91 95q68 56 144.5 79.5t160.5 23.5zM1113 112v-112h-169v112h-359v109l259 440l149 -55l-217 -364h169l19 167h149v-167h101v-130h-101z" />
    <glyph glyph-name="questiondown" unicode="&#xbf;" 
d="M642 1007q64 0 108.5 -45t44.5 -108q0 -61 -44.5 -105.5t-108.5 -44.5q-63 0 -106.5 44.5t-43.5 105.5q0 63 43.5 108t106.5 45zM755 505v-76q0 -99 -34.5 -163t-86 -108t-103 -79.5t-86.5 -76.5t-35 -100q0 -74 59 -114t149 -40q70 0 140.5 33t129.5 103l151 -113
q-86 -101 -197.5 -152.5t-246.5 -51.5q-133 0 -226.5 45t-142.5 118t-49 155q0 96 36.5 157t91 102.5t109 80.5t91 90t36.5 131v59h214z" />
    <glyph glyph-name="Agrave" unicode="&#xc0;" 
d="M842 332h-493l-96 -332h-236l439 1380h288l440 -1380h-246zM397 511h396l-197 689zM455 1852l393 -228l-61 -116l-435 165z" />
    <glyph glyph-name="Aacute" unicode="&#xc1;" 
d="M842 332h-493l-96 -332h-236l439 1380h288l440 -1380h-246zM397 511h396l-197 689zM762 1847l92 -178l-445 -161l-57 116z" />
    <glyph glyph-name="Acircumflex" unicode="&#xc2;" 
d="M842 332h-493l-96 -332h-236l439 1380h288l440 -1380h-246zM397 511h396l-197 689zM673 1846l273 -233l-88 -101l-258 164l-256 -164l-91 101l276 233h144z" />
    <glyph glyph-name="Atilde" unicode="&#xc3;" 
d="M842 332h-493l-96 -332h-236l439 1380h288l440 -1380h-246zM397 511h396l-197 689zM715 1542q-55 0 -93.5 23.5t-70.5 47t-67 23.5t-58.5 -23t-47.5 -68l-126 63q35 80 92.5 137t137.5 57q58 0 96.5 -23.5t69 -47t66.5 -23.5q31 0 55 21.5t51 65.5l126 -62
q-39 -90 -98 -140.5t-133 -50.5z" />
    <glyph glyph-name="Adieresis" unicode="&#xc4;" 
d="M842 332h-493l-96 -332h-236l439 1380h288l440 -1380h-246zM397 511h396l-197 689zM384 1531q-56 0 -93.5 36.5t-37.5 90.5t37.5 90.5t93.5 36.5q55 0 92 -36.5t37 -90.5t-37 -90.5t-92 -36.5zM815 1531q-54 0 -91.5 36.5t-37.5 90.5t37.5 90.5t91.5 36.5
q56 0 93.5 -36.5t37.5 -90.5t-37.5 -90.5t-93.5 -36.5z" />
    <glyph glyph-name="Aring" unicode="&#xc5;" 
d="M842 332h-493l-96 -332h-236l439 1380h288l440 -1380h-246zM397 511h396l-197 689zM599 1921q74 0 128.5 -30.5t85 -82t30.5 -114.5q0 -62 -30.5 -113.5t-85 -82t-128.5 -30.5q-72 0 -126.5 30.5t-85 82t-30.5 113.5q0 63 30.5 114.5t85 82t126.5 30.5zM599 1802
q-45 0 -72.5 -28t-27.5 -80t27.5 -80t72.5 -28q47 0 74.5 28t27.5 80t-27.5 80t-74.5 28z" />
    <glyph glyph-name="AE" unicode="&#xc6;" 
d="M647 334h-360l-82 -334h-229l383 1380h772l-25 -171h-431l88 -423h350v-172h-318l91 -442h326v-172h-501zM329 509h286l-131 703z" />
    <glyph glyph-name="Ccedilla" unicode="&#xc7;" 
d="M716 1408q140 0 236.5 -36.5t179.5 -104.5l-121 -144q-62 52 -133 77t-151 25q-103 0 -190 -52t-139.5 -169t-52.5 -312q0 -191 50 -308t137 -170t195 -53q111 0 184 36.5t129 82.5l112 -143q-69 -67 -175 -115.5t-258 -48.5q-175 0 -314.5 82.5t-220 242.5t-80.5 394
q0 232 83 391.5t222 242t307 82.5zM766 -284q0 48 -46.5 63t-130.5 15l21 238h138v-139q101 -10 147.5 -60.5t46.5 -118.5q0 -66 -35.5 -113t-95 -71.5t-134.5 -24.5q-64 0 -121.5 15.5t-97.5 38.5l62 115q29 -15 64 -24t68 -9q51 0 82.5 17t31.5 58z" />
    <glyph glyph-name="Egrave" unicode="&#xc8;" 
d="M458 1204v-415h500v-176h-500v-437h609v-176h-841v1380h830l-26 -176h-572zM496 1852l393 -228l-61 -116l-435 165z" />
    <glyph glyph-name="Eacute" unicode="&#xc9;" 
d="M458 1204v-415h500v-176h-500v-437h609v-176h-841v1380h830l-26 -176h-572zM803 1847l92 -178l-445 -161l-57 116z" />
    <glyph glyph-name="Ecircumflex" unicode="&#xca;" 
d="M458 1204v-415h500v-176h-500v-437h609v-176h-841v1380h830l-26 -176h-572zM714 1846l273 -233l-88 -101l-258 164l-256 -164l-91 101l276 233h144z" />
    <glyph glyph-name="Edieresis" unicode="&#xcb;" 
d="M458 1204v-415h500v-176h-500v-437h609v-176h-841v1380h830l-26 -176h-572zM425 1531q-56 0 -93.5 36.5t-37.5 90.5t37.5 90.5t93.5 36.5q55 0 92 -36.5t37 -90.5t-37 -90.5t-92 -36.5zM856 1531q-54 0 -91.5 36.5t-37.5 90.5t37.5 90.5t91.5 36.5q56 0 93.5 -36.5
t37.5 -90.5t-37.5 -90.5t-93.5 -36.5z" />
    <glyph glyph-name="Igrave" unicode="&#xcc;" 
d="M1015 1380v-177h-298v-1025h298v-178h-830v178h298v1025h-298v177h830zM455 1852l393 -228l-61 -116l-435 165z" />
    <glyph glyph-name="Iacute" unicode="&#xcd;" 
d="M1015 1380v-177h-298v-1025h298v-178h-830v178h298v1025h-298v177h830zM762 1847l92 -178l-445 -161l-57 116z" />
    <glyph glyph-name="Icircumflex" unicode="&#xce;" 
d="M1015 1380v-177h-298v-1025h298v-178h-830v178h298v1025h-298v177h830zM673 1846l273 -233l-88 -101l-258 164l-256 -164l-91 101l276 233h144z" />
    <glyph glyph-name="Idieresis" unicode="&#xcf;" 
d="M1015 1380v-177h-298v-1025h298v-178h-830v178h298v1025h-298v177h830zM384 1531q-56 0 -93.5 36.5t-37.5 90.5t37.5 90.5t93.5 36.5q55 0 92 -36.5t37 -90.5t-37 -90.5t-92 -36.5zM815 1531q-54 0 -91.5 36.5t-37.5 90.5t37.5 90.5t91.5 36.5q56 0 93.5 -36.5
t37.5 -90.5t-37.5 -90.5t-93.5 -36.5z" />
    <glyph glyph-name="Eth" unicode="&#xd0;" 
d="M684 785v-158h-652v158h652zM900 697q0 165 -33 265t-87 152t-120.5 70t-135.5 18h-127v-1026h128q72 0 139 23t120 80t84.5 158.5t31.5 259.5zM1143 697q0 -171 -36.5 -292t-100 -200.5t-145.5 -124t-174 -62.5t-184 -18h-338v1380h315q125 0 243.5 -27t213.5 -100
t150.5 -207t55.5 -349z" />
    <glyph glyph-name="Ntilde" unicode="&#xd1;" 
d="M755 0l-439 1174q3 -31 8.5 -88t11 -132t9.5 -159t4 -168v-627h-206v1380h301l440 -1175q-5 42 -12.5 123.5t-14 190t-6.5 232.5v629h206v-1380h-302zM720 1542q-55 0 -93.5 23.5t-70.5 47t-67 23.5t-58.5 -23t-47.5 -68l-126 63q35 80 92.5 137t137.5 57
q58 0 96.5 -23.5t69 -47t66.5 -23.5q31 0 55 21.5t51 65.5l126 -62q-39 -90 -98 -140.5t-133 -50.5z" />
    <glyph glyph-name="Ograve" unicode="&#xd2;" 
d="M1125 690q0 -213 -59 -374.5t-176 -252t-290 -90.5q-172 0 -289.5 88.5t-176.5 249t-59 377.5q0 214 59 375.5t176.5 253t289.5 91.5q173 0 290 -89t176 -250.5t59 -378.5zM885 690q0 268 -66.5 402.5t-218.5 134.5t-218.5 -135.5t-66.5 -403.5q0 -267 68 -400.5
t217 -133.5q154 0 219.5 134.5t65.5 401.5zM455 1852l393 -228l-61 -116l-435 165z" />
    <glyph glyph-name="Oacute" unicode="&#xd3;" 
d="M1125 690q0 -213 -59 -374.5t-176 -252t-290 -90.5q-172 0 -289.5 88.5t-176.5 249t-59 377.5q0 214 59 375.5t176.5 253t289.5 91.5q173 0 290 -89t176 -250.5t59 -378.5zM885 690q0 268 -66.5 402.5t-218.5 134.5t-218.5 -135.5t-66.5 -403.5q0 -267 68 -400.5
t217 -133.5q154 0 219.5 134.5t65.5 401.5zM762 1847l92 -178l-445 -161l-57 116z" />
    <glyph glyph-name="Ocircumflex" unicode="&#xd4;" 
d="M1125 690q0 -213 -59 -374.5t-176 -252t-290 -90.5q-172 0 -289.5 88.5t-176.5 249t-59 377.5q0 214 59 375.5t176.5 253t289.5 91.5q173 0 290 -89t176 -250.5t59 -378.5zM885 690q0 268 -66.5 402.5t-218.5 134.5t-218.5 -135.5t-66.5 -403.5q0 -267 68 -400.5
t217 -133.5q154 0 219.5 134.5t65.5 401.5zM673 1846l273 -233l-88 -101l-258 164l-256 -164l-91 101l276 233h144z" />
    <glyph glyph-name="Otilde" unicode="&#xd5;" 
d="M1125 690q0 -213 -59 -374.5t-176 -252t-290 -90.5q-172 0 -289.5 88.5t-176.5 249t-59 377.5q0 214 59 375.5t176.5 253t289.5 91.5q173 0 290 -89t176 -250.5t59 -378.5zM885 690q0 268 -66.5 402.5t-218.5 134.5t-218.5 -135.5t-66.5 -403.5q0 -267 68 -400.5
t217 -133.5q154 0 219.5 134.5t65.5 401.5zM715 1542q-55 0 -93.5 23.5t-70.5 47t-67 23.5t-58.5 -23t-47.5 -68l-126 63q35 80 92.5 137t137.5 57q58 0 96.5 -23.5t69 -47t66.5 -23.5q31 0 55 21.5t51 65.5l126 -62q-39 -90 -98 -140.5t-133 -50.5z" />
    <glyph glyph-name="Odieresis" unicode="&#xd6;" 
d="M1125 690q0 -213 -59 -374.5t-176 -252t-290 -90.5q-172 0 -289.5 88.5t-176.5 249t-59 377.5q0 214 59 375.5t176.5 253t289.5 91.5q173 0 290 -89t176 -250.5t59 -378.5zM885 690q0 268 -66.5 402.5t-218.5 134.5t-218.5 -135.5t-66.5 -403.5q0 -267 68 -400.5
t217 -133.5q154 0 219.5 134.5t65.5 401.5zM384 1531q-56 0 -93.5 36.5t-37.5 90.5t37.5 90.5t93.5 36.5q55 0 92 -36.5t37 -90.5t-37 -90.5t-92 -36.5zM815 1531q-54 0 -91.5 36.5t-37.5 90.5t37.5 90.5t91.5 36.5q56 0 93.5 -36.5t37.5 -90.5t-37.5 -90.5t-93.5 -36.5z
" />
    <glyph glyph-name="multiply" unicode="&#xd7;" 
d="M840 986l131 -132l-241 -240l241 -240l-131 -131l-240 241l-240 -241l-131 131l241 240l-241 240l131 132l240 -242z" />
    <glyph glyph-name="Oslash" unicode="&#xd8;" 
d="M600 1408q169 0 286 -89t178 -250.5t61 -378.5q0 -213 -59 -374.5t-176 -252t-290 -90.5q-169 0 -286 88.5t-178 249t-61 377.5q0 214 59 375.5t176.5 253t289.5 91.5zM781 1606l178 -49l-78 -249l-72 -136l-299 -1031l-21 -132l-69 -228l-177 49l82 261l72 135l299 1029
l19 125zM600 1228q-154 0 -221.5 -135.5t-67.5 -404.5q0 -193 30 -311t94 -171t165 -53q156 0 222.5 134.5t66.5 402.5q0 193 -29 312t-92.5 172.5t-167.5 53.5z" />
    <glyph glyph-name="Ugrave" unicode="&#xd9;" 
d="M1078 1380v-927q0 -141 -56.5 -249t-164 -169.5t-258.5 -61.5q-154 0 -260 60.5t-161.5 169t-55.5 250.5v927h232v-885q0 -168 58 -252.5t187 -84.5t187.5 84.5t58.5 252.5v885h233zM455 1852l393 -228l-61 -116l-435 165z" />
    <glyph glyph-name="Uacute" unicode="&#xda;" 
d="M1078 1380v-927q0 -141 -56.5 -249t-164 -169.5t-258.5 -61.5q-154 0 -260 60.5t-161.5 169t-55.5 250.5v927h232v-885q0 -168 58 -252.5t187 -84.5t187.5 84.5t58.5 252.5v885h233zM762 1847l92 -178l-445 -161l-57 116z" />
    <glyph glyph-name="Ucircumflex" unicode="&#xdb;" 
d="M1078 1380v-927q0 -141 -56.5 -249t-164 -169.5t-258.5 -61.5q-154 0 -260 60.5t-161.5 169t-55.5 250.5v927h232v-885q0 -168 58 -252.5t187 -84.5t187.5 84.5t58.5 252.5v885h233zM673 1846l273 -233l-88 -101l-258 164l-256 -164l-91 101l276 233h144z" />
    <glyph glyph-name="Udieresis" unicode="&#xdc;" 
d="M1078 1380v-927q0 -141 -56.5 -249t-164 -169.5t-258.5 -61.5q-154 0 -260 60.5t-161.5 169t-55.5 250.5v927h232v-885q0 -168 58 -252.5t187 -84.5t187.5 84.5t58.5 252.5v885h233zM384 1531q-56 0 -93.5 36.5t-37.5 90.5t37.5 90.5t93.5 36.5q55 0 92 -36.5t37 -90.5
t-37 -90.5t-92 -36.5zM815 1531q-54 0 -91.5 36.5t-37.5 90.5t37.5 90.5t91.5 36.5q56 0 93.5 -36.5t37.5 -90.5t-37.5 -90.5t-93.5 -36.5z" />
    <glyph glyph-name="Yacute" unicode="&#xdd;" 
d="M717 527v-527h-234v525l-460 855h255l327 -654l329 654h243zM766 1847l92 -178l-445 -161l-57 116z" />
    <glyph glyph-name="Thorn" unicode="&#xde;" 
d="M410 1380v-229h165q261 0 406.5 -108t145.5 -334q0 -161 -67 -263t-187.5 -150t-281.5 -48h-181v-248h-232v1380h232zM591 977h-181v-553h187q86 0 151 25.5t100.5 87t35.5 169.5q0 144 -79 207.5t-214 63.5z" />
    <glyph glyph-name="germandbls" unicode="&#xdf;" 
d="M589 1505q113 0 196 -38.5t128 -105.5t45 -152q0 -58 -21 -98.5t-52.5 -71.5t-62.5 -58t-52 -55.5t-21 -65.5q0 -50 38.5 -86.5t95 -72.5t114 -82t96 -114t38.5 -170q0 -117 -52 -197.5t-139 -122.5t-194 -42q-78 0 -140.5 17.5t-115.5 48.5l80 152q35 -19 74.5 -30
t77.5 -11q84 0 131.5 44.5t47.5 133.5q0 61 -26 103.5t-67 75.5t-87 63t-87 64.5t-67 80.5t-26 111q0 57 20.5 97t50.5 71.5t60 60t50.5 61.5t20.5 77q0 36 -15.5 69t-50 54.5t-92.5 21.5q-97 0 -146.5 -61t-49.5 -200v-1077h-224v1065q0 213 110.5 326.5t313.5 113.5z" />
    <glyph glyph-name="agrave" unicode="&#xe0;" 
d="M985 259q0 -62 19 -90.5t61 -42.5l-50 -152q-78 9 -134 43t-85 103q-58 -73 -147 -110t-190 -37q-160 0 -253.5 90.5t-93.5 237.5q0 167 130 257t372 90h151v69q0 102 -61.5 147t-173.5 45q-52 0 -126 -13.5t-155 -41.5l-55 158q99 37 194 54.5t176 17.5q212 0 316.5 -94
t104.5 -260v-471zM527 138q68 0 133 36t105 101v233h-124q-158 0 -226 -52.5t-68 -144.5q0 -84 45.5 -128.5t134.5 -44.5zM767 1244l-430 187l103 179l394 -248z" />
    <glyph glyph-name="aacute" unicode="&#xe1;" 
d="M985 259q0 -62 19 -90.5t61 -42.5l-50 -152q-78 9 -134 43t-85 103q-58 -73 -147 -110t-190 -37q-160 0 -253.5 90.5t-93.5 237.5q0 167 130 257t372 90h151v69q0 102 -61.5 147t-173.5 45q-52 0 -126 -13.5t-155 -41.5l-55 158q99 37 194 54.5t176 17.5q212 0 316.5 -94
t104.5 -260v-471zM527 138q68 0 133 36t105 101v233h-124q-158 0 -226 -52.5t-68 -144.5q0 -84 45.5 -128.5t134.5 -44.5zM747 1623l94 -180l-438 -176l-66 116z" />
    <glyph glyph-name="acircumflex" unicode="&#xe2;" 
d="M985 259q0 -62 19 -90.5t61 -42.5l-50 -152q-78 9 -134 43t-85 103q-58 -73 -147 -110t-190 -37q-160 0 -253.5 90.5t-93.5 237.5q0 167 130 257t372 90h151v69q0 102 -61.5 147t-173.5 45q-52 0 -126 -13.5t-155 -41.5l-55 158q99 37 194 54.5t176 17.5q212 0 316.5 -94
t104.5 -260v-471zM527 138q68 0 133 36t105 101v233h-124q-158 0 -226 -52.5t-68 -144.5q0 -84 45.5 -128.5t134.5 -44.5zM332 1245l-94 100l276 253h144l273 -253l-90 -100l-255 183z" />
    <glyph glyph-name="atilde" unicode="&#xe3;" 
d="M985 259q0 -62 19 -90.5t61 -42.5l-50 -152q-78 9 -134 43t-85 103q-58 -73 -147 -110t-190 -37q-160 0 -253.5 90.5t-93.5 237.5q0 167 130 257t372 90h151v69q0 102 -61.5 147t-173.5 45q-52 0 -126 -13.5t-155 -41.5l-55 158q99 37 194 54.5t176 17.5q212 0 316.5 -94
t104.5 -260v-471zM527 138q68 0 133 36t105 101v233h-124q-158 0 -226 -52.5t-68 -144.5q0 -84 45.5 -128.5t134.5 -44.5zM700 1299q-55 0 -93.5 23.5t-70.5 47t-67 23.5t-58.5 -23t-47.5 -68l-126 63q35 80 92.5 137t137.5 57q58 0 96.5 -23.5t69 -47t66.5 -23.5
q31 0 55 21.5t51 65.5l126 -62q-39 -90 -98 -140.5t-133 -50.5z" />
    <glyph glyph-name="adieresis" unicode="&#xe4;" 
d="M985 259q0 -62 19 -90.5t61 -42.5l-50 -152q-78 9 -134 43t-85 103q-58 -73 -147 -110t-190 -37q-160 0 -253.5 90.5t-93.5 237.5q0 167 130 257t372 90h151v69q0 102 -61.5 147t-173.5 45q-52 0 -126 -13.5t-155 -41.5l-55 158q99 37 194 54.5t176 17.5q212 0 316.5 -94
t104.5 -260v-471zM527 138q68 0 133 36t105 101v233h-124q-158 0 -226 -52.5t-68 -144.5q0 -84 45.5 -128.5t134.5 -44.5zM369 1288q-56 0 -93.5 36.5t-37.5 90.5t37.5 90.5t93.5 36.5q55 0 92 -36.5t37 -90.5t-37 -90.5t-92 -36.5zM800 1288q-54 0 -91.5 36.5t-37.5 90.5
t37.5 90.5t91.5 36.5q56 0 93.5 -36.5t37.5 -90.5t-37.5 -90.5t-93.5 -36.5z" />
    <glyph glyph-name="aring" unicode="&#xe5;" 
d="M985 259q0 -62 19 -90.5t61 -42.5l-50 -152q-78 9 -134 43t-85 103q-58 -73 -147 -110t-190 -37q-160 0 -253.5 90.5t-93.5 237.5q0 167 130 257t372 90h151v69q0 102 -61.5 147t-173.5 45q-52 0 -126 -13.5t-155 -41.5l-55 158q99 37 194 54.5t176 17.5q212 0 316.5 -94
t104.5 -260v-471zM527 138q68 0 133 36t105 101v233h-124q-158 0 -226 -52.5t-68 -144.5q0 -84 45.5 -128.5t134.5 -44.5zM584 1678q74 0 128.5 -30.5t85 -82t30.5 -114.5q0 -62 -30.5 -113.5t-85 -82t-128.5 -30.5q-72 0 -126.5 30.5t-85 82t-30.5 113.5q0 63 30.5 114.5
t85 82t126.5 30.5zM584 1559q-45 0 -72.5 -28t-27.5 -80t27.5 -80t72.5 -28q47 0 74.5 28t27.5 80t-27.5 80t-74.5 28z" />
    <glyph glyph-name="ae" unicode="&#xe6;" 
d="M864 1084q183 0 263.5 -139.5t80.5 -388.5q0 -54 -4 -96h-517q14 -165 64.5 -243t148.5 -78q55 0 98.5 19.5t91.5 54.5l93 -132q-59 -48 -129 -78t-162 -30q-108 0 -183 46t-129 137q-61 -97 -125 -140t-165 -43q-139 0 -220.5 91.5t-81.5 238.5q0 166 105.5 254.5
t314.5 88.5h87v71q0 108 -47 157t-134 49q-51 0 -94 -12t-106 -41l-55 145q70 32 138.5 50.5t138.5 18.5q114 0 176 -44.5t94 -118.5q33 75 98 119t160 44zM495 509h-69q-127 0 -176.5 -53t-49.5 -142q0 -88 34.5 -135t92.5 -47t101.5 41t84.5 122q-8 50 -13 104t-5 110z
M857 922q-79 0 -119.5 -69.5t-50.5 -245.5h329q-2 157 -35 236t-124 79z" />
    <glyph glyph-name="ccedilla" unicode="&#xe7;" 
d="M687 157q74 0 138 25.5t122 66.5l104 -144q-69 -59 -167.5 -95.5t-203.5 -36.5q-162 0 -277 68.5t-176 192.5t-61 289q0 161 61.5 287.5t177.5 200t279 73.5q108 0 199 -32t167 -95l-103 -141q-62 43 -126.5 65.5t-132.5 22.5q-125 0 -204.5 -92t-79.5 -289
q0 -132 36.5 -212.5t100.5 -117t146 -36.5zM743 -284q0 48 -46.5 63t-130.5 15l21 238h138v-139q101 -10 147.5 -60.5t46.5 -118.5q0 -66 -35.5 -113t-95 -71.5t-134.5 -24.5q-64 0 -121.5 15.5t-97.5 38.5l62 115q29 -15 64 -24t68 -9q51 0 82.5 17t31.5 58z" />
    <glyph glyph-name="egrave" unicode="&#xe8;" 
d="M364 456q7 -108 46 -176.5t102.5 -100.5t139.5 -32q78 0 144 24t133 68l97 -134q-74 -60 -173 -96t-212 -36q-164 0 -277.5 70t-172.5 195t-59 289q0 159 58 284.5t166 199t258 73.5q141 0 242.5 -64t157 -181.5t55.5 -282.5q0 -27 -1.5 -53.5t-3.5 -46.5h-700zM616 918
q-105 0 -173.5 -75t-79.5 -234h489q-3 149 -63.5 229t-172.5 80zM800 1244l-430 187l103 179l394 -248z" />
    <glyph glyph-name="eacute" unicode="&#xe9;" 
d="M364 456q7 -108 46 -176.5t102.5 -100.5t139.5 -32q78 0 144 24t133 68l97 -134q-74 -60 -173 -96t-212 -36q-164 0 -277.5 70t-172.5 195t-59 289q0 159 58 284.5t166 199t258 73.5q141 0 242.5 -64t157 -181.5t55.5 -282.5q0 -27 -1.5 -53.5t-3.5 -46.5h-700zM616 918
q-105 0 -173.5 -75t-79.5 -234h489q-3 149 -63.5 229t-172.5 80zM780 1623l94 -180l-438 -176l-66 116z" />
    <glyph glyph-name="ecircumflex" unicode="&#xea;" 
d="M364 456q7 -108 46 -176.5t102.5 -100.5t139.5 -32q78 0 144 24t133 68l97 -134q-74 -60 -173 -96t-212 -36q-164 0 -277.5 70t-172.5 195t-59 289q0 159 58 284.5t166 199t258 73.5q141 0 242.5 -64t157 -181.5t55.5 -282.5q0 -27 -1.5 -53.5t-3.5 -46.5h-700zM616 918
q-105 0 -173.5 -75t-79.5 -234h489q-3 149 -63.5 229t-172.5 80zM365 1245l-94 100l276 253h144l273 -253l-90 -100l-255 183z" />
    <glyph glyph-name="edieresis" unicode="&#xeb;" 
d="M364 456q7 -108 46 -176.5t102.5 -100.5t139.5 -32q78 0 144 24t133 68l97 -134q-74 -60 -173 -96t-212 -36q-164 0 -277.5 70t-172.5 195t-59 289q0 159 58 284.5t166 199t258 73.5q141 0 242.5 -64t157 -181.5t55.5 -282.5q0 -27 -1.5 -53.5t-3.5 -46.5h-700zM616 918
q-105 0 -173.5 -75t-79.5 -234h489q-3 149 -63.5 229t-172.5 80zM402 1288q-56 0 -93.5 36.5t-37.5 90.5t37.5 90.5t93.5 36.5q55 0 92 -36.5t37 -90.5t-37 -90.5t-92 -36.5zM833 1288q-54 0 -91.5 36.5t-37.5 90.5t37.5 90.5t91.5 36.5q56 0 93.5 -36.5t37.5 -90.5
t-37.5 -90.5t-93.5 -36.5z" />
    <glyph glyph-name="igrave" unicode="&#xec;" 
d="M755 1056v-892h287v-164h-827v164h316v728h-306v164h530zM783 1244l-430 187l103 179l394 -248z" />
    <glyph glyph-name="iacute" unicode="&#xed;" 
d="M755 1056v-892h287v-164h-827v164h316v728h-306v164h530zM763 1623l94 -180l-438 -176l-66 116z" />
    <glyph glyph-name="icircumflex" unicode="&#xee;" 
d="M755 1056v-892h287v-164h-827v164h316v728h-306v164h530zM348 1245l-94 100l276 253h144l273 -253l-90 -100l-255 183z" />
    <glyph glyph-name="idieresis" unicode="&#xef;" 
d="M755 1056v-892h287v-164h-827v164h316v728h-306v164h530zM385 1288q-56 0 -93.5 36.5t-37.5 90.5t37.5 90.5t93.5 36.5q55 0 92 -36.5t37 -90.5t-37 -90.5t-92 -36.5zM816 1288q-54 0 -91.5 36.5t-37.5 90.5t37.5 90.5t91.5 36.5q56 0 93.5 -36.5t37.5 -90.5t-37.5 -90.5
t-93.5 -36.5z" />
    <glyph glyph-name="eth" unicode="&#xf0;" 
d="M306 1131l144 151q-46 20 -99 35t-115 28l47 160q86 -17 160 -38.5t136 -50.5l142 149l124 -108l-117 -121q184 -123 269.5 -321t85.5 -478q0 -167 -59.5 -294t-170 -198.5t-264.5 -71.5q-132 0 -240 58t-172 169t-64 269q0 148 59 259t156.5 173t211.5 62
q97 0 169.5 -32t128.5 -92q-30 117 -93 208.5t-149 154.5l-140 -144zM856 526q0 37 -0.5 70t-3.5 66q-46 65 -115 99t-152 34q-66 0 -121.5 -34t-88.5 -104t-33 -181q0 -166 69 -249t179 -83q126 0 196 96.5t70 285.5z" />
    <glyph glyph-name="ntilde" unicode="&#xf1;" 
d="M178 0v1056h193l17 -137q66 81 156 123t185 42q148 0 221.5 -82.5t73.5 -231.5v-770h-224v659q0 92 -11 148t-43.5 81t-96.5 25q-51 0 -97 -22t-84 -57.5t-66 -75.5v-758h-224zM716 1299q-55 0 -93.5 23.5t-70.5 47t-67 23.5t-58.5 -23t-47.5 -68l-126 63q35 80 92.5 137
t137.5 57q58 0 96.5 -23.5t69 -47t66.5 -23.5q31 0 55 21.5t51 65.5l126 -62q-39 -90 -98 -140.5t-133 -50.5z" />
    <glyph glyph-name="ograve" unicode="&#xf2;" 
d="M601 1084q155 0 261 -69t160.5 -193t54.5 -292q0 -167 -55.5 -292.5t-162 -195t-259.5 -69.5t-259.5 67.5t-162 192.5t-55.5 295q0 165 55.5 290t162.5 195.5t260 70.5zM601 910q-121 0 -182 -92.5t-61 -289.5q0 -196 60.5 -289t181.5 -93t181.5 93t60.5 291
q0 195 -60 287.5t-181 92.5zM782 1244l-430 187l103 179l394 -248z" />
    <glyph glyph-name="oacute" unicode="&#xf3;" 
d="M601 1084q155 0 261 -69t160.5 -193t54.5 -292q0 -167 -55.5 -292.5t-162 -195t-259.5 -69.5t-259.5 67.5t-162 192.5t-55.5 295q0 165 55.5 290t162.5 195.5t260 70.5zM601 910q-121 0 -182 -92.5t-61 -289.5q0 -196 60.5 -289t181.5 -93t181.5 93t60.5 291
q0 195 -60 287.5t-181 92.5zM762 1623l94 -180l-438 -176l-66 116z" />
    <glyph glyph-name="ocircumflex" unicode="&#xf4;" 
d="M601 1084q155 0 261 -69t160.5 -193t54.5 -292q0 -167 -55.5 -292.5t-162 -195t-259.5 -69.5t-259.5 67.5t-162 192.5t-55.5 295q0 165 55.5 290t162.5 195.5t260 70.5zM601 910q-121 0 -182 -92.5t-61 -289.5q0 -196 60.5 -289t181.5 -93t181.5 93t60.5 291
q0 195 -60 287.5t-181 92.5zM347 1245l-94 100l276 253h144l273 -253l-90 -100l-255 183z" />
    <glyph glyph-name="otilde" unicode="&#xf5;" 
d="M601 1084q155 0 261 -69t160.5 -193t54.5 -292q0 -167 -55.5 -292.5t-162 -195t-259.5 -69.5t-259.5 67.5t-162 192.5t-55.5 295q0 165 55.5 290t162.5 195.5t260 70.5zM601 910q-121 0 -182 -92.5t-61 -289.5q0 -196 60.5 -289t181.5 -93t181.5 93t60.5 291
q0 195 -60 287.5t-181 92.5zM715 1299q-55 0 -93.5 23.5t-70.5 47t-67 23.5t-58.5 -23t-47.5 -68l-126 63q35 80 92.5 137t137.5 57q58 0 96.5 -23.5t69 -47t66.5 -23.5q31 0 55 21.5t51 65.5l126 -62q-39 -90 -98 -140.5t-133 -50.5z" />
    <glyph glyph-name="odieresis" unicode="&#xf6;" 
d="M601 1084q155 0 261 -69t160.5 -193t54.5 -292q0 -167 -55.5 -292.5t-162 -195t-259.5 -69.5t-259.5 67.5t-162 192.5t-55.5 295q0 165 55.5 290t162.5 195.5t260 70.5zM601 910q-121 0 -182 -92.5t-61 -289.5q0 -196 60.5 -289t181.5 -93t181.5 93t60.5 291
q0 195 -60 287.5t-181 92.5zM384 1288q-56 0 -93.5 36.5t-37.5 90.5t37.5 90.5t93.5 36.5q55 0 92 -36.5t37 -90.5t-37 -90.5t-92 -36.5zM815 1288q-54 0 -91.5 36.5t-37.5 90.5t37.5 90.5t91.5 36.5q56 0 93.5 -36.5t37.5 -90.5t-37.5 -90.5t-93.5 -36.5z" />
    <glyph glyph-name="divide" unicode="&#xf7;" 
d="M994 719v-181h-788v181h788zM600 374q64 0 108 -44t44 -106q0 -64 -44 -108.5t-108 -44.5t-108 44.5t-44 108.5q0 62 44 106t108 44zM600 1186q64 0 108 -44.5t44 -106.5q0 -63 -44 -106.5t-108 -43.5t-108 43.5t-44 106.5q0 62 44 106.5t108 44.5z" />
    <glyph glyph-name="oslash" unicode="&#xf8;" 
d="M601 1084q151 0 257 -69t162.5 -193t56.5 -292q0 -167 -55.5 -292.5t-162 -195t-259.5 -69.5q-150 0 -256.5 67.5t-163.5 192.5t-57 295q0 165 55.5 290t162.5 195.5t260 70.5zM762 1315l174 -51l-87 -265l-71 -118l-236 -753l-23 -132l-79 -262l-175 52l92 277l72 125
l237 758l15 118zM601 912q-122 0 -183 -93t-61 -291q0 -142 25 -226t79 -120.5t139 -36.5q123 0 183 92.5t60 292.5q0 141 -25 224.5t-78.5 120.5t-138.5 37z" />
    <glyph glyph-name="ugrave" unicode="&#xf9;" 
d="M402 1056v-738q0 -94 37.5 -134t113.5 -40q72 0 139 43t106 105v764h224v-1056h-193l-14 135q-59 -79 -149 -120.5t-184 -41.5q-153 0 -228.5 84.5t-75.5 232.5v766h224zM782 1244l-430 187l103 179l394 -248z" />
    <glyph glyph-name="uacute" unicode="&#xfa;" 
d="M402 1056v-738q0 -94 37.5 -134t113.5 -40q72 0 139 43t106 105v764h224v-1056h-193l-14 135q-59 -79 -149 -120.5t-184 -41.5q-153 0 -228.5 84.5t-75.5 232.5v766h224zM762 1623l94 -180l-438 -176l-66 116z" />
    <glyph glyph-name="ucircumflex" unicode="&#xfb;" 
d="M402 1056v-738q0 -94 37.5 -134t113.5 -40q72 0 139 43t106 105v764h224v-1056h-193l-14 135q-59 -79 -149 -120.5t-184 -41.5q-153 0 -228.5 84.5t-75.5 232.5v766h224zM347 1245l-94 100l276 253h144l273 -253l-90 -100l-255 183z" />
    <glyph glyph-name="udieresis" unicode="&#xfc;" 
d="M402 1056v-738q0 -94 37.5 -134t113.5 -40q72 0 139 43t106 105v764h224v-1056h-193l-14 135q-59 -79 -149 -120.5t-184 -41.5q-153 0 -228.5 84.5t-75.5 232.5v766h224zM384 1288q-56 0 -93.5 36.5t-37.5 90.5t37.5 90.5t93.5 36.5q55 0 92 -36.5t37 -90.5t-37 -90.5
t-92 -36.5zM815 1288q-54 0 -91.5 36.5t-37.5 90.5t37.5 90.5t91.5 36.5q56 0 93.5 -36.5t37.5 -90.5t-37.5 -90.5t-93.5 -36.5z" />
    <glyph glyph-name="yacute" unicode="&#xfd;" 
d="M1102 1056l-364 -1060q-41 -120 -105 -211.5t-164 -147.5t-248 -69l-29 168q107 17 170.5 49.5t101 85.5t66.5 129h-76l-356 1056h238l266 -900l270 900h230zM762 1623l94 -180l-438 -176l-66 116z" />
    <glyph glyph-name="thorn" unicode="&#xfe;" 
d="M402 1505v-570q54 72 129 110.5t162 38.5q140 0 224 -68.5t122 -193t38 -292.5q0 -161 -46 -287t-136.5 -198t-224.5 -72q-166 0 -268 117v-496l-224 -25v1911zM631 911q-75 0 -132 -45t-97 -106v-494q38 -57 90.5 -87.5t118.5 -30.5q113 0 172 91t59 290
q0 135 -23.5 219.5t-70 123.5t-117.5 39z" />
    <glyph glyph-name="ydieresis" unicode="&#xff;" 
d="M1102 1056l-364 -1060q-41 -120 -105 -211.5t-164 -147.5t-248 -69l-29 168q107 17 170.5 49.5t101 85.5t66.5 129h-76l-356 1056h238l266 -900l270 900h230zM384 1288q-56 0 -93.5 36.5t-37.5 90.5t37.5 90.5t93.5 36.5q55 0 92 -36.5t37 -90.5t-37 -90.5t-92 -36.5z
M815 1288q-54 0 -91.5 36.5t-37.5 90.5t37.5 90.5t91.5 36.5q56 0 93.5 -36.5t37.5 -90.5t-37.5 -90.5t-93.5 -36.5z" />
    <glyph glyph-name="Amacron" unicode="&#x100;" 
d="M842 332h-493l-96 -332h-236l439 1380h288l440 -1380h-246zM397 511h396l-197 689zM882 1581h-565v163h565v-163z" />
    <glyph glyph-name="amacron" unicode="&#x101;" 
d="M985 259q0 -62 19 -90.5t61 -42.5l-50 -152q-78 9 -134 43t-85 103q-58 -73 -147 -110t-190 -37q-160 0 -253.5 90.5t-93.5 237.5q0 167 130 257t372 90h151v69q0 102 -61.5 147t-173.5 45q-52 0 -126 -13.5t-155 -41.5l-55 158q99 37 194 54.5t176 17.5q212 0 316.5 -94
t104.5 -260v-471zM527 138q68 0 133 36t105 101v233h-124q-158 0 -226 -52.5t-68 -144.5q0 -84 45.5 -128.5t134.5 -44.5zM867 1338h-565v163h565v-163z" />
    <glyph glyph-name="Abreve" unicode="&#x102;" 
d="M842 332h-493l-96 -332h-236l439 1380h288l440 -1380h-246zM397 511h396l-197 689zM598 1512q-89 0 -156.5 34t-108 94t-49.5 137l138 27q21 -60 63.5 -94t112.5 -34t114.5 34t64.5 94l138 -27q-8 -77 -49.5 -137t-110 -94t-157.5 -34z" />
    <glyph glyph-name="abreve" unicode="&#x103;" 
d="M985 259q0 -62 19 -90.5t61 -42.5l-50 -152q-78 9 -134 43t-85 103q-58 -73 -147 -110t-190 -37q-160 0 -253.5 90.5t-93.5 237.5q0 167 130 257t372 90h151v69q0 102 -61.5 147t-173.5 45q-52 0 -126 -13.5t-155 -41.5l-55 158q99 37 194 54.5t176 17.5q212 0 316.5 -94
t104.5 -260v-471zM527 138q68 0 133 36t105 101v233h-124q-158 0 -226 -52.5t-68 -144.5q0 -84 45.5 -128.5t134.5 -44.5zM582 1246q-98 0 -165 45.5t-103.5 115t-44.5 140.5l138 27q20 -74 62.5 -120t112.5 -46q72 0 116 46t64 120l138 -27q-8 -71 -45.5 -140.5
t-105.5 -115t-167 -45.5z" />
    <glyph glyph-name="Aogonek" unicode="&#x104;" 
d="M842 332h-493l-96 -332h-236l439 1380h288l440 -1380h-246zM397 511h396l-197 689zM1043 77l30 -77q-99 -40 -151 -77.5t-71 -74t-19 -74.5q0 -46 27 -71t86 -25q32 0 59 3.5t59 10.5l-20 -154q-29 -7 -57 -11t-66 -4q-119 0 -192.5 59.5t-73.5 156.5q0 83 45 145.5
t132 109t212 83.5z" />
    <glyph glyph-name="aogonek" unicode="&#x105;" 
d="M985 259q0 -62 19 -90.5t61 -42.5l-50 -152q-78 9 -134 43t-85 103q-58 -73 -147 -110t-190 -37q-160 0 -253.5 90.5t-93.5 237.5q0 167 130 257t372 90h151v69q0 102 -61.5 147t-173.5 45q-52 0 -126 -13.5t-155 -41.5l-55 158q99 37 194 54.5t176 17.5q212 0 316.5 -94
t104.5 -260v-471zM527 138q68 0 133 36t105 101v233h-124q-158 0 -226 -52.5t-68 -144.5q0 -84 45.5 -128.5t134.5 -44.5zM984 51l30 -77q-99 -40 -151 -77.5t-71 -74t-19 -74.5q0 -46 27 -71t86 -25q32 0 59 3.5t59 10.5l-20 -154q-29 -7 -57 -11t-66 -4
q-119 0 -192.5 59.5t-73.5 156.5q0 83 45 145.5t132 109t212 83.5z" />
    <glyph glyph-name="Cacute" unicode="&#x106;" 
d="M716 1408q140 0 236.5 -36.5t179.5 -104.5l-121 -144q-62 52 -133 77t-151 25q-103 0 -190 -52t-139.5 -169t-52.5 -312q0 -191 50 -308t137 -170t195 -53q111 0 184 36.5t129 82.5l112 -143q-69 -67 -175 -115.5t-258 -48.5q-175 0 -314.5 82.5t-220 242.5t-80.5 394
q0 232 83 391.5t222 242t307 82.5zM889 1847l92 -178l-445 -161l-57 116z" />
    <glyph glyph-name="cacute" unicode="&#x107;" 
d="M687 157q74 0 138 25.5t122 66.5l104 -144q-69 -59 -167.5 -95.5t-203.5 -36.5q-162 0 -277 68.5t-176 192.5t-61 289q0 161 61.5 287.5t177.5 200t279 73.5q108 0 199 -32t167 -95l-103 -141q-62 43 -126.5 65.5t-132.5 22.5q-125 0 -204.5 -92t-79.5 -289
q0 -132 36.5 -212.5t100.5 -117t146 -36.5zM850 1603l94 -180l-438 -176l-66 116z" />
    <glyph glyph-name="Ccircumflex" unicode="&#x108;" 
d="M716 1408q140 0 236.5 -36.5t179.5 -104.5l-121 -144q-62 52 -133 77t-151 25q-103 0 -190 -52t-139.5 -169t-52.5 -312q0 -191 50 -308t137 -170t195 -53q111 0 184 36.5t129 82.5l112 -143q-69 -67 -175 -115.5t-258 -48.5q-175 0 -314.5 82.5t-220 242.5t-80.5 394
q0 232 83 391.5t222 242t307 82.5zM801 1846l273 -233l-88 -101l-258 164l-256 -164l-91 101l276 233h144z" />
    <glyph glyph-name="ccircumflex" unicode="&#x109;" 
d="M687 157q74 0 138 25.5t122 66.5l104 -144q-69 -59 -167.5 -95.5t-203.5 -36.5q-162 0 -277 68.5t-176 192.5t-61 289q0 161 61.5 287.5t177.5 200t279 73.5q108 0 199 -32t167 -95l-103 -141q-62 43 -126.5 65.5t-132.5 22.5q-125 0 -204.5 -92t-79.5 -289
q0 -132 36.5 -212.5t100.5 -117t146 -36.5zM435 1225l-94 100l276 253h144l273 -253l-90 -100l-255 183z" />
    <glyph glyph-name="Cdotaccent" unicode="&#x10a;" 
d="M716 1408q140 0 236.5 -36.5t179.5 -104.5l-121 -144q-62 52 -133 77t-151 25q-103 0 -190 -52t-139.5 -169t-52.5 -312q0 -191 50 -308t137 -170t195 -53q111 0 184 36.5t129 82.5l112 -143q-69 -67 -175 -115.5t-258 -48.5q-175 0 -314.5 82.5t-220 242.5t-80.5 394
q0 232 83 391.5t222 242t307 82.5zM726 1816q65 0 106 -40t41 -100t-41 -101t-106 -41t-106 41t-41 101t41 100t106 40z" />
    <glyph glyph-name="cdotaccent" unicode="&#x10b;" 
d="M687 157q74 0 138 25.5t122 66.5l104 -144q-69 -59 -167.5 -95.5t-203.5 -36.5q-162 0 -277 68.5t-176 192.5t-61 289q0 161 61.5 287.5t177.5 200t279 73.5q108 0 199 -32t167 -95l-103 -141q-62 43 -126.5 65.5t-132.5 22.5q-125 0 -204.5 -92t-79.5 -289
q0 -132 36.5 -212.5t100.5 -117t146 -36.5zM687 1553q65 0 106 -40t41 -100t-41 -101t-106 -41t-106 41t-41 101t41 100t106 40z" />
    <glyph glyph-name="Ccaron" unicode="&#x10c;" 
d="M716 1408q140 0 236.5 -36.5t179.5 -104.5l-121 -144q-62 52 -133 77t-151 25q-103 0 -190 -52t-139.5 -169t-52.5 -312q0 -191 50 -308t137 -170t195 -53q111 0 184 36.5t129 82.5l112 -143q-69 -67 -175 -115.5t-258 -48.5q-175 0 -314.5 82.5t-220 242.5t-80.5 394
q0 232 83 391.5t222 242t307 82.5zM986 1840l88 -101l-273 -233h-144l-276 233l91 101l256 -164z" />
    <glyph glyph-name="ccaron" unicode="&#x10d;" 
d="M687 157q74 0 138 25.5t122 66.5l104 -144q-69 -59 -167.5 -95.5t-203.5 -36.5q-162 0 -277 68.5t-176 192.5t-61 289q0 161 61.5 287.5t177.5 200t279 73.5q108 0 199 -32t167 -95l-103 -141q-62 43 -126.5 65.5t-132.5 22.5q-125 0 -204.5 -92t-79.5 -289
q0 -132 36.5 -212.5t100.5 -117t146 -36.5zM944 1578l90 -100l-273 -253h-144l-276 253l94 100l254 -184z" />
    <glyph glyph-name="Dcaron" unicode="&#x10e;" 
d="M878 697q0 165 -32.5 265t-87 152t-121 70t-135.5 18h-127v-1026h128q72 0 139 23t120.5 80t84.5 158.5t31 259.5zM1122 697q0 -171 -36.5 -292t-100 -200.5t-146 -124t-174.5 -62.5t-184 -18h-338v1380h315q126 0 244.5 -27t213 -100t150.5 -207t56 -349zM828 1840
l88 -101l-273 -233h-144l-276 233l91 101l256 -164z" />
    <glyph glyph-name="dcaron" unicode="&#x10f;" 
d="M733 1505l224 -25v-1480h-197l-16 130q-54 -75 -129 -116t-168 -41q-136 0 -224 69.5t-130.5 195t-42.5 290.5q0 161 50 286.5t143 197.5t224 72q83 0 149 -29.5t117 -85.5v536zM526 912q-113 0 -176 -93.5t-63 -290.5q0 -135 26 -219.5t75 -124t118 -39.5q76 0 132 44
t95 106v500q-39 56 -91 86.5t-116 30.5zM1088 1507l199 -24l-125 -397l-133 21z" />
    <glyph glyph-name="Dcroat" unicode="&#x110;" 
d="M684 785v-158h-652v158h652zM900 697q0 165 -33 265t-87 152t-120.5 70t-135.5 18h-127v-1026h128q72 0 139 23t120 80t84.5 158.5t31.5 259.5zM1143 697q0 -171 -36.5 -292t-100 -200.5t-145.5 -124t-174 -62.5t-184 -18h-338v1380h315q125 0 243.5 -27t213.5 -100
t150.5 -207t55.5 -349z" />
    <glyph glyph-name="dcroat" unicode="&#x111;" 
d="M1011 1345h159v-153h-383h-305v153h529zM787 1505l224 -25v-1480h-198l-16 130q-53 -75 -128 -116t-168 -41q-136 0 -224 69.5t-130.5 195t-42.5 290.5q0 161 49.5 286.5t143 197.5t224.5 72q83 0 149 -29.5t117 -85.5v536zM580 912q-113 0 -176 -93.5t-63 -290.5
q0 -135 26 -219.5t75 -124t118 -39.5q76 0 132 44t95 106v500q-39 56 -91 86.5t-116 30.5z" />
    <glyph glyph-name="Emacron" unicode="&#x112;" 
d="M458 1204v-415h500v-176h-500v-437h609v-176h-841v1380h830l-26 -176h-572zM923 1581h-565v163h565v-163z" />
    <glyph glyph-name="emacron" unicode="&#x113;" 
d="M364 456q7 -108 46 -176.5t102.5 -100.5t139.5 -32q78 0 144 24t133 68l97 -134q-74 -60 -173 -96t-212 -36q-164 0 -277.5 70t-172.5 195t-59 289q0 159 58 284.5t166 199t258 73.5q141 0 242.5 -64t157 -181.5t55.5 -282.5q0 -27 -1.5 -53.5t-3.5 -46.5h-700zM616 918
q-105 0 -173.5 -75t-79.5 -234h489q-3 149 -63.5 229t-172.5 80zM900 1338h-565v163h565v-163z" />
    <glyph glyph-name="Ebreve" unicode="&#x114;" 
d="M458 1204v-415h500v-176h-500v-437h609v-176h-841v1380h830l-26 -176h-572zM639 1512q-89 0 -156.5 34t-108 94t-49.5 137l138 27q21 -60 63.5 -94t112.5 -34t114.5 34t64.5 94l138 -27q-8 -77 -49.5 -137t-110 -94t-157.5 -34z" />
    <glyph glyph-name="ebreve" unicode="&#x115;" 
d="M364 456q7 -108 46 -176.5t102.5 -100.5t139.5 -32q78 0 144 24t133 68l97 -134q-74 -60 -173 -96t-212 -36q-164 0 -277.5 70t-172.5 195t-59 289q0 159 58 284.5t166 199t258 73.5q141 0 242.5 -64t157 -181.5t55.5 -282.5q0 -27 -1.5 -53.5t-3.5 -46.5h-700zM616 918
q-105 0 -173.5 -75t-79.5 -234h489q-3 149 -63.5 229t-172.5 80zM615 1246q-98 0 -165 45.5t-103.5 115t-44.5 140.5l138 27q20 -74 62.5 -120t112.5 -46q72 0 116 46t64 120l138 -27q-8 -71 -45.5 -140.5t-105.5 -115t-167 -45.5z" />
    <glyph glyph-name="Edotaccent" unicode="&#x116;" 
d="M458 1204v-415h500v-176h-500v-437h609v-176h-841v1380h830l-26 -176h-572zM640 1816q65 0 106 -40t41 -100t-41 -101t-106 -41t-106 41t-41 101t41 100t106 40z" />
    <glyph glyph-name="edotaccent" unicode="&#x117;" 
d="M364 456q7 -108 46 -176.5t102.5 -100.5t139.5 -32q78 0 144 24t133 68l97 -134q-74 -60 -173 -96t-212 -36q-164 0 -277.5 70t-172.5 195t-59 289q0 159 58 284.5t166 199t258 73.5q141 0 242.5 -64t157 -181.5t55.5 -282.5q0 -27 -1.5 -53.5t-3.5 -46.5h-700zM616 918
q-105 0 -173.5 -75t-79.5 -234h489q-3 149 -63.5 229t-172.5 80zM617 1573q65 0 106 -40t41 -100t-41 -101t-106 -41t-106 41t-41 101t41 100t106 40z" />
    <glyph glyph-name="Eogonek" unicode="&#x118;" 
d="M458 1204v-415h500v-176h-500v-437h609v-176h-841v1380h830l-26 -176h-572zM905 77l30 -77q-99 -40 -151 -77.5t-71 -74t-19 -74.5q0 -46 27 -71t86 -25q32 0 59 3.5t59 10.5l-20 -154q-29 -7 -57 -11t-66 -4q-119 0 -192.5 59.5t-73.5 156.5q0 83 45 145.5t132 109
t212 83.5z" />
    <glyph glyph-name="eogonek" unicode="&#x119;" 
d="M812 50l13 -50q-99 -40 -151 -77.5t-71 -74t-19 -74.5q0 -46 27.5 -71t86.5 -25q32 0 58.5 3.5t59.5 10.5l-21 -154q-28 -7 -56.5 -11t-66.5 -4q-119 0 -192 59.5t-73 156.5q0 80 48.5 141t139.5 103.5t217 66.5zM364 456q7 -108 46 -176.5t102.5 -100.5t139.5 -32
q78 0 144 24t133 68l97 -134q-74 -60 -173 -96t-212 -36q-164 0 -277.5 70t-172.5 195t-59 289q0 159 58 284.5t166 199t258 73.5q141 0 242.5 -64t157 -181.5t55.5 -282.5q0 -27 -1.5 -53.5t-3.5 -46.5h-700zM616 918q-105 0 -173.5 -75t-79.5 -234h489q-3 149 -63.5 229
t-172.5 80z" />
    <glyph glyph-name="Ecaron" unicode="&#x11a;" 
d="M458 1204v-415h500v-176h-500v-437h609v-176h-841v1380h830l-26 -176h-572zM899 1840l88 -101l-273 -233h-144l-276 233l91 101l256 -164z" />
    <glyph glyph-name="ecaron" unicode="&#x11b;" 
d="M364 456q7 -108 46 -176.5t102.5 -100.5t139.5 -32q78 0 144 24t133 68l97 -134q-74 -60 -173 -96t-212 -36q-164 0 -277.5 70t-172.5 195t-59 289q0 159 58 284.5t166 199t258 73.5q141 0 242.5 -64t157 -181.5t55.5 -282.5q0 -27 -1.5 -53.5t-3.5 -46.5h-700zM616 918
q-105 0 -173.5 -75t-79.5 -234h489q-3 149 -63.5 229t-172.5 80zM874 1598l90 -100l-273 -253h-144l-276 253l94 100l254 -184z" />
    <glyph glyph-name="Gcircumflex" unicode="&#x11c;" 
d="M636 -27q-176 0 -302 80.5t-193 240.5t-67 398q0 177 48 311t132 224t192.5 135.5t229.5 45.5q141 0 235.5 -42t175.5 -117l-130 -135q-63 58 -128.5 85.5t-146.5 27.5q-73 0 -138.5 -28.5t-116.5 -91t-80.5 -165t-29.5 -251.5q0 -192 37 -310.5t110.5 -172.5t182.5 -54
q63 0 120 15t108 43v380h-234l-25 177h484v-669q-98 -55 -208.5 -91t-255.5 -36zM733 1846l273 -233l-88 -101l-258 164l-256 -164l-91 101l276 233h144z" />
    <glyph glyph-name="gcircumflex" unicode="&#x11d;" 
d="M1067 1190l60 -186q-63 -21 -138.5 -28t-168.5 -7q95 -42 143 -107.5t48 -160.5q0 -103 -50 -184t-143 -127t-223 -46q-46 0 -79.5 4t-65.5 13q-20 -14 -33.5 -37.5t-13.5 -49.5q0 -32 26.5 -55.5t105.5 -23.5h184q113 0 199.5 -38.5t136 -105t49.5 -150.5
q0 -158 -136 -245t-392 -87q-181 0 -284 37t-145 110t-42 179h201q0 -55 21.5 -91t80.5 -54t170 -18t176.5 18.5t95 53t29.5 82.5q0 64 -56 99t-150 35h-181q-150 0 -219.5 61t-69.5 142q0 54 30.5 104t87.5 87q-95 50 -138.5 121.5t-43.5 173.5q0 112 56 196t155.5 131
t229.5 47q127 0 212 13.5t148.5 38.5t126.5 55zM582 929q-107 0 -161 -60.5t-54 -157.5q0 -100 55.5 -160.5t162.5 -60.5q99 0 151.5 58t52.5 165q0 108 -52 162t-155 54zM339 1245l-94 100l276 253h144l273 -253l-90 -100l-255 183z" />
    <glyph glyph-name="Gbreve" unicode="&#x11e;" 
d="M636 -27q-176 0 -302 80.5t-193 240.5t-67 398q0 177 48 311t132 224t192.5 135.5t229.5 45.5q141 0 235.5 -42t175.5 -117l-130 -135q-63 58 -128.5 85.5t-146.5 27.5q-73 0 -138.5 -28.5t-116.5 -91t-80.5 -165t-29.5 -251.5q0 -192 37 -310.5t110.5 -172.5t182.5 -54
q63 0 120 15t108 43v380h-234l-25 177h484v-669q-98 -55 -208.5 -91t-255.5 -36zM658 1512q-89 0 -156.5 34t-108 94t-49.5 137l138 27q21 -60 63.5 -94t112.5 -34t114.5 34t64.5 94l138 -27q-8 -77 -49.5 -137t-110 -94t-157.5 -34z" />
    <glyph glyph-name="gbreve" unicode="&#x11f;" 
d="M1067 1190l60 -186q-63 -21 -138.5 -28t-168.5 -7q95 -42 143 -107.5t48 -160.5q0 -103 -50 -184t-143 -127t-223 -46q-46 0 -79.5 4t-65.5 13q-20 -14 -33.5 -37.5t-13.5 -49.5q0 -32 26.5 -55.5t105.5 -23.5h184q113 0 199.5 -38.5t136 -105t49.5 -150.5
q0 -158 -136 -245t-392 -87q-181 0 -284 37t-145 110t-42 179h201q0 -55 21.5 -91t80.5 -54t170 -18t176.5 18.5t95 53t29.5 82.5q0 64 -56 99t-150 35h-181q-150 0 -219.5 61t-69.5 142q0 54 30.5 104t87.5 87q-95 50 -138.5 121.5t-43.5 173.5q0 112 56 196t155.5 131
t229.5 47q127 0 212 13.5t148.5 38.5t126.5 55zM582 929q-107 0 -161 -60.5t-54 -157.5q0 -100 55.5 -160.5t162.5 -60.5q99 0 151.5 58t52.5 165q0 108 -52 162t-155 54zM589 1246q-98 0 -165 45.5t-103.5 115t-44.5 140.5l138 27q20 -74 62.5 -120t112.5 -46q72 0 116 46
t64 120l138 -27q-8 -71 -45.5 -140.5t-105.5 -115t-167 -45.5z" />
    <glyph glyph-name="Gdotaccent" unicode="&#x120;" 
d="M636 -27q-176 0 -302 80.5t-193 240.5t-67 398q0 177 48 311t132 224t192.5 135.5t229.5 45.5q141 0 235.5 -42t175.5 -117l-130 -135q-63 58 -128.5 85.5t-146.5 27.5q-73 0 -138.5 -28.5t-116.5 -91t-80.5 -165t-29.5 -251.5q0 -192 37 -310.5t110.5 -172.5t182.5 -54
q63 0 120 15t108 43v380h-234l-25 177h484v-669q-98 -55 -208.5 -91t-255.5 -36zM659 1816q65 0 106 -40t41 -100t-41 -101t-106 -41t-106 41t-41 101t41 100t106 40z" />
    <glyph glyph-name="gdotaccent" unicode="&#x121;" 
d="M1067 1190l60 -186q-63 -21 -138.5 -28t-168.5 -7q95 -42 143 -107.5t48 -160.5q0 -103 -50 -184t-143 -127t-223 -46q-46 0 -79.5 4t-65.5 13q-20 -14 -33.5 -37.5t-13.5 -49.5q0 -32 26.5 -55.5t105.5 -23.5h184q113 0 199.5 -38.5t136 -105t49.5 -150.5
q0 -158 -136 -245t-392 -87q-181 0 -284 37t-145 110t-42 179h201q0 -55 21.5 -91t80.5 -54t170 -18t176.5 18.5t95 53t29.5 82.5q0 64 -56 99t-150 35h-181q-150 0 -219.5 61t-69.5 142q0 54 30.5 104t87.5 87q-95 50 -138.5 121.5t-43.5 173.5q0 112 56 196t155.5 131
t229.5 47q127 0 212 13.5t148.5 38.5t126.5 55zM582 929q-107 0 -161 -60.5t-54 -157.5q0 -100 55.5 -160.5t162.5 -60.5q99 0 151.5 58t52.5 165q0 108 -52 162t-155 54zM591 1573q65 0 106 -40t41 -100t-41 -101t-106 -41t-106 41t-41 101t41 100t106 40z" />
    <glyph glyph-name="uni0122" unicode="&#x122;" 
d="M636 -27q-176 0 -302 80.5t-193 240.5t-67 398q0 177 48 311t132 224t192.5 135.5t229.5 45.5q141 0 235.5 -42t175.5 -117l-130 -135q-63 58 -128.5 85.5t-146.5 27.5q-73 0 -138.5 -28.5t-116.5 -91t-80.5 -165t-29.5 -251.5q0 -192 37 -310.5t110.5 -172.5t182.5 -54
q63 0 120 15t108 43v380h-234l-25 177h484v-669q-98 -55 -208.5 -91t-255.5 -36zM663 -137q53 0 90 -35.5t37 -89.5q0 -30 -9.5 -61t-27.5 -70l-99 -206h-124l57 232q-23 19 -37.5 45.5t-14.5 59.5q0 53 37 89t91 36z" />
    <glyph glyph-name="uni0123" unicode="&#x123;" 
d="M1067 1190l60 -186q-63 -21 -138.5 -28t-168.5 -7q95 -42 143 -107.5t48 -160.5q0 -103 -50 -184t-143 -127t-223 -46q-46 0 -79.5 4t-65.5 13q-20 -14 -33.5 -37.5t-13.5 -49.5q0 -32 26.5 -55.5t105.5 -23.5h184q113 0 199.5 -38.5t136 -105t49.5 -150.5
q0 -158 -136 -245t-392 -87q-181 0 -284 37t-145 110t-42 179h201q0 -55 21.5 -91t80.5 -54t170 -18t176.5 18.5t95 53t29.5 82.5q0 64 -56 99t-150 35h-181q-150 0 -219.5 61t-69.5 142q0 54 30.5 104t87.5 87q-95 50 -138.5 121.5t-43.5 173.5q0 112 56 196t155.5 131
t229.5 47q127 0 212 13.5t148.5 38.5t126.5 55zM582 929q-107 0 -161 -60.5t-54 -157.5q0 -100 55.5 -160.5t162.5 -60.5q99 0 151.5 58t52.5 165q0 108 -52 162t-155 54zM588 1193q-53 0 -90 35.5t-37 89.5q0 30 9.5 61t27.5 70l99 206h124l-57 -232q23 -19 37.5 -45.5
t14.5 -59.5q0 -53 -37 -89t-91 -36z" />
    <glyph glyph-name="Hcircumflex" unicode="&#x124;" 
d="M825 0v627h-450v-627h-232v1380h232v-562h450v562h232v-1380h-232zM673 1846l273 -233l-88 -101l-258 164l-256 -164l-91 101l276 233h144z" />
    <glyph glyph-name="hcircumflex" unicode="&#x125;" 
d="M402 1502v-575q64 78 150 117.5t177 39.5q149 0 222 -82.5t73 -231.5v-770h-224v735q0 95 -36 136.5t-116 41.5q-50 0 -95.5 -22.5t-84 -58.5t-66.5 -77v-755h-224v1478zM673 1945l273 -233l-88 -101l-258 164l-256 -164l-91 101l276 233h144z" />
    <glyph glyph-name="Hbar" unicode="&#x126;" 
d="M1054 1380v-1380h-232v630h-444v-630h-232v1380h232v-564h444v564h232zM1196 1163v-152h-1192v152h1192z" />
    <glyph glyph-name="hbar" unicode="&#x127;" 
d="M718 1345v-153h-316h-372v153h148h540zM402 1502v-575q64 78 150 117.5t177 39.5q149 0 222 -82.5t73 -231.5v-770h-224v735q0 95 -36 136.5t-116 41.5q-50 0 -95.5 -22.5t-84 -58.5t-66.5 -77v-755h-224v1478z" />
    <glyph glyph-name="Itilde" unicode="&#x128;" 
d="M1015 1380v-177h-298v-1025h298v-178h-830v178h298v1025h-298v177h830zM715 1542q-55 0 -93.5 23.5t-70.5 47t-67 23.5t-58.5 -23t-47.5 -68l-126 63q35 80 92.5 137t137.5 57q58 0 96.5 -23.5t69 -47t66.5 -23.5q31 0 55 21.5t51 65.5l126 -62q-39 -90 -98 -140.5
t-133 -50.5z" />
    <glyph glyph-name="itilde" unicode="&#x129;" 
d="M755 1056v-892h287v-164h-827v164h316v728h-306v164h530zM716 1299q-55 0 -93.5 23.5t-70.5 47t-67 23.5t-58.5 -23t-47.5 -68l-126 63q35 80 92.5 137t137.5 57q58 0 96.5 -23.5t69 -47t66.5 -23.5q31 0 55 21.5t51 65.5l126 -62q-39 -90 -98 -140.5t-133 -50.5z" />
    <glyph glyph-name="Imacron" unicode="&#x12a;" 
d="M1015 1380v-177h-298v-1025h298v-178h-830v178h298v1025h-298v177h830zM882 1581h-565v163h565v-163z" />
    <glyph glyph-name="imacron" unicode="&#x12b;" 
d="M755 1056v-892h287v-164h-827v164h316v728h-306v164h530zM883 1338h-565v163h565v-163z" />
    <glyph glyph-name="Ibreve" unicode="&#x12c;" 
d="M1015 1380v-177h-298v-1025h298v-178h-830v178h298v1025h-298v177h830zM598 1512q-89 0 -156.5 34t-108 94t-49.5 137l138 27q21 -60 63.5 -94t112.5 -34t114.5 34t64.5 94l138 -27q-8 -77 -49.5 -137t-110 -94t-157.5 -34z" />
    <glyph glyph-name="ibreve" unicode="&#x12d;" 
d="M755 1056v-892h287v-164h-827v164h316v728h-306v164h530zM598 1246q-98 0 -165 45.5t-103.5 115t-44.5 140.5l138 27q20 -74 62.5 -120t112.5 -46q72 0 116 46t64 120l138 -27q-8 -71 -45.5 -140.5t-105.5 -115t-167 -45.5z" />
    <glyph glyph-name="Iogonek" unicode="&#x12e;" 
d="M1015 1380v-177h-298v-1025h298v-178h-830v178h298v1025h-298v177h830zM686 77l30 -77q-99 -40 -151 -77.5t-71 -74t-19 -74.5q0 -46 27 -71t86 -25q32 0 59 3.5t59 10.5l-20 -154q-29 -7 -57 -11t-66 -4q-119 0 -192.5 59.5t-73.5 156.5q0 83 45 145.5t132 109t212 83.5
z" />
    <glyph glyph-name="iogonek" unicode="&#x12f;" 
d="M755 1056v-892h287v-164h-827v164h316v728h-306v164h530zM600 1573q65 0 106 -40t41 -100t-41 -101t-106 -41t-106 41t-41 101t41 100t106 40zM725 77l30 -77q-99 -40 -151 -77.5t-71 -74t-19 -74.5q0 -46 27 -71t86 -25q32 0 59 3.5t59 10.5l-20 -154q-29 -7 -57 -11
t-66 -4q-119 0 -192.5 59.5t-73.5 156.5q0 83 45 145.5t132 109t212 83.5z" />
    <glyph glyph-name="Idotaccent" unicode="&#x130;" 
d="M1015 1380v-177h-298v-1025h298v-178h-830v178h298v1025h-298v177h830zM599 1816q65 0 106 -40t41 -100t-41 -101t-106 -41t-106 41t-41 101t41 100t106 40z" />
    <glyph glyph-name="dotlessi" unicode="&#x131;" 
d="M755 1056v-892h287v-164h-827v164h316v728h-306v164h530z" />
    <glyph glyph-name="IJ" unicode="&#x132;" 
d="M379 -143q196 25 298.5 89.5t140 169.5t37.5 248v850h-430v-1048h139v-166h-544v166h180v1048h-180v166h1063v-1017q0 -126 -32 -237.5t-108 -200.5t-207.5 -149t-329.5 -83z" />
    <glyph glyph-name="ij" unicode="&#x133;" 
d="M1034 1056v-896q0 -169 -69.5 -282t-192 -186t-282.5 -123l-71 169q82 29 153.5 62.5t125.5 79.5t85 110.5t31 153.5v751h-340v-731h158v-164h-545v164h168v731h-158v161h937zM367 1573q65 0 106.5 -40t41.5 -100t-41.5 -101t-106.5 -41t-105.5 41t-40.5 101t40.5 100
t105.5 40zM902 1573q65 0 106.5 -40t41.5 -100t-41.5 -101t-106.5 -41q-64 0 -105 41t-41 101t41 100t105 40z" />
    <glyph glyph-name="Jcircumflex" unicode="&#x134;" 
d="M1016 1380v-907q0 -99 -28 -189t-88.5 -159.5t-156 -110t-230.5 -40.5q-114 0 -211 33t-182 94l95 148q82 -54 151.5 -73t137.5 -19q130 0 205.5 83t75.5 238v724h-415v178h646zM774 1846l273 -233l-88 -101l-258 164l-256 -164l-91 101l276 233h144z" />
    <glyph glyph-name="jcircumflex" unicode="&#x135;" 
d="M911 1056v-834q0 -197 -81.5 -327t-238.5 -207.5t-383 -118.5l-36 172q157 30 273 83t179 145t63 238v685h-417v164h641zM484 1245l-94 100l276 253h144l273 -253l-90 -100l-255 183z" />
    <glyph glyph-name="uni0136" unicode="&#x136;" 
d="M407 0h-232v1380h232v-1380zM417 737l480 643h255l-483 -627l521 -753h-278zM633 -137q53 0 90 -35.5t37 -89.5q0 -30 -9.5 -61t-27.5 -70l-99 -206h-124l57 232q-23 19 -37.5 45.5t-14.5 59.5q0 53 37 89t91 36z" />
    <glyph glyph-name="uni0137" unicode="&#x137;" 
d="M1108 1056l-427 -472l472 -584h-274l-454 578l422 478h261zM409 1505v-1505h-224v1480zM611 -137q53 0 90 -35.5t37 -89.5q0 -30 -9.5 -61t-27.5 -70l-99 -206h-124l57 232q-23 19 -37.5 45.5t-14.5 59.5q0 53 37 89t91 36z" />
    <glyph glyph-name="kgreenlandic" unicode="&#x138;" 
d="M1101 1056l-430 -481l475 -575h-274l-454 560l422 496h261zM402 1056v-1056h-224v1056h224z" />
    <glyph glyph-name="Lacute" unicode="&#x139;" 
d="M239 0v1380h232v-1186h618l-25 -194h-825zM517 1847l92 -178l-445 -161l-57 116z" />
    <glyph glyph-name="lacute" unicode="&#x13a;" 
d="M642 1480v-1192q0 -73 44.5 -103.5t115.5 -30.5q46 0 87 10t80 25l57 -156q-47 -24 -115.5 -42t-156.5 -18q-159 0 -247.5 89.5t-88.5 245.5v1007h-319v165h543zM685 2046l94 -180l-438 -176l-66 116z" />
    <glyph glyph-name="uni013B" unicode="&#x13b;" 
d="M239 0v1380h232v-1186h618l-25 -194h-825zM657 -137q53 0 90 -35.5t37 -89.5q0 -30 -9.5 -61t-27.5 -70l-99 -206h-124l57 232q-23 19 -37.5 45.5t-14.5 59.5q0 53 37 89t91 36z" />
    <glyph glyph-name="uni013C" unicode="&#x13c;" 
d="M642 1480v-1192q0 -73 44.5 -103.5t115.5 -30.5q46 0 87 10t80 25l57 -156q-47 -24 -115.5 -42t-156.5 -18q-159 0 -247.5 89.5t-88.5 245.5v1007h-319v165h543zM721 -137q53 0 90 -35.5t37 -89.5q0 -30 -9.5 -61t-27.5 -70l-99 -206h-124l57 232q-23 19 -37.5 45.5
t-14.5 59.5q0 53 37 89t91 36z" />
    <glyph glyph-name="Lcaron" unicode="&#x13d;" 
d="M239 0v1380h232v-1186h618l-25 -194h-825zM647 1407l199 -24l-125 -397l-133 21z" />
    <glyph glyph-name="lcaron" unicode="&#x13e;" 
d="M642 1480v-1192q0 -73 44.5 -103.5t115.5 -30.5q46 0 87 10t80 25l57 -156q-47 -24 -115.5 -42t-156.5 -18q-159 0 -247.5 89.5t-88.5 245.5v1007h-319v165h543zM792 1507l199 -24l-125 -397l-133 21z" />
    <glyph glyph-name="Ldot" unicode="&#x13f;" 
d="M239 0v1380h232v-1186h618l-25 -194h-825zM939 902q65 0 106 -40t41 -100t-41 -101t-106 -41t-106 41t-41 101t41 100t106 40z" />
    <glyph glyph-name="ldot" unicode="&#x140;" 
d="M642 1480v-1192q0 -73 44.5 -103.5t115.5 -30.5q46 0 87 10t80 25l57 -156q-47 -24 -115.5 -42t-156.5 -18q-159 0 -247.5 89.5t-88.5 245.5v1007h-319v165h543zM1127 905q65 0 106 -40t41 -100t-41 -101t-106 -41t-106 41t-41 101t41 100t106 40z" />
    <glyph glyph-name="Lslash" unicode="&#x141;" 
d="M142 441l-85 136l721 447l87 -134zM248 0v1380h232v-1186h618l-25 -194h-825z" />
    <glyph glyph-name="lslash" unicode="&#x142;" 
d="M418 761l385 238l87 -135l-248 -152l-341 -208l-87 134zM642 1480v-1192q0 -73 44.5 -103.5t115.5 -30.5q46 0 87 10t80 25l57 -156q-47 -24 -115.5 -42t-156.5 -18q-159 0 -247.5 89.5t-88.5 245.5v1007h-319v165h543z" />
    <glyph glyph-name="Nacute" unicode="&#x143;" 
d="M755 0l-439 1174q3 -31 8.5 -88t11 -132t9.5 -159t4 -168v-627h-206v1380h301l440 -1175q-5 42 -12.5 123.5t-14 190t-6.5 232.5v629h206v-1380h-302zM767 1847l92 -178l-445 -161l-57 116z" />
    <glyph glyph-name="nacute" unicode="&#x144;" 
d="M178 0v1056h193l17 -137q66 81 156 123t185 42q148 0 221.5 -82.5t73.5 -231.5v-770h-224v659q0 92 -11 148t-43.5 81t-96.5 25q-51 0 -97 -22t-84 -57.5t-66 -75.5v-758h-224zM763 1623l94 -180l-438 -176l-66 116z" />
    <glyph glyph-name="uni0145" unicode="&#x145;" 
d="M755 0l-439 1174q3 -31 8.5 -88t11 -132t9.5 -159t4 -168v-627h-206v1380h301l440 -1175q-5 42 -12.5 123.5t-14 190t-6.5 232.5v629h206v-1380h-302zM605 -137q53 0 90 -35.5t37 -89.5q0 -30 -9.5 -61t-27.5 -70l-99 -206h-124l57 232q-23 19 -37.5 45.5t-14.5 59.5
q0 53 37 89t91 36z" />
    <glyph glyph-name="uni0146" unicode="&#x146;" 
d="M178 0v1056h193l17 -137q66 81 156 123t185 42q148 0 221.5 -82.5t73.5 -231.5v-770h-224v659q0 92 -11 148t-43.5 81t-96.5 25q-51 0 -97 -22t-84 -57.5t-66 -75.5v-758h-224zM606 -137q53 0 90 -35.5t37 -89.5q0 -30 -9.5 -61t-27.5 -70l-99 -206h-124l57 232
q-23 19 -37.5 45.5t-14.5 59.5q0 53 37 89t91 36z" />
    <glyph glyph-name="Ncaron" unicode="&#x147;" 
d="M755 0l-439 1174q3 -31 8.5 -88t11 -132t9.5 -159t4 -168v-627h-206v1380h301l440 -1175q-5 42 -12.5 123.5t-14 190t-6.5 232.5v629h206v-1380h-302zM864 1840l88 -101l-273 -233h-144l-276 233l91 101l256 -164z" />
    <glyph glyph-name="ncaron" unicode="&#x148;" 
d="M178 0v1056h193l17 -137q66 81 156 123t185 42q148 0 221.5 -82.5t73.5 -231.5v-770h-224v659q0 92 -11 148t-43.5 81t-96.5 25q-51 0 -97 -22t-84 -57.5t-66 -75.5v-758h-224zM857 1598l90 -100l-273 -253h-144l-276 253l94 100l254 -184z" />
    <glyph glyph-name="napostrophe" unicode="&#x149;" 
d="M124 1512q53 0 89 -34.5t36 -88.5q0 -29 -10.5 -60.5t-39.5 -91.5l-82 -168h-121l53 217q-23 19 -38 44.5t-15 58.5q0 52 37.5 87.5t90.5 35.5zM203 0v1056h194l16 -137q67 81 157 123t184 42q148 0 221.5 -82.5t73.5 -231.5v-770h-224v659q0 92 -11 148t-43 81t-97 25
q-50 0 -96 -22t-84 -57.5t-67 -75.5v-758h-224z" />
    <glyph glyph-name="Eng" unicode="&#x14a;" 
d="M725 -436q-83 0 -141.5 24t-101.5 56l87 141q32 -19 62.5 -31t77.5 -12q55 0 85.5 34t30.5 110v114h232v-97q0 -168 -89 -253.5t-243 -85.5zM755 0l-439 1174q3 -31 8.5 -88t11 -132t9.5 -159t4 -168v-627h-206v1380h301l440 -1175q-5 42 -12.5 123.5t-14 190t-6.5 232.5
v629h206v-1380h-302z" />
    <glyph glyph-name="eng" unicode="&#x14b;" 
d="M1024 81q0 -158 -41.5 -252.5t-120 -152t-191.5 -106.5l-81 164q69 31 115.5 66.5t70.5 96.5t24 170v592q0 92 -11 148t-43 81t-98 25q-50 0 -95.5 -22.5t-84 -58.5t-66.5 -77v-755h-224v1056h193l17 -137q66 81 157 123t184 42q149 0 222 -82.5t73 -231.5v-689z" />
    <glyph glyph-name="Omacron" unicode="&#x14c;" 
d="M1125 690q0 -213 -59 -374.5t-176 -252t-290 -90.5q-172 0 -289.5 88.5t-176.5 249t-59 377.5q0 214 59 375.5t176.5 253t289.5 91.5q173 0 290 -89t176 -250.5t59 -378.5zM885 690q0 268 -66.5 402.5t-218.5 134.5t-218.5 -135.5t-66.5 -403.5q0 -267 68 -400.5
t217 -133.5q154 0 219.5 134.5t65.5 401.5zM882 1581h-565v163h565v-163z" />
    <glyph glyph-name="omacron" unicode="&#x14d;" 
d="M601 1084q155 0 261 -69t160.5 -193t54.5 -292q0 -167 -55.5 -292.5t-162 -195t-259.5 -69.5t-259.5 67.5t-162 192.5t-55.5 295q0 165 55.5 290t162.5 195.5t260 70.5zM601 910q-121 0 -182 -92.5t-61 -289.5q0 -196 60.5 -289t181.5 -93t181.5 93t60.5 291
q0 195 -60 287.5t-181 92.5zM882 1338h-565v163h565v-163z" />
    <glyph glyph-name="Obreve" unicode="&#x14e;" 
d="M1125 690q0 -213 -59 -374.5t-176 -252t-290 -90.5q-172 0 -289.5 88.5t-176.5 249t-59 377.5q0 214 59 375.5t176.5 253t289.5 91.5q173 0 290 -89t176 -250.5t59 -378.5zM885 690q0 268 -66.5 402.5t-218.5 134.5t-218.5 -135.5t-66.5 -403.5q0 -267 68 -400.5
t217 -133.5q154 0 219.5 134.5t65.5 401.5zM598 1512q-89 0 -156.5 34t-108 94t-49.5 137l138 27q21 -60 63.5 -94t112.5 -34t114.5 34t64.5 94l138 -27q-8 -77 -49.5 -137t-110 -94t-157.5 -34z" />
    <glyph glyph-name="obreve" unicode="&#x14f;" 
d="M601 1084q155 0 261 -69t160.5 -193t54.5 -292q0 -167 -55.5 -292.5t-162 -195t-259.5 -69.5t-259.5 67.5t-162 192.5t-55.5 295q0 165 55.5 290t162.5 195.5t260 70.5zM601 910q-121 0 -182 -92.5t-61 -289.5q0 -196 60.5 -289t181.5 -93t181.5 93t60.5 291
q0 195 -60 287.5t-181 92.5zM597 1246q-98 0 -165 45.5t-103.5 115t-44.5 140.5l138 27q20 -74 62.5 -120t112.5 -46q72 0 116 46t64 120l138 -27q-8 -71 -45.5 -140.5t-105.5 -115t-167 -45.5z" />
    <glyph glyph-name="Ohungarumlaut" unicode="&#x150;" 
d="M1125 690q0 -213 -59 -374.5t-176 -252t-290 -90.5q-172 0 -289.5 88.5t-176.5 249t-59 377.5q0 214 59 375.5t176.5 253t289.5 91.5q173 0 290 -89t176 -250.5t59 -378.5zM885 690q0 268 -66.5 402.5t-218.5 134.5t-218.5 -135.5t-66.5 -403.5q0 -267 68 -400.5
t217 -133.5q154 0 219.5 134.5t65.5 401.5zM347 1566l171 365l174 -82l-215 -342zM674 1568l185 363l172 -87l-230 -340z" />
    <glyph glyph-name="ohungarumlaut" unicode="&#x151;" 
d="M601 1084q155 0 261 -69t160.5 -193t54.5 -292q0 -167 -55.5 -292.5t-162 -195t-259.5 -69.5t-259.5 67.5t-162 192.5t-55.5 295q0 165 55.5 290t162.5 195.5t260 70.5zM601 910q-121 0 -182 -92.5t-61 -289.5q0 -196 60.5 -289t181.5 -93t181.5 93t60.5 291
q0 195 -60 287.5t-181 92.5zM341 1323l171 365l174 -82l-215 -342zM668 1325l185 363l172 -87l-230 -340z" />
    <glyph glyph-name="OE" unicode="&#x152;" 
d="M433 1408q44 0 82 -7t79 -21h614l-26 -171h-440q46 -65 74 -169.5t35 -253.5h283v-172h-282q-5 -155 -36 -263.5t-83 -178.5h486v-172h-632q-37 -11 -73.5 -19t-80.5 -8q-220 0 -323.5 182.5t-103.5 532.5q0 230 46 390.5t140.5 245t240.5 84.5zM434 1234
q-110 0 -158.5 -125.5t-48.5 -420.5q0 -294 51 -418.5t156 -124.5q111 0 160.5 125.5t49.5 419.5q0 198 -20.5 317.5t-67 173t-122.5 53.5z" />
    <glyph glyph-name="oe" unicode="&#x153;" 
d="M890 1084q179 0 256 -139.5t77 -388.5q0 -27 -1 -51t-3 -45h-505q13 -166 62 -243.5t145 -77.5q53 0 94.5 19.5t89.5 54.5l93 -132q-60 -48 -127.5 -78t-156.5 -30q-109 0 -184 49t-118 137q-37 -84 -99 -135t-172 -51q-121 0 -198.5 67.5t-114.5 192.5t-37 295
q0 165 36 290t114 195.5t200 70.5q115 0 177.5 -52t97.5 -140q37 83 102 137.5t172 54.5zM358 911q-85 0 -121 -92t-36 -291q0 -206 36 -294t121 -88q86 0 120 85.5t34 298.5q0 199 -34.5 290t-119.5 91zM882 922q-78 0 -118 -69.5t-51 -245.5h318q-2 157 -32.5 236
t-116.5 79z" />
    <glyph glyph-name="Racute" unicode="&#x154;" 
d="M1093 981q0 -102 -41.5 -177.5t-113 -125.5t-159.5 -77l391 -601h-270l-347 568h-151v-568h-232v1380h385q266 0 402 -99.5t136 -299.5zM850 981q0 120 -69.5 173.5t-212.5 53.5h-166v-470h171q133 0 205 56.5t72 186.5zM762 1847l92 -178l-445 -161l-57 116z" />
    <glyph glyph-name="racute" unicode="&#x155;" 
d="M188 0v160h155v737h-155v159h326l41 -245q59 133 146.5 202.5t225.5 69.5q47 0 84.5 -7.5t74.5 -19.5l-67 -192q-32 9 -60 13.5t-62 4.5q-115 0 -198.5 -86t-131.5 -244v-392h213v-160h-592zM888 667v260l28 129h170l-38 -389h-160zM819 1623l94 -180l-438 -176l-66 116z
" />
    <glyph glyph-name="uni0156" unicode="&#x156;" 
d="M1093 981q0 -102 -41.5 -177.5t-113 -125.5t-159.5 -77l391 -601h-270l-347 568h-151v-568h-232v1380h385q266 0 402 -99.5t136 -299.5zM850 981q0 120 -69.5 173.5t-212.5 53.5h-166v-470h171q133 0 205 56.5t72 186.5zM611 -137q53 0 90 -35.5t37 -89.5q0 -30 -9.5 -61
t-27.5 -70l-99 -206h-124l57 232q-23 19 -37.5 45.5t-14.5 59.5q0 53 37 89t91 36z" />
    <glyph glyph-name="uni0157" unicode="&#x157;" 
d="M188 0v160h155v737h-155v159h326l41 -245q59 133 146.5 202.5t225.5 69.5q47 0 84.5 -7.5t74.5 -19.5l-67 -192q-32 9 -60 13.5t-62 4.5q-115 0 -198.5 -86t-131.5 -244v-392h213v-160h-592zM888 667v260l28 129h170l-38 -389h-160zM459 -137q53 0 90 -35.5t37 -89.5
q0 -30 -9.5 -61t-27.5 -70l-99 -206h-124l57 232q-23 19 -37.5 45.5t-14.5 59.5q0 53 37 89t91 36z" />
    <glyph glyph-name="Rcaron" unicode="&#x158;" 
d="M1093 981q0 -102 -41.5 -177.5t-113 -125.5t-159.5 -77l391 -601h-270l-347 568h-151v-568h-232v1380h385q266 0 402 -99.5t136 -299.5zM850 981q0 120 -69.5 173.5t-212.5 53.5h-166v-470h171q133 0 205 56.5t72 186.5zM858 1840l88 -101l-273 -233h-144l-276 233
l91 101l256 -164z" />
    <glyph glyph-name="rcaron" unicode="&#x159;" 
d="M188 0v160h155v737h-155v159h326l41 -245q59 133 146.5 202.5t225.5 69.5q47 0 84.5 -7.5t74.5 -19.5l-67 -192q-32 9 -60 13.5t-62 4.5q-115 0 -198.5 -86t-131.5 -244v-392h213v-160h-592zM888 667v260l28 129h170l-38 -389h-160zM913 1598l90 -100l-273 -253h-144
l-276 253l94 100l254 -184z" />
    <glyph glyph-name="Sacute" unicode="&#x15a;" 
d="M1097 390q0 -122 -62.5 -216.5t-180 -147.5t-283.5 -53q-168 0 -294.5 50.5t-213.5 134.5l127 142q74 -67 167 -105.5t213 -38.5q78 0 143 24.5t104 74t39 124.5q0 61 -25 103t-86.5 76t-171.5 66q-146 44 -245 98t-149.5 129.5t-50.5 183.5q0 112 61.5 196t169 130.5
t243.5 46.5q150 0 262 -43t200 -123l-122 -138q-73 64 -156.5 93t-169.5 29q-70 0 -127 -20t-90 -59t-33 -99q0 -53 29.5 -91t100 -70.5t193.5 -69.5q116 -34 208.5 -84t146 -131t53.5 -212zM776 1847l92 -178l-445 -161l-57 116z" />
    <glyph glyph-name="sacute" unicode="&#x15b;" 
d="M562 145q105 0 167 37.5t62 103.5q0 43 -18 73.5t-72 56t-164 53.5q-104 27 -182.5 64t-121.5 96t-43 152q0 91 51 159t146.5 106t224.5 38q133 0 232 -35t169 -87l-94 -141q-62 41 -135.5 67t-165.5 26q-107 0 -153.5 -32t-46.5 -85q0 -39 23.5 -65.5t81.5 -49
t164 -52.5q103 -28 179.5 -66t119 -100.5t42.5 -162.5q0 -114 -65.5 -186.5t-172 -107t-228.5 -34.5q-147 0 -254 42.5t-180 106.5l119 136q62 -50 142 -81.5t173 -31.5zM781 1623l94 -180l-438 -176l-66 116z" />
    <glyph glyph-name="Scircumflex" unicode="&#x15c;" 
d="M1097 390q0 -122 -62.5 -216.5t-180 -147.5t-283.5 -53q-168 0 -294.5 50.5t-213.5 134.5l127 142q74 -67 167 -105.5t213 -38.5q78 0 143 24.5t104 74t39 124.5q0 61 -25 103t-86.5 76t-171.5 66q-146 44 -245 98t-149.5 129.5t-50.5 183.5q0 112 61.5 196t169 130.5
t243.5 46.5q150 0 262 -43t200 -123l-122 -138q-73 64 -156.5 93t-169.5 29q-70 0 -127 -20t-90 -59t-33 -99q0 -53 29.5 -91t100 -70.5t193.5 -69.5q116 -34 208.5 -84t146 -131t53.5 -212zM687 1846l273 -233l-88 -101l-258 164l-256 -164l-91 101l276 233h144z" />
    <glyph glyph-name="scircumflex" unicode="&#x15d;" 
d="M562 145q105 0 167 37.5t62 103.5q0 43 -18 73.5t-72 56t-164 53.5q-104 27 -182.5 64t-121.5 96t-43 152q0 91 51 159t146.5 106t224.5 38q133 0 232 -35t169 -87l-94 -141q-62 41 -135.5 67t-165.5 26q-107 0 -153.5 -32t-46.5 -85q0 -39 23.5 -65.5t81.5 -49
t164 -52.5q103 -28 179.5 -66t119 -100.5t42.5 -162.5q0 -114 -65.5 -186.5t-172 -107t-228.5 -34.5q-147 0 -254 42.5t-180 106.5l119 136q62 -50 142 -81.5t173 -31.5zM366 1245l-94 100l276 253h144l273 -253l-90 -100l-255 183z" />
    <glyph glyph-name="Scedilla" unicode="&#x15e;" 
d="M1097 390q0 -122 -62.5 -216.5t-180 -147.5t-283.5 -53q-168 0 -294.5 50.5t-213.5 134.5l127 142q74 -67 167 -105.5t213 -38.5q78 0 143 24.5t104 74t39 124.5q0 61 -25 103t-86.5 76t-171.5 66q-146 44 -245 98t-149.5 129.5t-50.5 183.5q0 112 61.5 196t169 130.5
t243.5 46.5q150 0 262 -43t200 -123l-122 -138q-73 64 -156.5 93t-169.5 29q-70 0 -127 -20t-90 -59t-33 -99q0 -53 29.5 -91t100 -70.5t193.5 -69.5q116 -34 208.5 -84t146 -131t53.5 -212zM661 -284q0 48 -46.5 63t-130.5 15l21 238h138v-139q101 -10 147.5 -60.5
t46.5 -118.5q0 -66 -35.5 -113t-95 -71.5t-134.5 -24.5q-64 0 -121.5 15.5t-97.5 38.5l62 115q29 -15 64 -24t68 -9q51 0 82.5 17t31.5 58z" />
    <glyph glyph-name="scedilla" unicode="&#x15f;" 
d="M562 145q105 0 167 37.5t62 103.5q0 43 -18 73.5t-72 56t-164 53.5q-104 27 -182.5 64t-121.5 96t-43 152q0 91 51 159t146.5 106t224.5 38q133 0 232 -35t169 -87l-94 -141q-62 41 -135.5 67t-165.5 26q-107 0 -153.5 -32t-46.5 -85q0 -39 23.5 -65.5t81.5 -49
t164 -52.5q103 -28 179.5 -66t119 -100.5t42.5 -162.5q0 -114 -65.5 -186.5t-172 -107t-228.5 -34.5q-147 0 -254 42.5t-180 106.5l119 136q62 -50 142 -81.5t173 -31.5zM661 -284q0 48 -46.5 63t-130.5 15l21 238h138v-139q101 -10 147.5 -60.5t46.5 -118.5
q0 -66 -35.5 -113t-95 -71.5t-134.5 -24.5q-64 0 -121.5 15.5t-97.5 38.5l62 115q29 -15 64 -24t68 -9q51 0 82.5 17t31.5 58z" />
    <glyph glyph-name="Scaron" unicode="&#x160;" 
d="M1097 390q0 -122 -62.5 -216.5t-180 -147.5t-283.5 -53q-168 0 -294.5 50.5t-213.5 134.5l127 142q74 -67 167 -105.5t213 -38.5q78 0 143 24.5t104 74t39 124.5q0 61 -25 103t-86.5 76t-171.5 66q-146 44 -245 98t-149.5 129.5t-50.5 183.5q0 112 61.5 196t169 130.5
t243.5 46.5q150 0 262 -43t200 -123l-122 -138q-73 64 -156.5 93t-169.5 29q-70 0 -127 -20t-90 -59t-33 -99q0 -53 29.5 -91t100 -70.5t193.5 -69.5q116 -34 208.5 -84t146 -131t53.5 -212zM872 1840l88 -101l-273 -233h-144l-276 233l91 101l256 -164z" />
    <glyph glyph-name="scaron" unicode="&#x161;" 
d="M562 145q105 0 167 37.5t62 103.5q0 43 -18 73.5t-72 56t-164 53.5q-104 27 -182.5 64t-121.5 96t-43 152q0 91 51 159t146.5 106t224.5 38q133 0 232 -35t169 -87l-94 -141q-62 41 -135.5 67t-165.5 26q-107 0 -153.5 -32t-46.5 -85q0 -39 23.5 -65.5t81.5 -49
t164 -52.5q103 -28 179.5 -66t119 -100.5t42.5 -162.5q0 -114 -65.5 -186.5t-172 -107t-228.5 -34.5q-147 0 -254 42.5t-180 106.5l119 136q62 -50 142 -81.5t173 -31.5zM875 1598l90 -100l-273 -253h-144l-276 253l94 100l254 -184z" />
    <glyph glyph-name="uni0162" unicode="&#x162;" 
d="M713 1193v-1193h-232v1193h-414v187h1070l-24 -187h-400zM688 -284q0 48 -46.5 63t-130.5 15l21 238h138v-139q101 -10 147.5 -60.5t46.5 -118.5q0 -66 -35.5 -113t-95 -71.5t-134.5 -24.5q-64 0 -121.5 15.5t-97.5 38.5l62 115q29 -15 64 -24t68 -9q51 0 82.5 17
t31.5 58z" />
    <glyph glyph-name="uni0163" unicode="&#x163;" 
d="M1060 56q-58 -37 -139 -60t-169 -23q-184 0 -279.5 95.5t-95.5 251.5v573h-235v163h235v236l224 27v-263h356l-25 -163h-331v-571q0 -85 42.5 -126.5t139.5 -41.5q58 0 107 14t89 36zM799 -284q0 48 -46.5 63t-130.5 15l21 238h138v-139q101 -10 147.5 -60.5t46.5 -118.5
q0 -66 -35.5 -113t-95 -71.5t-134.5 -24.5q-64 0 -121.5 15.5t-97.5 38.5l62 115q29 -15 64 -24t68 -9q51 0 82.5 17t31.5 58z" />
    <glyph glyph-name="Tcaron" unicode="&#x164;" 
d="M713 1193v-1193h-232v1193h-414v187h1070l-24 -187h-400zM856 1840l88 -101l-273 -233h-144l-276 233l91 101l256 -164z" />
    <glyph glyph-name="tcaron" unicode="&#x165;" 
d="M1060 56q-58 -37 -139 -60t-169 -23q-184 0 -279.5 95.5t-95.5 251.5v573h-235v163h235v236l224 27v-263h356l-25 -163h-331v-571q0 -85 42.5 -126.5t139.5 -41.5q58 0 107 14t89 36zM753 1576l199 -24l-125 -397l-133 21z" />
    <glyph glyph-name="Tbar" unicode="&#x166;" 
d="M231 673v153h735v-153h-735zM713 1193v-1193h-232v1193h-414v187h1070l-24 -187h-400z" />
    <glyph glyph-name="tbar" unicode="&#x167;" 
d="M933 711v-155h-332h-436v155h212h556zM1060 56q-58 -37 -139 -60t-169 -23q-184 0 -279.5 95.5t-95.5 251.5v573h-235v163h235v236l224 27v-263h356l-25 -163h-331v-571q0 -85 42.5 -126.5t139.5 -41.5q58 0 107 14t89 36z" />
    <glyph glyph-name="Utilde" unicode="&#x168;" 
d="M1078 1380v-927q0 -141 -56.5 -249t-164 -169.5t-258.5 -61.5q-154 0 -260 60.5t-161.5 169t-55.5 250.5v927h232v-885q0 -168 58 -252.5t187 -84.5t187.5 84.5t58.5 252.5v885h233zM715 1542q-55 0 -93.5 23.5t-70.5 47t-67 23.5t-58.5 -23t-47.5 -68l-126 63
q35 80 92.5 137t137.5 57q58 0 96.5 -23.5t69 -47t66.5 -23.5q31 0 55 21.5t51 65.5l126 -62q-39 -90 -98 -140.5t-133 -50.5z" />
    <glyph glyph-name="utilde" unicode="&#x169;" 
d="M402 1056v-738q0 -94 37.5 -134t113.5 -40q72 0 139 43t106 105v764h224v-1056h-193l-14 135q-59 -79 -149 -120.5t-184 -41.5q-153 0 -228.5 84.5t-75.5 232.5v766h224zM715 1299q-55 0 -93.5 23.5t-70.5 47t-67 23.5t-58.5 -23t-47.5 -68l-126 63q35 80 92.5 137
t137.5 57q58 0 96.5 -23.5t69 -47t66.5 -23.5q31 0 55 21.5t51 65.5l126 -62q-39 -90 -98 -140.5t-133 -50.5z" />
    <glyph glyph-name="Umacron" unicode="&#x16a;" 
d="M1078 1380v-927q0 -141 -56.5 -249t-164 -169.5t-258.5 -61.5q-154 0 -260 60.5t-161.5 169t-55.5 250.5v927h232v-885q0 -168 58 -252.5t187 -84.5t187.5 84.5t58.5 252.5v885h233zM882 1581h-565v163h565v-163z" />
    <glyph glyph-name="umacron" unicode="&#x16b;" 
d="M402 1056v-738q0 -94 37.5 -134t113.5 -40q72 0 139 43t106 105v764h224v-1056h-193l-14 135q-59 -79 -149 -120.5t-184 -41.5q-153 0 -228.5 84.5t-75.5 232.5v766h224zM882 1338h-565v163h565v-163z" />
    <glyph glyph-name="Ubreve" unicode="&#x16c;" 
d="M1078 1380v-927q0 -141 -56.5 -249t-164 -169.5t-258.5 -61.5q-154 0 -260 60.5t-161.5 169t-55.5 250.5v927h232v-885q0 -168 58 -252.5t187 -84.5t187.5 84.5t58.5 252.5v885h233zM598 1512q-89 0 -156.5 34t-108 94t-49.5 137l138 27q21 -60 63.5 -94t112.5 -34
t114.5 34t64.5 94l138 -27q-8 -77 -49.5 -137t-110 -94t-157.5 -34z" />
    <glyph glyph-name="ubreve" unicode="&#x16d;" 
d="M402 1056v-738q0 -94 37.5 -134t113.5 -40q72 0 139 43t106 105v764h224v-1056h-193l-14 135q-59 -79 -149 -120.5t-184 -41.5q-153 0 -228.5 84.5t-75.5 232.5v766h224zM597 1246q-98 0 -165 45.5t-103.5 115t-44.5 140.5l138 27q20 -74 62.5 -120t112.5 -46
q72 0 116 46t64 120l138 -27q-8 -71 -45.5 -140.5t-105.5 -115t-167 -45.5z" />
    <glyph glyph-name="Uring" unicode="&#x16e;" 
d="M1078 1380v-927q0 -141 -56.5 -249t-164 -169.5t-258.5 -61.5q-154 0 -260 60.5t-161.5 169t-55.5 250.5v927h232v-885q0 -168 58 -252.5t187 -84.5t187.5 84.5t58.5 252.5v885h233zM599 1921q74 0 128.5 -30.5t85 -82t30.5 -114.5q0 -62 -30.5 -113.5t-85 -82
t-128.5 -30.5q-72 0 -126.5 30.5t-85 82t-30.5 113.5q0 63 30.5 114.5t85 82t126.5 30.5zM599 1802q-45 0 -72.5 -28t-27.5 -80t27.5 -80t72.5 -28q47 0 74.5 28t27.5 80t-27.5 80t-74.5 28z" />
    <glyph glyph-name="uring" unicode="&#x16f;" 
d="M402 1056v-738q0 -94 37.5 -134t113.5 -40q72 0 139 43t106 105v764h224v-1056h-193l-14 135q-59 -79 -149 -120.5t-184 -41.5q-153 0 -228.5 84.5t-75.5 232.5v766h224zM599 1678q74 0 128.5 -30.5t85 -82t30.5 -114.5q0 -62 -30.5 -113.5t-85 -82t-128.5 -30.5
q-72 0 -126.5 30.5t-85 82t-30.5 113.5q0 63 30.5 114.5t85 82t126.5 30.5zM599 1559q-45 0 -72.5 -28t-27.5 -80t27.5 -80t72.5 -28q47 0 74.5 28t27.5 80t-27.5 80t-74.5 28z" />
    <glyph glyph-name="Uhungarumlaut" unicode="&#x170;" 
d="M1078 1380v-927q0 -141 -56.5 -249t-164 -169.5t-258.5 -61.5q-154 0 -260 60.5t-161.5 169t-55.5 250.5v927h232v-885q0 -168 58 -252.5t187 -84.5t187.5 84.5t58.5 252.5v885h233zM347 1566l171 365l174 -82l-215 -342zM674 1568l185 363l172 -87l-230 -340z" />
    <glyph glyph-name="uhungarumlaut" unicode="&#x171;" 
d="M402 1056v-738q0 -94 37.5 -134t113.5 -40q72 0 139 43t106 105v764h224v-1056h-193l-14 135q-59 -79 -149 -120.5t-184 -41.5q-153 0 -228.5 84.5t-75.5 232.5v766h224zM341 1323l171 365l174 -82l-215 -342zM668 1325l185 363l172 -87l-230 -340z" />
    <glyph glyph-name="Uogonek" unicode="&#x172;" 
d="M1078 1380v-927q0 -141 -56.5 -249t-164 -169.5t-258.5 -61.5q-154 0 -260 60.5t-161.5 169t-55.5 250.5v927h232v-885q0 -168 58 -252.5t187 -84.5t187.5 84.5t58.5 252.5v885h233zM743 77l30 -77q-99 -40 -151 -77.5t-71 -74t-19 -74.5q0 -46 27 -71t86 -25
q32 0 59 3.5t59 10.5l-20 -154q-29 -7 -57 -11t-66 -4q-119 0 -192.5 59.5t-73.5 156.5q0 83 45 145.5t132 109t212 83.5z" />
    <glyph glyph-name="uogonek" unicode="&#x173;" 
d="M402 1056v-738q0 -94 37.5 -134t113.5 -40q72 0 139 43t106 105v764h224v-1056h-193l-14 135q-59 -79 -149 -120.5t-184 -41.5q-153 0 -228.5 84.5t-75.5 232.5v766h224zM992 77l30 -77q-99 -40 -151 -77.5t-71 -74t-19 -74.5q0 -46 27 -71t86 -25q32 0 59 3.5t59 10.5
l-20 -154q-29 -7 -57 -11t-66 -4q-119 0 -192.5 59.5t-73.5 156.5q0 83 45 145.5t132 109t212 83.5z" />
    <glyph glyph-name="Wcircumflex" unicode="&#x174;" 
d="M1196 1380l-191 -1380h-271l-136 1021l-141 -1021h-277l-176 1380h224l109 -1156l146 996h239l138 -996l129 1156h207zM673 1846l273 -233l-88 -101l-258 164l-256 -164l-91 101l276 233h144z" />
    <glyph glyph-name="wcircumflex" unicode="&#x175;" 
d="M1004 0h-280l-119 750l-128 -750h-274l-179 1056h216l110 -917l147 783h224l137 -783l110 917h208zM347 1245l-94 100l276 253h144l273 -253l-90 -100l-255 183z" />
    <glyph glyph-name="Ycircumflex" unicode="&#x176;" 
d="M717 527v-527h-234v525l-460 855h255l327 -654l329 654h243zM677 1846l273 -233l-88 -101l-258 164l-256 -164l-91 101l276 233h144z" />
    <glyph glyph-name="ycircumflex" unicode="&#x177;" 
d="M1102 1056l-364 -1060q-41 -120 -105 -211.5t-164 -147.5t-248 -69l-29 168q107 17 170.5 49.5t101 85.5t66.5 129h-76l-356 1056h238l266 -900l270 900h230zM347 1245l-94 100l276 253h144l273 -253l-90 -100l-255 183z" />
    <glyph glyph-name="Ydieresis" unicode="&#x178;" 
d="M717 527v-527h-234v525l-460 855h255l327 -654l329 654h243zM388 1531q-56 0 -93.5 36.5t-37.5 90.5t37.5 90.5t93.5 36.5q55 0 92 -36.5t37 -90.5t-37 -90.5t-92 -36.5zM819 1531q-54 0 -91.5 36.5t-37.5 90.5t37.5 90.5t91.5 36.5q56 0 93.5 -36.5t37.5 -90.5
t-37.5 -90.5t-93.5 -36.5z" />
    <glyph glyph-name="Zacute" unicode="&#x179;" 
d="M383 192h698l-26 -192h-937v180l702 1012h-630v188h886v-182zM794 1847l92 -178l-445 -161l-57 116z" />
    <glyph glyph-name="zacute" unicode="&#x17a;" 
d="M451 180h565l-24 -180h-810v164l562 712h-517v180h782v-164zM780 1623l94 -180l-438 -176l-66 116z" />
    <glyph glyph-name="Zdotaccent" unicode="&#x17b;" 
d="M383 192h698l-26 -192h-937v180l702 1012h-630v188h886v-182zM631 1816q65 0 106 -40t41 -100t-41 -101t-106 -41t-106 41t-41 101t41 100t106 40z" />
    <glyph glyph-name="zdotaccent" unicode="&#x17c;" 
d="M451 180h565l-24 -180h-810v164l562 712h-517v180h782v-164zM617 1573q65 0 106 -40t41 -100t-41 -101t-106 -41t-106 41t-41 101t41 100t106 40z" />
    <glyph glyph-name="Zcaron" unicode="&#x17d;" 
d="M383 192h698l-26 -192h-937v180l702 1012h-630v188h886v-182zM891 1840l88 -101l-273 -233h-144l-276 233l91 101l256 -164z" />
    <glyph glyph-name="zcaron" unicode="&#x17e;" 
d="M451 180h565l-24 -180h-810v164l562 712h-517v180h782v-164zM874 1598l90 -100l-273 -253h-144l-276 253l94 100l254 -184z" />
    <glyph glyph-name="florin" unicode="&#x192;" 
d="M745 1505q80 0 143 -15t126 -44l-68 -155q-50 23 -95 31.5t-85 8.5q-85 0 -118.5 -35.5t-33.5 -113.5v-126h256l-26 -165h-230v-794q0 -123 -23 -208t-67 -143t-109.5 -99t-151.5 -77l-79 162q68 33 114.5 69t70 96.5t23.5 169.5v824h-167v165h167v128q0 92 40 164.5
t118.5 114.5t194.5 42z" />
    <glyph glyph-name="AEacute" unicode="&#x1fc;" 
d="M647 334h-360l-82 -334h-229l383 1380h772l-25 -171h-431l88 -423h350v-172h-318l91 -442h326v-172h-501zM329 509h286l-131 703zM876 1847l92 -178l-445 -161l-57 116z" />
    <glyph glyph-name="aeacute" unicode="&#x1fd;" 
d="M864 1084q183 0 263.5 -139.5t80.5 -388.5q0 -54 -4 -96h-517q14 -165 64.5 -243t148.5 -78q55 0 98.5 19.5t91.5 54.5l93 -132q-59 -48 -129 -78t-162 -30q-108 0 -183 46t-129 137q-61 -97 -125 -140t-165 -43q-139 0 -220.5 91.5t-81.5 238.5q0 166 105.5 254.5
t314.5 88.5h87v71q0 108 -47 157t-134 49q-51 0 -94 -12t-106 -41l-55 145q70 32 138.5 50.5t138.5 18.5q114 0 176 -44.5t94 -118.5q33 75 98 119t160 44zM495 509h-69q-127 0 -176.5 -53t-49.5 -142q0 -88 34.5 -135t92.5 -47t101.5 41t84.5 122q-8 50 -13 104t-5 110z
M857 922q-79 0 -119.5 -69.5t-50.5 -245.5h329q-2 157 -35 236t-124 79zM774 1623l94 -180l-438 -176l-66 116z" />
    <glyph glyph-name="Oslashacute" unicode="&#x1fe;" 
d="M600 1408q169 0 286 -89t178 -250.5t61 -378.5q0 -213 -59 -374.5t-176 -252t-290 -90.5q-169 0 -286 88.5t-178 249t-61 377.5q0 214 59 375.5t176.5 253t289.5 91.5zM781 1606l178 -49l-78 -249l-72 -136l-299 -1031l-21 -132l-69 -228l-177 49l82 261l72 135l299 1029
l19 125zM600 1228q-154 0 -221.5 -135.5t-67.5 -404.5q0 -193 30 -311t94 -171t165 -53q156 0 222.5 134.5t66.5 402.5q0 193 -29 312t-92.5 172.5t-167.5 53.5zM762 1847l92 -178l-445 -161l-57 116z" />
    <glyph glyph-name="oslashacute" unicode="&#x1ff;" 
d="M601 1084q151 0 257 -69t162.5 -193t56.5 -292q0 -167 -55.5 -292.5t-162 -195t-259.5 -69.5q-150 0 -256.5 67.5t-163.5 192.5t-57 295q0 165 55.5 290t162.5 195.5t260 70.5zM762 1315l174 -51l-87 -265l-71 -118l-236 -753l-23 -132l-79 -262l-175 52l92 277l72 125
l237 758l15 118zM601 912q-122 0 -183 -93t-61 -291q0 -142 25 -226t79 -120.5t139 -36.5q123 0 183 92.5t60 292.5q0 141 -25 224.5t-78.5 120.5t-138.5 37zM762 1623l94 -180l-438 -176l-66 116z" />
    <glyph glyph-name="uni0218" unicode="&#x218;" 
d="M1097 390q0 -122 -62.5 -216.5t-180 -147.5t-283.5 -53q-168 0 -294.5 50.5t-213.5 134.5l127 142q74 -67 167 -105.5t213 -38.5q78 0 143 24.5t104 74t39 124.5q0 61 -25 103t-86.5 76t-171.5 66q-146 44 -245 98t-149.5 129.5t-50.5 183.5q0 112 61.5 196t169 130.5
t243.5 46.5q150 0 262 -43t200 -123l-122 -138q-73 64 -156.5 93t-169.5 29q-70 0 -127 -20t-90 -59t-33 -99q0 -53 29.5 -91t100 -70.5t193.5 -69.5q116 -34 208.5 -84t146 -131t53.5 -212zM601 -137q53 0 90 -35.5t37 -89.5q0 -30 -9.5 -61t-27.5 -70l-99 -206h-124
l57 232q-23 19 -37.5 45.5t-14.5 59.5q0 53 37 89t91 36z" />
    <glyph glyph-name="uni0219" unicode="&#x219;" 
d="M562 145q105 0 167 37.5t62 103.5q0 43 -18 73.5t-72 56t-164 53.5q-104 27 -182.5 64t-121.5 96t-43 152q0 91 51 159t146.5 106t224.5 38q133 0 232 -35t169 -87l-94 -141q-62 41 -135.5 67t-165.5 26q-107 0 -153.5 -32t-46.5 -85q0 -39 23.5 -65.5t81.5 -49
t164 -52.5q103 -28 179.5 -66t119 -100.5t42.5 -162.5q0 -114 -65.5 -186.5t-172 -107t-228.5 -34.5q-147 0 -254 42.5t-180 106.5l119 136q62 -50 142 -81.5t173 -31.5zM601 -137q53 0 90 -35.5t37 -89.5q0 -30 -9.5 -61t-27.5 -70l-99 -206h-124l57 232q-23 19 -37.5 45.5
t-14.5 59.5q0 53 37 89t91 36z" />
    <glyph glyph-name="uni021A" unicode="&#x21a;" 
d="M713 1193v-1193h-232v1193h-414v187h1070l-24 -187h-400zM603 -137q53 0 90 -35.5t37 -89.5q0 -30 -9.5 -61t-27.5 -70l-99 -206h-124l57 232q-23 19 -37.5 45.5t-14.5 59.5q0 53 37 89t91 36z" />
    <glyph glyph-name="uni021B" unicode="&#x21b;" 
d="M1060 56q-58 -37 -139 -60t-169 -23q-184 0 -279.5 95.5t-95.5 251.5v573h-235v163h235v236l224 27v-263h356l-25 -163h-331v-571q0 -85 42.5 -126.5t139.5 -41.5q58 0 107 14t89 36zM739 -137q53 0 90 -35.5t37 -89.5q0 -30 -9.5 -61t-27.5 -70l-99 -206h-124l57 232
q-23 19 -37.5 45.5t-14.5 59.5q0 53 37 89t91 36z" />
    <glyph glyph-name="uni0237" unicode="&#x237;" 
d="M911 1056v-834q0 -197 -81.5 -327t-238.5 -207.5t-383 -118.5l-36 172q157 30 273 83t179 145t63 238v685h-417v164h641z" />
    <glyph glyph-name="uni02B9" unicode="&#x2b9;" 
d="M404 846l168 534h224l-232 -534h-160z" />
    <glyph glyph-name="uni02BA" unicode="&#x2ba;" 
d="M240 846l168 534h224l-232 -534h-160zM567 846l168 534h224l-232 -534h-160z" />
    <glyph glyph-name="uni02BC" unicode="&#x2bc;" 
d="M585 1505q53 0 90 -35.5t37 -87.5q0 -28 -12 -61.5t-41 -94.5l-79 -160h-122l51 209q-23 20 -38 46t-15 59q0 53 37.5 89t91.5 36z" />
    <glyph glyph-name="circumflex" unicode="&#x2c6;" 
d="M347 1245l-94 100l276 253h144l273 -253l-90 -100l-255 183z" />
    <glyph glyph-name="caron" unicode="&#x2c7;" 
d="M856 1598l90 -100l-273 -253h-144l-276 253l94 100l254 -184z" />
    <glyph glyph-name="uni02C9" unicode="&#x2c9;" 
d="M882 1358h-566v162h566v-162z" />
    <glyph glyph-name="breve" unicode="&#x2d8;" 
d="M597 1246q-98 0 -165 45.5t-103.5 115t-44.5 140.5l138 27q20 -74 62.5 -120t112.5 -46q72 0 116 46t64 120l138 -27q-8 -71 -45.5 -140.5t-105.5 -115t-167 -45.5z" />
    <glyph glyph-name="dotaccent" unicode="&#x2d9;" 
d="M599 1573q65 0 106 -40t41 -100t-41 -101t-106 -41t-106 41t-41 101t41 100t106 40z" />
    <glyph glyph-name="ring" unicode="&#x2da;" 
d="M599 1678q74 0 128.5 -30.5t85 -82t30.5 -114.5q0 -62 -30.5 -113.5t-85 -82t-128.5 -30.5q-72 0 -126.5 30.5t-85 82t-30.5 113.5q0 63 30.5 114.5t85 82t126.5 30.5zM599 1559q-45 0 -72.5 -28t-27.5 -80t27.5 -80t72.5 -28q47 0 74.5 28t27.5 80t-27.5 80t-74.5 28z
" />
    <glyph glyph-name="ogonek" unicode="&#x2db;" 
d="M768 77l30 -77q-99 -40 -151 -77.5t-71 -74t-19 -74.5q0 -46 27 -71t86 -25q32 0 59 3.5t59 10.5l-20 -154q-29 -7 -57 -11t-66 -4q-119 0 -192.5 59.5t-73.5 156.5q0 83 45 145.5t132 109t212 83.5z" />
    <glyph glyph-name="tilde" unicode="&#x2dc;" 
d="M715 1299q-55 0 -93.5 23.5t-70.5 47t-67 23.5t-58.5 -23t-47.5 -68l-126 63q35 80 92.5 137t137.5 57q58 0 96.5 -23.5t69 -47t66.5 -23.5q31 0 55 21.5t51 65.5l126 -62q-39 -90 -98 -140.5t-133 -50.5z" />
    <glyph glyph-name="hungarumlaut" unicode="&#x2dd;" 
d="M258 1323l171 365l174 -82l-215 -342zM585 1325l185 363l172 -87l-230 -340z" />
    <glyph glyph-name="gravecomb" unicode="&#x300;" horiz-adv-x="0" 
d="M442 1623l410 -240l-65 -116l-439 176z" />
    <glyph glyph-name="acutecomb" unicode="&#x301;" horiz-adv-x="0" 
d="M762 1623l94 -180l-438 -176l-66 116z" />
    <glyph glyph-name="uni0302" unicode="&#x302;" horiz-adv-x="0" 
d="M673 1522l274 -233l-89 -101l-257 164l-257 -164l-90 101l275 233h144z" />
    <glyph glyph-name="tildecomb" unicode="&#x303;" horiz-adv-x="0" 
d="M716 1299q-55 0 -93.5 23.5t-70.5 47t-67 23.5t-58.5 -23t-47.5 -68l-126 63q35 80 92.5 137t137.5 57q58 0 96.5 -23.5t69 -47t66.5 -23.5q31 0 55 21.5t51 65.5l126 -62q-39 -90 -98 -140.5t-133 -50.5z" />
    <glyph glyph-name="uni0304" unicode="&#x304;" horiz-adv-x="0" 
d="M883 1243h-565v163h565v-163z" />
    <glyph glyph-name="uni0305" unicode="&#x305;" horiz-adv-x="0" 
d="M1043 1243h-885v163h885v-163z" />
    <glyph glyph-name="uni0306" unicode="&#x306;" horiz-adv-x="0" 
d="M597 1174q-89 0 -156.5 34t-108 94t-48.5 137l138 27q21 -60 63 -94t112 -34q72 0 116.5 34t64.5 94l138 -27q-8 -77 -49.5 -137t-110 -94t-159.5 -34z" />
    <glyph glyph-name="uni0307" unicode="&#x307;" horiz-adv-x="0" 
d="M601 1478q65 0 106 -40t41 -100t-41 -101t-106 -41t-106 41t-41 101t41 100t106 40z" />
    <glyph glyph-name="uni0308" unicode="&#x308;" horiz-adv-x="0" 
d="M384 1288q-56 0 -93.5 36.5t-37.5 90.5t37.5 90.5t93.5 36.5q55 0 92 -36.5t37 -90.5t-37 -90.5t-92 -36.5zM815 1288q-54 0 -91.5 36.5t-37.5 90.5t37.5 90.5t91.5 36.5q56 0 93.5 -36.5t37.5 -90.5t-37.5 -90.5t-93.5 -36.5z" />
    <glyph glyph-name="uni030A" unicode="&#x30a;" horiz-adv-x="0" 
d="M600 1583q74 0 128.5 -30.5t85 -82t30.5 -114.5q0 -62 -30.5 -113.5t-85 -82t-128.5 -30.5q-72 0 -126.5 30.5t-85 82t-30.5 113.5q0 63 30.5 114.5t85 82t126.5 30.5zM600 1464q-45 0 -72.5 -28t-27.5 -80t27.5 -80t72.5 -28q47 0 74.5 28t27.5 80t-27.5 80t-74.5 28z
" />
    <glyph glyph-name="uni030B" unicode="&#x30b;" horiz-adv-x="0" 
d="M259 1228l171 365l174 -82l-215 -342zM586 1230l185 363l172 -87l-230 -340z" />
    <glyph glyph-name="uni030C" unicode="&#x30c;" horiz-adv-x="0" 
d="M858 1502l89 -102l-274 -232h-144l-275 232l90 102l257 -164z" />
    <glyph glyph-name="uni030F" unicode="&#x30f;" horiz-adv-x="0" 
d="M942 1323l-171 365l-174 -82l215 -342zM615 1325l-185 363l-172 -87l230 -340z" />
    <glyph glyph-name="uni0313" unicode="&#x313;" horiz-adv-x="0" 
d="M532 1548q53 0 90 -35.5t37 -89.5q0 -30 -9.5 -61t-27.5 -70l-99 -206h-124l57 232q-23 19 -37.5 45.5t-14.5 59.5q0 53 37 89t91 36z" />
    <glyph glyph-name="uni0314" unicode="&#x314;" horiz-adv-x="0" 
d="M522 1548q-53 0 -90 -35.5t-37 -89.5q0 -30 9.5 -61t27.5 -70l99 -206h124l-57 232q23 19 37.5 45.5t14.5 59.5q0 53 -37 89t-91 36z" />
    <glyph glyph-name="uni0326" unicode="&#x326;" horiz-adv-x="0" 
d="M605 -137q53 0 90 -35.5t37 -89.5q0 -30 -9.5 -61t-27.5 -70l-99 -206h-124l57 232q-23 19 -37.5 45.5t-14.5 59.5q0 53 37 89t91 36z" />
    <glyph glyph-name="uni0327" unicode="&#x327;" horiz-adv-x="0" 
d="M666 -298q0 48 -46.5 63t-130.5 15l21 238h138v-139q101 -10 147.5 -60.5t46.5 -118.5q0 -66 -35.5 -113t-95 -71.5t-134.5 -24.5q-64 0 -121.5 15.5t-97.5 38.5l62 115q29 -15 64 -24t68 -9q51 0 82.5 17t31.5 58z" />
    <glyph glyph-name="strokeshortoverlay" unicode="&#x335;" 
d="M963 558h-727v154h727v-154z" />
    <glyph glyph-name="strokelongoverlay" unicode="&#x336;" 
d="M1258 558h-1315v154h1315v-154z" />
    <glyph glyph-name="uni0342" unicode="&#x342;" horiz-adv-x="0" 
d="M715 1299q-55 0 -93.5 23.5t-70.5 47t-67 23.5t-58.5 -23t-47.5 -68l-126 63q35 80 92.5 137t137.5 57q58 0 96.5 -23.5t69 -47t66.5 -23.5q31 0 55 21.5t51 65.5l126 -62q-39 -90 -98 -140.5t-133 -50.5z" />
    <glyph glyph-name="uni0345" unicode="&#x345;" horiz-adv-x="0" 
d="M616 -388q-113 0 -174.5 61.5t-61.5 161.5v85h179v-80q0 -83 82 -83q34 0 58 8.5t51 24.5l72 -107q-34 -26 -83.5 -48.5t-122.5 -22.5z" />
    <glyph glyph-name="uni0370" unicode="&#x370;" 
d="M986 628h-540v-628h-231v1380h231v-563h540v-189z" />
    <glyph glyph-name="uni0371" unicode="&#x371;" 
d="M1053 450h-654v183h654v-183zM408 1082q27 -55 47.5 -143.5t20.5 -256.5v-682h-224v729q0 107 -14.5 184.5t-34.5 139.5z" />
    <glyph glyph-name="uni0372" unicode="&#x372;" 
d="M485 0v1192h-428v188h1088v-188h-428v-1192h-232zM57 828v442h187v-442h-187zM958 829v439h187v-439h-187z" />
    <glyph glyph-name="uni0373" unicode="&#x373;" 
d="M711 974v-1380l-224 -25v1405h224zM69 857l-37 168q33 12 63.5 19t68.5 9.5t90 2.5h883v-176l-883 -1q-34 0 -63.5 -1.5t-58.5 -6.5t-63 -14z" />
    <glyph glyph-name="uni0374" unicode="&#x374;" 
d="M404 846l168 534h224l-232 -534h-160z" />
    <glyph glyph-name="uni0375" unicode="&#x375;" 
d="M797 268l-168 -534h-224l232 534h160z" />
    <glyph glyph-name="uni0376" unicode="&#x376;" 
d="M143 0v1380h221v-610q0 -130 -5 -228t-14 -178.5t-20 -159.5l456 1176h276v-1380h-221v608q0 174 12 314t27 247l-452 -1169h-280z" />
    <glyph glyph-name="uni0377" unicode="&#x377;" 
d="M168 0v1056h217v-435q0 -108 -8.5 -210.5t-24.5 -183.5l416 829h242l-171 -226l-421 -830h-250zM1029 -27q-123 31 -181 105.5t-58 209.5q0 43 4.5 109t12 143t16 152.5t16.5 137.5l171 226v-751q0 -75 20 -109.5t70 -56.5z" />
    <glyph glyph-name="uni037A" unicode="&#x37a;" 
d="M616 -388q-113 0 -174.5 61.5t-61.5 161.5v85h179v-80q0 -83 82 -83q34 0 58 8.5t51 24.5l72 -107q-34 -26 -83.5 -48.5t-122.5 -22.5z" />
    <glyph glyph-name="reversedlunatesigmasymbol" unicode="&#x37b;" 
d="M521 -27q-112 0 -200 33t-162 90l101 143q62 -38 118 -60t132 -22q86 0 150.5 36.5t101 117t36.5 212.5q0 200 -67.5 290.5t-200.5 90.5q-83 0 -144 -20t-124 -58l-103 138q90 63 176.5 91.5t200.5 28.5q161 0 272.5 -69.5t169.5 -196t58 -298.5q0 -169 -63 -291.5
t-178.5 -189t-273.5 -66.5z" />
    <glyph glyph-name="dottedlunatesigmasymbol" unicode="&#x37c;" 
d="M687 157q74 0 138 25.5t122 66.5l104 -144q-69 -59 -167.5 -95.5t-203.5 -36.5q-162 0 -277 68.5t-176 192.5t-61 289q0 161 61.5 287.5t177.5 200t279 73.5q108 0 199 -32t167 -95l-103 -141q-62 43 -126.5 65.5t-132.5 22.5q-125 0 -204.5 -92t-79.5 -289
q0 -132 36.5 -212.5t100.5 -117t146 -36.5zM769.931 809.444q68.6699 0 111.984 -42.2588q43.3154 -42.2578 43.3154 -105.646t-43.3154 -106.702q-43.3145 -43.3145 -111.984 -43.3145q-68.6689 0 -111.984 43.3145q-43.3145 43.3145 -43.3145 106.702t43.3145 105.646
q43.3154 42.2588 111.984 42.2588z" />
    <glyph glyph-name="reverseddottedlunatesigmasymbol" unicode="&#x37d;" 
d="M521 -27q-112 0 -200 33t-162 90l101 143q62 -38 118 -60t132 -22q86 0 150.5 36.5t101 117t36.5 212.5q0 200 -67.5 290.5t-200.5 90.5q-83 0 -144 -20t-124 -58l-103 138q90 63 176.5 91.5t200.5 28.5q161 0 272.5 -69.5t169.5 -196t58 -298.5q0 -169 -63 -291.5
t-178.5 -189t-273.5 -66.5zM540.931 809.444q68.6699 0 111.984 -42.2588q43.3154 -42.2578 43.3154 -105.646t-43.3154 -106.702q-43.3145 -43.3145 -111.984 -43.3145q-68.6689 0 -111.984 43.3145q-43.3145 43.3145 -43.3145 106.702t43.3145 105.646
q43.3154 42.2588 111.984 42.2588z" />
    <glyph glyph-name="uni037E" unicode="&#x37e;" 
d="M611 355q77 0 128.5 -52t51.5 -127q0 -43 -13.5 -88.5t-42.5 -110.5l-153 -350h-172l96 401q-75 52 -75 149q0 75 52 126.5t128 51.5zM611 1043q77 0 128.5 -52.5t51.5 -126.5t-51.5 -127.5t-128.5 -53.5q-76 0 -128 53.5t-52 127.5q0 49 24 90t65 65t91 24z" />
    <glyph glyph-name="Yotgreek" unicode="&#x37f;" 
d="M1016 1380v-907q0 -99 -28 -189t-88.5 -159.5t-156 -110t-230.5 -40.5q-114 0 -211 33t-182 94l95 148q82 -54 151.5 -73t137.5 -19q130 0 205.5 83t75.5 238v724h-415v178h646z" />
    <glyph glyph-name="tonos" unicode="&#x384;" 
d="M525 1645l227 -44l-149 -416l-153 26z" />
    <glyph glyph-name="dieresistonos" unicode="&#x385;" 
d="M583 1858l210 -41l-129 -353l-139 23zM374 1489q54 0 91 -37t37 -91q0 -53 -37 -90t-91 -37q-55 0 -92.5 37t-37.5 90q0 54 37.5 91t92.5 37zM824 1489q56 0 93.5 -37t37.5 -91q0 -53 -37.5 -90t-93.5 -37q-53 0 -90.5 37t-37.5 90q0 54 37.5 91t90.5 37z" />
    <glyph glyph-name="Alphatonos" unicode="&#x386;" 
d="M842 332h-493l-96 -332h-236l439 1380h288l440 -1380h-246zM397 511h396l-197 689zM121 1425l238 -45l-155 -414l-157 26z" />
    <glyph glyph-name="anoteleia" unicode="&#x387;" 
d="M407 684q0 54 25.5 97.5t69.5 69.5t98 26q55 0 99 -26t69.5 -69.5t25.5 -97.5q0 -53 -25.5 -97.5t-69.5 -70.5t-99 -26q-54 0 -98 26t-69.5 70.5t-25.5 97.5z" />
    <glyph glyph-name="Epsilontonos" unicode="&#x388;" 
d="M458 1204v-415h500v-176h-500v-437h609v-176h-841v1380h830l-26 -176h-572zM-55 1425l238 -45l-155 -414l-157 26z" />
    <glyph glyph-name="Etatonos" unicode="&#x389;" 
d="M825 0v627h-450v-627h-232v1380h232v-562h450v562h232v-1380h-232zM-138 1425l238 -45l-155 -414l-157 26z" />
    <glyph glyph-name="Iotatonos" unicode="&#x38a;" 
d="M1015 1380v-177h-298v-1025h298v-178h-830v178h298v1025h-298v177h830zM-97 1425l238 -45l-155 -414l-157 26z" />
    <glyph glyph-name="Omicrontonos" unicode="&#x38c;" 
d="M1125 690q0 -213 -59 -374.5t-176 -252t-290 -90.5q-172 0 -289.5 88.5t-176.5 249t-59 377.5q0 214 59 375.5t176.5 253t289.5 91.5q173 0 290 -89t176 -250.5t59 -378.5zM885 690q0 268 -66.5 402.5t-218.5 134.5t-218.5 -135.5t-66.5 -403.5q0 -267 68 -400.5
t217 -133.5q154 0 219.5 134.5t65.5 401.5zM-59 1425l238 -45l-155 -414l-157 26z" />
    <glyph glyph-name="Upsilontonos" unicode="&#x38e;" 
d="M717 527v-527h-234v525l-460 855h255l327 -654l329 654h243zM-238 1425l238 -45l-155 -414l-157 26z" />
    <glyph glyph-name="Omegatonos" unicode="&#x38f;" 
d="M600 1226q-95 0 -158.5 -52t-95 -164t-31.5 -291q0 -233 56 -363.5t167 -188.5v-167h-441v175h236q-128 67 -193 201t-65 343q0 213 63 367t181 238t281 84q164 0 281.5 -84t180.5 -238t63 -367q0 -209 -66.5 -341.5t-193.5 -202.5h238v-175h-439v167q111 58 166 188.5
t55 363.5q0 179 -32 291t-95.5 164t-157.5 52zM-58 1425l238 -45l-155 -414l-157 26z" />
    <glyph glyph-name="iotadieresistonos" unicode="&#x390;" 
d="M451 881h-345l22 175h547v-769q0 -72 44.5 -102.5t115.5 -30.5q42 0 84.5 10t82.5 25l56 -156q-42 -23 -115 -41.5t-156 -18.5q-154 0 -245 86t-91 236v586zM556 1858l210 -41l-129 -353l-139 23zM347 1489q54 0 91 -37t37 -91q0 -53 -37 -90t-91 -37q-55 0 -92.5 37
t-37.5 90q0 54 37.5 91t92.5 37zM797 1489q56 0 93.5 -37t37.5 -91q0 -53 -37.5 -90t-93.5 -37q-53 0 -90.5 37t-37.5 90q0 54 37.5 91t90.5 37z" />
    <glyph glyph-name="Alpha" unicode="&#x391;" 
d="M842 332h-493l-96 -332h-236l439 1380h288l440 -1380h-246zM397 511h396l-197 689z" />
    <glyph glyph-name="Beta" unicode="&#x392;" 
d="M861 399q0 93 -36 144t-97 71.5t-137 20.5h-197v-455h187q50 0 99.5 8.5t90.5 32t65.5 66.5t24.5 112zM808 1012q0 104 -65 149t-183 45h-166v-399h180q116 0 175 48.5t59 156.5zM1103 398q0 -115 -45 -192.5t-121.5 -122.5t-172.5 -64t-198 -19h-404v1380h377
q97 0 187 -16.5t161.5 -56.5t113.5 -107.5t42 -168.5q0 -87 -36 -148t-94.5 -98.5t-124.5 -53.5q75 -12 147.5 -46.5t120 -103.5t47.5 -183z" />
    <glyph glyph-name="Gamma" unicode="&#x393;" 
d="M1100 1380l-24 -192h-607v-1188h-232v1380h863z" />
    <glyph glyph-name="uni0394" unicode="&#x394;" 
d="M744 1380l440 -1380h-1167l439 1380h288zM596 1197l-290 -1007h579z" />
    <glyph glyph-name="Epsilon" unicode="&#x395;" 
d="M458 1204v-415h500v-176h-500v-437h609v-176h-841v1380h830l-26 -176h-572z" />
    <glyph glyph-name="Zeta" unicode="&#x396;" 
d="M383 192h698l-26 -192h-937v180l702 1012h-630v188h886v-182z" />
    <glyph glyph-name="Eta" unicode="&#x397;" 
d="M825 0v627h-450v-627h-232v1380h232v-562h450v562h232v-1380h-232z" />
    <glyph glyph-name="Theta" unicode="&#x398;" 
d="M783 625h-368v158h368v-158zM1125 690q0 -213 -59 -374.5t-176 -252t-290 -90.5q-172 0 -289.5 88.5t-176.5 249t-59 377.5q0 214 59 375.5t176.5 253t289.5 91.5q173 0 290 -89t176 -250.5t59 -378.5zM889 690q0 269 -68.5 403t-220.5 134t-220.5 -134.5t-68.5 -404.5
q0 -268 70 -401t219 -133q154 0 221.5 133.5t67.5 402.5z" />
    <glyph glyph-name="Iota" unicode="&#x399;" 
d="M1015 1380v-177h-298v-1025h298v-178h-830v178h298v1025h-298v177h830z" />
    <glyph glyph-name="Kappa" unicode="&#x39a;" 
d="M407 0h-232v1380h232v-1380zM417 737l480 643h255l-483 -627l521 -753h-278z" />
    <glyph glyph-name="Lambda" unicode="&#x39b;" 
d="M744 1380l430 -1380h-246l-331 1188l-334 -1188h-238l431 1380h288z" />
    <glyph glyph-name="Mu" unicode="&#x39c;" 
d="M1071 1380l78 -1380h-212l-33 672q-3 76 -4.5 147t-1.5 136t1.5 120.5t3.5 100.5l-203 -933h-202l-218 933q3 -43 5 -100.5t3 -123.5t0.5 -138t-2.5 -144l-27 -670h-208l78 1380h278l197 -925l188 925h279z" />
    <glyph glyph-name="Nu" unicode="&#x39d;" 
d="M755 0l-439 1174q3 -31 8.5 -88t11 -132t9.5 -159t4 -168v-627h-206v1380h301l440 -1175q-5 42 -12.5 123.5t-14 190t-6.5 232.5v629h206v-1380h-302z" />
    <glyph glyph-name="Xi" unicode="&#x39e;" 
d="M1065 203v-203h-930v203h930zM943 797v-193h-701v193h701zM1052 1380l-29 -197h-888v197h917z" />
    <glyph glyph-name="Omicron" unicode="&#x39f;" 
d="M1125 690q0 -213 -59 -374.5t-176 -252t-290 -90.5q-172 0 -289.5 88.5t-176.5 249t-59 377.5q0 214 59 375.5t176.5 253t289.5 91.5q173 0 290 -89t176 -250.5t59 -378.5zM885 690q0 268 -66.5 402.5t-218.5 134.5t-218.5 -135.5t-66.5 -403.5q0 -267 68 -400.5
t217 -133.5q154 0 219.5 134.5t65.5 401.5z" />
    <glyph glyph-name="Pi" unicode="&#x3a0;" 
d="M825 0v1191h-450v-1191h-232v1380h914v-1380h-232z" />
    <glyph glyph-name="Rho" unicode="&#x3a1;" 
d="M885 945q0 95 -36.5 152t-103 83t-156.5 26h-166v-537h169q87 0 153 26t103 86t37 164zM1129 947q0 -161 -68.5 -261t-190.5 -147t-280 -47h-167v-492h-232v1380h383q260 0 407.5 -106.5t147.5 -326.5z" />
    <glyph glyph-name="Sigma" unicode="&#x3a3;" 
d="M822 628l-428 -446h674v-182h-936v181l477 505l-477 512v182h936v-180h-674l428 -447v-125z" />
    <glyph glyph-name="Tau" unicode="&#x3a4;" 
d="M713 1193v-1193h-232v1193h-414v187h1070l-24 -187h-400z" />
    <glyph glyph-name="Upsilon" unicode="&#x3a5;" 
d="M717 527v-527h-234v525l-460 855h255l327 -654l329 654h243z" />
    <glyph glyph-name="Phi" unicode="&#x3a6;" 
d="M696 1380v-158q246 -11 367 -140t121 -386q0 -261 -125.5 -394t-362.5 -141v-161h-192v161q-239 8 -363.5 141t-124.5 394q0 255 119 385t369 141v158h192zM513 1075q-97 -1 -158.5 -39.5t-90 -121.5t-28.5 -218q0 -193 62.5 -286t214.5 -100v765zM687 1075v-765
q152 7 214.5 101t62.5 285q0 136 -29 219t-90 121t-158 39z" />
    <glyph glyph-name="Chi" unicode="&#x3a7;" 
d="M76 1380h257l267 -497l270 497h247l-382 -634l424 -746h-257l-306 587l-307 -587h-248l418 735z" />
    <glyph glyph-name="Psi" unicode="&#x3a8;" 
d="M491 0v377q-161 16 -264 80t-152.5 166t-49.5 231v526h215v-522q0 -137 55 -214.5t205 -95.5v832h202v-830q146 19 202 95.5t56 212.5v522h215v-526q0 -194 -113.5 -321.5t-350.5 -153.5v-379h-220z" />
    <glyph glyph-name="uni03A9" unicode="&#x3a9;" 
d="M600 1226q-95 0 -158.5 -52t-95 -164t-31.5 -291q0 -233 56 -363.5t167 -188.5v-167h-441v175h236q-128 67 -193 201t-65 343q0 213 63 367t181 238t281 84q164 0 281.5 -84t180.5 -238t63 -367q0 -209 -66.5 -341.5t-193.5 -202.5h238v-175h-439v167q111 58 166 188.5
t55 363.5q0 179 -32 291t-95.5 164t-157.5 52z" />
    <glyph glyph-name="Iotadieresis" unicode="&#x3aa;" 
d="M1015 1380v-177h-298v-1025h298v-178h-830v178h298v1025h-298v177h830zM384 1531q-56 0 -93.5 36.5t-37.5 90.5t37.5 90.5t93.5 36.5q55 0 92 -36.5t37 -90.5t-37 -90.5t-92 -36.5zM815 1531q-54 0 -91.5 36.5t-37.5 90.5t37.5 90.5t91.5 36.5q56 0 93.5 -36.5
t37.5 -90.5t-37.5 -90.5t-93.5 -36.5z" />
    <glyph glyph-name="Upsilondieresis" unicode="&#x3ab;" 
d="M717 527v-527h-234v525l-460 855h255l327 -654l329 654h243zM388 1531q-56 0 -93.5 36.5t-37.5 90.5t37.5 90.5t93.5 36.5q55 0 92 -36.5t37 -90.5t-37 -90.5t-92 -36.5zM819 1531q-54 0 -91.5 36.5t-37.5 90.5t37.5 90.5t91.5 36.5q56 0 93.5 -36.5t37.5 -90.5
t-37.5 -90.5t-93.5 -36.5z" />
    <glyph glyph-name="alphatonos" unicode="&#x3ac;" 
d="M503 1084q92 0 158.5 -32.5t108 -101.5t59.5 -181l52 287h204l-128 -536l53 -257q11 -53 34.5 -76.5t64.5 -36.5l-76 -178q-79 13 -129.5 55t-67.5 134l-19 110q-26 -88 -69.5 -155t-107 -105t-152.5 -38q-181 0 -285 139t-104 408q0 164 47 291t137.5 200t219.5 73z
M528 912q-94 0 -144.5 -99t-50.5 -293q0 -197 48.5 -286.5t138.5 -89.5q33 0 67.5 16t67.5 58t62.5 118.5t51.5 196.5q-24 147 -58.5 229.5t-79.5 116t-103 33.5zM555 1645l227 -44l-149 -416l-153 26z" />
    <glyph glyph-name="epsilontonos" unicode="&#x3ad;" 
d="M803 468h-186q-122 0 -175 -37.5t-53 -114.5q0 -78 67.5 -124.5t191.5 -46.5q107 0 194.5 27t160.5 75l110 -137q-82 -59 -204.5 -98t-276.5 -39q-138 0 -247 37.5t-171.5 111t-62.5 180.5q0 120 68.5 182t203.5 81q-118 25 -174 86.5t-56 148.5q0 93 59 156t158.5 95.5
t220.5 32.5q110 0 222.5 -26t198.5 -83l-105 -130q-64 38 -141 55t-155 17q-108 0 -168.5 -35.5t-60.5 -108.5q0 -65 54 -104t153 -39h199zM631 1645l227 -44l-149 -416l-153 26z" />
    <glyph glyph-name="etatonos" unicode="&#x3ae;" 
d="M733 1084q149 0 221.5 -82.5t72.5 -231.5v-1176l-224 -25v1090q0 92 -10.5 148t-43 81t-98.5 25q-50 0 -95.5 -22.5t-83.5 -58.5t-67 -77v-755h-224v729q0 96 -16 180.5t-33 143.5l208 29q10 -18 20 -47t17.5 -61t10.5 -60q69 84 160.5 127t184.5 43zM605 1645l227 -44
l-149 -416l-153 26z" />
    <glyph glyph-name="iotatonos" unicode="&#x3af;" 
d="M451 881h-345l22 175h547v-769q0 -72 44.5 -102.5t115.5 -30.5q42 0 84.5 10t82.5 25l56 -156q-42 -23 -115 -41.5t-156 -18.5q-154 0 -245 86t-91 236v586zM572 1645l227 -44l-149 -416l-153 26z" />
    <glyph glyph-name="upsilondieresistonos" unicode="&#x3b0;" 
d="M1016 1056q24 -127 39 -258t15 -287q0 -188 -71 -306.5t-185 -175t-243 -56.5q-172 0 -283 90.5t-111 272.5v720h224v-703q0 -107 48 -157t134 -50q50 0 96.5 19t84 62.5t59.5 117t22 182.5q0 118 -13 253t-40 276h224zM583 1858l210 -41l-129 -353l-139 23zM374 1489
q54 0 91 -37t37 -91q0 -53 -37 -90t-91 -37q-55 0 -92.5 37t-37.5 90q0 54 37.5 91t92.5 37zM824 1489q56 0 93.5 -37t37.5 -91q0 -53 -37.5 -90t-93.5 -37q-53 0 -90.5 37t-37.5 90q0 54 37.5 91t90.5 37z" />
    <glyph glyph-name="alpha" unicode="&#x3b1;" 
d="M503 1084q92 0 158.5 -32.5t108 -101.5t59.5 -181l52 287h204l-128 -536l53 -257q11 -53 34.5 -76.5t64.5 -36.5l-76 -178q-79 13 -129.5 55t-67.5 134l-19 110q-26 -88 -69.5 -155t-107 -105t-152.5 -38q-181 0 -285 139t-104 408q0 164 47 291t137.5 200t219.5 73z
M528 912q-94 0 -144.5 -99t-50.5 -293q0 -197 48.5 -286.5t138.5 -89.5q33 0 67.5 16t67.5 58t62.5 118.5t51.5 196.5q-24 147 -58.5 229.5t-79.5 116t-103 33.5z" />
    <glyph glyph-name="beta" unicode="&#x3b2;" 
d="M578 1508q122 0 217.5 -46t150.5 -129t55 -193q0 -98 -36.5 -166t-101.5 -108.5t-150 -56.5q67 -7 136.5 -28t128.5 -65t95 -118.5t36 -187.5q0 -133 -59.5 -231.5t-160.5 -153t-226 -54.5q-100 0 -193.5 43t-172.5 124l44 120q56 -56 123 -84t157 -28q71 0 129.5 29.5
t93.5 90t35 151.5q0 147 -83 220.5t-229 73.5h-92l20 166h80q58 0 105.5 25.5t74.5 79t27 136.5q0 113 -56.5 166t-146.5 53q-97 0 -149 -60t-52 -185v-1493l-225 -35v1523q0 133 53 227t148.5 144t223.5 50z" />
    <glyph glyph-name="gamma" unicode="&#x3b3;" 
d="M910 1082l225 -52l-428 -989q-44 -103 -50 -207.5t23 -240.5l-179 -23q-33 67 -45.5 145t-3.5 159.5t38 159.5q-36 147 -83 290.5t-102 272t-116 232.5t-124 172l224 80q64 -83 124 -209.5t110.5 -287t83.5 -345.5z" />
    <glyph glyph-name="delta" unicode="&#x3b4;" 
d="M637 1505q111 0 196 -32.5t154 -88.5l-110 -128q-62 48 -119.5 65.5t-123.5 17.5q-80 0 -124.5 -32t-44.5 -87q0 -41 20 -68.5t67 -52.5t131 -59q139 -57 230.5 -127t135.5 -171t44 -252q0 -108 -33.5 -202t-97 -164.5t-153.5 -110.5t-204 -40q-153 0 -263 67.5t-168 184
t-58 260.5q0 115 40.5 205.5t111.5 156.5t164 104q-110 57 -152.5 118.5t-42.5 147.5q0 89 49.5 153.5t139 99.5t211.5 35zM576 887q-124 -67 -173.5 -163.5t-49.5 -233.5q0 -164 65.5 -254t185.5 -90q121 0 186.5 87t65.5 258q0 112 -25 182t-86 119t-169 95z" />
    <glyph glyph-name="epsilon" unicode="&#x3b5;" 
d="M803 468h-186q-122 0 -175 -37.5t-53 -114.5q0 -78 67.5 -124.5t191.5 -46.5q107 0 194.5 27t160.5 75l110 -137q-82 -59 -204.5 -98t-276.5 -39q-138 0 -247 37.5t-171.5 111t-62.5 180.5q0 120 68.5 182t203.5 81q-118 25 -174 86.5t-56 148.5q0 93 59 156t158.5 95.5
t220.5 32.5q110 0 222.5 -26t198.5 -83l-105 -130q-64 38 -141 55t-155 17q-108 0 -168.5 -35.5t-60.5 -108.5q0 -65 54 -104t153 -39h199z" />
    <glyph glyph-name="zeta" unicode="&#x3b6;" 
d="M1060 1480l27 -143q-216 -174 -358 -314.5t-211.5 -263.5t-69.5 -247q0 -89 28.5 -144t93 -92t172.5 -74q112 -39 185 -74t109 -82t36 -123q0 -118 -82 -207t-251 -164l-87 147q81 42 132.5 86.5t51.5 112.5q0 32 -17.5 52t-59.5 38t-115 43q-145 52 -241.5 109t-145 142
t-48.5 223q0 137 68.5 267.5t215 267.5t379.5 294q-27 -12 -80.5 -18t-117 -7.5t-122.5 -1.5h-266l27 173h747z" />
    <glyph glyph-name="eta" unicode="&#x3b7;" 
d="M733 1084q149 0 221.5 -82.5t72.5 -231.5v-1176l-224 -25v1090q0 92 -10.5 148t-43 81t-98.5 25q-50 0 -95.5 -22.5t-83.5 -58.5t-67 -77v-755h-224v729q0 96 -16 180.5t-33 143.5l208 29q10 -18 20 -47t17.5 -61t10.5 -60q69 84 160.5 127t184.5 43z" />
    <glyph glyph-name="theta" unicode="&#x3b8;" 
d="M601 1505q155 0 261 -89t160.5 -258.5t54.5 -412.5q0 -240 -55.5 -413.5t-162 -266t-259.5 -92.5t-259.5 91t-162 263t-55.5 416q0 239 55.5 409.5t162.5 261.5t260 91zM850 666h-502q5 -189 34 -303.5t83.5 -166t134.5 -51.5t134 51.5t82.5 166t33.5 303.5zM601 1332
q-81 0 -136 -50.5t-84 -163t-33 -298.5h504q-4 186 -33 298.5t-82.5 163t-135.5 50.5z" />
    <glyph glyph-name="iota" unicode="&#x3b9;" 
d="M451 881h-345l22 175h547v-769q0 -72 44.5 -102.5t115.5 -30.5q42 0 84.5 10t82.5 25l56 -156q-42 -23 -115 -41.5t-156 -18.5q-154 0 -245 86t-91 236v586z" />
    <glyph glyph-name="kappa" unicode="&#x3ba;" 
d="M894 1083l186 -105l-403 -407l266 -293q54 -60 97 -86.5t98 -39.5l-77 -180q-63 8 -111 30t-89.5 59.5t-85.5 92.5l-348 408zM365 1056q30 -84 42 -190.5t12 -207.5v-658h-224v686q0 99 -11.5 189.5t-36.5 180.5h218z" />
    <glyph glyph-name="lambda" unicode="&#x3bb;" 
d="M455 1056h81q-28 88 -67.5 145.5t-105 91.5t-174.5 50l31 165q129 -18 220.5 -54.5t155.5 -99.5t107.5 -158.5t76.5 -230.5q55 -230 108.5 -404.5t114 -300t138.5 -210.5l-226 -77q-71 96 -129 224t-105 299t-89 395l-293 -919l-219 50z" />
    <glyph glyph-name="uni03BC" unicode="&#x3bc;" 
d="M998 1056v-705q0 -103 14 -192t30 -159l-207 -25q-12 27 -23.5 75t-16.5 89q-45 -75 -115.5 -120t-146.5 -45q-71 0 -112 22t-82 77q18 -60 28.5 -112t10.5 -109v-258l-218 -25v1487h224v-595q0 -97 9 -165.5t41 -104.5t101 -36q79 0 138.5 42t100.5 100v759h224z" />
    <glyph glyph-name="nu" unicode="&#x3bd;" 
d="M448 0q-32 148 -75 301.5t-94.5 293t-108.5 247t-119 164.5l215 76q72 -83 132 -220t109.5 -310.5t85.5 -369.5l302 902l220 -50l-403 -1034h-264z" />
    <glyph glyph-name="xi" unicode="&#x3be;" 
d="M715 1505q117 0 218.5 -29.5t185.5 -89.5l-103 -127q-62 41 -137 61.5t-148 20.5q-114 0 -180.5 -47t-66.5 -138q0 -97 62.5 -144t173.5 -47h225l-24 -174h-215q-90 0 -155 -32t-100 -89t-35 -130q0 -97 36 -152t117.5 -93t217.5 -85q110 -36 179.5 -72t103.5 -86
t34 -130q0 -117 -83 -206t-251 -164l-86 147q51 26 92.5 55.5t65.5 66.5t24 84q0 32 -14 52t-49.5 37t-98.5 38q-119 42 -215.5 83.5t-166 95.5t-106.5 130t-37 187q0 88 30.5 151.5t80 106.5t106.5 67.5t111 34.5q-67 24 -124.5 59t-92 88.5t-34.5 131.5q0 106 63 181.5
t167.5 116t228.5 40.5z" />
    <glyph glyph-name="omicron" unicode="&#x3bf;" 
d="M601 1084q155 0 261 -69t160.5 -193t54.5 -292q0 -167 -55.5 -292.5t-162 -195t-259.5 -69.5t-259.5 67.5t-162 192.5t-55.5 295q0 165 55.5 290t162.5 195.5t260 70.5zM601 910q-121 0 -182 -92.5t-61 -289.5q0 -196 60.5 -289t181.5 -93t181.5 93t60.5 291
q0 195 -60 287.5t-181 92.5z" />
    <glyph glyph-name="pi" unicode="&#x3c0;" 
d="M434 915v-915h-219v915h219zM974 915v-610q0 -74 21.5 -108.5t73.5 -50.5l-73 -173q-124 27 -183.5 97t-59.5 207v638h221zM1130 1056v-173h-857q-62 0 -97.5 -2t-61.5 -7.5t-60 -17.5l-43 162q30 14 61.5 22t75 12t108.5 4h874z" />
    <glyph glyph-name="rho" unicode="&#x3c1;" 
d="M616 1084q236 0 347 -143t111 -411q0 -153 -46 -279t-137.5 -202t-228.5 -76q-82 0 -150.5 29.5t-119.5 88.5v-497l-224 -25v975q0 263 112.5 401.5t335.5 138.5zM612 913q-123 0 -171.5 -101.5t-48.5 -304.5v-241q37 -58 91.5 -88t118.5 -30q115 0 175 95.5t60 285.5
q0 135 -24.5 220t-74.5 124.5t-126 39.5z" />
    <glyph glyph-name="uni03C2" unicode="&#x3c2;" 
d="M703 1084q115 0 201.5 -28.5t169.5 -90.5l-105 -141q-59 41 -117 60.5t-137 19.5q-80 0 -146.5 -38.5t-106.5 -117.5t-40 -200q0 -95 26 -152.5t91.5 -97.5t185.5 -85q98 -36 168 -73t107.5 -88.5t37.5 -132.5q0 -115 -82 -198.5t-249 -156.5l-91 148q81 35 133 75.5
t52 106.5q0 38 -18.5 61t-67.5 46t-140 56q-123 46 -210.5 105t-133.5 151t-46 235q0 164 66.5 284t183.5 186t268 66z" />
    <glyph glyph-name="sigma" unicode="&#x3c3;" 
d="M642 1070q116 0 250.5 -3.5t239.5 -9.5v-167l-275 20l-115 1q-88 2 -159 -12t-121 -54.5t-77 -117.5t-27 -201q0 -196 61 -288t181 -92q118 0 178 92.5t60 288.5q0 169 -39.5 260t-98.5 135l173 3q88 -46 144.5 -146t56.5 -257q0 -168 -55.5 -291.5t-161.5 -190.5
t-257 -67t-258 67.5t-163 192t-56 293.5q0 164 60 286.5t175.5 190t283.5 67.5z" />
    <glyph glyph-name="tau" unicode="&#x3c4;" 
d="M1036 1056v-174h-697q-41 0 -78.5 -2.5t-76 -9t-84.5 -19.5l-35 165q61 23 130.5 31.5t154.5 8.5h686zM654 914v-627q0 -72 44 -102.5t114 -30.5q42 0 85 10t83 25l56 -156q-42 -23 -115 -41.5t-156 -18.5q-155 0 -245 86t-90 236v619h224z" />
    <glyph glyph-name="upsilon" unicode="&#x3c5;" 
d="M1016 1056q24 -127 39 -258t15 -287q0 -188 -71 -306.5t-185 -175t-243 -56.5q-172 0 -283 90.5t-111 272.5v720h224v-703q0 -107 48 -157t134 -50q50 0 96.5 19t84 62.5t59.5 117t22 182.5q0 118 -13 253t-40 276h224z" />
    <glyph glyph-name="phi" unicode="&#x3c6;" 
d="M803 1084q181 0 261 -138t80 -409q0 -184 -56 -302.5t-160 -180.5t-247 -76v-387l-190 -22v409q-227 22 -331 150.5t-104 350.5q0 181 34 324.5t74 252.5h203q-53 -160 -80 -289.5t-27 -245.5t20.5 -197.5t70.5 -128.5t140 -62v508q0 141 30 240t99 151t183 52zM800 926
q-57 0 -82 -40t-31 -109t-6 -157v-488q143 20 198.5 117.5t55.5 287.5q0 209 -28 299t-107 90z" />
    <glyph glyph-name="chi" unicode="&#x3c7;" 
d="M298 1082q61 -67 113.5 -146.5t102 -184.5t98.5 -250l122 -137l388 -751l-220 -53l-295 650l-125 149q-53 127 -101 223t-95.5 170.5t-97.5 135t-108 116.5zM869 1080l217 -41l-352 -675l-127 -154l-296 -647l-222 44l393 752l130 142z" />
    <glyph glyph-name="psi" unicode="&#x3c8;" 
d="M697 1056v-909q102 15 154 59t70.5 122t18.5 195q0 119 -12.5 252t-37.5 281h203q24 -128 38.5 -259.5t14.5 -287.5q0 -154 -46 -265.5t-145 -177.5t-258 -84v-388l-191 -25v413q-157 14 -252.5 71.5t-138 146t-42.5 193.5v663h204v-652q0 -117 51.5 -179t177.5 -78v909
h191z" />
    <glyph glyph-name="omega" unicode="&#x3c9;" 
d="M1053 1056q39 -112 71 -257.5t32 -318.5q0 -242 -77.5 -374.5t-228.5 -132.5q-104 0 -167.5 54.5t-84.5 169.5q-27 -111 -89 -167.5t-160 -56.5q-152 0 -228.5 129.5t-76.5 377.5q0 173 31 319.5t70 256.5h187q-32 -107 -49 -201.5t-24 -184t-7 -184.5q0 -105 11 -181.5
t39.5 -117.5t79.5 -41t78 40.5t37 112t10 165.5v238l186 29v-264q0 -103 10.5 -174.5t37.5 -109t79 -37.5t80 41t38 117.5t10 181.5q0 95 -7.5 184.5t-26 184t-50.5 201.5h189z" />
    <glyph glyph-name="iotadieresis" unicode="&#x3ca;" 
d="M451 881h-345l22 175h547v-769q0 -72 44.5 -102.5t115.5 -30.5q42 0 84.5 10t82.5 25l56 -156q-42 -23 -115 -41.5t-156 -18.5q-154 0 -245 86t-91 236v586zM357 1288q-56 0 -93.5 36.5t-37.5 90.5t37.5 90.5t93.5 36.5q55 0 92 -36.5t37 -90.5t-37 -90.5t-92 -36.5z
M788 1288q-54 0 -91.5 36.5t-37.5 90.5t37.5 90.5t91.5 36.5q56 0 93.5 -36.5t37.5 -90.5t-37.5 -90.5t-93.5 -36.5z" />
    <glyph glyph-name="upsilondieresis" unicode="&#x3cb;" 
d="M1016 1056q24 -127 39 -258t15 -287q0 -188 -71 -306.5t-185 -175t-243 -56.5q-172 0 -283 90.5t-111 272.5v720h224v-703q0 -107 48 -157t134 -50q50 0 96.5 19t84 62.5t59.5 117t22 182.5q0 118 -13 253t-40 276h224zM384 1288q-56 0 -93.5 36.5t-37.5 90.5t37.5 90.5
t93.5 36.5q55 0 92 -36.5t37 -90.5t-37 -90.5t-92 -36.5zM815 1288q-54 0 -91.5 36.5t-37.5 90.5t37.5 90.5t91.5 36.5q56 0 93.5 -36.5t37.5 -90.5t-37.5 -90.5t-93.5 -36.5z" />
    <glyph glyph-name="omicrontonos" unicode="&#x3cc;" 
d="M601 1084q155 0 261 -69t160.5 -193t54.5 -292q0 -167 -55.5 -292.5t-162 -195t-259.5 -69.5t-259.5 67.5t-162 192.5t-55.5 295q0 165 55.5 290t162.5 195.5t260 70.5zM601 910q-121 0 -182 -92.5t-61 -289.5q0 -196 60.5 -289t181.5 -93t181.5 93t60.5 291
q0 195 -60 287.5t-181 92.5zM599 1645l227 -44l-149 -416l-153 26z" />
    <glyph glyph-name="upsilontonos" unicode="&#x3cd;" 
d="M1016 1056q24 -127 39 -258t15 -287q0 -188 -71 -306.5t-185 -175t-243 -56.5q-172 0 -283 90.5t-111 272.5v720h224v-703q0 -107 48 -157t134 -50q50 0 96.5 19t84 62.5t59.5 117t22 182.5q0 118 -13 253t-40 276h224zM599 1645l227 -44l-149 -416l-153 26z" />
    <glyph glyph-name="omegatonos" unicode="&#x3ce;" 
d="M1053 1056q39 -112 71 -257.5t32 -318.5q0 -242 -77.5 -374.5t-228.5 -132.5q-104 0 -167.5 54.5t-84.5 169.5q-27 -111 -89 -167.5t-160 -56.5q-152 0 -228.5 129.5t-76.5 377.5q0 173 31 319.5t70 256.5h187q-32 -107 -49 -201.5t-24 -184t-7 -184.5q0 -105 11 -181.5
t39.5 -117.5t79.5 -41t78 40.5t37 112t10 165.5v238l186 29v-264q0 -103 10.5 -174.5t37.5 -109t79 -37.5t80 41t38 117.5t10 181.5q0 95 -7.5 184.5t-26 184t-50.5 201.5h189zM599 1645l227 -44l-149 -416l-153 26z" />
    <glyph glyph-name="uni03CF" unicode="&#x3cf;" 
d="M891 185h263v-185h-263v185zM395 0h-232v1380h232v-1380zM405 737l437 643h254l-439 -627l477 -753h-275zM822 -434q-82 0 -140.5 24t-101.5 56l87 141q32 -19 62.5 -31t76.5 -12q56 0 86.5 34t30.5 110v114h231v-97q0 -168 -88.5 -253.5t-243.5 -85.5z" />
    <glyph glyph-name="uni03D0" unicode="&#x3d0;" 
d="M676 1505q112 0 179.5 -40t97.5 -101t30 -127q0 -89 -43 -163.5t-120 -130t-179 -87.5q57 14 97 14q97 0 170 -44t114 -136.5t41 -237.5q0 -95 -31 -181.5t-91 -153.5t-146 -105.5t-196 -38.5q-166 0 -268 85.5t-147.5 246.5t-45.5 384q0 200 44.5 352t120.5 255.5
t172.5 156t200.5 52.5zM662 1341q-71 0 -138 -62.5t-110 -201t-43 -367.5q0 -212 24 -335.5t74.5 -176t128.5 -52.5q73 0 124 36.5t78 104t27 157.5q0 93 -17.5 162.5t-61.5 107t-122 37.5q-50 0 -95.5 -13.5t-105.5 -41.5l-91 -42l4 170l94 39q177 71 255.5 156.5
t78.5 207.5q0 58 -28 86t-76 28z" />
    <glyph glyph-name="uni03D1" unicode="&#x3d1;" 
d="M532 -27q-94 0 -174.5 40t-129.5 121t-49 203v363h220v-358q0 -101 38.5 -149t104.5 -48q77 0 129 62t78 206.5t26 389.5q0 188 -28 305t-83 171t-135 54t-126.5 -50.5t-46.5 -129.5q0 -94 62 -137.5t159 -43.5l507 1v-166l-507 -1q-218 0 -326.5 96.5t-108.5 245.5
q0 98 49.5 179.5t136.5 129.5t198 48q167 0 275 -87t160 -244.5t52 -368.5q0 -411 -114 -621.5t-367 -210.5z" />
    <glyph glyph-name="uni03D2" unicode="&#x3d2;" 
d="M1152 1223q-11 3 -23.5 5t-29.5 2q-37 0 -62.5 -23t-52.5 -82l-274 -598v-527h-234v525l-420 855h256l286 -656l189 453q36 87 75 137.5t90 72t123 21.5q36 0 65.5 -6t53.5 -16z" />
    <glyph glyph-name="uni03D3" unicode="&#x3d3;" 
d="M1152 1223q-11 3 -23.5 5t-29.5 2q-37 0 -62.5 -23t-52.5 -82l-274 -598v-527h-234v525l-420 855h256l286 -656l189 453q36 87 75 137.5t90 72t123 21.5q36 0 65.5 -6t53.5 -16zM-213 1425l238 -45l-155 -414l-157 26z" />
    <glyph glyph-name="uni03D4" unicode="&#x3d4;" 
d="M1152 1223q-11 3 -23.5 5t-29.5 2q-37 0 -62.5 -23t-52.5 -82l-274 -598v-527h-234v525l-420 855h256l286 -656l189 453q36 87 75 137.5t90 72t123 21.5q36 0 65.5 -6t53.5 -16zM390 1531q-56 0 -93.5 36.5t-37.5 90.5t37.5 90.5t93.5 36.5q55 0 92 -36.5t37 -90.5
t-37 -90.5t-92 -36.5zM821 1531q-54 0 -91.5 36.5t-37.5 90.5t37.5 90.5t91.5 36.5q56 0 93.5 -36.5t37.5 -90.5t-37.5 -90.5t-93.5 -36.5z" />
    <glyph glyph-name="uni03D5" unicode="&#x3d5;" 
d="M675 1050q135 -3 237.5 -64.5t160 -176t57.5 -277.5q0 -172 -61 -288t-163.5 -175.5t-229.5 -61.5l-3 151q121 6 182 98t61 276q0 181 -62.5 272.5t-178.5 93.5v152zM520 1050l4 -150q-120 -4 -180.5 -96t-60.5 -277q0 -179 61.5 -271.5t179.5 -96.5l-3 -152
q-132 4 -234 65.5t-159.5 176t-57.5 278.5q0 171 60.5 286.5t163 175.5t226.5 61zM706 1502v-493l-12 -91v-785l12 -94v-445l-213 -25l1 470l11 94v785l-12 91v469z" />
    <glyph glyph-name="uni03D6" unicode="&#x3d6;" 
d="M38 872l-39 150q35 13 72.5 20.5t97.5 10.5t160 3h845v-160l-957 -2q-66 0 -98.5 -4t-80.5 -18zM984 1016q67 -108 110.5 -244t43.5 -298q0 -238 -77.5 -369.5t-221.5 -131.5q-93 0 -154 54.5t-82 169.5q-26 -111 -85.5 -167.5t-146.5 -56.5q-144 0 -220.5 129t-76.5 372
q0 160 42 296t108 243h123q-27 -98 -42 -185t-20.5 -170t-5.5 -172q0 -105 10.5 -181.5t37 -117.5t72.5 -41t71 40.5t34.5 112t9.5 165.5v198l183 27v-222q0 -103 9.5 -174.5t35 -109t71.5 -37.5q48 0 74 41t36 117.5t10 181.5q0 89 -7 173t-23 171.5t-43 185.5h124z" />
    <glyph glyph-name="uni03D7" unicode="&#x3d7;" 
d="M762 -435q-84 0 -146 24.5t-102 54.5l82 137q36 -19 69 -31t84 -12q59 0 94 33t35 108v236l211 16v-233q0 -165 -88.5 -249t-238.5 -84zM395 -19l-195 63l158 206l446 826l195 -63l-158 -206zM1019 -1q-123 30 -181 92.5t-58 192.5q0 36 4.5 91.5t11.5 119t16 125.5
t16.5 111.5t12.5 75.5l158 206v-708q0 -82 20.5 -116.5t69.5 -57.5zM181 1084q123 -30 180.5 -105.5t57.5 -206.5q0 -35 -4.5 -90.5t-11.5 -119t-15.5 -125.5t-16.5 -111.5t-13 -75.5l-158 -206v708q0 76 -20.5 110t-69.5 57z" />
    <glyph glyph-name="uni03D8" unicode="&#x3d8;" 
d="M489 -409v409h224v-409h-224zM1125 690q0 -213 -59 -374.5t-176 -252t-290 -90.5q-172 0 -289.5 88.5t-176.5 249t-59 377.5q0 214 59 375.5t176.5 253t289.5 91.5q173 0 290 -89t176 -250.5t59 -378.5zM885 690q0 268 -66.5 402.5t-218.5 134.5t-218.5 -135.5
t-66.5 -403.5q0 -267 68 -400.5t217 -133.5q154 0 219.5 134.5t65.5 401.5z" />
    <glyph glyph-name="uni03D9" unicode="&#x3d9;" 
d="M711 2v-408l-222 -25v433h222zM601 1084q155 0 261 -69t160.5 -193t54.5 -292q0 -167 -55.5 -292.5t-162 -195t-259.5 -69.5t-259.5 67.5t-162 192.5t-55.5 295q0 165 55.5 290t162.5 195.5t260 70.5zM601 910q-121 0 -182 -92.5t-61 -289.5q0 -196 60.5 -289t181.5 -93
t181.5 93t60.5 291q0 195 -60 287.5t-181 92.5z" />
    <glyph glyph-name="uni03DA" unicode="&#x3da;" 
d="M729 -435l-88 144q79 37 130.5 79.5t51.5 108.5q0 38 -24 65.5t-82.5 56.5t-162.5 71q-139 58 -235 137t-145 197t-49 291q0 135 39.5 255t122 212.5t211.5 145t309 52.5h320l-31 -190h-280q-156 0 -255.5 -59.5t-147 -165t-47.5 -244.5q0 -132 31 -218t106 -145.5
t207 -112.5q113 -45 190 -90t116 -102t39 -139q0 -112 -78 -193.5t-248 -155.5z" />
    <glyph glyph-name="uni03DB" unicode="&#x3db;" 
d="M818 1161l206 -17q0 -117 -44.5 -182t-124 -99.5t-184.5 -61.5q-101 -25 -168.5 -54.5t-101.5 -82t-34 -147.5q0 -89 29 -144t100 -93.5t197 -79.5q99 -33 171.5 -68t111.5 -87t39 -133q0 -113 -81.5 -193.5t-248.5 -153.5l-89 144q86 40 134 80t48 102q0 42 -27.5 67.5
t-83 45.5t-140.5 47q-84 28 -156.5 62.5t-126.5 86t-84 127t-30 185.5q0 129 47 214.5t132.5 138t201.5 82.5q96 27 156 47t93 40.5t45.5 50t12.5 76.5z" />
    <glyph glyph-name="uni03DC" unicode="&#x3dc;" 
d="M900 567q-36 13 -76 21t-104 8h-391v180h408q76 0 125 -11.5t96 -36.5zM1085 1380l-23 -192h-608v-1188h-232v1380h863z" />
    <glyph glyph-name="uni03DD" unicode="&#x3dd;" 
d="M590 1056h473l-26 -175h-429q-81 0 -120 -40t-39 -126v-1116l-224 -32v1141q0 111 41.5 188.5t123 118.5t200.5 41zM929 276q-36 13 -76.5 21t-103.5 8h-433v171h450q76 0 124.5 -11.5t92.5 -36.5z" />
    <glyph glyph-name="uni03DE" unicode="&#x3de;" 
d="M381 0l495 668l203 -68l-444 -600h-254zM163 600l-41 191h916l42 -191h-917zM325 724l-203 67l443 589h254z" />
    <glyph glyph-name="uni03DF" unicode="&#x3df;" 
d="M700 -27l-198 42q7 71 26 140t56 148t94 178l212 381l157 -79l-195 -396q-51 -103 -81 -174.5t-46 -127.5t-25 -112zM212 542l-59 168l833 240l62 -167zM305 621l-152 89l190 386q52 104 81.5 175.5t45.5 127t24 111.5l198 -42q-6 -71 -25.5 -140t-56 -147t-93.5 -179z
" />
    <glyph glyph-name="uni03E0" unicode="&#x3e0;" 
d="M947 0l-379 1093l-119 287h198l518 -1380h-218zM35 0l494 1254l158 -39l-429 -1215h-223zM419 3l275 823l146 -33l-242 -793z" />
    <glyph glyph-name="uni03E1" unicode="&#x3e1;" 
d="M46 0l551 1152l133 -137l-481 -1015h-203zM458 0l335 783l117 -112l-278 -671h-174zM183 1510q290 -133 483.5 -313t291 -427t97.5 -578q0 -104 -11.5 -216.5t-31 -217.5t-41.5 -187l-179 26q27 127 44.5 275.5t17.5 319.5q0 285 -77.5 497.5t-241.5 375.5t-425 301z" />
    <glyph glyph-name="uni03F0" unicode="&#x3f0;" 
d="M396 -19l-195 63l159 206l444 826l195 -65l-159 -204zM1019 -27q-123 30 -181 105.5t-58 205.5q0 36 4.5 91.5t11.5 119t15.5 125.5t16 111.5t12.5 75.5l159 204v-706q0 -76 20.5 -110t69.5 -57zM182 1084q123 -30 181 -105.5t58 -206.5q0 -35 -5 -90.5t-12 -119
t-15.5 -125.5t-16 -111.5t-12.5 -75.5l-159 -206v708q0 76 -20.5 110t-69.5 57z" />
    <glyph glyph-name="uni03F1" unicode="&#x3f1;" 
d="M758 -436q-13 29 -34 45.5t-68 28t-139 25.5q-116 18 -194 59t-116.5 118t-38.5 201l224 -13q0 -74 22.5 -114t80.5 -61t164 -37q142 -21 209.5 -65.5t91.5 -122.5zM364 221l9 172q37 -88 96.5 -132t132.5 -44q112 0 173.5 95t61.5 265q0 171 -57 253.5t-162 82.5
q-126 0 -176 -100.5t-50 -298.5v-486l-224 13v503q0 265 112.5 402.5t333.5 137.5q151 0 253 -62t154.5 -175.5t52.5 -268.5q0 -105 -27 -200.5t-79.5 -171t-129.5 -119.5t-177 -44q-91 0 -167.5 41.5t-129.5 136.5z" />
    <glyph glyph-name="uni03F2" unicode="&#x3f2;" 
d="M687 157q74 0 138 25.5t122 66.5l104 -144q-69 -59 -167.5 -95.5t-203.5 -36.5q-162 0 -277 68.5t-176 192.5t-61 289q0 161 61.5 287.5t177.5 200t279 73.5q108 0 199 -32t167 -95l-103 -141q-62 43 -126.5 65.5t-132.5 22.5q-125 0 -204.5 -92t-79.5 -289
q0 -132 36.5 -212.5t100.5 -117t146 -36.5z" />
    <glyph glyph-name="uni03F3" unicode="&#x3f3;" 
d="M911 1056v-834q0 -197 -81.5 -327t-238.5 -207.5t-383 -118.5l-36 172q157 30 273 83t179 145t63 238v685h-417v164h641zM736 1573q65 0 106 -40t41 -100t-41 -101t-106 -41t-105.5 41t-40.5 101t40.5 100t105.5 40z" />
    <glyph glyph-name="uni03F4" unicode="&#x3f4;" 
d="M1039 625h-855v158h855v-158zM1125 690q0 -213 -59 -374.5t-176 -252t-290 -90.5q-172 0 -289.5 88.5t-176.5 249t-59 377.5q0 214 59 375.5t176.5 253t289.5 91.5q173 0 290 -89t176 -250.5t59 -378.5zM889 690q0 269 -68.5 403t-220.5 134t-220.5 -134.5t-68.5 -404.5
q0 -268 70 -401t219 -133q154 0 221.5 133.5t67.5 402.5z" />
    <glyph glyph-name="uni03F5" unicode="&#x3f5;" 
d="M682 1084q108 0 200 -30.5t169 -92.5l-100 -134q-66 45 -130 65.5t-133 20.5q-116 0 -194.5 -72.5t-97.5 -221.5h458v-157h-459q13 -167 94 -241t200 -74q73 0 135.5 21.5t127.5 65.5l99 -136q-74 -61 -173.5 -93t-194.5 -32q-165 0 -280.5 68.5t-176 192.5t-60.5 289
q0 161 61.5 287.5t177 200t277.5 73.5z" />
    <glyph glyph-name="uni03F6" unicode="&#x3f6;" 
d="M555 1084q164 0 274.5 -69t166 -193.5t55.5 -290.5q0 -165 -59 -291t-173 -196.5t-280 -70.5q-108 0 -203.5 32.5t-169.5 97.5l104 133q62 -46 126 -67.5t139 -21.5q121 0 197.5 74t89.5 241h-458v157h455q-14 152 -85.5 223t-188.5 71q-73 0 -139 -21.5t-128 -65.5
l-101 134q78 61 173.5 92.5t204.5 31.5z" />
    <glyph glyph-name="uni03F7" unicode="&#x3f7;" 
d="M410 1380v-229h165q261 0 406.5 -108t145.5 -334q0 -161 -67 -263t-187.5 -150t-281.5 -48h-181v-248h-232v1380h232zM591 977h-181v-553h187q86 0 151 25.5t100.5 87t35.5 169.5q0 144 -79 207.5t-214 63.5z" />
    <glyph glyph-name="uni03F8" unicode="&#x3f8;" 
d="M402 1505v-570q54 72 129 110.5t162 38.5q140 0 224 -68.5t122 -193t38 -292.5q0 -161 -46 -287t-136.5 -198t-224.5 -72q-166 0 -268 117v-496l-224 -25v1911zM631 911q-75 0 -132 -45t-97 -106v-494q38 -57 90.5 -87.5t118.5 -30.5q113 0 172 91t59 290
q0 135 -23.5 219.5t-70 123.5t-117.5 39z" />
    <glyph glyph-name="uni03F9" unicode="&#x3f9;" 
d="M716 1408q140 0 236.5 -36.5t179.5 -104.5l-121 -144q-62 52 -133 77t-151 25q-103 0 -190 -52t-139.5 -169t-52.5 -312q0 -191 50 -308t137 -170t195 -53q111 0 184 36.5t129 82.5l112 -143q-69 -67 -175 -115.5t-258 -48.5q-175 0 -314.5 82.5t-220 242.5t-80.5 394
q0 232 83 391.5t222 242t307 82.5z" />
    <glyph glyph-name="uni03FA" unicode="&#x3fa;" 
d="M1071 1380l78 -1380h-212l-33 672q-3 76 -4.5 147t-1.5 136t1.5 120.5t3.5 100.5l-203 -933h-202l-218 933q3 -43 5 -100.5t3 -123.5t0.5 -138t-2.5 -144l-27 -670h-208l78 1380h278l197 -925l188 925h279z" />
    <glyph glyph-name="uni03FB" unicode="&#x3fb;" 
d="M26 -431l132 1487h271l161 -738l183 738h271l87 -1056h-208l-31 434q-4 71 -5.5 137.5t-1.5 140.5t1 166l-200 -757h-202l-176 751q0 -82 -0.5 -153.5t-2.5 -140.5t-8 -144l-67 -844z" />
    <glyph glyph-name="uni03FC" unicode="&#x3fc;" 
d="M78 -121h675v-154h-528h-147v154zM673 1084q236 0 347 -143t111 -411q0 -153 -46 -279t-137.5 -202t-228.5 -76q-82 0 -150.5 29.5t-119.5 88.5v-497l-224 -25v975q0 263 112.5 401.5t335.5 138.5zM669 913q-123 0 -171.5 -101.5t-48.5 -304.5v-241q37 -58 91.5 -88
t118.5 -30q115 0 175 95.5t60 285.5q0 135 -24.5 220t-74.5 124.5t-126 39.5z" />
    <glyph glyph-name="uni03FD" unicode="&#x3fd;" 
d="M504 1408q182 0 314.5 -82.5t205 -242t72.5 -391.5q0 -234 -80.5 -394t-219.5 -242.5t-315 -82.5q-152 0 -258 48.5t-175 115.5l112 141q56 -44 129.5 -80.5t183.5 -36.5q109 0 195.5 53t136.5 170t50 308q0 195 -43.5 312t-125 169t-197.5 52q-82 0 -161 -24.5
t-158 -76.5l-102 143q95 69 196.5 105t239.5 36z" />
    <glyph glyph-name="uni03FE" unicode="&#x3fe;" 
d="M716 1408q140 0 236.5 -36.5t179.5 -104.5l-121 -144q-62 52 -133 77t-151 25q-103 0 -190 -52t-139.5 -169t-52.5 -312q0 -191 50 -308t137 -170t195 -53q111 0 184 36.5t129 82.5l112 -143q-69 -67 -175 -115.5t-258 -48.5q-175 0 -314.5 82.5t-220 242.5t-80.5 394
q0 232 83 391.5t222 242t307 82.5zM758.983 905.768q66.8369 0 108.996 -41.1309q42.1582 -41.1299 42.1582 -102.826q0 -61.6953 -42.1582 -103.854q-42.1592 -42.1592 -108.996 -42.1592t-108.995 42.1592q-42.1582 42.1582 -42.1582 103.854q0 61.6963 42.1582 102.826
q42.1582 41.1309 108.995 41.1309z" />
    <glyph glyph-name="uni03FF" unicode="&#x3ff;" 
d="M504 1408q182 0 314.5 -82.5t205 -242t72.5 -391.5q0 -234 -80.5 -394t-219.5 -242.5t-315 -82.5q-152 0 -258 48.5t-175 115.5l112 141q56 -44 129.5 -80.5t183.5 -36.5q109 0 195.5 53t136.5 170t50 308q0 195 -43.5 312t-125 169t-197.5 52q-82 0 -161 -24.5
t-158 -76.5l-102 143q95 69 196.5 105t239.5 36zM494.983 905.768q66.8369 0 108.996 -41.1309q42.1582 -41.1299 42.1582 -102.826q0 -61.6953 -42.1582 -103.854q-42.1592 -42.1592 -108.996 -42.1592t-108.995 42.1592q-42.1582 42.1582 -42.1582 103.854
q0 61.6963 42.1582 102.826q42.1582 41.1309 108.995 41.1309z" />
    <glyph glyph-name="uni0400" unicode="&#x400;" 
d="M458 1204v-415h500v-176h-500v-437h609v-176h-841v1380h830l-26 -176h-572zM496 1852l393 -228l-61 -116l-435 165z" />
    <glyph glyph-name="uni0401" unicode="&#x401;" 
d="M458 1204v-415h500v-176h-500v-437h609v-176h-841v1380h830l-26 -176h-572zM425 1531q-56 0 -93.5 36.5t-37.5 90.5t37.5 90.5t93.5 36.5q55 0 92 -36.5t37 -90.5t-37 -90.5t-92 -36.5zM856 1531q-54 0 -91.5 36.5t-37.5 90.5t37.5 90.5t91.5 36.5q56 0 93.5 -36.5
t37.5 -90.5t-37.5 -90.5t-93.5 -36.5z" />
    <glyph glyph-name="uni0402" unicode="&#x402;" 
d="M518 1202v-395q52 46 119 77t151 31q179 0 267.5 -106t88.5 -312v-303q0 -148 -46 -243t-130.5 -152.5t-196.5 -95.5l-59 171q86 35 130.5 76t61 99.5t16.5 146.5v304q0 125 -43 178.5t-146 53.5q-77 0 -127.5 -29t-85.5 -62v-641h-224v1202h-306v178h859l-24 -178h-305z
" />
    <glyph glyph-name="uni0403" unicode="&#x403;" 
d="M1100 1380l-24 -192h-607v-1188h-232v1380h863zM847 1847l92 -178l-445 -161l-57 116z" />
    <glyph glyph-name="uni0404" unicode="&#x404;" 
d="M709 1408q139 0 236 -37.5t180 -103.5l-113 -134q-67 47 -137.5 72t-150.5 25q-98 0 -182 -42.5t-138 -137t-66 -249.5h572v-185h-575q8 -161 60.5 -262.5t137 -149t187.5 -47.5q111 0 185 35t128 80l112 -137q-68 -64 -175.5 -113t-261.5 -49q-178 0 -316.5 82.5
t-216.5 242.5t-78 394q0 232 82.5 391.5t222 242t307.5 82.5z" />
    <glyph glyph-name="uni0405" unicode="&#x405;" 
d="M1097 390q0 -122 -62.5 -216.5t-180 -147.5t-283.5 -53q-168 0 -294.5 50.5t-213.5 134.5l127 142q74 -67 167 -105.5t213 -38.5q78 0 143 24.5t104 74t39 124.5q0 61 -25 103t-86.5 76t-171.5 66q-146 44 -245 98t-149.5 129.5t-50.5 183.5q0 112 61.5 196t169 130.5
t243.5 46.5q150 0 262 -43t200 -123l-122 -138q-73 64 -156.5 93t-169.5 29q-70 0 -127 -20t-90 -59t-33 -99q0 -53 29.5 -91t100 -70.5t193.5 -69.5q116 -34 208.5 -84t146 -131t53.5 -212z" />
    <glyph glyph-name="uni0406" unicode="&#x406;" 
d="M1015 1380v-177h-298v-1025h298v-178h-830v178h298v1025h-298v177h830z" />
    <glyph glyph-name="uni0407" unicode="&#x407;" 
d="M1015 1380v-177h-298v-1025h298v-178h-830v178h298v1025h-298v177h830zM384 1531q-56 0 -93.5 36.5t-37.5 90.5t37.5 90.5t93.5 36.5q55 0 92 -36.5t37 -90.5t-37 -90.5t-92 -36.5zM815 1531q-54 0 -91.5 36.5t-37.5 90.5t37.5 90.5t91.5 36.5q56 0 93.5 -36.5
t37.5 -90.5t-37.5 -90.5t-93.5 -36.5z" />
    <glyph glyph-name="uni0408" unicode="&#x408;" 
d="M1016 1380v-907q0 -99 -28 -189t-88.5 -159.5t-156 -110t-230.5 -40.5q-114 0 -211 33t-182 94l95 148q82 -54 151.5 -73t137.5 -19q130 0 205.5 83t75.5 238v724h-415v178h646z" />
    <glyph glyph-name="uni0409" unicode="&#x409;" 
d="M717 1380v-494q237 0 360 -105t123 -327q0 -240 -127.5 -347t-345.5 -107h-211v1213h-160l-39 -597q-12 -180 -30.5 -291.5t-45.5 -176t-64 -103t-86 -74.5l-100 142q22 23 40.5 53.5t34 84.5t28.5 145.5t23 236.5l52 747h548zM744 725h-27v-558h30q79 0 131.5 27
t80 89.5t27.5 168.5q0 144 -60 208.5t-182 64.5z" />
    <glyph glyph-name="uni040A" unicode="&#x40a;" 
d="M720 1380v-537q234 0 357 -98t123 -309q0 -155 -56.5 -251t-162.5 -140.5t-257 -44.5h-207v677h-241v-677h-203v1380h203v-537h241v537h203zM744 679h-24v-509h24q81 1 135 23.5t81.5 79.5t27.5 161q0 138 -61 191.5t-183 53.5z" />
    <glyph glyph-name="uni040B" unicode="&#x40b;" 
d="M847 1380l-24 -178h-305v-395q52 49 118 78.5t152 29.5q179 0 267.5 -106t88.5 -312v-497h-224v500q0 125 -43 178.5t-146 53.5q-77 0 -127.5 -29t-85.5 -62v-641h-224v1202h-306v178h859z" />
    <glyph glyph-name="uni040C" unicode="&#x40c;" 
d="M535 633h-146v-633h-232v1380h232v-566h147l378 566h238l-422 -640l460 -740h-266zM804 1847l92 -178l-445 -161l-57 116z" />
    <glyph glyph-name="uni040D" unicode="&#x40d;" 
d="M143 0v1380h221v-610q0 -130 -5 -228t-14 -178.5t-20 -159.5l456 1176h276v-1380h-221v608q0 174 12 314t27 247l-452 -1169h-280zM455 1852l393 -228l-61 -116l-435 165z" />
    <glyph glyph-name="uni040E" unicode="&#x40e;" 
d="M1181 1380l-395 -978q-42 -104 -89 -179.5t-109 -126t-148.5 -80.5t-207.5 -43l-33 171q105 13 170.5 38t108.5 71.5t79 120.5h-83l-445 1006h241l355 -865l321 865h235zM618 1512q-89 0 -156.5 34t-108 94t-49.5 137l138 27q21 -60 63.5 -94t112.5 -34t114.5 34t64.5 94
l138 -27q-8 -77 -49.5 -137t-110 -94t-157.5 -34z" />
    <glyph glyph-name="uni040F" unicode="&#x40f;" 
d="M482 110h236l-32 -425h-172zM143 0v1380h232v-1194h450v1194h232v-1380h-914z" />
    <glyph glyph-name="uni0410" unicode="&#x410;" 
d="M842 332h-493l-96 -332h-236l439 1380h288l440 -1380h-246zM397 511h396l-197 689z" />
    <glyph glyph-name="uni0411" unicode="&#x411;" 
d="M976 1380l-22 -184h-554v-338h161q254 0 398.5 -100.5t144.5 -318.5q0 -155 -68.5 -252t-189.5 -142t-277 -45h-401v1380h808zM568 684h-168v-504h170q88 0 154 22t103 78t37 157q0 89 -36 143t-102.5 79t-157.5 25z" />
    <glyph glyph-name="uni0412" unicode="&#x412;" 
d="M861 399q0 93 -36 144t-97 71.5t-137 20.5h-197v-455h187q50 0 99.5 8.5t90.5 32t65.5 66.5t24.5 112zM808 1012q0 104 -65 149t-183 45h-166v-399h180q116 0 175 48.5t59 156.5zM1103 398q0 -115 -45 -192.5t-121.5 -122.5t-172.5 -64t-198 -19h-404v1380h377
q97 0 187 -16.5t161.5 -56.5t113.5 -107.5t42 -168.5q0 -87 -36 -148t-94.5 -98.5t-124.5 -53.5q75 -12 147.5 -46.5t120 -103.5t47.5 -183z" />
    <glyph glyph-name="uni0413" unicode="&#x413;" 
d="M1100 1380l-24 -192h-607v-1188h-232v1380h863z" />
    <glyph glyph-name="uni0414" unicode="&#x414;" 
d="M1036 1380v-1198l-99 -183l-743 1l-119 182q39 39 64.5 91t45 137t38.5 220.5t44 339.5l47 410h722zM812 1201h-299l-24 -229q-21 -194 -39 -327.5t-40.5 -221t-54 -143.5t-78.5 -98h535v1019zM1138 182v-497h-180l-34 315h-51l39 182h226zM-7 182h227l38 -182h-51
l-33 -315h-181v497z" />
    <glyph glyph-name="uni0415" unicode="&#x415;" 
d="M458 1204v-415h500v-176h-500v-437h609v-176h-841v1380h830l-26 -176h-572z" />
    <glyph glyph-name="uni0416" unicode="&#x416;" 
d="M514 648h-99l-188 -648h-210l233 740l-208 640h206l170 -582h96v582h172v-582h96l171 582h205l-208 -640l233 -740h-214l-187 648h-96v-648h-172v648z" />
    <glyph glyph-name="uni0417" unicode="&#x417;" 
d="M563 1408q150 0 260 -46.5t170 -128t60 -188.5q0 -85 -38 -147t-105 -100.5t-153 -52.5q94 -9 171.5 -49.5t123.5 -113t46 -178.5q0 -124 -65.5 -222t-188 -153.5t-294.5 -55.5q-156 0 -283.5 51.5t-217.5 145.5l130 123q78 -67 170 -103t199 -36q147 0 228.5 68
t81.5 184q0 84 -38.5 137t-106 78.5t-156.5 25.5h-239l27 180h203q75 0 136.5 21.5t98.5 67t37 115.5q0 65 -34.5 109.5t-95.5 67t-141 22.5q-107 0 -191.5 -33t-157.5 -91l-121 128q102 86 222.5 130t261.5 44z" />
    <glyph glyph-name="uni0418" unicode="&#x418;" 
d="M143 0v1380h221v-610q0 -130 -5 -228t-14 -178.5t-20 -159.5l456 1176h276v-1380h-221v608q0 174 12 314t27 247l-452 -1169h-280z" />
    <glyph glyph-name="uni0419" unicode="&#x419;" 
d="M143 0v1380h221v-610q0 -130 -5 -228t-14 -178.5t-20 -159.5l456 1176h276v-1380h-221v608q0 174 12 314t27 247l-452 -1169h-280zM598 1519q-89 0 -157 33t-108.5 91t-48.5 133l138 27q19 -62 62.5 -91t113.5 -29t115.5 29t63.5 91l138 -27q-8 -75 -49.5 -133t-110 -91
t-157.5 -33z" />
    <glyph glyph-name="uni041A" unicode="&#x41a;" 
d="M535 633h-146v-633h-232v1380h232v-566h147l378 566h238l-422 -640l460 -740h-266z" />
    <glyph glyph-name="uni041B" unicode="&#x41b;" 
d="M1057 1380v-1380h-232v1193h-313l-38 -338q-21 -194 -45 -329t-53.5 -225.5t-67.5 -149.5t-88 -100.5t-115 -79.5l-96 162q40 32 73 69.5t61 107t53.5 195t49.5 332.5l64 543h747z" />
    <glyph glyph-name="uni041C" unicode="&#x41c;" 
d="M1071 1380l78 -1380h-212l-33 672q-3 76 -4.5 147t-1.5 136t1.5 120.5t3.5 100.5l-203 -933h-202l-218 933q3 -43 5 -100.5t3 -123.5t0.5 -138t-2.5 -144l-27 -670h-208l78 1380h278l197 -925l188 925h279z" />
    <glyph glyph-name="uni041D" unicode="&#x41d;" 
d="M825 0v627h-450v-627h-232v1380h232v-562h450v562h232v-1380h-232z" />
    <glyph glyph-name="uni041E" unicode="&#x41e;" 
d="M1125 690q0 -213 -59 -374.5t-176 -252t-290 -90.5q-172 0 -289.5 88.5t-176.5 249t-59 377.5q0 214 59 375.5t176.5 253t289.5 91.5q173 0 290 -89t176 -250.5t59 -378.5zM885 690q0 268 -66.5 402.5t-218.5 134.5t-218.5 -135.5t-66.5 -403.5q0 -267 68 -400.5
t217 -133.5q154 0 219.5 134.5t65.5 401.5z" />
    <glyph glyph-name="uni041F" unicode="&#x41f;" 
d="M825 0v1191h-450v-1191h-232v1380h914v-1380h-232z" />
    <glyph glyph-name="uni0420" unicode="&#x420;" 
d="M885 945q0 95 -36.5 152t-103 83t-156.5 26h-166v-537h169q87 0 153 26t103 86t37 164zM1129 947q0 -161 -68.5 -261t-190.5 -147t-280 -47h-167v-492h-232v1380h383q260 0 407.5 -106.5t147.5 -326.5z" />
    <glyph glyph-name="uni0421" unicode="&#x421;" 
d="M716 1408q140 0 236.5 -36.5t179.5 -104.5l-121 -144q-62 52 -133 77t-151 25q-103 0 -190 -52t-139.5 -169t-52.5 -312q0 -191 50 -308t137 -170t195 -53q111 0 184 36.5t129 82.5l112 -143q-69 -67 -175 -115.5t-258 -48.5q-175 0 -314.5 82.5t-220 242.5t-80.5 394
q0 232 83 391.5t222 242t307 82.5z" />
    <glyph glyph-name="uni0422" unicode="&#x422;" 
d="M713 1193v-1193h-232v1193h-414v187h1070l-24 -187h-400z" />
    <glyph glyph-name="uni0423" unicode="&#x423;" 
d="M1181 1380l-395 -978q-42 -104 -89 -179.5t-109 -126t-148.5 -80.5t-207.5 -43l-33 171q105 13 170.5 38t108.5 71.5t79 120.5h-83l-445 1006h241l355 -865l321 865h235z" />
    <glyph glyph-name="uni0424" unicode="&#x424;" 
d="M696 1444v-128q247 -17 366 -171t119 -449q0 -300 -124 -457.5t-361 -170.5v-133h-192v133q-238 11 -361.5 168.5t-123.5 459.5q0 295 119 449t366 171v128h192zM513 1169q-93 -5 -152.5 -52.5t-87.5 -150t-28 -270.5q0 -242 61 -354.5t207 -125.5v953zM687 1169v-953
q146 13 207 125.5t61 354.5q0 168 -27.5 270.5t-87 150t-153.5 52.5z" />
    <glyph glyph-name="uni0425" unicode="&#x425;" 
d="M76 1380h257l267 -497l270 497h247l-382 -634l424 -746h-257l-306 587l-307 -587h-248l418 735z" />
    <glyph glyph-name="uni0426" unicode="&#x426;" 
d="M143 0v1380h232v-1194h450v1194h232v-1380h-914zM1170 182v-497h-181l-33 315h-51l38 182h227z" />
    <glyph glyph-name="uni0427" unicode="&#x427;" 
d="M314 1380v-513q0 -136 61 -197t180 -61q106 0 175 36t113 84l16 -169q-58 -46 -113.5 -77t-116 -46t-135.5 -15q-126 0 -218.5 51.5t-143 148t-50.5 232.5v526h232zM1057 1380v-1380h-232v1380h232z" />
    <glyph glyph-name="uni0428" unicode="&#x428;" 
d="M1116 1380v-1380h-1032v1380h200v-1205h224v1205h184v-1205h224v1205h200z" />
    <glyph glyph-name="uni0429" unicode="&#x429;" 
d="M1229 182v-497h-181l-33 315h-52l39 182h227zM1116 1380v-1380h-1032v1380h200v-1205h224v1205h184v-1205h224v1205h200z" />
    <glyph glyph-name="uni042A" unicode="&#x42a;" 
d="M445 1380v-494h172q257 0 403.5 -103.5t146.5 -328.5q0 -162 -69 -262t-191.5 -146t-280.5 -46h-406v1195h-222v185h447zM630 714h-185v-537h177q91 0 159.5 23t107.5 83t39 169q0 94 -37 152t-103.5 84t-157.5 26z" />
    <glyph glyph-name="uni042B" unicode="&#x42b;" 
d="M265 1380v-492h86q247 0 374 -110.5t127 -323.5q0 -232 -132.5 -343t-364.5 -111h-300v1380h210zM373 722h-108v-550h102q127 0 196 62t69 218q0 270 -259 270zM1145 1380v-1380h-210v1380h210z" />
    <glyph glyph-name="uni042C" unicode="&#x42c;" 
d="M391 1380v-494h180q257 0 404 -103.5t147 -328.5q0 -160 -69 -260.5t-191 -147t-282 -46.5h-421v1380h232zM582 712h-191v-534h194q87 0 153 24.5t103 84t37 165.5q0 94 -36.5 151.5t-103 83t-156.5 25.5z" />
    <glyph glyph-name="uni042D" unicode="&#x42d;" 
d="M531 1408q262 0 412.5 -176t150.5 -527q0 -243 -72.5 -406t-204 -244.5t-309.5 -81.5q-137 0 -251 47.5t-194 128.5l123 129q69 -58 144 -89.5t170 -31.5q163 0 254.5 110t101.5 352h-571v179h571q-12 236 -100 334t-240 98q-109 0 -184.5 -38t-135.5 -84l-117 129
q84 72 194 121.5t258 49.5z" />
    <glyph glyph-name="uni042E" unicode="&#x42e;" 
d="M781 1408q145 0 229 -80.5t119.5 -240.5t35.5 -397q0 -350 -87.5 -533.5t-296.5 -183.5q-142 0 -224.5 79.5t-118.5 226.5t-40 349h-118v-628h-198v1380h198v-579h120q12 292 98.5 449.5t282.5 157.5zM781 1238q-63 0 -100.5 -49t-54 -168.5t-16.5 -328.5
q0 -210 16.5 -330t54 -169.5t100.5 -49.5q61 0 98.5 49t54.5 168.5t17 329.5t-17 329.5t-54.5 169t-98.5 49.5z" />
    <glyph glyph-name="uni042F" unicode="&#x42f;" 
d="M1057 1380v-1380h-232v534h-255l-272 -534h-255l317 582q-118 54 -178.5 149.5t-60.5 228.5q0 204 137.5 312t401.5 108h397zM825 1208h-176q-142 0 -213 -61.5t-71 -188.5q0 -132 68 -192t196 -60h196v502z" />
    <glyph glyph-name="uni0430" unicode="&#x430;" 
d="M985 259q0 -62 19 -90.5t61 -42.5l-50 -152q-78 9 -134 43t-85 103q-58 -73 -147 -110t-190 -37q-160 0 -253.5 90.5t-93.5 237.5q0 167 130 257t372 90h151v69q0 102 -61.5 147t-173.5 45q-52 0 -126 -13.5t-155 -41.5l-55 158q99 37 194 54.5t176 17.5q212 0 316.5 -94
t104.5 -260v-471zM527 138q68 0 133 36t105 101v233h-124q-158 0 -226 -52.5t-68 -144.5q0 -84 45.5 -128.5t134.5 -44.5z" />
    <glyph glyph-name="uni0431" unicode="&#x431;" 
d="M875 1507l89 -157q-43 -28 -91 -53t-107 -49t-137 -51q-66 -23 -115 -52t-82.5 -76t-53 -120.5t-26.5 -184.5l9 -7v-241q0 -180 62.5 -275.5t175.5 -95.5q66 0 120 29t86.5 104.5t32.5 214.5q0 180 -56.5 253.5t-155.5 73.5q-68 0 -128 -33.5t-106.5 -95t-75.5 -144.5
l-2 190q51 118 144 186t221 68q115 0 203 -59t138.5 -169t50.5 -265q0 -170 -60.5 -287.5t-167 -177.5t-244.5 -60q-141 0 -247 64t-165.5 199.5t-59.5 349.5q0 219 34 370.5t121 247.5t246 148q81 26 137.5 48t105.5 47t104 60z" />
    <glyph glyph-name="uni0432" unicode="&#x432;" 
d="M586 1084q134 0 234 -32t156 -94t56 -152q0 -85 -51 -143t-165 -87q134 -15 201 -80.5t67 -181.5q0 -112 -62.5 -181.5t-167 -101t-230.5 -31.5h-426v1044q95 17 190 28.5t198 11.5zM586 924q-50 0 -87 -2.5t-77 -8.5v-750h196q118 0 176 39.5t58 120.5q0 65 -32 100.5
t-84.5 50t-113.5 14.5h-232v144h218q93 0 147 33t54 115q0 76 -55.5 110t-167.5 34z" />
    <glyph glyph-name="uni0433" unicode="&#x433;" 
d="M513 0h-224v1056h771l-26 -179h-521v-877z" />
    <glyph glyph-name="uni0434" unicode="&#x434;" 
d="M1012 1056v-882l-107 -174h-670l-117 174q43 39 72 96t48.5 161.5t32.5 284.5l25 340h716zM795 888h-299l-10 -160q-10 -137 -23 -230t-33.5 -153.5t-50.5 -100t-73 -70.5h489v714zM43 174h296l-13 -174h-74l-33 -315h-176v489zM1099 174v-489h-177l-33 315h-74l-13 174
h297z" />
    <glyph glyph-name="uni0435" unicode="&#x435;" 
d="M364 456q7 -108 46 -176.5t102.5 -100.5t139.5 -32q78 0 144 24t133 68l97 -134q-74 -60 -173 -96t-212 -36q-164 0 -277.5 70t-172.5 195t-59 289q0 159 58 284.5t166 199t258 73.5q141 0 242.5 -64t157 -181.5t55.5 -282.5q0 -27 -1.5 -53.5t-3.5 -46.5h-700zM616 918
q-105 0 -173.5 -75t-79.5 -234h489q-3 149 -63.5 229t-172.5 80z" />
    <glyph glyph-name="uni0436" unicode="&#x436;" 
d="M513 0v482h-89l-194 -482h-210l244 567l-229 489h210l177 -426h91v426h174v-426h91l183 426h204l-229 -489l244 -567h-211l-195 482h-87v-482h-174z" />
    <glyph glyph-name="uni0437" unicode="&#x437;" 
d="M366 630h190q98 0 152.5 39.5t54.5 103.5q0 73 -58.5 108.5t-164.5 35.5q-79 0 -162 -22t-153 -66l-101 126q84 62 197 95.5t231 33.5q124 0 223.5 -33t158 -97t58.5 -160q0 -89 -63 -146t-166 -86q81 -8 145.5 -38t102.5 -82t38 -130q0 -111 -65.5 -186.5t-178 -114
t-256.5 -38.5q-157 0 -270.5 41.5t-191.5 102.5l101 136q78 -51 164.5 -79.5t197.5 -28.5q131 0 196 46.5t65 124.5q0 76 -60.5 114t-179.5 38h-219z" />
    <glyph glyph-name="uni0438" unicode="&#x438;" 
d="M1022 1056v-1056h-217v434q0 115 9.5 217.5t23.5 180.5l-410 -832h-250v1056h217v-435q0 -109 -9 -214.5t-25 -179.5l407 829h254z" />
    <glyph glyph-name="uni0439" unicode="&#x439;" 
d="M1022 1056v-1056h-217v434q0 115 9.5 217.5t23.5 180.5l-410 -832h-250v1056h217v-435q0 -109 -9 -214.5t-25 -179.5l407 829h254zM598 1267q-89 0 -157 33t-108.5 91t-48.5 133l138 27q19 -62 62.5 -91t113.5 -29t115.5 29t63.5 91l138 -27q-8 -75 -49.5 -133t-110 -91
t-157.5 -33z" />
    <glyph glyph-name="uni043A" unicode="&#x43a;" 
d="M186 0v1056h224v-418h187l276 418h233l-331 -489l376 -567h-253l-306 474h-182v-474h-224z" />
    <glyph glyph-name="uni043B" unicode="&#x43b;" 
d="M1033 1056v-1056h-224v882h-331l-17 -222q-11 -178 -31 -293.5t-54 -187.5t-87 -119t-132 -89l-94 143q37 25 66 55t51.5 84t39 149t28.5 248l31 406h754z" />
    <glyph glyph-name="uni043C" unicode="&#x43c;" 
d="M1057 1056l75 -1056h-207l-31 457q-5 91 -6.5 186t3.5 201h-8l-185 -670h-191l-203 670h-8q7 -93 5.5 -193.5t-6.5 -195.5l-24 -455h-203l73 1056h266l198 -694l180 694h272z" />
    <glyph glyph-name="uni043D" unicode="&#x43d;" 
d="M798 0v452h-396v-452h-224v1056h224v-430h396v430h224v-1056h-224z" />
    <glyph glyph-name="uni043E" unicode="&#x43e;" 
d="M601 1084q155 0 261 -69t160.5 -193t54.5 -292q0 -167 -55.5 -292.5t-162 -195t-259.5 -69.5t-259.5 67.5t-162 192.5t-55.5 295q0 165 55.5 290t162.5 195.5t260 70.5zM601 910q-121 0 -182 -92.5t-61 -289.5q0 -196 60.5 -289t181.5 -93t181.5 93t60.5 291
q0 195 -60 287.5t-181 92.5z" />
    <glyph glyph-name="uni043F" unicode="&#x43f;" 
d="M799 0v882h-398v-882h-223v1056h844v-1056h-223z" />
    <glyph glyph-name="uni0440" unicode="&#x440;" 
d="M693 1084q140 0 224 -68.5t122 -193t38 -292.5q0 -161 -46 -287t-136.5 -198t-224.5 -72q-166 0 -268 117v-496l-224 -25v1487h195l14 -136q60 82 139.5 123t166.5 41zM631 911q-75 0 -132 -45t-97 -106v-494q38 -57 90.5 -87.5t118.5 -30.5q113 0 172 91t59 290
q0 135 -23.5 219.5t-70 123.5t-117.5 39z" />
    <glyph glyph-name="uni0441" unicode="&#x441;" 
d="M687 157q74 0 138 25.5t122 66.5l104 -144q-69 -59 -167.5 -95.5t-203.5 -36.5q-162 0 -277 68.5t-176 192.5t-61 289q0 161 61.5 287.5t177.5 200t279 73.5q108 0 199 -32t167 -95l-103 -141q-62 43 -126.5 65.5t-132.5 22.5q-125 0 -204.5 -92t-79.5 -289
q0 -132 36.5 -212.5t100.5 -117t146 -36.5z" />
    <glyph glyph-name="uni0442" unicode="&#x442;" 
d="M1098 1056l-26 -175h-360v-881h-224v881h-374v175h984z" />
    <glyph glyph-name="uni0443" unicode="&#x443;" 
d="M1102 1056l-364 -1060q-41 -120 -105 -211.5t-164 -147.5t-248 -69l-29 168q107 17 170.5 49.5t101 85.5t66.5 129h-76l-356 1056h238l266 -900l270 900h230z" />
    <glyph glyph-name="uni0444" unicode="&#x444;" 
d="M510 1505l180 -23v-502q43 55 91.5 79.5t103.5 24.5q108 0 166 -68.5t80.5 -193t22.5 -293.5t-31.5 -293.5t-95.5 -193.5t-161 -69q-50 0 -94.5 26t-81.5 79v-486l-180 -23v508q-37 -52 -84 -78t-96 -26q-96 0 -159 69t-94 193.5t-31 293.5t26 293.5t87 193t167 68.5
q54 0 99 -23.5t85 -76.5v521zM385 920q-65 0 -94.5 -89.5t-29.5 -301.5t29.5 -302t94.5 -90q37 0 64 22t61 65v615q-32 40 -58.5 60.5t-66.5 20.5zM826 920q-42 0 -72 -20.5t-64 -61.5v-614q31 -43 58 -65t65 -22q64 0 96 89t32 303q0 212 -25.5 301.5t-89.5 89.5z" />
    <glyph glyph-name="uni0445" unicode="&#x445;" 
d="M334 0h-248l379 557l-337 499h258l216 -372l216 372h246l-330 -490l380 -566h-263l-259 431z" />
    <glyph glyph-name="uni0446" unicode="&#x446;" 
d="M780 1056h223v-1056h-844v1056h223v-881h398v881zM1158 174v-489h-177l-33 315h-74l-13 174h297z" />
    <glyph glyph-name="uni0447" unicode="&#x447;" 
d="M1006 1056v-1056h-224v427q-58 -51 -141 -81t-180 -30q-157 0 -238 84.5t-81 232.5v423h224v-396q0 -93 42 -133t123 -40q67 0 137 27.5t114 72.5v469h224z" />
    <glyph glyph-name="uni0448" unicode="&#x448;" 
d="M1121 1056v-1056h-1042v1056h200v-881h228v881h186v-881h227v881h201z" />
    <glyph glyph-name="uni0449" unicode="&#x449;" 
d="M1248 174v-489h-176l-33 315h-75l-12 174h296zM1121 1056v-1056h-1042v1056h200v-881h228v881h186v-881h227v881h201z" />
    <glyph glyph-name="uni044A" unicode="&#x44a;" 
d="M510 1056v-327h108q157 0 266.5 -37t167.5 -116.5t58 -205.5q0 -134 -60 -215.5t-168 -118t-250 -36.5h-346v890h-235v166h459zM632 569h-122v-403h125q70 0 124 17.5t85 62t31 126.5q0 107 -63 152t-180 45z" />
    <glyph glyph-name="uni044B" unicode="&#x44b;" 
d="M298 1056v-335h52q218 0 337 -84t119 -269q0 -127 -54.5 -208t-153.5 -120.5t-235 -39.5h-266v1056h201zM361 573h-63v-417h66q71 0 121.5 19.5t77.5 66t27 128.5q0 109 -55 156t-174 47zM1103 1056v-1056h-202v1056h202z" />
    <glyph glyph-name="uni044C" unicode="&#x44c;" 
d="M447 1056v-326h171q167 0 269.5 -43t149.5 -124t47 -195q0 -133 -61 -214t-161.5 -117.5t-218.5 -36.5h-420v1056h224zM617 570h-170v-404h187q98 0 156.5 44t58.5 159q0 102 -51 151.5t-181 49.5z" />
    <glyph glyph-name="uni044D" unicode="&#x44d;" 
d="M555 1084q164 0 274.5 -69t166 -193.5t55.5 -290.5q0 -165 -59 -291t-173 -196.5t-280 -70.5q-108 0 -203.5 32.5t-169.5 97.5l104 133q62 -46 126 -67.5t139 -21.5q121 0 197.5 74t89.5 241h-458v157h455q-14 152 -85.5 223t-188.5 71q-73 0 -139 -21.5t-128 -65.5
l-101 134q78 61 173.5 92.5t204.5 31.5z" />
    <glyph glyph-name="uni044E" unicode="&#x44e;" 
d="M779 1084q130 0 212 -67.5t120.5 -191.5t38.5 -295q0 -169 -37.5 -294t-119.5 -194t-214 -69q-122 0 -200 61t-117 169.5t-46 251.5h-120v-455h-203v1056h203v-434h120q9 141 49.5 244.5t118.5 160.5t195 57zM779 919q-92 0 -123 -94.5t-31 -296.5q0 -127 12.5 -214
t46 -131.5t95.5 -44.5q64 0 98.5 44.5t47 132t12.5 215.5q0 199 -33.5 294t-124.5 95z" />
    <glyph glyph-name="uni044F" unicode="&#x44f;" 
d="M777 0v897h-179q-108 0 -161 -41t-53 -128q0 -92 50.5 -135t162.5 -43h212v-156h-301l-141 36q-106 41 -161.5 115.5t-55.5 179.5q0 157 116.5 244t335.5 87h399v-1056h-224zM80 0l271 472l205 -50l-231 -422h-245z" />
    <glyph glyph-name="uni0450" unicode="&#x450;" 
d="M364 456q7 -108 46 -176.5t102.5 -100.5t139.5 -32q78 0 144 24t133 68l97 -134q-74 -60 -173 -96t-212 -36q-164 0 -277.5 70t-172.5 195t-59 289q0 159 58 284.5t166 199t258 73.5q141 0 242.5 -64t157 -181.5t55.5 -282.5q0 -27 -1.5 -53.5t-3.5 -46.5h-700zM616 918
q-105 0 -173.5 -75t-79.5 -234h489q-3 149 -63.5 229t-172.5 80zM800 1244l-430 187l103 179l394 -248z" />
    <glyph glyph-name="uni0451" unicode="&#x451;" 
d="M364 456q7 -108 46 -176.5t102.5 -100.5t139.5 -32q78 0 144 24t133 68l97 -134q-74 -60 -173 -96t-212 -36q-164 0 -277.5 70t-172.5 195t-59 289q0 159 58 284.5t166 199t258 73.5q141 0 242.5 -64t157 -181.5t55.5 -282.5q0 -27 -1.5 -53.5t-3.5 -46.5h-700zM616 918
q-105 0 -173.5 -75t-79.5 -234h489q-3 149 -63.5 229t-172.5 80zM402 1288q-56 0 -93.5 36.5t-37.5 90.5t37.5 90.5t93.5 36.5q55 0 92 -36.5t37 -90.5t-37 -90.5t-92 -36.5zM833 1288q-54 0 -91.5 36.5t-37.5 90.5t37.5 90.5t91.5 36.5q56 0 93.5 -36.5t37.5 -90.5
t-37.5 -90.5t-93.5 -36.5z" />
    <glyph glyph-name="uni0452" unicode="&#x452;" 
d="M402 1502v-157h316v-153h-316v-262q64 73 149.5 113.5t177.5 40.5q149 0 222 -82.5t73 -231.5v-677q0 -122 -23 -206.5t-67.5 -141t-110 -97.5t-152.5 -78l-81 164q69 31 115 66.5t70.5 96t24.5 166.5v687q0 86 -37.5 124.5t-114.5 38.5q-50 0 -95.5 -22.5t-84 -58.5
t-66.5 -77v-755h-224v1192h-148v153h148v133z" />
    <glyph glyph-name="uni0453" unicode="&#x453;" 
d="M513 0h-224v1056h771l-26 -179h-521v-877zM841 1623l94 -180l-438 -176l-66 116z" />
    <glyph glyph-name="uni0454" unicode="&#x454;" 
d="M682 1084q108 0 200 -30.5t169 -92.5l-100 -134q-66 45 -130 65.5t-133 20.5q-116 0 -194.5 -72.5t-97.5 -221.5h458v-157h-459q13 -167 94 -241t200 -74q73 0 135.5 21.5t127.5 65.5l99 -136q-74 -61 -173.5 -93t-194.5 -32q-165 0 -280.5 68.5t-176 192.5t-60.5 289
q0 161 61.5 287.5t177 200t277.5 73.5z" />
    <glyph glyph-name="uni0455" unicode="&#x455;" 
d="M562 145q105 0 167 37.5t62 103.5q0 43 -18 73.5t-72 56t-164 53.5q-104 27 -182.5 64t-121.5 96t-43 152q0 91 51 159t146.5 106t224.5 38q133 0 232 -35t169 -87l-94 -141q-62 41 -135.5 67t-165.5 26q-107 0 -153.5 -32t-46.5 -85q0 -39 23.5 -65.5t81.5 -49
t164 -52.5q103 -28 179.5 -66t119 -100.5t42.5 -162.5q0 -114 -65.5 -186.5t-172 -107t-228.5 -34.5q-147 0 -254 42.5t-180 106.5l119 136q62 -50 142 -81.5t173 -31.5z" />
    <glyph glyph-name="uni0456" unicode="&#x456;" 
d="M755 1056v-892h287v-164h-827v164h316v728h-306v164h530zM599 1573q66 0 106.5 -40t40.5 -100t-40.5 -101t-106.5 -41q-64 0 -105 41t-41 101t41 100t105 40z" />
    <glyph glyph-name="uni0457" unicode="&#x457;" 
d="M755 1056v-892h287v-164h-827v164h316v728h-306v164h530zM385 1288q-56 0 -93.5 36.5t-37.5 90.5t37.5 90.5t93.5 36.5q55 0 92 -36.5t37 -90.5t-37 -90.5t-92 -36.5zM816 1288q-54 0 -91.5 36.5t-37.5 90.5t37.5 90.5t91.5 36.5q56 0 93.5 -36.5t37.5 -90.5t-37.5 -90.5
t-93.5 -36.5z" />
    <glyph glyph-name="uni0458" unicode="&#x458;" 
d="M911 1056v-834q0 -197 -81.5 -327t-238.5 -207.5t-383 -118.5l-36 172q157 30 273 83t179 145t63 238v685h-417v164h641zM736 1573q65 0 106 -40t41 -100t-41 -101t-106 -41t-105.5 41t-40.5 101t40.5 100t105.5 40z" />
    <glyph glyph-name="uni0459" unicode="&#x459;" 
d="M740 1056v-337h24q209 0 318 -85t109 -267q0 -185 -113.5 -276t-303.5 -91h-231v894h-177l-11 -253q-7 -172 -25 -284t-50.5 -182.5t-83 -117t-122.5 -86.5l-76 145q28 23 53.5 52t45.5 83t35 147.5t22 244.5l21 413h565zM769 571h-29v-417h33q101 0 153.5 45t52.5 169
q0 109 -49 156t-161 47z" />
    <glyph glyph-name="uni045A" unicode="&#x45a;" 
d="M746 1056v-388h24q137 0 232 -34.5t145 -107.5t50 -190q0 -119 -52.5 -193.5t-148 -108.5t-226.5 -34h-222v517h-232v-517h-201v1056h201v-388h232v388h198zM779 519h-33v-362h26q68 0 116 13t73.5 52t25.5 115q0 102 -50.5 142t-157.5 40z" />
    <glyph glyph-name="uni045B" unicode="&#x45b;" 
d="M718 1345v-153h-316h-372v153h148h540zM402 1502v-575q64 78 150 117.5t177 39.5q149 0 222 -82.5t73 -231.5v-770h-224v735q0 95 -36 136.5t-116 41.5q-50 0 -95.5 -22.5t-84 -58.5t-66.5 -77v-755h-224v1478z" />
    <glyph glyph-name="uni045C" unicode="&#x45c;" 
d="M186 0v1056h224v-418h187l276 418h233l-331 -489l376 -567h-253l-306 474h-182v-474h-224zM802 1623l94 -180l-438 -176l-66 116z" />
    <glyph glyph-name="uni045D" unicode="&#x45d;" 
d="M1022 1056v-1056h-217v434q0 115 9.5 217.5t23.5 180.5l-410 -832h-250v1056h217v-435q0 -109 -9 -214.5t-25 -179.5l407 829h254zM782 1244l-430 187l103 179l394 -248z" />
    <glyph glyph-name="uni045E" unicode="&#x45e;" 
d="M1102 1056l-364 -1060q-41 -120 -105 -211.5t-164 -147.5t-248 -69l-29 168q107 17 170.5 49.5t101 85.5t66.5 129h-76l-356 1056h238l266 -900l270 900h230zM598 1267q-89 0 -157 33t-108.5 91t-48.5 133l138 27q19 -62 62.5 -91t113.5 -29t115.5 29t63.5 91l138 -27
q-8 -75 -49.5 -133t-110 -91t-157.5 -33z" />
    <glyph glyph-name="uni045F" unicode="&#x45f;" 
d="M482 110h236l-32 -425h-172zM799 1056h223v-1056h-844v1056h223v-881h398v881z" />
    <glyph glyph-name="uni0460" unicode="&#x460;" 
d="M1027 1380q30 -81 63.5 -189t57.5 -253t24 -337q0 -225 -43.5 -364t-118.5 -202.5t-172 -63.5q-100 0 -154.5 53t-82.5 149q-31 -96 -85 -149t-148 -53q-66 0 -127 34.5t-108.5 109t-75.5 195t-28 291.5q0 192 24.5 337t58.5 253t62 189h204q-35 -111 -65 -224
t-48 -246.5t-18 -303.5q0 -169 19 -267.5t53.5 -141.5t80.5 -43q41 0 71 39.5t30 137.5v466h198v-464q0 -95 32 -137t79 -42q30 0 56.5 20t46 69t30.5 136.5t11 224.5q0 171 -18 305t-48 247.5t-65 223.5h204z" />
    <glyph glyph-name="uni0461" unicode="&#x461;" 
d="M1053 1056q39 -112 71 -257.5t32 -318.5q0 -242 -77.5 -374.5t-228.5 -132.5q-104 0 -167.5 54.5t-84.5 169.5q-27 -111 -89 -167.5t-160 -56.5q-152 0 -228.5 129.5t-76.5 377.5q0 173 31 319.5t70 256.5h187q-32 -107 -49 -201.5t-24 -184t-7 -184.5q0 -105 11 -181.5
t39.5 -117.5t79.5 -41t78 40.5t37 112t10 165.5v238l186 29v-264q0 -103 10.5 -174.5t37.5 -109t79 -37.5t80 41t38 117.5t10 181.5q0 95 -7.5 184.5t-26 184t-50.5 201.5h189z" />
    <glyph glyph-name="uni0462" unicode="&#x462;" 
d="M287 0v1380h231v-1202h108q81 0 144.5 24.5t100 83.5t36.5 159q0 134 -75.5 191.5t-204.5 57.5h-141v174h143q157 0 274 -46t182.5 -139t65.5 -234q0 -155 -68.5 -254.5t-188 -147t-273.5 -47.5h-334zM20 1052v153h267h515v-153h-782z" />
    <glyph glyph-name="uni0463" unicode="&#x463;" 
d="M479 1324v-244h266l-23 -153h-243v-206h125q157 0 266.5 -37.5t167.5 -115.5t58 -203q0 -130 -59 -210.5t-165 -117.5t-249 -37h-368v927h-155v153h155v219zM617 560h-138v-394h141q71 0 125 17t84.5 60.5t30.5 123.5q0 104 -62.5 148.5t-180.5 44.5z" />
    <glyph glyph-name="uni0464" unicode="&#x464;" 
d="M292 1382v-581h214v-185h-214v-616h-226v1382h226zM1199 61q-55 -39 -122.5 -63.5t-164.5 -24.5q-158 0 -270 82.5t-170.5 242.5t-58.5 394q0 232 62 391.5t177.5 242t275.5 82.5q87 0 147 -19t115 -56l-90 -144q-41 23 -79.5 34t-88.5 11q-81 0 -142 -43.5t-97.5 -139.5
t-47.5 -253h403v-179h-406q6 -164 40.5 -267.5t96 -152t146.5 -48.5q63 0 107.5 16t82.5 38z" />
    <glyph glyph-name="uni0465" unicode="&#x465;" 
d="M332 1056v-434h179v-167h-179v-455h-206v1056h206zM879 1084q84 0 152.5 -29t129.5 -86l-101 -117q-41 31 -83 49t-96 18q-102 0 -156 -76.5t-69 -223.5h355v-157h-356q6 -172 67 -247t157 -75q55 0 97 19.5t79 53.5l102 -115q-59 -60 -133.5 -92.5t-152.5 -32.5
q-136 0 -231 68t-145 191.5t-50 290.5q0 161 48.5 287.5t145.5 200t240 73.5z" />
    <glyph glyph-name="uni0466" unicode="&#x466;" 
d="M17 0l439 1380h288l440 -1380h-234l-354 1218l-353 -1218h-226zM501 -1v586h193v-586h-193zM334 545l50 177h427l50 -177h-527z" />
    <glyph glyph-name="uni0467" unicode="&#x467;" 
d="M737 1056l407 -1056h-219l-329 917l-324 -917h-215l409 1056h271zM828 552v-160h-457v160h457zM509 458h174v-458h-174v458z" />
    <glyph glyph-name="uni0468" unicode="&#x468;" 
d="M520 561h-272v-562h-201v1381h201v-662h288zM303 0l314 1380h287l314 -1380h-202l-260 1241l-258 -1241h-195zM673 -1v594h167v-594h-167zM495 561l49 157h428l49 -157h-526z" />
    <glyph glyph-name="uni0469" unicode="&#x469;" 
d="M689 0v454h156v-454h-156zM75 0v1056h196v-509h730v-157h-730v-390h-196zM337 0l307 1056h256l309 -1056h-188l-251 920l-249 -920h-184z" />
    <glyph glyph-name="uni046A" unicode="&#x46a;" 
d="M49 0l224 774h661l217 -774h-200l-158 621h-92v-621h-200v621h-93l-160 -621h-199zM480 652l-314 589v139h137l301 -606l297 606h134v-139l-319 -588zM249 1232l15 148h716v-148h-731z" />
    <glyph glyph-name="uni046B" unicode="&#x46b;" 
d="M31 0l215 599h711l212 -599h-196l-142 442h-129v-442h-202v442h-128l-142 -442h-199zM490 488l-309 455v113h129l287 -457l285 457h127v-113l-310 -455h-209zM300 909l-17 147h619l-10 -147h-592z" />
    <glyph glyph-name="uni046C" unicode="&#x46c;" 
d="M27 -1v1381h202v-606h437l-15 -153h-422v-622h-202zM282 0l174 774h621l167 -774h-193l-115 621h-77v-621h-192v621h-77l-116 -621h-192zM643 652l-264 590v138h136l252 -606l249 606h132v-138l-269 -589zM464 1235l11 145h617v-145h-628z" />
    <glyph glyph-name="uni046D" unicode="&#x46d;" 
d="M43 0v1056h196v-454h294v-159h-294v-443h-196zM665 490l-272 453v113h131l246 -454l241 454h127v-113l-270 -453h-203zM519 914l-12 142h530l-13 -142h-505zM303 0l186 602h569l181 -602h-190l-115 443h-69v-443h-184v443h-71l-117 -443h-190z" />
    <glyph glyph-name="uni046E" unicode="&#x46e;" 
d="M465 -436q-148 61 -221.5 135.5t-73.5 165.5q0 69 34 117t106 80.5t188 52.5q100 18 170 48t107 81.5t37 131.5l240 -8q0 -97 -35 -169t-94.5 -122t-136 -80t-160.5 -45q-92 -16 -141.5 -30.5t-67.5 -32.5t-18 -44q0 -39 38.5 -71.5t108.5 -69.5zM1052 368l-240 8
q0 121 -67.5 174t-200.5 53h-226l188 157h97q226 -2 337.5 -104t111.5 -288zM318 603v148l402 446h-572v183h834v-178l-496 -530zM823 1840l89 -101l-274 -233h-144l-276 233l91 101l256 -164z" />
    <glyph glyph-name="uni046F" unicode="&#x46f;" 
d="M431 -437q-134 54 -206 124.5t-72 163.5q0 101 80.5 160.5t267.5 87.5q111 18 179 38.5t99 53t31 86.5q0 71 -39.5 100.5t-112.5 29.5h-337v150l393 324h-556v175h834v-164l-412 -326h120q162 0 256.5 -73t94.5 -219q0 -104 -52 -171t-145.5 -105t-218.5 -58
q-107 -17 -161.5 -32t-74 -33.5t-19.5 -45.5q0 -35 32 -64.5t92 -60.5zM832 1598l90 -100l-274 -253h-143l-276 253l94 100l254 -184z" />
    <glyph glyph-name="uni0470" unicode="&#x470;" 
d="M491 0v377q-161 16 -264 80t-152.5 166t-49.5 231v526h215v-522q0 -137 55 -214.5t205 -95.5v832h202v-830q146 19 202 95.5t56 212.5v522h215v-526q0 -194 -113.5 -321.5t-350.5 -153.5v-379h-220z" />
    <glyph glyph-name="uni0471" unicode="&#x471;" 
d="M697 1056v-909q102 15 154 59t70.5 122t18.5 195q0 119 -12.5 252t-37.5 281h203q24 -128 38.5 -259.5t14.5 -287.5q0 -154 -46 -265.5t-145 -177.5t-258 -84v-388l-191 -25v413q-157 14 -252.5 71.5t-138 146t-42.5 193.5v663h204v-652q0 -117 51.5 -179t177.5 -78v909
h191z" />
    <glyph glyph-name="uni0472" unicode="&#x472;" 
d="M1125 690q0 -213 -59 -374.5t-176 -252t-290 -90.5q-172 0 -289.5 88.5t-176.5 249t-59 377.5q0 214 59 375.5t176.5 253t289.5 91.5q173 0 290 -89t176 -250.5t59 -378.5zM600 154q147 0 214 119t73 350h-575q6 -232 75 -350.5t213 -118.5zM600 1227q-139 0 -207 -111.5
t-80 -334.5h572q-10 223 -77.5 334.5t-207.5 111.5z" />
    <glyph glyph-name="uni0473" unicode="&#x473;" 
d="M601 1084q155 0 261 -69t160.5 -193t54.5 -292q0 -167 -55.5 -292.5t-162 -195t-259.5 -69.5t-259.5 67.5t-162 192.5t-55.5 295q0 165 55.5 290t162.5 195.5t260 70.5zM844 460h-489q12 -166 73 -240.5t172 -74.5q110 0 171 74.5t73 240.5zM601 912q-111 0 -173 -74
t-72 -226h488q-10 151 -71.5 225.5t-171.5 74.5z" />
    <glyph glyph-name="uni0474" unicode="&#x474;" 
d="M1140 1225q-14 4 -26.5 7.5t-27.5 3.5q-34 0 -53.5 -21t-32.5 -69l-300 -1146h-272l-386 1380h248l275 -1160l220 948q30 130 94.5 185.5t171.5 55.5q44 0 78.5 -8t60.5 -21z" />
    <glyph glyph-name="uni0475" unicode="&#x475;" 
d="M443 0l-358 1056h243l250 -868l205 724q35 129 91 183.5t161 54.5q40 0 76 -9t71 -24l-53 -154q-13 5 -27.5 8t-30.5 3q-31 0 -49 -19t-32 -65l-280 -890h-267z" />
    <glyph glyph-name="uni0476" unicode="&#x476;" 
d="M1140 1225q-14 4 -26.5 7.5t-27.5 3.5q-34 0 -53.5 -21t-32.5 -69l-300 -1146h-272l-386 1380h248l275 -1160l220 948q30 130 94.5 185.5t171.5 55.5q44 0 78.5 -8t60.5 -21zM824 1647l-171 365l-174 -82l215 -342zM497 1649l-185 363l-172 -87l230 -340z" />
    <glyph glyph-name="uni0477" unicode="&#x477;" 
d="M443 0l-358 1056h243l250 -868l205 724q35 129 91 183.5t161 54.5q40 0 76 -9t71 -24l-53 -154q-13 5 -27.5 8t-30.5 3q-31 0 -49 -19t-32 -65l-280 -890h-267zM833 1323l-171 365l-174 -82l215 -342zM506 1325l-185 363l-172 -87l230 -340z" />
    <glyph glyph-name="uni0478" unicode="&#x478;" 
d="M320 -27q-112 0 -182 85.5t-102 245.5t-32 384q0 220 32 381.5t102 250t182 88.5q114 0 183.5 -86.5t100 -247t30.5 -384.5t-30.5 -384.5t-100 -246.5t-183.5 -86zM320 131q76 0 103.5 132t27.5 427t-28 427.5t-103 132.5q-77 0 -104.5 -133t-27.5 -429q0 -295 29.5 -426
t102.5 -131zM696 -432l-32 135q89 31 141.5 97t73.5 200h-82l-157 1056h169l107 -900l104 900h169l-161 -1060q-19 -131 -65.5 -217t-114.5 -136.5t-152 -74.5z" />
    <glyph glyph-name="uni0479" unicode="&#x479;" 
d="M609 -432l-32 133q88 23 147 57.5t96 92.5t56 149h-84l-172 1056h186l114 -900l116 900h180l-174 -1048q-23 -139 -81 -231t-147 -142.5t-205 -66.5zM312 -27q-108 0 -178.5 67.5t-104.5 192.5t-34 295q0 165 34.5 290t105 195.5t178.5 70.5q111 0 180.5 -69t102 -193
t32.5 -292q0 -167 -33.5 -292.5t-103 -195t-179.5 -69.5zM312 119q75 0 104 97t29 314q0 216 -29 312.5t-103 96.5q-75 0 -105 -97.5t-30 -313.5q0 -215 29 -312t105 -97z" />
    <glyph glyph-name="uni048A" unicode="&#x48a;" 
d="M1237 201l-171 -516h-187l73 315h-41l-1 201h327zM143 0v1380h221v-610q0 -130 -5 -228t-14 -178.5t-20 -159.5l456 1176h276v-1380h-221v608q0 174 12 314t27 247l-452 -1169h-280zM597 1519q-89 0 -156.5 33t-108.5 91t-49 133l139 27q19 -62 62 -91t113 -29t115.5 29
t64.5 91l138 -27q-8 -75 -49.5 -133t-110 -91t-158.5 -33z" />
    <glyph glyph-name="uni048B" unicode="&#x48b;" 
d="M984 1056v-1056h-215v434q0 138 9 246.5t20 168.5l-385 -849h-248v1056h214v-435q0 -81 -5 -159.5t-13 -145.5t-19 -113l392 853h250zM1156 188l-157 -503h-183l74 315h-75l-12 188h353zM571 1267q-88 0 -156 33t-108.5 91t-48.5 133l138 27q19 -62 62 -91t113 -29
t116 29t64 91l138 -27q-8 -75 -49.5 -133t-110 -91t-158.5 -33z" />
    <glyph glyph-name="uni048C" unicode="&#x48c;" 
d="M221 0v1380h232v-1202h167q81 0 144.5 24.5t100.5 83.5t37 159q0 134 -76 191.5t-205 57.5h-200v174h202q157 0 274.5 -46t182.5 -139t65 -234q0 -155 -68.5 -254.5t-187.5 -147t-274 -47.5h-394zM60 1055v147h161h485v-147h-646z" />
    <glyph glyph-name="uni048D" unicode="&#x48d;" 
d="M269 0v1056h224v-890h117q69 0 122 16.5t83.5 56.5t30.5 113q0 171 -216 171h-169v160h169q222 0 337 -87t115 -246q0 -122 -60.5 -199.5t-170 -114t-257.5 -36.5h-325zM114 801v147h155h509l-22 -147h-642z" />
    <glyph glyph-name="uni048E" unicode="&#x48e;" 
d="M550 958h158l380 -622h-158zM891 942q0 96 -36.5 154t-103 84t-156.5 26h-172v-537h175q144 0 218.5 60t74.5 213zM1129 944q0 -146 -70 -247t-191.5 -153t-277.5 -52h-167v-492h-232v1380h383q260 0 407.5 -106.5t147.5 -329.5z" />
    <glyph glyph-name="uni048F" unicode="&#x48f;" 
d="M490 438h158l380 -622h-158zM682 1084q139 0 223.5 -68.5t122 -193t37.5 -292.5q0 -161 -46 -287t-136 -198t-224 -72q-167 0 -269 117v-496l-224 -25v1487h195l14 -136q61 82 140 123t167 41zM620 911q-75 0 -132.5 -45t-97.5 -106v-494q38 -57 91.5 -87.5t123.5 -30.5
q82 0 133 31.5t74.5 114.5t23.5 235q0 135 -23.5 219.5t-71.5 123.5t-121 39z" />
    <glyph glyph-name="uni0490" unicode="&#x490;" 
d="M1100 1679v-299l-220 -20v319h220zM1100 1380l-24 -192h-607v-1188h-232v1380h863z" />
    <glyph glyph-name="uni0491" unicode="&#x491;" 
d="M844 1022v315h216v-281zM513 0h-224v1056h771l-26 -179h-521v-877z" />
    <glyph glyph-name="uni0492" unicode="&#x492;" 
d="M830 866v-157h-304h-415v157h183h536zM1156 1380l-23 -192h-608v-1188h-231v1380h862z" />
    <glyph glyph-name="uni0493" unicode="&#x493;" 
d="M814 611v-157h-642v157h174h468zM570 0h-224v1056h771l-25 -179h-522v-877z" />
    <glyph glyph-name="uni0494" unicode="&#x494;" 
d="M951 1380l-29 -184h-553l-209 184h791zM779 -434q-83 0 -141.5 24t-100.5 56l86 141q32 -19 62.5 -31t77.5 -12q55 0 85.5 34t30.5 110v114h232v-97q0 -168 -89 -253.5t-243 -85.5zM706 915q191 0 298 -117.5t107 -329.5v-468h-231v466q0 132 -55.5 197t-171.5 65
q-105 0 -175.5 -40.5t-128.5 -108.5l-1 183q68 71 155 112t203 41zM369 1380v-1380h-231v1380h231z" />
    <glyph glyph-name="uni0495" unicode="&#x495;" 
d="M800 0v357q0 92 -38.5 130t-104.5 38q-83 0 -142.5 -45.5t-110.5 -109.5l-21 143q54 78 140.5 130.5t198.5 52.5q89 0 157.5 -37t106.5 -108.5t38 -176.5v-374h-224zM189 0v1056h224v-1056h-224zM413 886l-224 170h692l-31 -170h-437zM696 -434q-83 0 -141.5 24
t-101.5 56l87 135q32 -18 62.5 -29.5t76.5 -11.5q56 0 88.5 33t32.5 111v118h224v-97q0 -167 -88.5 -253t-239.5 -86z" />
    <glyph glyph-name="uni0496" unicode="&#x496;" 
d="M1220 182v-497h-162l-30 315h-46l32 182h206zM514 648h-99l-188 -648h-210l233 740l-208 640h206l170 -582h96v582h172v-582h96l171 582h205l-208 -640l233 -740h-214l-187 648h-96v-648h-172v648z" />
    <glyph glyph-name="uni0497" unicode="&#x497;" 
d="M513 0v482h-89l-181 -482h-210l231 567l-216 489h210l164 -426h91v426h174v-426h91l170 426h204l-216 -489l231 -567h-211l-182 482h-87v-482h-174zM1214 174v-489h-150l-33 315h-75l-13 174h271z" />
    <glyph glyph-name="uni0498" unicode="&#x498;" 
d="M563 1408q150 0 260 -46.5t170 -128t60 -188.5q0 -85 -38 -147t-105 -100.5t-153 -52.5q94 -9 171.5 -49.5t123.5 -113t46 -178.5q0 -124 -65.5 -222t-188 -153.5t-294.5 -55.5q-156 0 -283.5 51.5t-217.5 145.5l130 123q78 -67 170 -103t199 -36q147 0 228.5 68
t81.5 184q0 84 -38.5 137t-106 78.5t-156.5 25.5h-239l27 180h203q75 0 136.5 21.5t98.5 67t37 115.5q0 65 -34.5 109.5t-95.5 67t-141 22.5q-107 0 -191.5 -33t-157.5 -91l-121 128q102 86 222.5 130t261.5 44zM647 -284q0 48 -46.5 63t-130.5 15l21 238h138v-139
q101 -10 147.5 -60.5t46.5 -118.5q0 -66 -35.5 -113t-95 -71.5t-134.5 -24.5q-64 0 -121.5 15.5t-97.5 38.5l62 115q29 -15 64 -24t68 -9q51 0 82.5 17t31.5 58z" />
    <glyph glyph-name="uni0499" unicode="&#x499;" 
d="M366 630h190q98 0 152.5 39.5t54.5 103.5q0 73 -58.5 108.5t-164.5 35.5q-79 0 -162 -22t-153 -66l-101 126q84 62 197 95.5t231 33.5q124 0 223.5 -33t158 -97t58.5 -160q0 -89 -63 -146t-166 -86q81 -8 145.5 -38t102.5 -82t38 -130q0 -111 -65.5 -186.5t-178 -114
t-256.5 -38.5q-157 0 -270.5 41.5t-191.5 102.5l101 136q78 -51 164.5 -79.5t197.5 -28.5q131 0 196 46.5t65 124.5q0 76 -60.5 114t-179.5 38h-219zM662 -284q0 48 -46.5 63t-130.5 15l21 238h138v-139q101 -10 147.5 -60.5t46.5 -118.5q0 -66 -35.5 -113t-95 -71.5
t-134.5 -24.5q-64 0 -121.5 15.5t-97.5 38.5l62 115q29 -15 64 -24t68 -9q51 0 82.5 17t31.5 58z" />
    <glyph glyph-name="uni049A" unicode="&#x49a;" 
d="M1190 182v-497h-180l-34 315h-51l39 182h226zM535 633h-146v-633h-232v1380h232v-566h147l378 566h238l-422 -640l460 -740h-266z" />
    <glyph glyph-name="uni049B" unicode="&#x49b;" 
d="M1182 174v-489h-176l-33 315h-75l-12 174h296zM186 0v1056h224v-418h187l276 418h233l-331 -489l376 -567h-253l-306 474h-182v-474h-224z" />
    <glyph glyph-name="uni049C" unicode="&#x49c;" 
d="M462 298v341h-87v-639h-218v1380h218v-572h87v334h109v-334h44l302 572h232l-357 -640l395 -740h-251l-319 639h-46v-341h-109z" />
    <glyph glyph-name="uni049D" unicode="&#x49d;" 
d="M186 0v1056h219v-424h82v230h97v-230h49l249 424h224l-295 -487l340 -569h-239l-279 481h-49v-243h-97v243h-82v-481h-219z" />
    <glyph glyph-name="uni049E" unicode="&#x49e;" 
d="M53 1059v154h138h436v-154h-574zM568 633h-146v-633h-232v1380h232v-566h146l339 566h238l-382 -640l420 -740h-266z" />
    <glyph glyph-name="uni049F" unicode="&#x49f;" 
d="M765 567l377 -567h-254l-306 474h-142v-474h-224v1480l224 25v-867h147l276 418h234zM216 1286h502v-153h-278h-382v153h158z" />
    <glyph glyph-name="uni04A0" unicode="&#x4a0;" 
d="M590 635h-130v-635h-225v1195h-221v185h446v-568h130l341 568h235l-387 -640l424 -740h-263z" />
    <glyph glyph-name="uni04A1" unicode="&#x4a1;" 
d="M245 0v1036l224 20v-418h167l270 418h234l-326 -489l370 -567h-253l-301 474h-161v-474h-224zM245 890h-235v166h459z" />
    <glyph glyph-name="uni04A2" unicode="&#x4a2;" 
d="M1169 182v-497h-181l-33 315h-52l39 182h227zM818 0v627h-450v-627h-231v1380h231v-562h450v562h232v-1380h-232z" />
    <glyph glyph-name="uni04A3" unicode="&#x4a3;" 
d="M1144 174v-489h-176l-34 315h-74l-13 174h297zM765 0v452h-396v-452h-224v1056h224v-430h396v430h224v-1056h-224z" />
    <glyph glyph-name="uni04A4" unicode="&#x4a4;" 
d="M761 1380h459l-26 -186h-258zM706 0v626h-365v-626h-232v1380h232v-561h365v561h231v-1380h-231z" />
    <glyph glyph-name="uni04A5" unicode="&#x4a5;" 
d="M928 882l-224 174h505l-28 -174h-253zM704 0v452h-337v-452h-224v1056h224v-430h337v430h224v-1056h-224z" />
    <glyph glyph-name="uni04A6" unicode="&#x4a6;" 
d="M502 0v1201h-240v-1201h-210v1380h660v-1380h-210zM905 909q128 0 201 -84.5t73 -223.5v-601h-210v595q0 69 -31 103t-86 34q-57 0 -106 -33.5t-103 -97.5l-3 149q47 68 109 113.5t156 45.5zM869 -434q-84 0 -142 24t-101 56l84 132q32 -19 64 -32t78 -13q56 0 86.5 34.5
t30.5 109.5v125h210v-109q0 -158 -88 -242.5t-222 -84.5z" />
    <glyph glyph-name="uni04A7" unicode="&#x4a7;" 
d="M49 0v1056h683v-1056h-212v887h-260v-887h-211zM883 -434q-83 0 -141 24t-100 56l84 129q32 -18 62.5 -30t79.5 -12q56 0 88 32.5t32 107.5v129h211v-103q0 -164 -87 -248.5t-229 -84.5zM988 0v398q0 65 -28.5 98.5t-82.5 33.5q-67 0 -114.5 -34.5t-97.5 -94.5l-13 127
q53 78 118.5 123t167.5 45q114 0 187.5 -79t73.5 -211v-406h-211z" />
    <glyph glyph-name="uni04A8" unicode="&#x4a8;" 
d="M622 -29q-166 0 -292.5 82.5t-197.5 243t-71 393.5q0 176 43.5 310t119.5 225t174.5 137.5t210.5 46.5q131 0 218.5 -37.5t170.5 -106.5l-115 -140q-65 52 -129 77.5t-137 25.5q-61 0 -117 -28.5t-99.5 -91.5t-69 -166t-25.5 -252q0 -194 41 -312.5t113.5 -172
t165.5 -53.5zM945 -260q-84 113 -159.5 213t-134 193.5t-92 186t-33.5 190.5q0 100 39.5 176.5t111.5 120t166 43.5q97 0 169 -40t112 -114.5t40 -178.5q0 -103 -35.5 -202.5t-104.5 -180t-170 -128.5t-232 -48l4 181q166 0 250.5 97.5t83.5 284.5q0 168 -117 168
q-62 0 -93.5 -47t-31.5 -129q0 -89 27 -169t76 -158.5t115 -166t143 -193.5z" />
    <glyph glyph-name="uni04A9" unicode="&#x4a9;" 
d="M944 -260q-145 162 -234 284.5t-130 221t-41 185.5q0 83 34 148.5t100 104t158 38.5q129 0 209 -76.5t80 -213.5q0 -87 -36 -169t-103 -147.5t-162.5 -104t-215.5 -38.5l11 180q108 0 178.5 37t104 102.5t33.5 146.5q0 63 -26.5 98t-73.5 35q-51 0 -78.5 -38t-27.5 -101
q0 -76 31 -156.5t105.5 -185.5t204.5 -255zM762 865q-37 19 -75.5 29t-84.5 10q-118 0 -189 -92t-71 -289q0 -132 33 -213.5t93.5 -119t145.5 -37.5l-11 -180q-155 0 -266.5 66.5t-171.5 189t-60 291.5q0 167 59.5 294t168.5 198.5t259 71.5q70 0 132.5 -15t118.5 -47z" />
    <glyph glyph-name="uni04AA" unicode="&#x4aa;" 
d="M630 52q144 -47 231 -123.5t87 -190.5q0 -104 -72.5 -167t-198.5 -63q-66 0 -114.5 14.5t-86.5 35.5l52 123q23 -12 55.5 -23t77.5 -11q58 0 86 30t28 78q0 61 -41.5 125t-141.5 120zM716 1408q140 0 236.5 -36.5t179.5 -104.5l-121 -144q-62 52 -133 77t-151 25
q-103 0 -190 -52t-139.5 -169t-52.5 -312q0 -191 50 -308t137 -170t195 -53q111 0 184 36.5t129 82.5l112 -143q-69 -67 -175 -115.5t-258 -48.5q-175 0 -314.5 82.5t-220 242.5t-80.5 394q0 232 83 391.5t222 242t307 82.5z" />
    <glyph glyph-name="uni04AB" unicode="&#x4ab;" 
d="M607 52q143 -47 230.5 -123.5t87.5 -190.5q0 -104 -73 -167t-198 -63q-66 0 -114.5 14.5t-86.5 35.5l52 123q23 -12 55.5 -23t77.5 -11q58 0 86 30t28 78q0 61 -41.5 125t-141.5 120zM687 157q74 0 138 25.5t122 66.5l104 -144q-69 -59 -167.5 -95.5t-203.5 -36.5
q-162 0 -277 68.5t-176 192.5t-61 289q0 161 61.5 287.5t177.5 200t279 73.5q108 0 199 -32t167 -95l-103 -141q-62 43 -126.5 65.5t-132.5 22.5q-125 0 -204.5 -92t-79.5 -289q0 -132 36.5 -212.5t100.5 -117t146 -36.5z" />
    <glyph glyph-name="uni04AC" unicode="&#x4ac;" 
d="M826 182v-497h-180l-33 315h-52l39 182h226zM713 1193v-1193h-232v1193h-414v187h1070l-24 -187h-400z" />
    <glyph glyph-name="uni04AD" unicode="&#x4ad;" 
d="M866 174v-489h-176l-33 315h-74l-13 174h296zM1098 1056l-26 -175h-360v-881h-224v881h-374v175h984z" />
    <glyph glyph-name="Ustraitcy" unicode="&#x4ae;" 
d="M717 527v-527h-234v525l-460 855h255l327 -654l329 654h243z" />
    <glyph glyph-name="ustraitcy" unicode="&#x4af;" 
d="M491 -431v455l-401 1032h240l275 -832l275 832h230l-401 -1032v-430z" />
    <glyph glyph-name="Ustraitstrokecy" unicode="&#x4b0;" 
d="M964 618v-153h-247h-481v153h196h532zM717 527v-527h-234v525l-460 855h255l327 -654l329 654h243z" />
    <glyph glyph-name="ustraitstrokecy" unicode="&#x4b1;" 
d="M913 144v-151h-204h-421v151h625zM491 -431v455l-401 1032h240l275 -832l275 832h230l-401 -1032v-430z" />
    <glyph glyph-name="uni04B2" unicode="&#x4b2;" 
d="M1167 182v-497h-181l-33 315h-52l39 182h227zM76 1380h257l267 -497l270 497h247l-382 -634l424 -746h-257l-306 587l-307 -587h-248l418 735z" />
    <glyph glyph-name="uni04B3" unicode="&#x4b3;" 
d="M1135 174v-489h-176l-33 315h-74l-13 174h296zM334 0h-248l379 557l-337 499h258l216 -372l216 372h246l-330 -490l380 -566h-263l-259 431z" />
    <glyph glyph-name="uni04B4" unicode="&#x4b4;" 
d="M679 1380l-24 -168h-206h-221h-228v168h679zM1129 182v-497h-169l-33 315h-51l32 182h221zM228 0v1320h220v-1134h362v1194h220v-1380h-802z" />
    <glyph glyph-name="uni04B5" unicode="&#x4b5;" 
d="M666 1056l-30 -159h-198h-218h-220v159h666zM781 1056h217v-1056h-777v1056h217v-881h343v881zM1118 174v-489h-172l-33 315h-75l-7 174h287z" />
    <glyph glyph-name="uni04B6" unicode="&#x4b6;" 
d="M1170 182v-497h-181l-33 315h-51l38 182h227zM314 1380v-513q0 -136 61 -197t180 -61q106 0 175 36t113 84l16 -169q-58 -46 -113.5 -77t-116 -46t-135.5 -15q-126 0 -218.5 51.5t-143 148t-50.5 232.5v526h232zM1057 1380v-1380h-232v1380h232z" />
    <glyph glyph-name="uni04B7" unicode="&#x4b7;" 
d="M1140 174v-489h-176l-34 315h-74l-13 174h297zM986 1056v-1056h-224v427q-58 -51 -141 -81t-180 -30q-157 0 -238 84.5t-81 232.5v423h224v-396q0 -93 42 -133t123 -40q67 0 137 27.5t114 72.5v469h224z" />
    <glyph glyph-name="uni04B8" unicode="&#x4b8;" 
d="M642 1089v-846h-123v369v477h123zM314 1380v-513q0 -136 61 -197t180 -61q106 0 175 36t113 84l16 -169q-58 -46 -113.5 -77t-116 -46t-135.5 -15q-126 0 -218.5 51.5t-143 148t-50.5 232.5v526h232zM1057 1380v-1380h-232v1380h232z" />
    <glyph glyph-name="uni04B9" unicode="&#x4b9;" 
d="M617 786v-611h-113v611h113zM1006 1056v-1056h-224v427q-58 -51 -141 -81t-180 -30q-157 0 -238 84.5t-81 232.5v423h224v-396q0 -93 42 -133t123 -40q67 0 137 27.5t114 72.5v469h224z" />
    <glyph glyph-name="uni04BA" unicode="&#x4ba;" 
d="M712 915q191 0 298 -117.5t107 -329.5v-468h-232v466q0 132 -55.5 197t-170.5 65q-106 0 -176 -40.5t-128 -108.5l-1 183q68 71 154.5 112t203.5 41zM375 1380v-1380h-232v1380h232z" />
    <glyph glyph-name="uni04BB" unicode="&#x4bb;" 
d="M797 0v618q0 100 -39.5 139.5t-109.5 39.5q-84 0 -144 -47t-110 -121l-21 143q55 88 140 142t199 54q144 0 226.5 -86t82.5 -240v-642h-224zM180 0v1478l224 24v-1502h-224z" />
    <glyph glyph-name="uni04BC" unicode="&#x4bc;" 
d="M1141 714q0 -23 -2 -54.5t-5 -59.5h-646q2 -166 36.5 -266t93 -145t131.5 -45q81 0 136 28t103 61l95 -125q-62 -55 -145.5 -95t-193.5 -40q-150 0 -256.5 78t-162 235t-55.5 390q0 231 55 394.5t157 250.5t242 87q135 0 228 -80t141 -234.5t48 -379.5zM723 1239
q-68 0 -118 -47t-80 -151t-37 -274h446q-3 176 -29.5 279t-72 148t-109.5 45zM-3 856q0 66 21.5 115.5t48.5 90.5l135 -58q-14 -32 -24.5 -64t-10.5 -70q0 -103 99 -103h132v-165h-122q-137 0 -208 73.5t-71 180.5z" />
    <glyph glyph-name="uni04BD" unicode="&#x4bd;" 
d="M17 699q0 62 22.5 110t48.5 89l130 -58q-14 -32 -25 -64t-11 -70q0 -45 25 -71t75 -26h126v-152h-106q-139 0 -212 65.5t-73 176.5zM504 456q3 -110 37 -178.5t90.5 -101t126.5 -32.5q75 0 127 22t101 54l98 -126q-58 -48 -142 -84.5t-189 -36.5q-152 0 -255 70t-155 195
t-52 289q0 157 50.5 282.5t146.5 200t231 74.5q196 0 301 -140.5t105 -387.5q0 -27 -1 -53.5t-3 -46.5h-617zM720 921q-93 0 -150 -76t-67 -236h415q-2 154 -50.5 233t-147.5 79z" />
    <glyph glyph-name="uni04BE" unicode="&#x4be;" 
d="M1141 714q0 -23 -2 -54.5t-5 -59.5h-646q2 -166 36.5 -266t93 -145t131.5 -45q81 0 136 28t103 61l95 -125q-62 -55 -145.5 -95t-193.5 -40q-150 0 -256.5 78t-162 235t-55.5 390q0 231 55 394.5t157 250.5t242 87q135 0 228 -80t141 -234.5t48 -379.5zM723 1239
q-68 0 -118 -47t-80 -151t-37 -274h446q-3 176 -29.5 279t-72 148t-109.5 45zM-3 856q0 66 21.5 115.5t48.5 90.5l135 -58q-14 -32 -24.5 -64t-10.5 -70q0 -103 99 -103h132v-165h-122q-137 0 -208 73.5t-71 180.5zM874 77l30 -77q-99 -40 -151 -77.5t-71 -74t-19 -74.5
q0 -46 27 -71t86 -25q32 0 59 3.5t59 10.5l-20 -154q-29 -7 -57 -11t-66 -4q-119 0 -192.5 59.5t-73.5 156.5q0 83 45 145.5t132 109t212 83.5z" />
    <glyph glyph-name="uni04BF" unicode="&#x4bf;" 
d="M17 699q0 62 22.5 110t48.5 89l130 -58q-14 -32 -25 -64t-11 -70q0 -45 25 -71t75 -26h126v-152h-106q-139 0 -212 65.5t-73 176.5zM504 456q3 -110 37 -178.5t90.5 -101t126.5 -32.5q75 0 127 22t101 54l98 -126q-58 -48 -142 -84.5t-189 -36.5q-152 0 -255 70t-155 195
t-52 289q0 157 50.5 282.5t146.5 200t231 74.5q196 0 301 -140.5t105 -387.5q0 -27 -1 -53.5t-3 -46.5h-617zM720 921q-93 0 -150 -76t-67 -236h415q-2 154 -50.5 233t-147.5 79zM886 77l30 -77q-99 -40 -151 -77.5t-71 -74t-19 -74.5q0 -46 27 -71t86 -25q32 0 59 3.5
t59 10.5l-20 -154q-29 -7 -57 -11t-66 -4q-119 0 -192.5 59.5t-73.5 156.5q0 83 45 145.5t132 109t212 83.5z" />
    <glyph glyph-name="uni04C0" unicode="&#x4c0;" 
d="M1015 1380v-177h-298v-1025h298v-178h-830v178h298v1025h-298v177h830z" />
    <glyph glyph-name="uni04C1" unicode="&#x4c1;" 
d="M514 648h-99l-188 -648h-210l233 740l-208 640h206l170 -582h96v582h172v-582h96l171 582h205l-208 -640l233 -740h-214l-187 648h-96v-648h-172v648zM598 1519q-89 0 -157 33t-108.5 91t-48.5 133l138 27q19 -62 62.5 -91t113.5 -29t115.5 29t63.5 91l138 -27
q-8 -75 -49.5 -133t-110 -91t-157.5 -33z" />
    <glyph glyph-name="uni04C2" unicode="&#x4c2;" 
d="M513 0v482h-89l-194 -482h-210l244 567l-229 489h210l177 -426h91v426h174v-426h91l183 426h204l-229 -489l244 -567h-211l-195 482h-87v-482h-174zM598 1267q-89 0 -157 33t-108.5 91t-48.5 133l138 27q19 -62 62.5 -91t113.5 -29t115.5 29t63.5 91l138 -27
q-8 -75 -49.5 -133t-110 -91t-157.5 -33z" />
    <glyph glyph-name="uni04C3" unicode="&#x4c3;" 
d="M143 0v1380h232v-590h171l328 590h235l-393 -673l-55 -98h-286v-609h-232zM860 0v362q0 126 -58 186.5t-199 60.5l38 181q233 0 341.5 -106.5t108.5 -318.5v-365h-231zM759 -434q-82 0 -140.5 24t-101.5 56l87 141q32 -19 62.5 -31t76.5 -12q56 0 86.5 34t30.5 110v114
h231v-97q0 -168 -88.5 -253.5t-243.5 -85.5z" />
    <glyph glyph-name="uni04C4" unicode="&#x4c4;" 
d="M186 0v1056h224v-446h131l266 446h225l-321 -517l-90 -93h-211v-446h-224zM794 0v271q0 96 -41.5 135.5t-135.5 39.5l66 160q159 0 247 -82t88 -245v-279h-224zM690 -434q-83 0 -141.5 24t-100.5 56l86 135q32 -18 62.5 -29.5t77.5 -11.5q55 0 87.5 33t32.5 111v118h224
v-97q0 -167 -88.5 -253t-239.5 -86z" />
    <glyph glyph-name="uni04C5" unicode="&#x4c5;" 
d="M1004 1380v-1380h-232v1193h-253l-38 -338q-22 -194 -45.5 -329t-53 -225.5t-67.5 -149.5t-88 -100.5t-115 -79.5l-96 162q40 32 73 69.5t61 107t53.5 195t49.5 332.5l64 543h687zM1184 201l-172 -516h-186l73 315h-41l-1 201h327z" />
    <glyph glyph-name="uni04C6" unicode="&#x4c6;" 
d="M968 1056v-1056h-224v882h-270l-18 -222q-12 -178 -32 -293.5t-54 -187.5t-87 -119t-131 -89l-94 143q37 25 66 55t51.5 84t39 149t28.5 248l31 406h694zM1140 188l-157 -503h-183l73 315h-75l-12 188h354z" />
    <glyph glyph-name="uni04C7" unicode="&#x4c7;" 
d="M725 -434q-83 0 -141.5 24t-101.5 56l87 141q32 -19 62.5 -31t77.5 -12q55 0 85.5 34t30.5 110v114h232v-97q0 -168 -89 -253.5t-243 -85.5zM825 0v627h-450v-627h-232v1380h232v-562h450v562h232v-1380h-232z" />
    <glyph glyph-name="uni04C8" unicode="&#x4c8;" 
d="M694 -434q-83 0 -141.5 24t-100.5 56l86 135q33 -18 63 -29.5t77 -11.5q56 0 88 33t32 111v118h224v-97q0 -167 -88.5 -253t-239.5 -86zM798 0v452h-396v-452h-224v1056h224v-430h396v430h224v-1056h-224z" />
    <glyph glyph-name="uni04C9" unicode="&#x4c9;" 
d="M759 0v626h-405v-626h-232v1380h232v-561h405v561h231v-1380h-231zM1170 201l-171 -516h-187l73 315h-41l-1 201h327z" />
    <glyph glyph-name="uni04CA" unicode="&#x4ca;" 
d="M752 0v452h-351v-452h-224v1056h224v-430h351v430h224v-1056h-224zM1146 188l-157 -503h-183l74 315h-75l-12 188h353z" />
    </font>
</defs>
</svg>
