<?xml version="1.0" standalone="no"?>
<!DOCTYPE svg PUBLIC "-//W3C//DTD SVG 20010904//EN"
 "http://www.w3.org/TR/2001/REC-SVG-20010904/DTD/svg10.dtd">
<svg version="1.0" xmlns="http://www.w3.org/2000/svg"
 width="700.000000pt" height="700.000000pt" viewBox="0 0 700.000000 700.000000"
 preserveAspectRatio="xMidYMid meet">
<metadata>
Created by potrace 1.14, written by Peter Selinger 2001-2017
</metadata>
<g transform="translate(0.000000,700.000000) scale(0.100000,-0.100000)"
fill="#000000" stroke="none">
<path d="M3280 6994 c-19 -2 -84 -9 -145 -14 -578 -56 -1180 -283 -1660 -625
-237 -169 -531 -446 -709 -670 -416 -521 -673 -1147 -748 -1820 -17 -155 -17
-575 0 -730 17 -151 54 -355 93 -510 267 -1059 1040 -1946 2061 -2365 295
-122 607 -200 963 -242 145 -17 576 -17 730 0 822 91 1556 447 2131 1034 203
206 348 390 487 618 274 449 433 916 499 1465 16 136 16 592 0 730 -86 725
-352 1347 -803 1885 -122 145 -351 370 -494 484 -510 407 -1117 661 -1775 742
-117 15 -553 27 -630 18z m720 -2830 c272 -614 498 -1117 501 -1119 3 -2 122
41 264 95 142 55 261 98 263 95 5 -5 -536 -1416 -547 -1428 -6 -6 -144 -21
-847 -90 -130 -13 -141 -12 -625 34 -271 26 -495 51 -496 55 -2 5 -127 329
-277 719 -150 391 -272 711 -271 713 2 2 117 -41 256 -94 140 -53 259 -99 265
-101 7 -2 216 457 509 1116 274 617 501 1121 504 1121 3 0 229 -503 501 -1116z
m-1683 249 c142 -181 271 -344 286 -364 l27 -36 -80 -169 c-44 -93 -101 -213
-128 -266 l-47 -97 -220 161 c-121 88 -229 166 -239 174 -19 13 -18 22 53 446
75 445 81 478 87 478 1 0 119 -147 261 -327z m2714 -151 c71 -424 72 -433 53
-446 -10 -8 -118 -87 -239 -174 l-220 -160 -47 96 c-137 278 -207 436 -200
446 5 6 134 170 287 365 249 317 280 352 286 330 4 -13 40 -219 80 -457z"/>
</g>
</svg>
